<svg viewBox="0 0 100 19" fill="none" xmlns="http://www.w3.org/2000/svg">
    <path fill-rule="evenodd" clip-rule="evenodd" d="M9.51056 15.5938L3.63271 18.684L4.75528 12.1389L0 7.50358L6.57163 6.54867L9.51056 0.59375L12.4495 6.54867L19.0212 7.50358L14.2659 12.1389L15.3885 18.684L9.51056 15.5938Z" fill="#FFC008"/>
    <path fill-rule="evenodd" clip-rule="evenodd" d="M29.5317 15.5938L23.6539 18.684L24.7764 12.1389L20.0212 7.50358L26.5928 6.54867L29.5317 0.59375L32.4706 6.54867L39.0423 7.50358L34.287 12.1389L35.4096 18.684L29.5317 15.5938Z" fill="#FFC008"/>
    <path fill-rule="evenodd" clip-rule="evenodd" d="M49.5529 15.5938L43.675 18.684L44.7976 12.1389L40.0423 7.50358L46.614 6.54867L49.5529 0.59375L52.4918 6.54867L59.0635 7.50358L54.3082 12.1389L55.4308 18.684L49.5529 15.5938Z" fill="#FFC008"/>
    <path fill-rule="evenodd" clip-rule="evenodd" d="M69.5741 15.5938L63.6962 18.684L64.8188 12.1389L60.0635 7.50358L66.6351 6.54867L69.5741 0.59375L72.513 6.54867L79.0847 7.50358L74.3294 12.1389L75.452 18.684L69.5741 15.5938Z" fill="#FFC008"/>
    <path fill-rule="evenodd" clip-rule="evenodd" d="M89.5952 15.5938L83.7174 18.684L84.8399 12.1389L80.0847 7.50358L86.6563 6.54867L89.5952 0.59375L92.5341 6.54867L99.1058 7.50358L94.3505 12.1389L95.4731 18.684L89.5952 15.5938Z" fill="#FFC008"/>
</svg>