<svg viewBox="0 0 231 37" fill="none" xmlns="http://www.w3.org/2000/svg">
    <path fill-rule="evenodd" clip-rule="evenodd" d="M19.0211 30.0486L7.26543 36.229L9.51057 23.1388L0 13.8682L13.1433 11.9584L19.0211 0.048584L24.8989 11.9584L38.0423 13.8682L28.5317 23.1388L30.7769 36.229L19.0211 30.0486Z" fill="#232F61"/>
    <path fill-rule="evenodd" clip-rule="evenodd" d="M67.0635 30.0486L55.3078 36.229L57.5529 23.1388L48.0423 13.8682L61.1856 11.9584L67.0635 0.048584L72.9413 11.9584L86.0847 13.8682L76.5741 23.1388L78.8193 36.229L67.0635 30.0486Z" fill="#232F61"/>
    <path fill-rule="evenodd" clip-rule="evenodd" d="M115.106 30.0486L103.35 36.229L105.595 23.1388L96.0847 13.8682L109.228 11.9584L115.106 0.048584L120.984 11.9584L134.127 13.8682L124.616 23.1388L126.862 36.229L115.106 30.0486Z" fill="#232F61"/>
    <path fill-rule="evenodd" clip-rule="evenodd" d="M163.148 30.0486L151.392 36.229L153.638 23.1388L144.127 13.8682L157.27 11.9584L163.148 0.048584L169.026 11.9584L182.169 13.8682L172.659 23.1388L174.904 36.229L163.148 30.0486Z" fill="#232F61"/>
    <path fill-rule="evenodd" clip-rule="evenodd" d="M211.19 30.0486L199.435 36.229L201.68 23.1388L192.169 13.8682L205.313 11.9584L211.19 0.048584L217.068 11.9584L230.212 13.8682L220.701 23.1388L222.946 36.229L211.19 30.0486Z" fill="#232F61"/>
</svg>