<svg viewBox="0 0 172 33" fill="none" xmlns="http://www.w3.org/2000/svg">
    <path d="M32.5 0.345367H0.5V32.3454H32.5V0.345367Z" fill="#232F61"/>
    <path d="M67.1667 0.345367H35.1667V32.3454H67.1667V0.345367Z" fill="#232F61"/>
    <path d="M101.833 0.345367H69.8333V32.3454H101.833V0.345367Z" fill="#232F61"/>
    <path d="M136.5 0.345367H104.5V32.3454H136.5V0.345367Z" fill="#232F61"/>
    <path d="M16.5 21.912L21.3667 20.6787L23.4 26.9454L16.5 21.912ZM27.7 13.812H19.1333L16.5 5.74537L13.8667 13.812H5.3L12.2333 18.812L9.6 26.8787L16.5333 21.8787L20.8 18.812L27.7 13.812Z" fill="white"/>
    <path d="M51.1667 21.912L56.0333 20.6787L58.0667 26.9454L51.1667 21.912ZM62.3667 13.812H53.8L51.1667 5.74537L48.5333 13.812H39.9667L46.9 18.812L44.2667 26.8787L51.2 21.8787L55.4667 18.812L62.3667 13.812Z" fill="white"/>
    <path d="M85.8333 21.912L90.7 20.6787L92.7333 26.9454L85.8333 21.912ZM97.0333 13.812H88.4667L85.8333 5.74537L83.2 13.812H74.6333L81.5667 18.812L78.9333 26.8787L85.8667 21.8787L90.1333 18.812L97.0333 13.812Z" fill="white"/>
    <path d="M120.5 21.912L125.367 20.6787L127.4 26.9454L120.5 21.912ZM131.7 13.812H123.133L120.5 5.74537L117.867 13.812H109.3L116.233 18.812L113.6 26.8787L120.533 21.8787L124.8 18.812L131.7 13.812Z" fill="white"/>
    <path d="M139.25 0.345337H155.25V32.3453H139.25V0.345337Z" fill="#232F61"/>
    <path d="M155.25 21.912L150.95 18.812L148.35 26.9453L155.25 21.912ZM144.05 13.812H152.617L155.25 5.74534V21.912L150.95 18.812L144.05 13.812Z" fill="white"/>
    <path d="M171.25 0.345337H155.25V32.3453H171.25V0.345337Z" fill="#F7F3EB"/>
    <path d="M155.25 21.912L160.117 20.6787L162.15 26.9453L155.25 21.912ZM166.45 13.812H157.883L155.25 5.74534V21.912L159.55 18.812L166.45 13.812Z" fill="#232F61"/>
</svg>