<svg viewBox="0 0 131 30" fill="none" xmlns="http://www.w3.org/2000/svg">
    <g clip-path="url(#clip0_30_1243)">
        <path d="M31.6402 11.8726H19.7491L16.0761 0.754333L12.3902 11.8735L0.5 11.8615L10.1301 18.7392L6.44602 29.8454L16.0761 22.9788L25.6952 29.8454L22.0222 18.7392L31.6402 11.8726Z" fill="#314187"/>
        <path d="M22.848 21.2546L22.0213 18.7401L16.0761 22.9788L22.848 21.2546Z" fill="#232F61"/>
        <path d="M34.6524 9.59396H47.818V12.0065H42.6419V25.5705H39.794V12.0065H34.6403V9.59308H34.6514L34.6524 9.59396ZM47.2559 14.0017H49.6897V16.2349H49.7352C49.816 15.9191 49.9646 15.6143 50.1829 15.3208C50.6498 14.6916 51.2814 14.2039 52.0083 13.9117C52.3774 13.7654 52.7705 13.6888 53.1676 13.6859C53.4648 13.6859 53.684 13.697 53.7993 13.7091C53.9136 13.7202 54.0277 13.7426 54.1541 13.7537V16.2117C53.9677 16.1791 53.7802 16.1527 53.5921 16.1326C53.4053 16.1106 53.2173 16.0994 53.0291 16.0993C52.5925 16.0993 52.1802 16.1893 51.79 16.3593C51.3999 16.5275 51.0663 16.7866 50.7802 17.1146C50.475 17.4812 50.2411 17.9018 50.091 18.3547C49.9192 18.8507 49.8384 19.4136 49.8384 20.0573V25.5593H47.2448V14.0017H47.2559ZM66.0805 25.5714H63.5325V23.9588H63.486C63.1646 24.5459 62.6946 25.0085 62.063 25.3578C61.4313 25.7071 60.7884 25.8873 60.1345 25.8873C58.5851 25.8873 57.4591 25.5157 56.7718 24.7596C56.0825 24.0044 55.7379 22.8655 55.7379 21.343V14.0026H58.3323V21.095C58.3323 22.1103 58.5275 22.832 58.9296 23.2491C59.3198 23.6662 59.8819 23.8808 60.5933 23.8808C61.1442 23.8808 61.5919 23.8018 61.9589 23.6319C62.3267 23.4628 62.6249 23.2491 62.8432 22.9667C63.0727 22.6964 63.2334 22.3583 63.3374 21.9747C63.4396 21.591 63.486 21.1739 63.486 20.7233V14.0138H66.0805V25.5714ZM70.4994 21.8623C70.5802 22.6053 70.8663 23.1256 71.3604 23.4293C71.8648 23.7229 72.4622 23.8808 73.1626 23.8808C73.4042 23.8808 73.679 23.8575 73.9894 23.8241C74.2987 23.7897 74.5968 23.7108 74.8616 23.6105C75.1365 23.5083 75.354 23.3504 75.5378 23.1478C75.7106 22.9435 75.7906 22.6853 75.7793 22.3583C75.7779 22.2065 75.7444 22.0568 75.6812 21.9189C75.6179 21.7809 75.5265 21.6577 75.4124 21.5576C75.1821 21.3439 74.896 21.186 74.5392 21.0504C74.1419 20.9127 73.7353 20.8035 73.3224 20.7233C72.8635 20.6333 72.4046 20.5311 71.9345 20.4299C71.4611 20.3274 70.9934 20.1993 70.5337 20.0462C70.1026 19.9081 69.6961 19.7028 69.3289 19.4378C68.9713 19.1881 68.6796 18.8553 68.479 18.4679C68.2616 18.0732 68.1575 17.5883 68.1575 17.0022C68.1575 16.3705 68.3183 15.8521 68.6285 15.423C68.9415 14.9974 69.3455 14.647 69.811 14.3975C70.3114 14.1329 70.8493 13.9466 71.406 13.8447C71.9912 13.7435 72.5542 13.6868 73.0818 13.6868C73.6903 13.6868 74.2755 13.7546 74.8272 13.8791C75.3614 13.9935 75.8706 14.2034 76.3302 14.4988C76.778 14.7811 77.1449 15.1527 77.444 15.6041C77.7421 16.0547 77.9261 16.6073 78.006 17.2502H75.2973C75.1709 16.6418 74.895 16.2247 74.4482 16.0212C74.0005 15.8075 73.484 15.7054 72.91 15.7054C72.726 15.7054 72.5077 15.7165 72.256 15.7508C72.0134 15.7831 71.7747 15.8398 71.5435 15.9199C71.3321 15.9978 71.1404 16.1207 70.9815 16.2804C70.9044 16.3637 70.8444 16.4613 70.8051 16.5678C70.7657 16.6742 70.7476 16.7875 70.752 16.9009C70.752 17.2167 70.8663 17.4647 71.0846 17.6561C71.3029 17.8475 71.59 18.0054 71.9458 18.141C72.3014 18.2655 72.7037 18.3779 73.1626 18.4679C73.6215 18.5581 74.0915 18.6594 74.5746 18.7615C75.0446 18.8628 75.5035 18.9984 75.9633 19.1442C76.4222 19.291 76.8235 19.4945 77.1801 19.7536C77.5359 20.0128 77.823 20.3286 78.0403 20.7122C78.2586 21.095 78.3739 21.5799 78.3739 22.1438C78.3739 22.8311 78.2132 23.4071 77.8908 23.8919C77.5703 24.3657 77.1569 24.7596 76.6516 25.0531C76.1226 25.3578 75.5495 25.5785 74.9526 25.7071C74.3455 25.8406 73.7257 25.9085 73.1041 25.9095C72.4079 25.9174 71.7136 25.834 71.0391 25.6615C70.4074 25.4925 69.8566 25.2445 69.3976 24.9184C68.9441 24.5888 68.5712 24.1607 68.3071 23.6662C68.0433 23.1702 67.9049 22.572 67.8827 21.8845H70.4994V21.8623ZM79.0621 14.0036H81.0249V10.5295H83.6195V14.0036H85.9603V15.9078H83.6204V22.0879C83.6204 22.3573 83.6315 22.584 83.6547 22.7865C83.6771 22.9789 83.7347 23.1478 83.8155 23.2826C83.9033 23.4241 84.0366 23.5316 84.1935 23.5873C84.3663 23.6551 84.5837 23.6894 84.8828 23.6894C85.0658 23.6894 85.2497 23.6894 85.4337 23.6773C85.6175 23.6662 85.8006 23.6439 85.9844 23.5984V25.5714C85.6974 25.6058 85.4105 25.6281 85.1466 25.6615C84.8685 25.6939 84.5887 25.709 84.3087 25.7071C83.6204 25.7071 83.0695 25.6393 82.6553 25.5157C82.2428 25.3912 81.9094 25.1999 81.6798 24.9519C81.4383 24.7039 81.2897 24.3992 81.1978 24.0266C81.1084 23.6078 81.0586 23.1813 81.0492 22.7531V15.9292H79.0864V14.0008H79.0631L79.0621 14.0036ZM87.7969 14.0036H90.2538V15.5698H90.3003C90.6662 14.8935 91.1716 14.4197 91.8255 14.1271C92.494 13.8299 93.2185 13.6797 93.95 13.6868C94.8789 13.6868 95.6824 13.8447 96.3716 14.1717C97.06 14.4875 97.6341 14.9279 98.0929 15.4908C98.5519 16.0547 98.8853 16.7086 99.1148 17.4536C99.3485 18.2286 99.4648 19.0342 99.4594 19.8437C99.4594 20.6212 99.3563 21.3765 99.1492 22.0992C98.9589 22.7962 98.6439 23.4531 98.2193 24.0378C97.8021 24.6015 97.26 25.0609 96.6355 25.3801C95.9927 25.7182 95.2468 25.8873 94.3745 25.8873C93.9933 25.8868 93.6127 25.8526 93.2376 25.7851C92.8632 25.7176 92.4977 25.6082 92.1478 25.459C91.8004 25.3141 91.4753 25.1201 91.1827 24.8831C90.8939 24.6527 90.6423 24.3792 90.4368 24.0722H90.3903V29.8453H87.7969V14.0017V14.0036ZM96.8649 19.7982C96.8655 19.284 96.7961 18.7721 96.6587 18.2766C96.5315 17.8071 96.3213 17.3642 96.0382 16.9687C95.7695 16.5924 95.4208 16.2802 95.0173 16.0547C94.5839 15.8204 94.098 15.7002 93.6053 15.7054C92.5149 15.7054 91.6881 16.0769 91.1373 16.822C90.5864 17.566 90.3105 18.559 90.3105 19.7982C90.3105 20.3844 90.3801 20.9259 90.5288 21.4219C90.6774 21.918 90.8845 22.3472 91.1827 22.7076C91.4707 23.0689 91.8144 23.3504 92.2166 23.5529C92.6179 23.7675 93.0888 23.8688 93.6165 23.8688C94.2138 23.8688 94.7071 23.7452 95.1204 23.5083C95.5207 23.278 95.8655 22.9625 96.1301 22.584C96.394 22.2003 96.5899 21.7712 96.7042 21.2873C96.8099 20.7979 96.8637 20.2989 96.8649 19.7982ZM101.445 9.59396H104.039V12.0073H101.445V9.59396ZM101.445 14.0026H104.039V25.5714H101.445V14.0026ZM106.358 9.59396H108.952V25.5714H106.358V9.59396ZM116.907 25.8873C115.965 25.8873 115.127 25.7293 114.393 25.4256C113.689 25.1371 113.053 24.7071 112.522 24.1623C112.006 23.6064 111.611 22.9499 111.362 22.2338C111.089 21.4434 110.952 20.6121 110.96 19.7759C110.96 18.8962 111.098 18.0853 111.362 17.3402C111.611 16.6246 112.006 15.9683 112.522 15.4128C113.026 14.8712 113.658 14.4541 114.393 14.1495C115.127 13.8447 115.965 13.6868 116.907 13.6868C117.847 13.6868 118.686 13.8447 119.42 14.1495C120.154 14.4541 120.774 14.8833 121.29 15.4128C121.807 15.968 122.202 16.6245 122.451 17.3402C122.714 18.0843 122.851 18.8962 122.851 19.7759C122.851 20.6676 122.714 21.4897 122.451 22.2338C122.202 22.95 121.807 23.6067 121.29 24.1623C120.785 24.7039 120.154 25.1209 119.42 25.4256C118.686 25.7293 117.847 25.8873 116.907 25.8873ZM116.907 23.8688C117.48 23.8688 117.985 23.7452 118.409 23.5083C118.823 23.278 119.18 22.958 119.454 22.572C119.729 22.1892 119.924 21.7489 120.063 21.2641C120.19 20.7792 120.258 20.2831 120.258 19.7759C120.258 19.2798 120.19 18.795 120.063 18.299C119.944 17.8284 119.738 17.3846 119.454 16.9909C119.18 16.6085 118.822 16.2927 118.409 16.0667C117.985 15.8299 117.48 15.7054 116.907 15.7054C116.332 15.7054 115.827 15.8299 115.402 16.0667C114.992 16.2962 114.636 16.6114 114.358 16.9909C114.079 17.3869 113.873 17.83 113.75 18.299C113.623 18.781 113.557 19.2773 113.554 19.7759C113.554 20.2831 113.624 20.7792 113.75 21.2641C113.876 21.7489 114.082 22.1892 114.358 22.572C114.634 22.9556 114.978 23.2715 115.402 23.5083C115.827 23.7563 116.332 23.8688 116.907 23.8688ZM123.61 14.0036H125.573V10.5295H128.167V14.0036H130.508V15.9078H128.167V22.0879C128.167 22.3573 128.178 22.584 128.2 22.7865C128.223 22.9789 128.281 23.1478 128.362 23.2826C128.449 23.4243 128.582 23.5317 128.74 23.5873C128.913 23.6551 129.131 23.6894 129.429 23.6894C129.612 23.6894 129.797 23.6894 129.98 23.6773C130.164 23.6662 130.347 23.6439 130.531 23.5984V25.5714C130.244 25.6058 129.957 25.6281 129.693 25.6615C129.415 25.6939 129.135 25.709 128.855 25.7071C128.167 25.7071 127.615 25.6393 127.202 25.5157C126.789 25.3912 126.456 25.1999 126.227 24.9519C125.985 24.7039 125.836 24.3992 125.744 24.0266C125.655 23.6077 125.605 23.1813 125.596 22.7531V15.9292H123.633V14.0008H123.61V14.0036Z" fill="#232F61"/>
    </g>
    <defs>
        <clipPath id="clip0_30_1243">
            <rect width="130" height="29" fill="white" transform="translate(0.5 0.845337)"/>
        </clipPath>
    </defs>
</svg>