<svg viewBox="0 0 18 17" fill="none" xmlns="http://www.w3.org/2000/svg">
    <path fill-rule="evenodd" clip-rule="evenodd" d="M1.37799 8.90722L1.38346 8.90242C-0.524045 6.81949 -0.459008 3.60706 1.57857 1.60115C3.61614 -0.404754 6.87931 -0.46878 8.99512 1.40908L9 1.40369L9.00488 1.40908C11.1207 -0.46878 14.3838 -0.404754 16.4214 1.60115C18.459 3.60706 18.524 6.81949 16.6166 8.90242L16.622 8.90722L9 16.4108L1.37799 8.90722Z" fill="#232F61"/>
    <path d="M12.0655 4.25171C12.3133 3.96301 12.7151 3.96301 12.963 4.25171C13.1978 4.52523 13.2101 4.95973 13 5.25019L12.963 5.29722L8.25172 10.7852L5.45972 7.53287C5.21187 7.24416 5.21187 6.77607 5.45972 6.48738C5.69452 6.21385 6.06752 6.19947 6.31688 6.44419L6.35725 6.48738L8.2515 8.69412L12.0655 4.25171Z" fill="white"/>
</svg>