<svg viewBox="0 0 38 27" fill="none" xmlns="http://www.w3.org/2000/svg">
    <path d="M33.5946 0.684082H4.40541C2.52465 0.684082 1 2.31377 1 4.32408V23.0441C1 25.0544 2.52465 26.6841 4.40541 26.6841H33.5946C35.4753 26.6841 37 25.0544 37 23.0441V4.32408C37 2.31377 35.4753 0.684082 33.5946 0.684082Z" fill="#1F72CD"/>
    <path d="M37 4.68408C37 3.02723 35.6569 1.68408 34 1.68408H4C2.34315 1.68408 1 3.02723 1 4.68408V22.6841C1 24.3409 2.34315 25.6841 4 25.6841H34C35.6569 25.6841 37 24.3409 37 22.6841V4.68408ZM38 22.6841C38 24.8932 36.2091 26.6841 34 26.6841H4C1.79086 26.6841 0 24.8932 0 22.6841V4.68408C0 2.47494 1.79086 0.684082 4 0.684082H34C36.2091 0.684082 38 2.47494 38 4.68408V22.6841Z" fill="#1F72CD"/>
    <path fill-rule="evenodd" clip-rule="evenodd" d="M7.25383 9.8924L3.80005 17.743H7.9347L8.44728 16.4913H9.61892L10.1315 17.743H14.6826V16.7877L15.0881 17.743H17.4423L17.8478 16.7675V17.743H27.3129L28.4638 16.5238L29.5414 17.743L34.4029 17.7531L30.9382 13.8396L34.4029 9.8924H29.6168L28.4965 11.0891L27.4528 9.8924H17.156L16.2719 11.9187L15.3669 9.8924H11.2409V10.8152L10.7819 9.8924H7.25383ZM21.3879 11.0074H26.8232L28.4856 12.8519L30.2016 11.0074H31.864L29.3381 13.8388L31.864 16.6375H30.1262L28.4638 14.7716L26.739 16.6375H21.3879V11.0074ZM22.7301 13.2027V12.1733H26.1215L27.6013 13.8179L26.0559 15.4715H22.7301V14.3489H25.6952V13.2027H22.7301ZM8.05422 11.0074H10.0696L12.3605 16.331V11.0074H14.5684L16.3378 14.8244L17.9686 11.0074H20.1653V16.6408H18.8286L18.8177 12.2265L16.869 16.6408H15.6732L13.7135 12.2265V16.6408H10.9637L10.4423 15.3779H7.6258L7.10555 16.6397H5.63219L8.05422 11.0074ZM8.10686 14.2115L9.03479 11.9617L9.96165 14.2115H8.10686Z" fill="white"/>
</svg>