<svg viewBox="0 0 37 26" fill="none" xmlns="http://www.w3.org/2000/svg">
    <path d="M34 0.017334H2.33333C1.04467 0.017334 0 1.062 0 2.35066V23.0173C0 24.306 1.04467 25.3506 2.33333 25.3506H34C35.2886 25.3506 36.3333 24.306 36.3333 23.0173V2.35066C36.3333 1.062 35.2886 0.017334 34 0.017334Z" fill="black"/>
    <path d="M9.61018 8.82106C9.85567 8.50836 10.0296 8.08244 10.0296 7.65113C10.0296 7.59182 10.0245 7.53251 10.0143 7.48399C9.6153 7.50017 9.1345 7.76434 8.84806 8.12018C8.62301 8.38975 8.4133 8.82106 8.4133 9.25237C8.4133 9.31707 8.42352 9.38176 8.42864 9.40333C8.45421 9.40872 8.49513 9.41411 8.53605 9.41411C8.8941 9.41411 9.34421 9.16072 9.61018 8.82106ZM9.89147 9.50577C9.29306 9.50577 8.80714 9.88857 8.49513 9.88857C8.16266 9.88857 7.7279 9.52737 7.20618 9.52737C6.219 9.52737 5.21647 10.39 5.21647 12.0128C5.21647 13.0264 5.58475 14.0939 6.04509 14.784C6.43894 15.3662 6.78164 15.8461 7.27778 15.8461C7.76882 15.8461 7.98364 15.501 8.59232 15.501C9.21122 15.501 9.34932 15.8353 9.89147 15.8353C10.4286 15.8353 10.7866 15.3177 11.1242 14.8055C11.5027 14.2179 11.6613 13.6464 11.6664 13.6194C11.6357 13.6086 10.6076 13.1666 10.6076 11.9265C10.6076 10.8536 11.4158 10.3738 11.4618 10.3361C10.9299 9.52736 10.1166 9.50577 9.89147 9.50577Z" fill="white"/>
    <path d="M14.3411 8.00696V15.7868H15.2618V13.0102H16.965C18.3512 13.0102 19.3384 11.9804 19.3384 10.5032C19.3384 9.03132 18.3614 8.00696 16.9753 8.00696H14.3411ZM15.2618 8.86958H16.7349C17.7937 8.86958 18.3921 9.47342 18.3921 10.5032C18.3921 11.5384 17.7886 12.1476 16.7349 12.1476H15.2618V8.86958Z" fill="white"/>
    <path d="M21.7727 15.8838C22.4887 15.8838 23.1639 15.4633 23.481 14.8217H23.5015V15.7868H24.3455V11.9104C24.3455 10.7943 23.5578 10.0827 22.3097 10.0827C21.0515 10.0827 20.2638 10.8267 20.2024 11.7971H21.0617C21.1742 11.2472 21.6039 10.9076 22.2893 10.9076C23.0258 10.9076 23.4555 11.3173 23.4555 12.002V12.4711L21.9312 12.5627C20.7036 12.6382 20.0029 13.242 20.0029 14.2017C20.0029 15.2099 20.7139 15.8838 21.7727 15.8838ZM21.9721 15.0859C21.3328 15.0859 20.9082 14.7354 20.9082 14.2017C20.9082 13.6733 21.3174 13.3391 22.0335 13.2906L23.4555 13.1989V13.6572C23.4555 14.4659 22.811 15.0859 21.9721 15.0859Z" fill="white"/>
    <path d="M26.3399 17.884C27.3015 17.884 27.7414 17.4905 28.1966 16.1803L30.2886 10.1797H29.3526L27.8795 14.8487H27.8641L26.391 10.1797H25.4396L27.4038 15.7922L27.281 16.1857C27.0764 16.8381 26.8002 17.0915 26.3041 17.0915C26.1915 17.0915 26.0534 17.0861 25.9562 17.0645V17.8517C26.0534 17.8732 26.2325 17.884 26.3399 17.884Z" fill="white"/>
</svg>