<svg viewBox="0 0 37 26" fill="none" xmlns="http://www.w3.org/2000/svg">
    <path d="M33.5 0.184082H3.5C1.567 0.184082 0 1.75109 0 3.68408V21.6841C0 23.6171 1.567 25.1841 3.5 25.1841H33.5C35.433 25.1841 37 23.6171 37 21.6841V3.68408C37 1.75109 35.433 0.184082 33.5 0.184082Z" fill="#F7F3EB"/>
    <path d="M15.7856 24.6007L36.4142 18.3715V21.6007C36.4142 23.2576 35.0711 24.6007 33.4142 24.6007H15.7856Z" fill="#FD6020"/>
    <path fill-rule="evenodd" clip-rule="evenodd" d="M32.4987 9.55465C33.6336 9.55465 34.2578 10.0785 34.2578 11.0679C34.3146 11.8246 33.8039 12.4648 33.1229 12.5813L34.655 14.7348H33.4634L32.1583 12.6395H32.0448V14.7348H31.0801V9.55465H32.4987ZM32.0448 11.9408H32.3286C32.9528 11.9408 33.2365 11.6497 33.2365 11.1259C33.2365 10.6603 32.9528 10.3693 32.3286 10.3693H32.0448V11.9408ZM27.7327 14.7348H30.4565V13.8618H28.6974V12.4648H30.3997V11.5918H28.6974V10.4277H30.4565V9.55465H27.7327V14.7348ZM24.8947 13.0469L23.5896 9.55465H22.5682L24.6677 14.8512H25.1784L27.278 9.55465H26.2566L24.8947 13.0469ZM13.3756 12.173C13.3756 13.6281 14.5105 14.8504 15.9291 14.8504C16.3831 14.8504 16.7803 14.734 17.1775 14.5594V13.3953C16.8938 13.7446 16.4966 13.9774 16.0426 13.9774C15.1347 13.9774 14.397 13.2789 14.397 12.3477V12.2312C14.3403 11.3 15.078 10.4851 15.9859 10.4269C16.4398 10.4269 16.8938 10.6597 17.1775 11.009V9.84495C16.8371 9.61215 16.3831 9.55395 15.9859 9.55395C14.5105 9.4375 13.3756 10.6597 13.3756 12.173ZM11.6163 11.5331C11.0488 11.3002 10.8786 11.1838 10.8786 10.8928C10.9353 10.5436 11.2191 10.2526 11.5595 10.3108C11.8433 10.3108 12.127 10.4854 12.354 10.7182L12.8647 10.0198C12.4675 9.67055 11.9568 9.43776 11.4461 9.43776C10.6516 9.37956 9.9707 10.0198 9.9139 10.8346V10.8928C9.9139 11.5913 10.1977 11.9987 11.1056 12.2897C11.3326 12.3479 11.5595 12.4643 11.7865 12.5807C11.9568 12.6971 12.0702 12.8718 12.0702 13.1046C12.0702 13.512 11.7298 13.8612 11.3893 13.8612H11.3326C10.8786 13.8612 10.4814 13.5702 10.3112 13.1628L9.687 13.803C10.0274 14.4433 10.7084 14.7925 11.3893 14.7925C12.2972 14.8507 13.0349 14.1523 13.0916 13.221V13.0464C13.0349 12.3479 12.7512 11.9987 11.6163 11.5331ZM8.32559 14.7348H9.29024V9.55465H8.32559V14.7348ZM3.84277 9.55465H5.54511C6.90698 9.61285 7.98513 10.7769 7.92838 12.1738C7.92838 12.9305 7.58791 13.6289 7.02047 14.1528C6.50977 14.5602 5.88558 14.793 5.26139 14.7348H3.84277V9.55465ZM5.09134 13.861C5.5453 13.9192 6.056 13.7446 6.39646 13.4536C6.73693 13.1044 6.90717 12.6387 6.90717 12.1149C6.90717 11.6492 6.73693 11.1836 6.39646 10.8344C6.056 10.5434 5.5453 10.3688 5.09134 10.427H4.80762V13.861H5.09134Z" fill="black"/>
    <path fill-rule="evenodd" clip-rule="evenodd" d="M20.0722 9.43408C18.6535 9.43408 17.4619 10.5981 17.4619 12.1114C17.4619 13.5665 18.5968 14.7888 20.0722 14.847C21.5475 14.9052 22.6824 13.6829 22.7392 12.1696C22.6824 10.6563 21.5475 9.43408 20.0722 9.43408Z" fill="#FD6020"/>
</svg>