<svg viewBox="0 0 36 26" fill="none" xmlns="http://www.w3.org/2000/svg">
    <path d="M32.5 0.184082H3.5C1.567 0.184082 0 1.75109 0 3.68408V21.6841C0 23.6171 1.567 25.1841 3.5 25.1841H32.5C34.433 25.1841 36 23.6171 36 21.6841V3.68408C36 1.75109 34.433 0.184082 32.5 0.184082Z" fill="#F7F3EB"/>
    <path d="M17.5128 15.834H16.5117V7.84995H19.1655C19.8381 7.84995 20.4116 8.07975 20.8809 8.53934C21.3606 8.99894 21.6004 9.56005 21.6004 10.2227C21.6004 10.9014 21.3606 11.4625 20.8809 11.9168C20.4169 12.371 19.8433 12.5955 19.1655 12.5955H17.5128V15.834ZM17.5128 8.83327V11.6175H19.1864C19.5827 11.6175 19.9163 11.4786 20.177 11.206C20.4429 10.9335 20.5785 10.6021 20.5785 10.228C20.5785 9.85935 20.4429 9.53335 20.177 9.2608C19.9163 8.97756 19.5879 8.83861 19.1864 8.83861H17.5128V8.83327Z" fill="#3C4043"/>
    <path d="M24.2179 10.1906C24.9583 10.1906 25.5422 10.3937 25.9698 10.7999C26.3973 11.206 26.6111 11.7618 26.6111 12.4672V15.834H25.6569V15.0752H25.6152C25.2033 15.7004 24.6507 16.0104 23.9625 16.0104C23.3733 16.0104 22.8832 15.834 22.487 15.476C22.0907 15.1179 21.8926 14.6744 21.8926 14.1399C21.8926 13.5735 22.1011 13.1246 22.5182 12.7932C22.9353 12.4565 23.4932 12.2909 24.1867 12.2909C24.781 12.2909 25.2711 12.4031 25.6517 12.6276V12.3924C25.6517 12.0344 25.5162 11.7351 25.2398 11.4839C24.9635 11.2327 24.6403 11.1098 24.2701 11.1098C23.7122 11.1098 23.269 11.3503 22.9458 11.8366L22.0646 11.2701C22.5495 10.5487 23.269 10.1906 24.2179 10.1906ZM22.9249 14.156C22.9249 14.4232 23.0344 14.6476 23.2586 14.824C23.4776 15.0003 23.7383 15.0912 24.0355 15.0912C24.4578 15.0912 24.8332 14.9309 25.1616 14.6102C25.4901 14.2896 25.6569 13.9155 25.6569 13.4826C25.3441 13.2314 24.9114 13.1032 24.3535 13.1032C23.9468 13.1032 23.6079 13.2047 23.3368 13.4025C23.0605 13.6109 22.9249 13.862 22.9249 14.156Z" fill="#3C4043"/>
    <path d="M32.0541 10.367L28.7173 18.2336H27.6849L28.9258 15.4813L26.7256 10.367H27.8153L29.4003 14.2896H29.4211L30.9644 10.367H32.0541Z" fill="#3C4043"/>
    <path d="M13.531 11.9489C13.531 11.6143 13.5018 11.2942 13.4475 10.9864H9.25146V12.7499L11.6681 12.7505C11.57 13.3373 11.2546 13.8375 10.7713 14.1709V15.3151H12.2098C13.0497 14.5183 13.531 13.3405 13.531 11.9489Z" fill="#4285F4"/>
    <path d="M10.7713 14.1709C10.3709 14.4478 9.8557 14.6097 9.25243 14.6097C8.08715 14.6097 7.09861 13.8049 6.74459 12.72H5.26074V13.9C5.99589 15.3953 7.50685 16.4214 9.25243 16.4214C10.4589 16.4214 11.4721 16.0152 12.2098 15.3151L10.7713 14.1709Z" fill="#34A853"/>
    <path d="M6.60474 11.8446C6.60474 11.54 6.65427 11.2456 6.74447 10.9687V9.78875H5.26062C4.95666 10.4071 4.78564 11.105 4.78564 11.8446C4.78564 12.5843 4.9573 13.2817 5.26074 13.9L6.74459 12.72C6.65439 12.4432 6.60474 12.1492 6.60474 11.8446Z" fill="#FABB05"/>
    <path d="M9.25243 9.07909C9.9109 9.07909 10.5006 9.31156 10.9662 9.76585L12.241 8.46024C11.4667 7.72115 10.4573 7.26743 9.25243 7.26743C7.50737 7.26743 5.99577 8.2935 5.26062 9.78875L6.74447 10.9687C7.09849 9.88395 8.08715 9.07909 9.25243 9.07909Z" fill="#E94235"/>
</svg>