<svg viewBox="0 0 37 26" fill="none" xmlns="http://www.w3.org/2000/svg">
    <path d="M33.5 0.184082H3.5C1.567 0.184082 0 1.75109 0 3.68408V21.6841C0 23.6171 1.567 25.1841 3.5 25.1841H33.5C35.433 25.1841 37 23.6171 37 21.6841V3.68408C37 1.75109 35.433 0.184082 33.5 0.184082Z" fill="#F7F3EB"/>
    <path fill-rule="evenodd" clip-rule="evenodd" d="M18.7714 18.2707C17.4777 19.3847 15.7996 20.0572 13.9658 20.0572C9.8741 20.0572 6.55713 16.709 6.55713 12.5789C6.55713 8.44886 9.8741 5.10074 13.9658 5.10074C15.7996 5.10074 17.4777 5.77322 18.7714 6.88719C20.0651 5.77322 21.7433 5.10074 23.577 5.10074C27.6687 5.10074 30.9857 8.44886 30.9857 12.5789C30.9857 16.709 27.6687 20.0572 23.577 20.0572C21.7433 20.0572 20.0651 19.3847 18.7714 18.2707Z" fill="#ED0006"/>
    <path fill-rule="evenodd" clip-rule="evenodd" d="M18.7714 18.2707C20.3643 16.8991 21.3745 14.8581 21.3745 12.5789C21.3745 10.2998 20.3643 8.25884 18.7714 6.88719C20.0651 5.77322 21.7433 5.10074 23.577 5.10074C27.6687 5.10074 30.9857 8.44886 30.9857 12.5789C30.9857 16.709 27.6687 20.0572 23.577 20.0572C21.7433 20.0572 20.0651 19.3847 18.7714 18.2707Z" fill="#F9A000"/>
    <path fill-rule="evenodd" clip-rule="evenodd" d="M18.7714 18.2707C20.3643 16.8991 21.3745 14.8581 21.3745 12.5789C21.3745 10.2998 20.3643 8.25884 18.7714 6.88719C17.1784 8.25884 16.1685 10.2998 16.1685 12.5789C16.1685 14.8581 17.1784 16.899 18.7714 18.2707Z" fill="#FF5E00"/>
</svg>