<svg viewBox="0 0 36 26" fill="none" xmlns="http://www.w3.org/2000/svg">
    <path d="M32.5 0.184082H3.5C1.567 0.184082 0 1.75109 0 3.68408V21.6841C0 23.6171 1.567 25.1841 3.5 25.1841H32.5C34.433 25.1841 36 23.6171 36 21.6841V3.68408C36 1.75109 34.433 0.184082 32.5 0.184082Z" fill="#F7F3EB"/>
    <path fill-rule="evenodd" clip-rule="evenodd" d="M15.1729 19.6686L15.4097 18.0988L14.8823 18.0859H12.3643L14.1142 6.5012C14.1197 6.46612 14.1373 6.43355 14.163 6.41039C14.1889 6.38722 14.2219 6.37451 14.2564 6.37451H18.5022C19.9119 6.37451 20.8846 6.6807 21.3924 7.28514C21.6305 7.56869 21.7822 7.86509 21.8556 8.19113C21.9326 8.53333 21.9338 8.94211 21.8588 9.44078L21.8533 9.47705V9.79665L22.0914 9.93745C22.2919 10.0485 22.4513 10.1756 22.5735 10.321C22.7771 10.5636 22.9089 10.8717 22.9645 11.237C23.0221 11.6126 23.0031 12.0598 22.9089 12.566C22.8002 13.1482 22.6246 13.6554 22.3874 14.0702C22.1693 14.4525 21.8914 14.7697 21.5613 15.0154C21.2462 15.2489 20.872 15.4262 20.4487 15.5396C20.0386 15.6511 19.571 15.7073 19.0581 15.7073H18.7277C18.4914 15.7073 18.262 15.7962 18.0818 15.9554C17.9011 16.118 17.7817 16.3401 17.745 16.583L17.7201 16.7244L17.3018 19.4915L17.2829 19.593C17.2778 19.6252 17.2692 19.6412 17.2565 19.6521C17.2452 19.662 17.229 19.6686 17.2131 19.6686H15.1729Z" fill="#28356A"/>
    <path fill-rule="evenodd" clip-rule="evenodd" d="M22.3176 9.51445C22.305 9.59905 22.2905 9.68555 22.2742 9.77435C21.7143 12.7758 19.7986 13.8127 17.3521 13.8127H16.1063C15.8071 13.8127 15.5549 14.0395 15.5084 14.3477L14.69 19.7679C14.6596 19.9703 14.809 20.1526 15.0045 20.1526H17.214C17.4756 20.1526 17.6978 19.9541 17.739 19.6847L17.7607 19.5676L18.1767 16.8114L18.2035 16.6602C18.2442 16.3899 18.4669 16.1913 18.7285 16.1913H19.0589C21.1996 16.1913 22.8754 15.284 23.3651 12.6581C23.5697 11.5613 23.4638 10.6453 22.9224 10.0012C22.7586 9.80705 22.5553 9.64585 22.3176 9.51445Z" fill="#298FC2"/>
    <path fill-rule="evenodd" clip-rule="evenodd" d="M21.7314 9.2715C21.6458 9.24542 21.5575 9.22186 21.467 9.20054C21.376 9.17976 21.2828 9.16136 21.1868 9.14521C20.8509 9.08855 20.4829 9.06168 20.0887 9.06168H16.7608C16.6787 9.06168 16.6009 9.08101 16.5313 9.11595C16.3777 9.193 16.2637 9.3447 16.2361 9.53045L15.5281 14.212L15.5078 14.3485C15.5543 14.0403 15.8065 13.8136 16.1058 13.8136H17.3515C19.7981 13.8136 21.7142 12.7753 22.2742 9.77435C22.2909 9.68555 22.3045 9.59995 22.317 9.51535C22.1754 9.43684 22.022 9.36972 21.8568 9.31253C21.8159 9.29837 21.7738 9.28473 21.7314 9.2715Z" fill="#22284F"/>
    <path fill-rule="evenodd" clip-rule="evenodd" d="M16.2361 9.53045C16.2637 9.3447 16.3777 9.193 16.5313 9.11595C16.6009 9.08101 16.6787 9.06168 16.7608 9.06168H20.0887C20.4829 9.06168 20.8509 9.08855 21.1868 9.14521C21.2828 9.16136 21.376 9.17976 21.467 9.20054C21.5575 9.22186 21.6458 9.24542 21.7314 9.2715C21.7738 9.28473 21.8159 9.29837 21.8568 9.31253C22.022 9.36972 22.1754 9.43684 22.317 9.51535C22.4836 8.40614 22.3161 7.65112 21.7418 6.96726C21.1084 6.2143 19.9655 5.89209 18.503 5.89209H14.257C13.9583 5.89209 13.7034 6.11885 13.6573 6.42756L11.8888 18.1314C11.8539 18.3629 12.025 18.5718 12.2486 18.5718H14.8699L16.2361 9.53045Z" fill="#28356A"/>
</svg>