<svg viewBox="0 0 128 20" fill="none" xmlns="http://www.w3.org/2000/svg">
    <path d="M14 4.36768L8 2.20654L2 4.36768V8.72217L2.00684 9.09326C2.07769 10.9356 2.68055 12.6286 3.85645 14.2153L4.08301 14.5093C5.16962 15.8682 6.46698 16.7481 8 17.2104C9.64082 16.7156 11.012 15.7422 12.1436 14.2153L12.3711 13.897C13.471 12.2957 14 10.5849 14 8.72217V4.36768ZM16 8.72217C16 11.002 15.3407 13.1026 14.0225 15.0239L13.75 15.4058C12.3071 17.3528 10.4773 18.6252 8.25781 19.2173L8 19.2856L7.74219 19.2173C5.66143 18.6622 3.92344 17.5093 2.52539 15.7632L2.25 15.4058C0.843927 13.5084 0.0967475 11.432 0.00878906 9.17627L0 8.72217V2.9624L8 0.0825195L16 2.9624V8.72217Z" fill="#10162D" fill-opacity="0.9"/>
    <path d="M10.0339 6.84406C10.4267 6.52358 11.0056 6.54641 11.3718 6.91242C11.7378 7.27844 11.7613 7.85755 11.4412 8.25031L11.3718 8.32648L7.70581 11.9935C7.3154 12.3839 6.6823 12.3836 6.29175 11.9935L4.62476 10.3265L4.5564 10.2503C4.23605 9.85754 4.25865 9.27854 4.62476 8.91242C4.99087 8.54631 5.56987 8.52371 5.96265 8.84406L6.03882 8.91242L6.99781 9.8714L9.95777 6.91242L10.0339 6.84406Z" fill="#10162D" fill-opacity="0.9"/>
    <path d="M26.199 13.8271C25.835 13.8271 25.4623 13.7967 25.081 13.7361C24.7083 13.6841 24.3487 13.6061 24.002 13.5021C23.664 13.3981 23.3607 13.2681 23.092 13.1121C22.9013 13.0081 22.767 12.8737 22.689 12.7091C22.611 12.5357 22.5807 12.3624 22.598 12.1891C22.624 12.0157 22.689 11.8641 22.793 11.7341C22.9057 11.5954 23.0443 11.5087 23.209 11.4741C23.3823 11.4307 23.573 11.4611 23.781 11.5651C24.1363 11.7644 24.522 11.9117 24.938 12.0071C25.3627 12.1024 25.783 12.1501 26.199 12.1501C26.8317 12.1501 27.2823 12.0547 27.551 11.8641C27.8197 11.6647 27.954 11.4177 27.954 11.1231C27.954 10.8717 27.8587 10.6724 27.668 10.5251C27.4773 10.3777 27.1437 10.2521 26.667 10.1481L25.198 9.83608C24.366 9.66275 23.7463 9.36808 23.339 8.95208C22.9403 8.52742 22.741 7.97275 22.741 7.28808C22.741 6.85475 22.832 6.46041 23.014 6.10508C23.196 5.74975 23.4517 5.44208 23.781 5.18208C24.1103 4.92208 24.5003 4.72275 24.951 4.58408C25.4103 4.44541 25.913 4.37608 26.459 4.37608C26.9443 4.37608 27.421 4.43675 27.889 4.55808C28.357 4.67075 28.7687 4.83975 29.124 5.06508C29.2973 5.16908 29.4143 5.30342 29.475 5.46808C29.5443 5.62408 29.566 5.78442 29.54 5.94908C29.5227 6.10508 29.4577 6.24375 29.345 6.36508C29.241 6.48642 29.1067 6.56442 28.942 6.59908C28.7773 6.63375 28.578 6.59475 28.344 6.48208C28.058 6.33475 27.7547 6.22641 27.434 6.15708C27.1133 6.08775 26.784 6.05308 26.446 6.05308C26.082 6.05308 25.77 6.10075 25.51 6.19608C25.2587 6.29142 25.0637 6.42575 24.925 6.59908C24.795 6.77241 24.73 6.97175 24.73 7.19708C24.73 7.44842 24.821 7.65208 25.003 7.80808C25.185 7.96408 25.5013 8.08975 25.952 8.18508L27.421 8.49708C28.2703 8.67908 28.903 8.97375 29.319 9.38108C29.735 9.77975 29.943 10.3084 29.943 10.9671C29.943 11.4004 29.8563 11.7947 29.683 12.1501C29.5097 12.4967 29.2583 12.7957 28.929 13.0471C28.5997 13.2984 28.2053 13.4934 27.746 13.6321C27.2867 13.7621 26.771 13.8271 26.199 13.8271ZM34.3971 13.8271C33.6431 13.8271 32.9931 13.6927 32.4471 13.4241C31.9098 13.1467 31.4938 12.7611 31.1991 12.2671C30.9131 11.7644 30.7701 11.1751 30.7701 10.4991C30.7701 9.84042 30.9088 9.26408 31.1861 8.77008C31.4635 8.26742 31.8491 7.87742 32.3431 7.60008C32.8458 7.31408 33.4135 7.17108 34.0461 7.17108C34.5055 7.17108 34.9215 7.24908 35.2941 7.40508C35.6668 7.55242 35.9875 7.76908 36.2561 8.05508C36.5248 8.33242 36.7285 8.67475 36.8671 9.08208C37.0058 9.48075 37.0751 9.92708 37.0751 10.4211C37.0751 10.5857 37.0231 10.7114 36.9191 10.7981C36.8151 10.8761 36.6635 10.9151 36.4641 10.9151H32.3821V9.90108H35.6581L35.4501 10.0831C35.4501 9.72775 35.3981 9.43308 35.2941 9.19908C35.1901 8.95642 35.0385 8.77442 34.8391 8.65308C34.6485 8.53175 34.4101 8.47108 34.1241 8.47108C33.8035 8.47108 33.5305 8.54475 33.3051 8.69208C33.0798 8.83942 32.9065 9.05175 32.7851 9.32908C32.6638 9.60642 32.6031 9.94008 32.6031 10.3301V10.4341C32.6031 11.0927 32.7548 11.5781 33.0581 11.8901C33.3701 12.2021 33.8295 12.3581 34.4361 12.3581C34.6441 12.3581 34.8825 12.3321 35.1511 12.2801C35.4198 12.2281 35.6711 12.1457 35.9051 12.0331C36.1045 11.9377 36.2821 11.9074 36.4381 11.9421C36.5941 11.9681 36.7155 12.0374 36.8021 12.1501C36.8888 12.2627 36.9365 12.3927 36.9451 12.5401C36.9625 12.6874 36.9321 12.8347 36.8541 12.9821C36.7761 13.1207 36.6461 13.2377 36.4641 13.3331C36.1695 13.4977 35.8358 13.6191 35.4631 13.6971C35.0991 13.7837 34.7438 13.8271 34.3971 13.8271ZM41.3239 13.8271C40.6306 13.8271 40.0239 13.6927 39.5039 13.4241C38.9926 13.1467 38.5982 12.7567 38.3209 12.2541C38.0436 11.7514 37.9049 11.1577 37.9049 10.4731C37.9049 9.96175 37.9829 9.50242 38.1389 9.09508C38.2949 8.68775 38.5202 8.34108 38.8149 8.05508C39.1182 7.76908 39.4822 7.55242 39.9069 7.40508C40.3316 7.24908 40.8039 7.17108 41.3239 7.17108C41.5926 7.17108 41.8786 7.20575 42.1819 7.27508C42.4852 7.33575 42.7842 7.44408 43.0789 7.60008C43.2522 7.67808 43.3692 7.79075 43.4299 7.93808C43.4992 8.07675 43.5252 8.22408 43.5079 8.38008C43.4906 8.52741 43.4342 8.66175 43.3389 8.78308C43.2522 8.89575 43.1396 8.97375 43.0009 9.01708C42.8622 9.05175 42.7062 9.02575 42.5329 8.93908C42.3682 8.84375 42.1949 8.77442 42.0129 8.73108C41.8396 8.68775 41.6749 8.66608 41.5189 8.66608C41.2589 8.66608 41.0292 8.70942 40.8299 8.79608C40.6306 8.87408 40.4616 8.99108 40.3229 9.14708C40.1929 9.29442 40.0889 9.48075 40.0109 9.70608C39.9416 9.93142 39.9069 10.1914 39.9069 10.4861C39.9069 11.0581 40.0456 11.5087 40.3229 11.8381C40.6089 12.1587 41.0076 12.3191 41.5189 12.3191C41.6749 12.3191 41.8396 12.3017 42.0129 12.2671C42.1862 12.2237 42.3596 12.1544 42.5329 12.0591C42.7062 11.9724 42.8622 11.9507 43.0009 11.9941C43.1396 12.0374 43.2479 12.1197 43.3259 12.2411C43.4126 12.3537 43.4602 12.4881 43.4689 12.6441C43.4862 12.7914 43.4602 12.9387 43.3909 13.0861C43.3302 13.2247 43.2176 13.3331 43.0529 13.4111C42.7582 13.5584 42.4636 13.6624 42.1689 13.7231C41.8742 13.7924 41.5926 13.8271 41.3239 13.8271ZM46.7779 13.8271C46.2406 13.8271 45.7942 13.7274 45.4389 13.5281C45.0836 13.3287 44.8192 13.0297 44.6459 12.6311C44.4812 12.2237 44.3989 11.7211 44.3989 11.1231V8.18508C44.3989 7.85575 44.4812 7.60875 44.6459 7.44408C44.8192 7.27942 45.0619 7.19708 45.3739 7.19708C45.6859 7.19708 45.9286 7.27942 46.1019 7.44408C46.2752 7.60875 46.3619 7.85575 46.3619 8.18508V11.1751C46.3619 11.5564 46.4399 11.8424 46.5959 12.0331C46.7519 12.2151 46.9989 12.3061 47.3369 12.3061C47.7096 12.3061 48.0129 12.1761 48.2469 11.9161C48.4896 11.6474 48.6109 11.2964 48.6109 10.8631V8.18508C48.6109 7.85575 48.6932 7.60875 48.8579 7.44408C49.0312 7.27942 49.2739 7.19708 49.5859 7.19708C49.9066 7.19708 50.1492 7.27942 50.3139 7.44408C50.4872 7.60875 50.5739 7.85575 50.5739 8.18508V12.8001C50.5739 13.4674 50.2576 13.8011 49.6249 13.8011C49.3129 13.8011 49.0746 13.7144 48.9099 13.5411C48.7452 13.3677 48.6629 13.1207 48.6629 12.8001V11.9291L48.8579 12.4361C48.6672 12.8781 48.3942 13.2204 48.0389 13.4631C47.6836 13.7057 47.2632 13.8271 46.7779 13.8271ZM53.1069 13.8011C52.7775 13.8011 52.5262 13.7144 52.3529 13.5411C52.1795 13.3677 52.0929 13.1207 52.0929 12.8001V8.18508C52.0929 7.86442 52.1752 7.62175 52.3399 7.45708C52.5132 7.28375 52.7515 7.19708 53.0549 7.19708C53.3669 7.19708 53.6052 7.28375 53.7699 7.45708C53.9345 7.62175 54.0169 7.86442 54.0169 8.18508V8.86108H53.8869C53.9909 8.34108 54.2205 7.93808 54.5759 7.65208C54.9312 7.36608 55.3905 7.20575 55.9539 7.17108C56.1705 7.15375 56.3352 7.21008 56.4479 7.34008C56.5692 7.46141 56.6342 7.66508 56.6429 7.95108C56.6602 8.21975 56.6039 8.43208 56.4739 8.58808C56.3525 8.74408 56.1445 8.83942 55.8499 8.87408L55.5509 8.90008C55.0569 8.94342 54.6885 9.08642 54.4459 9.32908C54.2119 9.57175 54.0949 9.92275 54.0949 10.3821V12.8001C54.0949 13.1207 54.0082 13.3677 53.8349 13.5411C53.6702 13.7144 53.4275 13.8011 53.1069 13.8011ZM60.651 13.8271C59.897 13.8271 59.247 13.6927 58.701 13.4241C58.1637 13.1467 57.7477 12.7611 57.453 12.2671C57.167 11.7644 57.024 11.1751 57.024 10.4991C57.024 9.84042 57.1627 9.26408 57.44 8.77008C57.7174 8.26742 58.103 7.87742 58.597 7.60008C59.0997 7.31408 59.6674 7.17108 60.3 7.17108C60.7594 7.17108 61.1754 7.24908 61.548 7.40508C61.9207 7.55242 62.2414 7.76908 62.51 8.05508C62.7787 8.33242 62.9824 8.67475 63.121 9.08208C63.2597 9.48075 63.329 9.92708 63.329 10.4211C63.329 10.5857 63.277 10.7114 63.173 10.7981C63.069 10.8761 62.9174 10.9151 62.718 10.9151H58.636V9.90108H61.912L61.704 10.0831C61.704 9.72775 61.652 9.43308 61.548 9.19908C61.444 8.95642 61.2924 8.77442 61.093 8.65308C60.9024 8.53175 60.664 8.47108 60.378 8.47108C60.0574 8.47108 59.7844 8.54475 59.559 8.69208C59.3337 8.83942 59.1604 9.05175 59.039 9.32908C58.9177 9.60642 58.857 9.94008 58.857 10.3301V10.4341C58.857 11.0927 59.0087 11.5781 59.312 11.8901C59.624 12.2021 60.0834 12.3581 60.69 12.3581C60.898 12.3581 61.1364 12.3321 61.405 12.2801C61.6737 12.2281 61.925 12.1457 62.159 12.0331C62.3584 11.9377 62.536 11.9074 62.692 11.9421C62.848 11.9681 62.9694 12.0374 63.056 12.1501C63.1427 12.2627 63.1904 12.3927 63.199 12.5401C63.2164 12.6874 63.186 12.8347 63.108 12.9821C63.03 13.1207 62.9 13.2377 62.718 13.3331C62.4234 13.4977 62.0897 13.6191 61.717 13.6971C61.353 13.7837 60.9977 13.8271 60.651 13.8271ZM69.2847 13.8011C68.9553 13.8011 68.704 13.7101 68.5307 13.5281C68.3573 13.3461 68.2707 13.0904 68.2707 12.7611V5.54608C68.2707 5.20808 68.3573 4.95241 68.5307 4.77908C68.7127 4.60575 68.9683 4.51908 69.2977 4.51908H72.4567C73.4793 4.51908 74.268 4.77908 74.8227 5.29908C75.3773 5.81041 75.6547 6.52542 75.6547 7.44408C75.6547 8.36275 75.3773 9.08208 74.8227 9.60208C74.268 10.1221 73.4793 10.3821 72.4567 10.3821H70.2857V12.7611C70.2857 13.0904 70.199 13.3461 70.0257 13.5281C69.861 13.7101 69.614 13.8011 69.2847 13.8011ZM70.2857 8.82208H72.1187C72.6387 8.82208 73.033 8.70508 73.3017 8.47108C73.579 8.23708 73.7177 7.89475 73.7177 7.44408C73.7177 6.99342 73.579 6.65542 73.3017 6.43008C73.033 6.20475 72.6387 6.09208 72.1187 6.09208H70.2857V8.82208ZM78.6005 13.8271C78.1325 13.8271 77.7121 13.7361 77.3395 13.5541C76.9668 13.3721 76.6765 13.1251 76.4685 12.8131C76.2605 12.5011 76.1565 12.1501 76.1565 11.7601C76.1565 11.2921 76.2778 10.9237 76.5205 10.6551C76.7631 10.3777 77.1575 10.1827 77.7035 10.0701C78.2495 9.94875 78.9731 9.88808 79.8745 9.88808H80.5635V10.9021H79.8875C79.4455 10.9021 79.0858 10.9281 78.8085 10.9801C78.5398 11.0234 78.3448 11.1014 78.2235 11.2141C78.1108 11.3267 78.0545 11.4827 78.0545 11.6821C78.0545 11.9247 78.1368 12.1241 78.3015 12.2801C78.4748 12.4361 78.7218 12.5141 79.0425 12.5141C79.2938 12.5141 79.5148 12.4577 79.7055 12.3451C79.9048 12.2237 80.0608 12.0634 80.1735 11.8641C80.2861 11.6561 80.3425 11.4221 80.3425 11.1621V9.66708C80.3425 9.28575 80.2558 9.01708 80.0825 8.86108C79.9091 8.69642 79.6145 8.61408 79.1985 8.61408C78.9645 8.61408 78.7088 8.64442 78.4315 8.70508C78.1628 8.75708 77.8638 8.84808 77.5345 8.97808C77.3438 9.06475 77.1748 9.08642 77.0275 9.04308C76.8801 8.99108 76.7675 8.90442 76.6895 8.78308C76.6115 8.65308 76.5725 8.51442 76.5725 8.36708C76.5725 8.21108 76.6158 8.06375 76.7025 7.92508C76.7891 7.77775 76.9321 7.66942 77.1315 7.60008C77.5388 7.43542 77.9201 7.32275 78.2755 7.26208C78.6395 7.20141 78.9731 7.17108 79.2765 7.17108C79.9438 7.17108 80.4898 7.27075 80.9145 7.47008C81.3478 7.66075 81.6728 7.95975 81.8895 8.36708C82.1061 8.76575 82.2145 9.28142 82.2145 9.91408V12.8001C82.2145 13.1207 82.1365 13.3677 81.9805 13.5411C81.8245 13.7144 81.5991 13.8011 81.3045 13.8011C81.0098 13.8011 80.7801 13.7144 80.6155 13.5411C80.4595 13.3677 80.3815 13.1207 80.3815 12.8001V12.3191L80.4725 12.3971C80.4205 12.6917 80.3078 12.9474 80.1345 13.1641C79.9698 13.3721 79.7575 13.5367 79.4975 13.6581C79.2375 13.7707 78.9385 13.8271 78.6005 13.8271ZM85.3573 16.1411C85.132 16.1411 84.9457 16.0804 84.7983 15.9591C84.651 15.8377 84.5643 15.6774 84.5383 15.4781C84.5123 15.2874 84.547 15.0837 84.6423 14.8671L85.5133 12.9431V13.7491L83.2123 8.47108C83.1257 8.24575 83.0953 8.03775 83.1213 7.84708C83.156 7.64775 83.2513 7.49175 83.4073 7.37908C83.572 7.25775 83.7973 7.19708 84.0833 7.19708C84.3173 7.19708 84.5037 7.25342 84.6423 7.36608C84.7897 7.47008 84.924 7.67375 85.0453 7.97708L86.5793 11.8771H86.1633L87.7493 7.96408C87.8707 7.66941 88.005 7.47008 88.1523 7.36608C88.3083 7.25342 88.5163 7.19708 88.7763 7.19708C89.0017 7.19708 89.1793 7.25775 89.3093 7.37908C89.448 7.49175 89.5303 7.64342 89.5563 7.83408C89.591 8.02475 89.5563 8.23275 89.4523 8.45808L86.3973 15.3871C86.2673 15.6817 86.12 15.8811 85.9553 15.9851C85.7993 16.0891 85.6 16.1411 85.3573 16.1411ZM91.561 13.8011C91.2403 13.8011 90.9933 13.7144 90.82 13.5411C90.6553 13.3677 90.573 13.1207 90.573 12.8001V8.18508C90.573 7.86442 90.6553 7.62175 90.82 7.45708C90.9933 7.28375 91.2316 7.19708 91.535 7.19708C91.847 7.19708 92.0853 7.28375 92.25 7.45708C92.4146 7.62175 92.497 7.86442 92.497 8.18508V9.01708L92.354 8.49708C92.5273 8.09842 92.796 7.77775 93.16 7.53508C93.524 7.29241 93.953 7.17108 94.447 7.17108C94.941 7.17108 95.3526 7.28808 95.682 7.52208C96.0113 7.75608 96.2453 8.11575 96.384 8.60108H96.202C96.3926 8.15908 96.683 7.81242 97.073 7.56108C97.4716 7.30108 97.9266 7.17108 98.438 7.17108C98.932 7.17108 99.335 7.27075 99.647 7.47008C99.9676 7.66075 100.206 7.95541 100.362 8.35408C100.518 8.74408 100.596 9.24242 100.596 9.84908V12.8001C100.596 13.1207 100.509 13.3677 100.336 13.5411C100.171 13.7144 99.933 13.8011 99.621 13.8011C99.3003 13.8011 99.0533 13.7144 98.88 13.5411C98.7153 13.3677 98.633 13.1207 98.633 12.8001V9.91408C98.633 9.48942 98.5636 9.18175 98.425 8.99108C98.295 8.79175 98.0696 8.69208 97.749 8.69208C97.3763 8.69208 97.086 8.82208 96.878 9.08208C96.67 9.34208 96.566 9.71042 96.566 10.1871V12.8001C96.566 13.1207 96.4793 13.3677 96.306 13.5411C96.1413 13.7144 95.903 13.8011 95.591 13.8011C95.279 13.8011 95.0363 13.7144 94.863 13.5411C94.6896 13.3677 94.603 13.1207 94.603 12.8001V9.91408C94.603 9.48942 94.5336 9.18175 94.395 8.99108C94.265 8.79175 94.0396 8.69208 93.719 8.69208C93.3463 8.69208 93.056 8.82208 92.848 9.08208C92.64 9.34208 92.536 9.71042 92.536 10.1871V12.8001C92.536 13.4674 92.211 13.8011 91.561 13.8011ZM105.415 13.8271C104.661 13.8271 104.011 13.6927 103.465 13.4241C102.927 13.1467 102.511 12.7611 102.217 12.2671C101.931 11.7644 101.788 11.1751 101.788 10.4991C101.788 9.84042 101.926 9.26408 102.204 8.77008C102.481 8.26742 102.867 7.87742 103.361 7.60008C103.863 7.31408 104.431 7.17108 105.064 7.17108C105.523 7.17108 105.939 7.24908 106.312 7.40508C106.684 7.55242 107.005 7.76908 107.274 8.05508C107.542 8.33242 107.746 8.67475 107.885 9.08208C108.023 9.48075 108.093 9.92708 108.093 10.4211C108.093 10.5857 108.041 10.7114 107.937 10.7981C107.833 10.8761 107.681 10.9151 107.482 10.9151H103.4V9.90108H106.676L106.468 10.0831C106.468 9.72775 106.416 9.43308 106.312 9.19908C106.208 8.95642 106.056 8.77442 105.857 8.65308C105.666 8.53175 105.428 8.47108 105.142 8.47108C104.821 8.47108 104.548 8.54475 104.323 8.69208C104.097 8.83942 103.924 9.05175 103.803 9.32908C103.681 9.60642 103.621 9.94008 103.621 10.3301V10.4341C103.621 11.0927 103.772 11.5781 104.076 11.8901C104.388 12.2021 104.847 12.3581 105.454 12.3581C105.662 12.3581 105.9 12.3321 106.169 12.2801C106.437 12.2281 106.689 12.1457 106.923 12.0331C107.122 11.9377 107.3 11.9074 107.456 11.9421C107.612 11.9681 107.733 12.0374 107.82 12.1501C107.906 12.2627 107.954 12.3927 107.963 12.5401C107.98 12.6874 107.95 12.8347 107.872 12.9821C107.794 13.1207 107.664 13.2377 107.482 13.3331C107.187 13.4977 106.853 13.6191 106.481 13.6971C106.117 13.7837 105.761 13.8271 105.415 13.8271ZM110.222 13.8011C109.902 13.8011 109.655 13.7144 109.481 13.5411C109.317 13.3677 109.234 13.1207 109.234 12.8001V8.18508C109.234 7.86442 109.317 7.62175 109.481 7.45708C109.655 7.28375 109.893 7.19708 110.196 7.19708C110.508 7.19708 110.747 7.28375 110.911 7.45708C111.076 7.62175 111.158 7.86442 111.158 8.18508V8.92608L111.015 8.49708C111.215 8.07242 111.509 7.74742 111.899 7.52208C112.298 7.28808 112.749 7.17108 113.251 7.17108C113.763 7.17108 114.183 7.27075 114.512 7.47008C114.842 7.66075 115.089 7.95541 115.253 8.35408C115.418 8.74408 115.5 9.24242 115.5 9.84908V12.8001C115.5 13.1207 115.414 13.3677 115.24 13.5411C115.076 13.7144 114.833 13.8011 114.512 13.8011C114.2 13.8011 113.958 13.7144 113.784 13.5411C113.62 13.3677 113.537 13.1207 113.537 12.8001V9.94008C113.537 9.49808 113.455 9.18175 113.29 8.99108C113.134 8.79175 112.892 8.69208 112.562 8.69208C112.146 8.69208 111.813 8.82208 111.561 9.08208C111.319 9.34208 111.197 9.68875 111.197 10.1221V12.8001C111.197 13.4674 110.872 13.8011 110.222 13.8011ZM120.099 13.8271C119.501 13.8271 118.998 13.7274 118.591 13.5281C118.192 13.3287 117.893 13.0384 117.694 12.6571C117.503 12.2757 117.408 11.7947 117.408 11.2141V8.77008H116.862C116.619 8.77008 116.429 8.70508 116.29 8.57508C116.16 8.44508 116.095 8.26742 116.095 8.04208C116.095 7.79942 116.16 7.61742 116.29 7.49608C116.429 7.36608 116.619 7.30108 116.862 7.30108H117.408V6.31308C117.408 5.98375 117.495 5.73675 117.668 5.57208C117.841 5.39875 118.084 5.31208 118.396 5.31208C118.717 5.31208 118.959 5.39875 119.124 5.57208C119.289 5.73675 119.371 5.98375 119.371 6.31308V7.30108H120.606C120.849 7.30108 121.035 7.36608 121.165 7.49608C121.295 7.61742 121.36 7.79942 121.36 8.04208C121.36 8.26742 121.295 8.44508 121.165 8.57508C121.035 8.70508 120.849 8.77008 120.606 8.77008H119.371V11.1361C119.371 11.5001 119.453 11.7731 119.618 11.9551C119.791 12.1371 120.064 12.2281 120.437 12.2281C120.567 12.2281 120.688 12.2151 120.801 12.1891C120.914 12.1631 121.018 12.1457 121.113 12.1371C121.234 12.1284 121.334 12.1674 121.412 12.2541C121.49 12.3321 121.529 12.5097 121.529 12.7871C121.529 12.9951 121.494 13.1771 121.425 13.3331C121.356 13.4891 121.234 13.6017 121.061 13.6711C120.948 13.7144 120.792 13.7491 120.593 13.7751C120.402 13.8097 120.238 13.8271 120.099 13.8271ZM124.666 13.8271C124.284 13.8271 123.89 13.7924 123.483 13.7231C123.084 13.6537 122.72 13.5367 122.391 13.3721C122.217 13.2854 122.092 13.1771 122.014 13.0471C121.944 12.9084 121.914 12.7697 121.923 12.6311C121.931 12.4924 121.975 12.3667 122.053 12.2541C122.139 12.1414 122.248 12.0677 122.378 12.0331C122.516 11.9897 122.668 12.0027 122.833 12.0721C123.188 12.2194 123.513 12.3234 123.808 12.3841C124.102 12.4447 124.393 12.4751 124.679 12.4751C125.051 12.4751 125.32 12.4187 125.485 12.3061C125.658 12.1847 125.745 12.0287 125.745 11.8381C125.745 11.6647 125.688 11.5347 125.576 11.4481C125.463 11.3614 125.298 11.3007 125.082 11.2661L123.717 11.0191C123.179 10.9237 122.763 10.7287 122.469 10.4341C122.183 10.1307 122.04 9.74508 122.04 9.27708C122.04 8.84375 122.161 8.47108 122.404 8.15908C122.646 7.83842 122.98 7.59575 123.405 7.43108C123.838 7.25775 124.328 7.17108 124.874 7.17108C125.264 7.17108 125.623 7.20575 125.953 7.27508C126.282 7.34442 126.598 7.45708 126.902 7.61308C127.058 7.69108 127.166 7.79508 127.227 7.92508C127.296 8.05508 127.318 8.18941 127.292 8.32808C127.274 8.46675 127.222 8.59242 127.136 8.70508C127.049 8.81775 126.936 8.89142 126.798 8.92608C126.668 8.96075 126.516 8.94342 126.343 8.87408C126.065 8.74408 125.81 8.65308 125.576 8.60108C125.342 8.54041 125.116 8.51008 124.9 8.51008C124.51 8.51008 124.228 8.57508 124.055 8.70508C123.881 8.82642 123.795 8.98242 123.795 9.17308C123.795 9.32042 123.842 9.44608 123.938 9.55008C124.042 9.64542 124.198 9.71042 124.406 9.74508L125.771 9.99208C126.334 10.0874 126.763 10.2781 127.058 10.5641C127.352 10.8414 127.5 11.2227 127.5 11.7081C127.5 12.3667 127.24 12.8867 126.72 13.2681C126.208 13.6407 125.524 13.8271 124.666 13.8271Z" fill="#10162D" fill-opacity="0.9"/>
</svg>