<svg viewBox="0 0 40 12" fill="none" xmlns="http://www.w3.org/2000/svg">
    <path fill-rule="evenodd" clip-rule="evenodd" d="M6.7637 0.186167C6.81141 0.191481 6.88808 0.212736 6.93409 0.235763C6.9818 0.257018 7.04655 0.303072 7.07892 0.336726C7.11129 0.37038 7.49296 1.01159 7.92575 1.76084C8.35853 2.51187 8.72827 3.16016 8.74701 3.20444C8.77087 3.25758 8.7828 3.32134 8.7828 3.39574C8.7828 3.46305 8.76917 3.54098 8.74872 3.59944C8.72827 3.65789 8.68567 3.72165 8.63456 3.77302C8.58855 3.81907 8.52892 3.86867 8.50166 3.88284C8.47439 3.89701 8.40454 3.91827 8.34831 3.92889C8.29208 3.93952 8.19666 3.95192 8.13532 3.95723C8.07398 3.96255 7.22375 4.06528 6.24402 4.1875C5.26429 4.30972 4.42087 4.42308 4.36975 4.43902C4.29649 4.46028 4.25559 4.48862 4.18062 4.56656C4.11588 4.63387 4.07669 4.69409 4.05794 4.75431C4.04091 4.80391 4.02898 4.88362 4.02898 4.93144C4.02898 4.98104 4.0375 5.08023 4.04602 5.15285C4.05624 5.23433 4.0818 5.3229 4.11076 5.38135C4.13632 5.43272 4.18233 5.50003 4.21129 5.52659C4.24196 5.55494 4.2999 5.59567 4.33908 5.61516C4.37998 5.63641 4.45495 5.65767 4.50606 5.66121C4.5657 5.66653 4.89625 5.62579 5.40401 5.55316C5.84702 5.48763 6.22016 5.4398 6.23039 5.44512C6.24232 5.44866 6.25765 5.47168 6.26447 5.49294C6.27128 5.51597 6.28662 5.61693 6.29684 5.71966C6.31388 5.87908 6.31388 5.91982 6.29002 6.00307C6.27469 6.05621 6.2355 6.13769 6.20313 6.18551C6.15882 6.24574 6.11282 6.28293 6.03444 6.3219C5.93221 6.37327 5.87769 6.38035 4.10565 6.60177C2.4563 6.80723 2.2808 6.82672 2.26206 6.80192C2.25013 6.78598 2.10189 6.53091 1.9298 6.23334C1.75941 5.93576 1.47487 5.44157 1.29766 5.13514C1.12046 4.82871 0.944961 4.52582 0.907476 4.46205C0.869991 4.39828 0.827394 4.31503 0.813763 4.27607C0.800132 4.2371 0.788204 4.15385 0.788204 4.09008C0.788204 3.99797 0.800132 3.95369 0.839321 3.86867C0.868287 3.81022 0.915995 3.73937 0.946665 3.71103C0.979039 3.68269 2.24672 2.88561 3.76488 1.93797C5.5778 0.807888 6.55072 0.209193 6.60183 0.196794C6.64443 0.186167 6.71599 0.180853 6.7637 0.186167ZM19.5223 3.45419C19.6314 3.45419 19.7967 3.46127 19.8887 3.4719C19.979 3.48076 20.1272 3.50556 20.2158 3.52504C20.3044 3.54453 20.4578 3.58881 20.5566 3.62246C20.6554 3.65789 20.7968 3.71634 20.8718 3.75354C20.9468 3.79073 21.0763 3.86867 21.1615 3.92712C21.2467 3.98558 21.3727 4.08477 21.4426 4.14853C21.5125 4.21053 21.6215 4.32566 21.6829 4.40183C21.7459 4.47976 21.8362 4.60553 21.8856 4.68346C21.9333 4.7614 22.0032 4.88893 22.039 4.96687C22.0747 5.0448 22.131 5.19182 22.165 5.29456C22.1974 5.39729 22.24 5.56025 22.2588 5.65767C22.2775 5.75509 22.3014 5.9393 22.3116 6.06507C22.3252 6.23334 22.3252 6.36264 22.3116 6.54331C22.3014 6.6797 22.2792 6.86746 22.2605 6.95957C22.2417 7.05167 22.1991 7.21109 22.165 7.31382C22.131 7.41656 22.073 7.56357 22.0356 7.64151C21.9981 7.71945 21.9265 7.84698 21.8771 7.92492C21.8277 8.00285 21.7186 8.14101 21.6368 8.23312C21.5534 8.32523 21.4119 8.4563 21.3233 8.52538C21.2347 8.59623 21.0763 8.6972 20.974 8.75211C20.8718 8.80702 20.7219 8.87432 20.6418 8.90444C20.5617 8.93278 20.422 8.97352 20.3317 8.99477C20.2397 9.01426 20.0761 9.03905 19.9688 9.04968C19.8427 9.06031 19.7081 9.06208 19.5905 9.05145C19.4883 9.04083 19.3485 9.02134 19.2787 9.0054C19.2088 8.98946 19.0947 8.95758 19.0282 8.93455C18.9601 8.90975 18.8527 8.8637 18.7897 8.83004C18.7249 8.79639 18.6193 8.73085 18.5545 8.68125C18.4898 8.63343 18.3876 8.54487 18.3296 8.48641C18.27 8.42619 18.1882 8.32877 18.0689 8.16404L18.0604 11.1841H16.8336L16.8285 8.66886C16.8251 6.94539 16.8285 6.09163 16.8421 5.95879C16.8524 5.85074 16.8796 5.67184 16.9052 5.56025C16.929 5.44866 16.9716 5.28924 16.9989 5.20599C17.0279 5.12274 17.0858 4.98281 17.1284 4.89602C17.1693 4.80745 17.2357 4.68878 17.2732 4.63032C17.3107 4.57187 17.3959 4.45674 17.4623 4.37526C17.5288 4.29201 17.6447 4.17156 17.7196 4.10779C17.7946 4.04226 17.9019 3.95723 17.9582 3.91827C18.0144 3.8793 18.1337 3.80845 18.2223 3.76239C18.3109 3.71634 18.4727 3.64726 18.5801 3.61183C18.6874 3.57464 18.8408 3.53213 18.9209 3.51618C19.0009 3.50024 19.1236 3.48076 19.1935 3.4719C19.2633 3.46305 19.4116 3.45596 19.5223 3.45419ZM19.0401 4.75077C18.9515 4.78265 18.834 4.83579 18.7794 4.86945C18.7232 4.9031 18.6312 4.97218 18.575 5.02178C18.517 5.07137 18.4353 5.15817 18.3944 5.21662C18.3518 5.2733 18.2887 5.37604 18.2546 5.44512C18.2189 5.5142 18.1729 5.63287 18.149 5.71081C18.1252 5.78874 18.0962 5.93222 18.086 6.02964C18.0723 6.13769 18.0689 6.27585 18.0774 6.3839C18.0826 6.48132 18.1064 6.63188 18.1286 6.72044C18.149 6.80723 18.1865 6.92414 18.2086 6.97728C18.2325 7.03042 18.2802 7.12252 18.316 7.18098C18.3518 7.23943 18.4267 7.33862 18.4847 7.40062C18.5426 7.46261 18.6346 7.54586 18.6908 7.58483C18.7471 7.6238 18.8408 7.67871 18.9004 7.70705C18.9584 7.73362 19.0657 7.77436 19.139 7.79561C19.2514 7.83104 19.3093 7.83635 19.5598 7.83635C19.7864 7.83635 19.875 7.82927 19.9688 7.8027C20.0335 7.78498 20.1494 7.7407 20.2243 7.70528C20.2993 7.66985 20.3998 7.61317 20.4458 7.57951C20.4935 7.54586 20.5685 7.48209 20.6145 7.43781C20.6605 7.39353 20.7304 7.31028 20.7696 7.25183C20.8105 7.19337 20.8718 7.08533 20.9059 7.0127C20.9417 6.94008 20.9894 6.80369 21.0132 6.71159C21.049 6.56634 21.0558 6.50434 21.0558 6.26876C21.0558 6.07569 21.0473 5.95702 21.0286 5.86491C21.0115 5.79583 20.9774 5.67538 20.9485 5.59922C20.9212 5.52482 20.8616 5.4026 20.8156 5.32998C20.7696 5.25736 20.6946 5.15817 20.6486 5.11034C20.6026 5.06252 20.5276 4.99344 20.4799 4.95624C20.4339 4.91904 20.33 4.85705 20.2499 4.81808C20.1698 4.78088 20.0591 4.7366 20.0028 4.72066C19.9466 4.70649 19.8324 4.68523 19.7472 4.67461C19.6621 4.66575 19.5666 4.65866 19.5343 4.65866C19.5019 4.66044 19.4133 4.66929 19.3383 4.67815C19.2633 4.687 19.1287 4.71889 19.0401 4.75077ZM9.51546 4.98281C9.56658 4.98635 9.64837 5.00584 9.69437 5.02709C9.74208 5.04835 9.81194 5.09971 9.85283 5.14045C9.89202 5.18119 9.94143 5.25382 9.96188 5.30341C9.98914 5.36718 9.99936 5.4274 9.99936 5.51597C9.99936 5.60276 9.98914 5.66298 9.96529 5.71966C9.94654 5.76395 9.90395 5.82948 9.87157 5.86845C9.8392 5.90565 9.71993 5.99599 9.60577 6.06684C9.48991 6.13946 9.38597 6.19791 9.37575 6.19791C9.36382 6.19791 9.21217 5.95347 9.04179 5.65413C8.86969 5.35301 8.73509 5.10149 8.74361 5.0944C8.75042 5.08732 8.90718 5.0572 9.08949 5.02886C9.27181 5.00052 9.46435 4.98104 9.51546 4.98281Z" fill="#128388"/>
    <path d="M35.1571 2.29222C35.1673 2.26743 35.3326 2.17886 35.7058 1.99642C36.0005 1.85472 36.2561 1.73604 36.2749 1.73427C36.2936 1.73427 36.3277 1.74844 36.3941 1.80158L36.4026 3.59412H39.0266V4.76317H36.4026V5.9269C36.4026 7.04636 36.4044 7.09772 36.4367 7.23411C36.4572 7.31205 36.493 7.41478 36.5185 7.46084C36.5441 7.50866 36.5969 7.58128 36.6361 7.62025C36.6736 7.66099 36.7434 7.7159 36.7894 7.74247C36.8337 7.76904 36.9206 7.80269 36.982 7.81686C37.0433 7.83281 37.1626 7.84521 37.2461 7.84521C37.3296 7.84521 37.4488 7.83281 37.5102 7.81686C37.5715 7.80269 37.6584 7.76904 37.7044 7.74247C37.7504 7.7159 37.822 7.65922 37.8629 7.61494C37.9055 7.57066 37.9617 7.48741 37.9873 7.42895C38.0145 7.3705 38.0486 7.26068 38.0639 7.18452C38.0776 7.11012 38.0895 6.9755 38.0895 6.7293H39.3333V6.95956C39.3333 7.11189 39.3214 7.26068 39.2992 7.39707C39.2788 7.5122 39.2413 7.67516 39.214 7.76018C39.1851 7.84698 39.1425 7.95857 39.1186 8.00816C39.0931 8.05953 39.0385 8.15695 38.9959 8.22603C38.9551 8.29511 38.8613 8.41024 38.7898 8.48464C38.7182 8.55903 38.6024 8.65823 38.5325 8.70605C38.4626 8.7521 38.3519 8.81587 38.2854 8.84775C38.2207 8.87964 38.0963 8.92569 38.0128 8.95226C37.9293 8.97706 37.7862 9.01071 37.6976 9.02665C37.5954 9.04259 37.4284 9.05322 37.2461 9.05322C37.0518 9.05322 36.8968 9.04437 36.7775 9.02311C36.6787 9.00717 36.5253 8.9682 36.4367 8.93986C36.3481 8.90975 36.222 8.85838 36.1556 8.82473C36.0908 8.7893 35.9801 8.72022 35.9102 8.67062C35.8404 8.62103 35.733 8.52361 35.6717 8.4563C35.6103 8.38722 35.532 8.28803 35.4979 8.23489C35.4638 8.18175 35.4093 8.08256 35.3752 8.01348C35.3428 7.9444 35.2968 7.82572 35.2713 7.74778C35.2474 7.66985 35.215 7.54763 35.2014 7.47678C35.1878 7.4077 35.169 7.25891 35.1588 7.15086C35.1486 7.03041 35.1418 6.03141 35.1435 4.63918C35.1435 3.36739 35.1503 2.31171 35.1571 2.29222Z" fill="#24A6A6"/>
    <path d="M6.25254 4.1875C7.23738 4.06528 8.04843 3.96255 8.05694 3.959C8.06546 3.95546 8.07569 3.96255 8.0808 3.97317C8.08591 3.9838 8.22904 4.2371 8.40113 4.53644C8.57322 4.83756 8.72316 5.082 8.73168 5.082C8.7419 5.082 8.74531 5.08908 8.7402 5.09971C8.73509 5.11034 8.86969 5.35832 9.04008 5.65235C9.21047 5.94816 9.35359 6.1926 9.36041 6.19791C9.36552 6.20322 9.38086 6.22625 9.39449 6.25105C9.40812 6.27585 9.44901 6.35378 9.48479 6.42286C9.54443 6.53977 9.54954 6.56457 9.54954 6.68856C9.54954 6.7966 9.54102 6.8462 9.50865 6.91528C9.4865 6.9631 9.43879 7.03396 9.40301 7.06938C9.36552 7.10481 8.09443 7.90897 6.57628 8.85484C5.05812 9.8007 3.78873 10.5818 3.75636 10.5907C3.72398 10.6013 3.65583 10.6084 3.60812 10.6084C3.55871 10.6084 3.47692 10.5925 3.42921 10.573C3.37469 10.5535 3.30824 10.5074 3.26564 10.4632C3.21623 10.4118 2.93168 9.93355 2.39496 9.0054C1.95706 8.24552 1.58903 7.59545 1.5788 7.5618C1.56688 7.52814 1.55836 7.45198 1.55836 7.39353C1.55836 7.33507 1.56858 7.25182 1.58221 7.20754C1.59755 7.16326 1.64185 7.08709 1.68274 7.03927C1.73045 6.98259 1.79008 6.93654 1.84972 6.9082C1.90084 6.88517 2.00988 6.8586 2.10019 6.8462C2.18538 6.83557 2.25695 6.81963 2.25695 6.809C2.25695 6.79838 2.26206 6.80015 2.27058 6.81077C2.2791 6.82494 2.81752 6.76295 4.10565 6.60177C5.87769 6.38035 5.93221 6.37327 6.03615 6.3219C6.11282 6.28293 6.15882 6.24574 6.20313 6.18551C6.2355 6.13769 6.27469 6.05621 6.29002 6.00307C6.30877 5.93045 6.31388 5.87199 6.30365 5.7728C6.29684 5.70018 6.28491 5.60099 6.27639 5.55139C6.26787 5.50356 6.25424 5.45928 6.24743 5.45397C6.23891 5.44866 6.22187 5.41854 6.20824 5.38489C6.19461 5.35123 6.15031 5.29278 6.10771 5.25559C6.06511 5.21839 5.99696 5.17588 5.95436 5.16171C5.91176 5.14577 5.8402 5.13514 5.79249 5.13514C5.74649 5.13514 5.35971 5.18473 4.93374 5.24496C4.50777 5.30695 4.14484 5.36186 4.1278 5.36895C4.10225 5.38135 4.09373 5.36895 4.07158 5.29101C4.05794 5.23964 4.04091 5.12097 4.03579 5.02886C4.02557 4.89247 4.02898 4.84288 4.05454 4.76317C4.07669 4.69232 4.11076 4.63918 4.18062 4.56656C4.25559 4.48862 4.29649 4.46028 4.36975 4.43902C4.42087 4.42308 5.2694 4.30972 6.25254 4.1875Z" fill="#24A6A6"/>
    <path d="M0.437206 4.95801C0.479803 4.89956 0.558181 4.83756 0.731977 4.72597C0.863175 4.64272 0.973927 4.57895 0.980743 4.58427C0.985854 4.58958 1.13409 4.84465 1.30959 5.14754C1.48339 5.4522 1.62481 5.70549 1.6231 5.70726C1.6197 5.71081 1.46464 5.7356 1.27722 5.7604C1.08979 5.78697 0.893845 5.80823 0.842729 5.80823C0.791612 5.80823 0.714938 5.7976 0.672341 5.78166C0.629744 5.76749 0.558181 5.72143 0.512176 5.68069C0.466172 5.63818 0.409944 5.56556 0.386089 5.51596C0.363939 5.46814 0.340085 5.38312 0.334973 5.32998C0.329862 5.26976 0.336677 5.19536 0.353716 5.13514C0.367347 5.082 0.406536 5.00229 0.437206 4.95801Z" fill="#24A6A6"/>
    <path d="M22.9812 1.57662C22.9965 1.54651 23.138 1.47035 23.5299 1.28082C23.8195 1.14089 24.0785 1.02575 24.1058 1.02575C24.1364 1.02575 24.1637 1.0417 24.1858 1.07358C24.2216 1.12317 24.2216 1.12317 24.2114 8.91683H22.9676L22.9642 5.26798C22.9608 2.3985 22.9642 1.61028 22.9812 1.57662Z" fill="#128388"/>
    <path d="M25.5626 1.31979C25.5915 1.30385 25.658 1.28082 25.7074 1.26665C25.7551 1.25248 25.8573 1.24008 25.9323 1.24008C26.0073 1.23831 26.1078 1.24894 26.1538 1.26134C26.2015 1.27373 26.2782 1.30385 26.3242 1.32864C26.3719 1.35167 26.452 1.41189 26.5031 1.46149C26.5542 1.51109 26.6207 1.59965 26.6514 1.65633C26.6803 1.71301 26.7178 1.80866 26.7314 1.86711C26.7468 1.92557 26.7587 2.03362 26.7587 2.10624C26.7587 2.17886 26.7485 2.27805 26.7348 2.32765C26.7229 2.37547 26.6957 2.45518 26.6752 2.50478C26.6531 2.5526 26.5917 2.64117 26.5372 2.69962C26.4827 2.75807 26.3975 2.82715 26.3481 2.85372C26.297 2.88029 26.2101 2.91394 26.1538 2.92989C26.0976 2.94406 25.9971 2.95646 25.9323 2.95646C25.8676 2.95646 25.7636 2.94229 25.7023 2.92457C25.641 2.90863 25.5472 2.86612 25.491 2.83247C25.4365 2.79881 25.3615 2.73504 25.3223 2.69076C25.2848 2.64648 25.2286 2.55437 25.1979 2.48707C25.1622 2.4109 25.1332 2.31348 25.123 2.23023C25.1093 2.13812 25.1093 2.06019 25.123 1.97871C25.1315 1.9114 25.1554 1.81575 25.1741 1.76615C25.1911 1.71478 25.2371 1.62799 25.2729 1.57485C25.3087 1.52171 25.3769 1.44909 25.4229 1.41367C25.4689 1.37824 25.5319 1.33573 25.5626 1.31979Z" fill="#128388"/>
    <path d="M27.9276 2.26565C27.9446 2.25148 28.1917 2.12572 28.4779 1.98756C28.7642 1.8494 29.0129 1.73604 29.03 1.73604C29.0453 1.73427 29.0777 1.75375 29.1441 1.82283V3.59412L31.7766 3.60298L31.7851 4.76317H29.1441L29.1492 5.96233C29.1526 7.07115 29.1561 7.17035 29.185 7.26068C29.2021 7.31382 29.2361 7.39707 29.26 7.44667C29.2838 7.49449 29.3384 7.5742 29.381 7.62025C29.427 7.66985 29.5019 7.7283 29.5616 7.75664C29.6178 7.78321 29.7047 7.81509 29.7541 7.82572C29.8018 7.83635 29.9109 7.84521 29.9961 7.84521C30.0813 7.84521 30.1903 7.83635 30.2397 7.82572C30.2874 7.81509 30.3675 7.78675 30.4135 7.7655C30.4612 7.74247 30.5396 7.68579 30.5907 7.63796C30.6487 7.58483 30.6998 7.51398 30.7304 7.44667C30.7577 7.38821 30.7901 7.29256 30.8054 7.23411C30.819 7.17566 30.8361 7.0375 30.8565 6.7293H32.0918V6.87454C32.0918 6.95602 32.0833 7.09595 32.0748 7.18452C32.0646 7.27485 32.0458 7.4077 32.0322 7.47678C32.0186 7.54763 31.9879 7.66985 31.964 7.74778C31.9385 7.82572 31.8891 7.95325 31.8516 8.03119C31.8124 8.10913 31.7459 8.22426 31.6999 8.28803C31.6556 8.35179 31.5704 8.45099 31.5108 8.50944C31.4512 8.56789 31.3524 8.65114 31.291 8.69542C31.2297 8.73793 31.1189 8.80347 31.044 8.8389C30.969 8.87609 30.8395 8.92569 30.7543 8.95226C30.6691 8.97706 30.5277 9.01071 30.4391 9.02488C30.3385 9.04259 30.1699 9.05322 29.9961 9.05322C29.8103 9.05322 29.6536 9.04437 29.536 9.02311C29.4372 9.00717 29.289 8.96997 29.2038 8.94163C29.1186 8.91506 29.0044 8.87078 28.9482 8.84598C28.892 8.81941 28.7846 8.75565 28.7096 8.70428C28.6347 8.65291 28.5256 8.56258 28.4677 8.50235C28.4081 8.44213 28.3246 8.34471 28.282 8.28271C28.2394 8.22249 28.1746 8.11267 28.1388 8.04005C28.1031 7.96742 28.0536 7.84698 28.0298 7.77435C28.0042 7.70173 27.9667 7.56534 27.9463 7.47324C27.9106 7.30512 27.9105 7.29259 27.9037 4.80576L27.9037 4.79859C27.8986 2.42861 27.9003 2.29045 27.9276 2.26565Z" fill="#128388"/>
    <path d="M13.5707 3.44356C13.6508 3.42585 13.8007 3.40636 13.9029 3.39928C14.0052 3.39396 14.121 3.39042 14.1585 3.39219C14.196 3.39574 14.2982 3.40282 14.3834 3.40813C14.4703 3.41345 14.6169 3.4347 14.7072 3.45419C14.7992 3.47544 14.9389 3.51618 15.019 3.54452C15.0991 3.57463 15.2098 3.62246 15.266 3.65257C15.3223 3.68091 15.4143 3.73759 15.4705 3.77656C15.5267 3.81553 15.6256 3.90055 15.6903 3.96432C15.7534 4.02808 15.8403 4.12905 15.8794 4.1875C15.9203 4.24595 15.9851 4.36109 16.0226 4.44434C16.0601 4.52759 16.1061 4.6622 16.1248 4.74545C16.1452 4.82871 16.1606 4.93853 16.1606 5.082L14.9457 5.07314L14.9185 4.98458C14.9031 4.93675 14.8742 4.86767 14.8537 4.83402C14.835 4.80036 14.789 4.74723 14.7532 4.71711C14.7157 4.687 14.6544 4.64449 14.6135 4.62324C14.5743 4.60375 14.4942 4.57364 14.4346 4.55947C14.3732 4.54353 14.2471 4.5329 14.133 4.5329C14.0188 4.5329 13.8927 4.54353 13.8297 4.55947C13.7717 4.57364 13.6848 4.60552 13.6388 4.63032C13.5911 4.65512 13.5281 4.69763 13.4974 4.72597C13.4685 4.75254 13.4225 4.81454 13.3969 4.86236C13.3713 4.91018 13.3458 4.98812 13.3407 5.03772C13.3339 5.08731 13.3373 5.15994 13.3475 5.20068C13.3577 5.24496 13.3935 5.30872 13.4293 5.34946C13.465 5.38843 13.5315 5.4398 13.5792 5.4646C13.6252 5.48762 13.7223 5.52128 13.7922 5.54076C13.8621 5.56025 14.1142 5.60276 14.3494 5.63818C14.5862 5.67361 14.852 5.71789 14.9372 5.73915C15.0241 5.75863 15.1723 5.80114 15.266 5.83302C15.3598 5.86668 15.4858 5.91805 15.5472 5.94993C15.6085 5.98181 15.7039 6.04027 15.7602 6.08278C15.8164 6.12352 15.9101 6.21208 15.9697 6.27939C16.0379 6.35733 16.1009 6.45475 16.1435 6.54331C16.1793 6.62125 16.2219 6.73638 16.2373 6.80015C16.2526 6.86391 16.2696 7.01447 16.2747 7.13669C16.2816 7.30319 16.2764 7.39707 16.2543 7.51752C16.239 7.60431 16.2032 7.7407 16.1759 7.81864C16.1487 7.89657 16.0941 8.01525 16.0549 8.08433C16.0123 8.15872 15.9186 8.2774 15.8215 8.37836C15.7176 8.48641 15.6051 8.58029 15.5131 8.63874C15.433 8.69011 15.2882 8.7645 15.1894 8.80347C15.0905 8.84421 14.9304 8.89558 14.8316 8.9186C14.7327 8.93986 14.5777 8.9682 14.4857 8.97706C14.3954 8.98769 14.2335 8.99654 14.1279 8.99654C14.0239 8.99654 13.8689 8.98769 13.7837 8.97883C13.6985 8.9682 13.569 8.94872 13.494 8.93278C13.419 8.91683 13.2895 8.87964 13.2044 8.8513C13.1192 8.82118 12.9897 8.76627 12.9147 8.72731C12.8397 8.68834 12.7358 8.62811 12.6847 8.59269C12.6336 8.55549 12.5313 8.46693 12.4564 8.3943C12.3831 8.32168 12.2826 8.19769 12.2331 8.11975C12.1837 8.04182 12.1224 7.92846 12.0985 7.86646C12.0747 7.80624 12.0389 7.6911 12.0219 7.60962C12.0048 7.52992 11.9844 7.42187 11.969 7.27839H13.2299L13.2384 7.35279C13.2435 7.3953 13.2725 7.47324 13.3032 7.52637C13.339 7.59014 13.3901 7.64505 13.4514 7.68933C13.5025 7.72653 13.5911 7.77258 13.6474 7.79207C13.7036 7.81155 13.8109 7.83635 13.8859 7.84698C13.966 7.85938 14.1074 7.86292 14.2267 7.85583C14.3391 7.85052 14.4772 7.83281 14.5334 7.81686C14.5896 7.80092 14.6765 7.76727 14.7276 7.74247C14.7787 7.7159 14.8469 7.66631 14.881 7.63265C14.915 7.599 14.9576 7.53877 14.9764 7.4998C14.9951 7.45729 15.0122 7.37759 15.0156 7.30496C15.0207 7.21109 15.0156 7.16503 14.9934 7.11898C14.9764 7.08532 14.9474 7.0375 14.927 7.01624C14.9082 6.99322 14.8605 6.95779 14.823 6.93831C14.7856 6.91705 14.7242 6.89048 14.6867 6.87631C14.6492 6.86214 14.5692 6.84089 14.5078 6.82672C14.4465 6.81255 14.2199 6.77712 14.0052 6.74701C13.7905 6.7169 13.5213 6.67084 13.4088 6.64604C13.2964 6.62125 13.1192 6.56988 13.0169 6.53268C12.9147 6.49371 12.7716 6.42995 12.7017 6.38744C12.6233 6.34138 12.5211 6.2599 12.4376 6.17134C12.3439 6.07569 12.2809 5.99067 12.2383 5.90565C12.2042 5.83657 12.1616 5.73029 12.1428 5.66652C12.1241 5.60276 12.1002 5.47168 12.09 5.37426C12.0764 5.24673 12.0764 5.14754 12.0883 5.02C12.0985 4.92258 12.1105 4.82339 12.1156 4.79859C12.1207 4.7738 12.148 4.68169 12.1752 4.5949C12.2025 4.5081 12.2604 4.37171 12.3047 4.29378C12.349 4.21407 12.4444 4.08831 12.5211 4.00329C12.5978 3.92181 12.7205 3.81376 12.7954 3.76239C12.8704 3.70925 12.9811 3.64371 13.0425 3.61537C13.1038 3.58703 13.2146 3.54275 13.2896 3.51795C13.3645 3.49316 13.4906 3.4595 13.5707 3.44356Z" fill="#128388"/>
    <path d="M25.3104 8.96112V3.62954H26.5542V8.96112H25.3104Z" fill="#128388"/>
    <path d="M33.1738 1.3499C33.2113 1.33573 33.2726 1.31802 33.3101 1.30916C33.3476 1.30207 33.4157 1.29499 33.4635 1.29322C33.5095 1.29145 33.5947 1.3003 33.6509 1.31093C33.7071 1.32156 33.7991 1.35167 33.8553 1.38001C33.9116 1.40658 33.9951 1.46503 34.0428 1.50931C34.0888 1.5536 34.1552 1.63508 34.1876 1.69176C34.22 1.74844 34.2609 1.84763 34.2762 1.9114C34.2915 1.97516 34.3052 2.08675 34.3052 2.15938C34.3069 2.232 34.2949 2.33828 34.2813 2.39319C34.2677 2.44987 34.237 2.53312 34.2149 2.57917C34.1927 2.627 34.145 2.69962 34.1075 2.74213C34.0717 2.78464 34.0121 2.84132 33.9746 2.86966C33.9371 2.89623 33.8656 2.93343 33.8162 2.95468C33.7684 2.97594 33.6713 3.00074 33.6049 3.00959C33.5197 3.02199 33.4396 3.02199 33.3527 3.00959C33.2692 2.99897 33.1806 2.97063 33.1005 2.92989C33.0239 2.89092 32.9455 2.83247 32.8892 2.77578C32.8364 2.7191 32.7785 2.63231 32.7444 2.55792C32.7103 2.48175 32.6814 2.37902 32.6677 2.29222C32.6524 2.1824 32.6524 2.12041 32.6677 2.01767C32.6797 1.93797 32.712 1.83523 32.7461 1.76084C32.7785 1.69353 32.8381 1.59965 32.8773 1.55537C32.9182 1.51109 32.9864 1.45263 33.029 1.42429C33.0716 1.39772 33.1363 1.36407 33.1738 1.3499Z" fill="#24A6A6"/>
    <path d="M32.8586 9.01425V3.68268H34.1024V9.01425H32.8586Z" fill="#24A6A6"/>
</svg>