<svg viewBox="0 0 36 26" fill="none" xmlns="http://www.w3.org/2000/svg">
    <path d="M32.5 0.184082H3.5C1.567 0.184082 0 1.75109 0 3.68408V21.6841C0 23.6171 1.567 25.1841 3.5 25.1841H32.5C34.433 25.1841 36 23.6171 36 21.6841V3.68408C36 1.75109 34.433 0.184082 32.5 0.184082Z" fill="#F7F3EB"/>
    <path fill-rule="evenodd" clip-rule="evenodd" d="M10.7324 17.2981H8.49087L6.81003 10.7267C6.73025 10.4245 6.56086 10.1572 6.31168 10.0313C5.68984 9.71485 5.00461 9.4629 4.25708 9.33585V9.08286H7.86793C8.36628 9.08286 8.74005 9.4629 8.80234 9.90425L9.6745 14.6444L11.9148 9.08286H14.094L10.7324 17.2981ZM15.3401 17.2981H13.2232L14.9663 9.08286H17.0832L15.3401 17.2981ZM19.8218 11.3577C19.8841 10.9153 20.2578 10.6623 20.6939 10.6623C21.3791 10.5987 22.1256 10.7258 22.7485 11.0412L23.1223 9.27247C22.4993 9.01947 21.8141 8.89243 21.1922 8.89243C19.1376 8.89243 17.6426 10.0303 17.6426 11.6096C17.6426 12.8111 18.7016 13.442 19.4491 13.822C20.2578 14.2009 20.5693 14.4539 20.507 14.8329C20.507 15.4013 19.8841 15.6543 19.2622 15.6543C18.5147 15.6543 17.7672 15.4648 17.083 15.1483L16.7093 16.9182C17.4568 17.2336 18.2655 17.3607 19.0131 17.3607C21.3168 17.4231 22.7485 16.2863 22.7485 14.5799C22.7485 12.4311 19.8218 12.3051 19.8218 11.3577ZM30.1567 17.2981L28.4759 9.08286H26.6705C26.2967 9.08286 25.9229 9.33585 25.7983 9.71485L22.6858 17.2981H24.865L25.3 16.0977H27.9775L28.2267 17.2981H30.1567ZM26.9827 11.2939L27.6045 14.3901H25.8614L26.9827 11.2939Z" fill="#172B85"/>
</svg>