<svg viewBox="0 0 1440 829" fill="none" xmlns="http://www.w3.org/2000/svg">
    <path d="M0 0H1440V738.485C1440 738.485 1207 829 720 829C233 829 0 738.485 0 738.485V0Z" fill="#FFFCF5"/>
    <path d="M91.742 579.072C89.2554 576.682 87.3496 573.958 85.7629 571.051C85.3788 570.346 84.9708 569.648 84.6019 568.939C83.0391 565.939 80.8542 563.455 77.9823 561.498C74.9999 559.464 72.0156 557.428 69.0705 555.324C64.6058 552.134 60.6502 548.363 57.2511 544.009C55.5796 541.869 54.4507 539.557 53.8521 537.188C52.8693 533.296 54.0114 530.649 56.9184 529.064C60.7886 526.954 65.2551 526.014 70.0372 525.679C76.4538 525.228 83.0569 525.583 89.9547 527.268C93.2244 528.067 96.4457 529.348 99.652 530.989C103.818 533.121 106.811 536.276 108.882 540.4C110.788 544.195 111.896 548.005 112.532 551.813C114.112 561.281 113.598 570.015 110.883 577.953C110.266 579.757 109.341 581.351 108.144 582.722C106.421 584.697 103.869 585.135 100.838 584.587C97.8882 584.053 95.2282 582.501 92.8223 580.15C92.459 579.795 92.1043 579.432 91.7444 579.072L91.742 579.072Z" fill="#BAE7D6" fill-opacity="0.6"/>
    <path d="M142.129 538.481C138.261 542.537 133.574 544.975 127.998 545.601C126.692 545.747 125.341 545.737 124.034 545.59C119.748 545.113 116.891 541.696 116.455 537.716C116.132 534.78 117 532.168 118.582 529.759C121.33 525.571 125.219 522.828 129.831 521.038C132.814 519.88 135.889 519.232 139.111 519.551C141.102 519.748 143.012 520.27 144.631 521.476C146.955 523.208 147.839 525.614 147.595 528.464C147.354 531.285 146.202 533.733 144.453 535.911C143.731 536.81 142.907 537.627 142.129 538.481Z" fill="#BAE7D6" fill-opacity="0.6"/>
    <path d="M114.669 519.124C112.143 521.751 109.29 523.736 105.744 524.574C104.322 524.91 102.876 525.006 101.441 524.704C100.911 524.592 100.371 524.356 99.9203 524.052C96.3621 521.654 95.2828 518.146 95.5134 514.069C95.7198 510.416 96.9755 507.103 98.8383 504.005C101.015 500.385 103.825 497.394 107.624 495.43C109.472 494.475 111.419 493.856 113.518 493.788C117.281 493.668 120.07 495.644 121.2 499.243C121.926 501.559 121.934 503.906 121.439 506.256C120.474 510.826 118.405 514.848 115.335 518.359C115.1 518.628 114.867 518.899 114.67 519.124H114.669Z" fill="#BAE7D6" fill-opacity="0.6"/>
    <path d="M143.52 570.989C141.073 573.649 138.095 575.429 134.585 576.293C132.024 576.923 129.437 576.959 126.834 576.558C122.034 575.817 119.172 571.797 118.961 567.632C118.802 564.501 119.814 561.793 121.944 559.491C125.544 555.599 129.96 553.323 135.247 552.814C138.216 552.528 141.093 552.957 143.772 554.328C147.117 556.039 148.797 559.498 148.123 563.188C147.677 565.626 146.531 567.724 144.923 569.578C144.49 570.078 143.99 570.521 143.521 570.99L143.52 570.989Z" fill="#BAE7D6" fill-opacity="0.6"/>
    <path d="M81.1556 517.229C80.2652 518.224 78.9386 519.352 77.2936 520.053C74.7288 521.145 72.23 521.201 69.9158 519.429C68.2103 518.124 67.0295 516.409 66.3318 514.386C64.6667 509.559 65.1285 504.835 67.1392 500.224C68.5021 497.101 70.5112 494.445 73.234 492.379C75.1093 490.956 77.2454 490.149 79.6243 490.174C82.7292 490.206 85.0691 491.582 86.5362 494.345C88.3516 497.763 88.5663 501.398 87.8708 505.118C87.0066 509.734 84.8297 513.658 81.157 517.231L81.1556 517.229Z" fill="#BAE7D6" fill-opacity="0.6"/>
    <path d="M998.849 134.078C996.892 132.999 995.242 131.614 993.761 130.06C993.403 129.683 993.03 129.315 992.681 128.933C991.2 127.318 989.416 126.13 987.29 125.386C985.082 124.613 982.873 123.84 980.677 123.017C977.348 121.769 974.24 120.072 971.382 117.917C969.977 116.858 968.883 115.6 968.111 114.218C966.843 111.947 967.114 110.099 968.668 108.62C970.736 106.65 973.374 105.313 976.311 104.301C980.251 102.943 984.443 102.057 989.043 101.955C991.223 101.907 993.454 102.168 995.736 102.657C998.701 103.293 1001.1 104.766 1003.09 107C1004.92 109.055 1006.25 111.254 1007.29 113.531C1009.87 119.191 1011.01 124.744 1010.64 130.168C1010.56 131.4 1010.25 132.553 1009.73 133.611C1008.98 135.136 1007.46 135.839 1005.47 136.004C1003.53 136.164 1001.61 135.639 999.706 134.571C999.419 134.41 999.136 134.242 998.85 134.077L998.849 134.078Z" fill="#E2D7EF" fill-opacity="0.6"/>
    <path d="M1023.58 100.224C1021.84 103.411 1019.31 105.722 1015.93 107.049C1015.13 107.359 1014.29 107.58 1013.44 107.707C1010.68 108.127 1008.32 106.468 1007.38 104.05C1006.69 102.266 1006.79 100.486 1007.38 98.7131C1008.4 95.6311 1010.37 93.2626 1012.95 91.3686C1014.63 90.1437 1016.44 89.2222 1018.51 88.8816C1019.79 88.671 1021.08 88.6774 1022.29 89.1607C1024.04 89.8552 1024.99 91.2128 1025.32 93.0371C1025.64 94.8434 1025.33 96.5686 1024.6 98.2253C1024.3 98.9088 1023.92 99.5583 1023.58 100.224Z" fill="#E2D7EF" fill-opacity="0.6"/>
    <path d="M1003.14 92.7133C1002 94.781 1000.55 96.5018 998.473 97.6214C997.639 98.0701 996.75 98.3723 995.801 98.4239C995.451 98.4429 995.074 98.3855 994.74 98.271C992.111 97.367 990.848 95.3523 990.308 92.7624C989.825 90.4415 990.055 88.1569 990.701 85.9057C991.456 83.2751 992.714 80.9321 994.762 79.0658C995.758 78.1581 996.873 77.444 998.175 77.05C1000.51 76.3435 1002.59 77.1124 1003.9 79.1757C1004.74 80.503 1005.14 81.971 1005.22 83.5246C1005.39 86.5468 1004.77 89.4108 1003.43 92.1233C1003.33 92.3307 1003.23 92.5395 1003.14 92.7133Z" fill="#E2D7EF" fill-opacity="0.6"/>
    <path d="M1029.9 120.336C1028.81 122.41 1027.25 124.024 1025.2 125.154C1023.7 125.978 1022.09 126.434 1020.39 126.619C1017.26 126.961 1014.8 124.924 1013.97 122.353C1013.34 120.42 1013.52 118.555 1014.47 116.758C1016.07 113.718 1018.45 111.553 1021.67 110.348C1023.48 109.671 1025.36 109.457 1027.26 109.866C1029.64 110.376 1031.27 112.258 1031.47 114.681C1031.6 116.282 1031.24 117.787 1030.54 119.217C1030.35 119.603 1030.11 119.963 1029.9 120.336Z" fill="#E2D7EF" fill-opacity="0.6"/>
    <path d="M981.852 97.1477C981.462 97.9195 980.821 98.8482 979.909 99.5625C978.486 100.676 976.932 101.13 975.187 100.41C973.9 99.8785 972.874 99.0033 972.098 97.8544C970.246 95.1124 969.743 92.0783 970.228 88.8551C970.557 86.672 971.369 84.673 972.727 82.9233C973.662 81.7184 974.864 80.8552 976.357 80.4718C978.305 79.9712 980 80.4398 981.382 81.9232C983.091 83.7576 983.835 85.9968 984.024 88.4415C984.257 91.4754 983.553 94.2963 981.853 97.1483L981.852 97.1477Z" fill="#E2D7EF" fill-opacity="0.6"/>
    <path d="M31.3432 278.19C35.5764 270.512 41.0106 264.04 47.1062 258.231C48.5838 256.824 50.0302 255.362 51.5262 253.991C57.8648 248.179 62.5265 241.18 65.4442 232.84C68.4757 224.179 71.5108 215.511 74.7401 206.895C79.6351 193.833 86.2936 181.639 94.7473 170.428C98.9025 164.915 103.837 160.622 109.261 157.593C118.171 152.619 125.422 153.682 131.226 159.777C138.955 167.892 144.2 178.242 148.169 189.764C153.498 205.223 156.971 221.671 157.373 239.717C157.563 248.271 156.537 257.024 154.617 265.977C152.122 277.61 146.344 287.035 137.58 294.834C129.517 302.011 120.89 307.238 111.958 311.304C89.7481 321.414 67.9641 325.897 46.6839 324.454C41.8492 324.126 37.3255 322.903 33.1722 320.868C27.1893 317.935 24.434 311.959 23.7852 304.153C23.1574 296.559 25.2177 289.007 29.4082 281.552C30.0401 280.426 30.6988 279.316 31.3459 278.196L31.3432 278.19Z" fill="#FEE6DE"/>
    <path d="M164.167 375.209C151.662 368.38 142.593 358.476 137.388 345.195C136.17 342.084 135.306 338.76 134.806 335.455C133.157 324.617 139.668 315.353 149.154 311.662C156.152 308.938 163.137 309.351 170.093 311.65C182.185 315.644 191.477 323.386 198.908 333.534C203.714 340.097 207.33 347.222 208.666 355.342C209.492 360.361 209.467 365.396 207.571 370.164C204.846 377.012 199.519 380.763 192.362 382.04C185.275 383.304 178.506 382.086 172.007 379.225C169.325 378.043 166.777 376.557 164.167 375.209Z" fill="#FEE6DE"/>
    <path d="M193.632 295.044C185.52 290.571 178.769 284.872 174.376 276.716C172.616 273.445 171.43 269.956 171.227 266.234C171.153 264.858 171.378 263.379 171.827 262.071C175.374 251.757 183.279 246.798 193.44 244.682C202.546 242.786 211.509 243.689 220.342 246.225C230.662 249.187 239.855 254.119 247.177 262.156C250.738 266.065 253.54 270.438 255.086 275.549C257.858 284.711 254.841 292.858 246.746 298.001C241.538 301.307 235.779 302.872 229.684 303.202C217.826 303.84 206.59 301.405 195.947 296.177C195.133 295.776 194.315 295.382 193.633 295.048L193.632 295.044Z" fill="#FEE6DE"/>
    <path d="M85.2589 400.014C77.1184 395.756 70.7868 389.615 66.3554 381.562C63.123 375.688 61.3335 369.36 60.607 362.705C59.2665 350.43 67.2557 340.759 77.3434 337.499C84.927 335.048 92.2429 335.754 99.2955 339.468C111.222 345.747 119.718 355.093 124.446 367.741C127.101 374.843 127.941 382.19 126.336 389.67C124.335 399.009 116.949 405.411 107.444 406.182C101.163 406.693 95.257 405.258 89.6458 402.529C88.1346 401.795 86.7181 400.86 85.2576 400.017L85.2589 400.014Z" fill="#FEE6DE"/>
    <path d="M176.234 211.505C173.206 209.973 169.563 207.458 166.76 203.88C162.39 198.301 160.609 192.202 163.436 185.354C165.52 180.307 168.954 176.279 173.462 173.235C184.22 165.97 196.124 163.996 208.77 165.899C217.335 167.191 225.178 170.377 232.043 175.703C236.77 179.372 240.157 184.086 241.661 189.944C243.625 197.59 241.786 204.24 235.966 209.661C228.769 216.367 219.984 219.286 210.392 220.026C198.489 220.941 187.421 218.177 176.232 211.51L176.234 211.505Z" fill="#FEE6DE"/>
    <path d="M1295.56 225.729C1292.44 228.978 1288.88 231.468 1285.08 233.541C1284.16 234.043 1283.25 234.576 1282.32 235.058C1278.4 237.1 1275.15 239.955 1272.6 243.707C1269.94 247.603 1267.28 251.503 1264.53 255.35C1260.36 261.184 1255.44 266.352 1249.75 270.793C1246.95 272.977 1243.93 274.452 1240.84 275.234C1235.75 276.518 1232.29 275.026 1230.22 271.228C1227.46 266.171 1226.24 260.335 1225.8 254.087C1225.21 245.704 1225.67 237.077 1227.87 228.064C1228.92 223.792 1230.59 219.584 1232.74 215.395C1235.52 209.951 1239.64 206.041 1245.03 203.335C1249.99 200.844 1254.97 199.397 1259.94 198.567C1272.31 196.502 1283.72 197.174 1294.1 200.721C1296.45 201.527 1298.54 202.736 1300.33 204.299C1302.91 206.551 1303.48 209.884 1302.76 213.846C1302.07 217.699 1300.04 221.174 1296.97 224.318C1296.5 224.792 1296.03 225.256 1295.56 225.726L1295.56 225.729Z" fill="#FEE6DE"/>
    <path d="M1242.53 159.897C1247.82 164.95 1251.01 171.073 1251.83 178.359C1252.02 180.065 1252 181.83 1251.81 183.538C1251.19 189.138 1246.73 192.87 1241.52 193.441C1237.69 193.862 1234.28 192.729 1231.13 190.662C1225.66 187.071 1222.07 181.991 1219.73 175.965C1218.22 172.067 1217.37 168.049 1217.79 163.84C1218.05 161.239 1218.73 158.742 1220.31 156.627C1222.57 153.591 1225.71 152.437 1229.44 152.755C1233.12 153.07 1236.32 154.575 1239.17 156.86C1240.34 157.803 1241.41 158.88 1242.53 159.897Z" fill="#FEE6DE"/>
    <path d="M1217.23 195.774C1220.67 199.074 1223.26 202.802 1224.36 207.435C1224.79 209.293 1224.92 211.182 1224.52 213.057C1224.38 213.75 1224.07 214.455 1223.67 215.044C1220.54 219.693 1215.96 221.103 1210.63 220.802C1205.86 220.532 1201.53 218.891 1197.48 216.458C1192.75 213.614 1188.84 209.943 1186.28 204.979C1185.03 202.565 1184.22 200.021 1184.13 197.278C1183.97 192.361 1186.56 188.718 1191.26 187.241C1194.28 186.292 1197.35 186.282 1200.42 186.929C1206.39 188.189 1211.65 190.893 1216.23 194.904C1216.59 195.211 1216.94 195.516 1217.23 195.772V195.774Z" fill="#FEE6DE"/>
    <path d="M1285 158.079C1288.47 161.276 1290.8 165.167 1291.93 169.754C1292.75 173.1 1292.8 176.479 1292.27 179.88C1291.31 186.152 1286.05 189.89 1280.61 190.167C1276.52 190.375 1272.98 189.051 1269.98 186.269C1264.89 181.566 1261.92 175.796 1261.25 168.888C1260.88 165.009 1261.44 161.25 1263.23 157.75C1265.46 153.38 1269.98 151.184 1274.8 152.065C1277.99 152.647 1280.73 154.145 1283.15 156.247C1283.81 156.812 1284.39 157.465 1285 158.078L1285 158.079Z" fill="#FEE6DE"/>
    <path d="M1214.76 239.561C1216.06 240.724 1217.53 242.457 1218.45 244.607C1219.87 247.958 1219.95 251.222 1217.63 254.246C1215.93 256.474 1213.69 258.017 1211.04 258.929C1204.74 261.104 1198.56 260.501 1192.54 257.874C1188.46 256.093 1184.99 253.468 1182.29 249.911C1180.43 247.46 1179.38 244.67 1179.41 241.561C1179.45 237.505 1181.25 234.448 1184.86 232.531C1189.32 230.159 1194.07 229.878 1198.93 230.787C1204.97 231.916 1210.09 234.76 1214.76 239.559L1214.76 239.561Z" fill="#FEE6DE"/>
    <path d="M1068.16 767.766C1080.03 767.44 1091.2 770.17 1101.7 775.677C1102.5 776.099 1103.31 776.515 1103.98 776.866L1103.98 776.87C1111.97 781.556 1118.57 787.431 1122.75 795.699C1124.27 798.706 1125.3 801.88 1125.56 805.224C1103.1 808.07 1079.4 810.768 1054.47 813.256C1052.76 811.751 1051.13 810.115 1049.59 808.336C1046.13 804.335 1043.45 799.89 1042.04 794.74C1039.51 785.508 1042.74 777.444 1050.97 772.516C1056.26 769.347 1062.06 767.935 1068.16 767.766Z" fill="#BAE7D6" fill-opacity="0.6"/>
    <path d="M1186.06 762.767C1208.53 753.246 1230.42 749.337 1251.66 751.34C1256.48 751.795 1260.97 753.137 1265.07 755.281C1270.97 758.371 1273.57 764.418 1274.01 772.237C1274.19 775.414 1273.9 778.571 1273.18 781.706C1236.18 788.95 1192.94 796.262 1143.36 802.901C1146.5 793.197 1152.12 785.216 1160.01 778.556C1168.26 771.594 1177.02 766.596 1186.06 762.767Z" fill="#BAE7D6" fill-opacity="0.6"/>
    <path d="M1107.54 689.938C1114.66 688.861 1121.4 690.256 1127.82 693.287C1130.47 694.539 1132.98 696.093 1135.55 697.509C1147.87 704.665 1156.68 714.804 1161.53 728.218C1162.66 731.359 1163.44 734.705 1163.85 738.022C1165.22 748.9 1158.46 757.989 1148.88 761.43C1141.82 763.968 1134.85 763.371 1127.95 760.89C1115.97 756.578 1106.88 748.594 1099.72 738.255C1095.09 731.567 1091.67 724.349 1090.54 716.196C1089.85 711.157 1090.01 706.125 1092.03 701.408C1094.93 694.635 1100.36 691.026 1107.54 689.938Z" fill="#BAE7D6" fill-opacity="0.6"/>
    <path d="M1193.07 668.04C1199.36 667.695 1205.23 669.285 1210.76 672.161C1212.26 672.935 1213.65 673.907 1215.09 674.788L1215.08 674.79C1223.11 679.262 1229.28 685.568 1233.5 693.734C1236.57 699.691 1238.19 706.065 1238.75 712.736C1239.76 725.042 1231.52 734.499 1221.35 737.492C1213.71 739.743 1206.41 738.845 1199.46 734.946C1187.7 728.355 1179.45 718.789 1175.06 706.021C1172.59 698.851 1171.95 691.484 1173.75 684.05C1175.99 674.766 1183.55 668.561 1193.07 668.04Z" fill="#BAE7D6" fill-opacity="0.6"/>
    <path d="M281.574 790.043C284.802 785.748 288.919 783.247 294.488 783.974C298.593 784.509 302.216 786.234 305.33 788.938C310.635 793.544 314.078 799.109 316.011 805.421C302.704 803.743 289.826 802.014 277.375 800.245C277.521 799.658 277.678 799.069 277.846 798.476L277.85 798.477C278.377 795.959 279.504 792.797 281.574 790.043Z" fill="#E2D7EF" fill-opacity="0.8"/>
    <path d="M180.094 705.021C185.531 703.072 191.466 703.098 197.747 704.704C198.695 704.946 199.637 705.211 200.585 705.465L200.589 705.462C207.042 707.055 212.848 709.764 218.298 713.088C219.618 713.894 220.972 714.667 222.27 715.493C227.769 718.994 233.809 721.034 240.488 721.534C247.425 722.055 254.368 722.577 261.312 723.251C271.837 724.273 282.072 726.756 291.94 730.746C296.792 732.707 300.904 735.478 304.187 738.855C309.577 744.404 310.221 749.922 306.896 755.368C302.471 762.62 295.922 768.492 288.264 773.659C277.989 780.595 266.626 786.365 253.49 790.2C247.263 792.018 240.652 792.984 233.72 793.335C233.217 793.36 232.717 793.375 232.22 793.383C227.472 792.612 222.799 791.838 218.199 791.061C215.109 789.938 212.132 788.419 209.246 786.521C202.408 782.025 196.888 776.733 192.158 770.99C180.398 756.71 172.839 741.638 169.721 725.772C169.012 722.168 169.021 718.615 169.696 715.175C170.67 710.218 174.505 707.028 180.094 705.021Z" fill="#E2D7EF" fill-opacity="0.8"/>
    <path d="M144.443 743.474C153.169 740.084 161.818 744.036 166.185 750.783C169.467 755.855 170.386 761.351 169.05 767.244C167.895 772.34 165.974 776.934 163.262 781.004C148.133 778.011 134.069 775.037 121.066 772.129C121.311 771.025 121.663 769.94 121.957 768.845L121.959 768.846C123.48 762.049 126.735 756.208 131.762 751.383C135.429 747.863 139.713 745.311 144.443 743.474Z" fill="#E2D7EF" fill-opacity="0.8"/>
</svg>