<svg viewBox="0 0 179 95" fill="none" xmlns="http://www.w3.org/2000/svg">
    <path fill-rule="evenodd" clip-rule="evenodd" d="M54.3908 81.2549C52.3404 81.2844 50.3841 80.085 48.7299 78.8032C43.97 75.1105 40.1024 70.3931 37.4142 65.0011C36.1018 62.3596 35.0069 59.47 32.7562 57.5575C32.1663 61.7874 32.8223 66.1832 34.6225 70.0596C36.238 73.5367 38.7191 76.5438 41.3736 79.3165C45.2684 83.3841 50.2361 87.2667 55.8502 86.9757C56.3333 88.2499 56.8637 89.1756 57.4134 89.5978H84.0854C84.0854 89.5978 83.9176 88.9732 83.4223 88.1548L90.4739 88.5668C90.7994 87.0164 89.3384 82.3226 84.3803 81.4625C81.3287 80.9335 74.8247 81.4625 74.8247 81.4625C74.8247 81.4625 81.0073 78.5942 78.6142 72.9197C76.87 68.7849 73.5814 68.4853 71.9261 68.6267C73.5849 64.8831 75.8305 60.0285 78.4428 54.6948C79.1981 53.1482 79.7813 51.5234 80.182 49.8494C80.7449 50.119 81.4406 50.0936 82.2552 49.3988C84.6493 47.3576 83.4518 40.7238 80.7164 38.8524C80.6614 38.8152 80.6044 38.7811 80.5456 38.7502C79.6851 33.0559 77.5077 28.4923 76.2206 27.0131C73.8265 24.2618 69.5523 22.715 69.5523 22.715C67.6718 19.4475 68.8684 16.009 69.7232 16.009C70.578 16.009 79.5601 15.2084 81.5209 12.0543C83.2306 9.3035 81.8621 5.01813 81.6913 3.4581C81.5204 1.89706 70.6574 4.31773 68.1422 1.89707C65.6271 -0.522068 56.2163 0.878751 54.1645 4.31722C52.1314 7.72415 58.3226 23.4511 59.2685 29.594C55.5588 30.414 55.4347 36.2421 55.7521 39.8733C56.0333 43.09 57.4704 47.9166 57.9723 49.5315L57.9265 50.2243C57.9265 50.2243 57.242 56.2426 54.6776 63.6358C53.1703 67.9797 53.3757 75.4106 54.3908 81.2549ZM79.4385 29.6876L81.2972 34.6627L83.493 32.9475C83.3241 34.6627 86.1963 42.2116 86.1963 42.2116C86.1963 42.2116 88.8991 42.7263 89.913 40.3245C90.9265 37.9226 87.7167 30.3738 86.0269 28.1428C84.3371 25.9129 79.4385 29.6876 79.4385 29.6876Z" fill="#9E7343"/>
    <path fill-rule="evenodd" clip-rule="evenodd" d="M69.2152 18.8956L60.2377 20.6723L57.5446 23.6148V24.9333L70.1636 22.4561L69.2152 18.8956Z" fill="#FF9100"/>
    <path fill-rule="evenodd" clip-rule="evenodd" d="M61.4129 18.9495C60.8485 20.7054 59.4973 22.3814 57.4114 23.389C56.6099 23.7756 53.6636 24.8203 52.8865 24.4897C51.5318 23.9139 52.8865 20.9816 51.4586 16.861C49.9264 12.4383 50.9654 6.12597 51.4586 5.20074C53.1408 2.04762 57.4261 0.91181 60.1513 2.72769C61.688 3.75109 61.6001 5.08273 61.4129 6.74957C61.1246 9.31977 60.8942 11.7893 61.1841 14.3783C61.4012 16.3142 62.0094 17.0945 61.4129 18.9495Z" fill="#9E7343"/>
    <path d="M65.5996 7.70533C65.0379 7.70533 64.5826 7.136 64.5826 6.4337C64.5826 5.73141 65.0379 5.16208 65.5996 5.16208C66.1613 5.16208 66.6166 5.73141 66.6166 6.4337C66.6166 7.136 66.1613 7.70533 65.5996 7.70533Z" fill="#10162D"/>
    <path d="M64.8776 66.8404C63.2469 66.4104 61.7644 66.6234 60.5392 67.0819C59.326 67.5361 58.3556 68.2334 57.6975 68.8012C57.3658 69.0874 57.1051 69.347 56.9251 69.5389C56.835 69.6351 56.7641 69.715 56.7143 69.7728C56.6895 69.8016 56.6698 69.8253 56.6553 69.8428C56.648 69.8516 56.6413 69.859 56.6367 69.8646C56.6344 69.8675 56.6329 69.8703 56.6312 69.8723L56.6291 69.8745L56.628 69.8767C56.631 69.8799 56.6839 69.9226 57.5009 70.5773L58.3727 71.2768C58.3727 71.2768 58.3756 71.2741 58.3771 71.2724C58.3831 71.2652 58.3938 71.2526 58.4088 71.2352C58.4398 71.1992 58.4901 71.143 58.5574 71.0713C58.6923 70.9273 58.8951 70.7223 59.1583 70.4953C59.6903 70.0363 60.4356 69.5106 61.3236 69.1783C62.1997 68.8504 63.2043 68.7137 64.3073 69.0045C65.3453 69.2782 66.5606 69.9544 67.8886 71.374L68.1552 71.6669C69.5383 73.2327 69.9138 74.5995 69.8399 75.7426C69.7636 76.9218 69.1977 78.0399 68.3814 79.0499C67.568 80.0562 66.5622 80.8838 65.7407 81.4676C65.3337 81.7569 64.9802 81.9803 64.7312 82.1299C64.6072 82.2044 64.5098 82.2608 64.445 82.2971C64.4127 82.3153 64.3879 82.3283 64.3729 82.3365C64.3655 82.3405 64.3605 82.3437 64.3576 82.3452L64.3554 82.3463C64.3554 82.3463 64.3567 82.347 64.3587 82.3507L64.9639 84.4525L64.9694 84.4514C64.9733 84.4511 64.9798 84.4509 64.988 84.4503C65.0042 84.449 65.0288 84.4472 65.0612 84.4448C65.1262 84.44 65.2231 84.4328 65.3485 84.424C65.5996 84.4065 65.9658 84.3822 66.4225 84.3552C67.3364 84.3011 68.6124 84.2367 70.0573 84.1934C72.7829 84.1118 76.0548 84.1086 78.6391 84.3869L79.146 84.447C81.5646 84.7551 82.9883 85.892 83.8199 86.9237C84.2425 87.448 84.5176 87.9534 84.6852 88.3227C84.7684 88.5061 84.8243 88.6535 84.8578 88.75C84.8744 88.7981 84.8856 88.8338 84.8917 88.8538L84.8971 88.8724V88.868L87.0592 88.2931L87.0581 88.2921V88.2888C87.0581 88.2888 87.0566 88.2847 87.056 88.2822C87.0545 88.2769 87.0526 88.2701 87.0505 88.2625C87.0462 88.2475 87.0401 88.228 87.033 88.2046C87.0188 88.1578 86.9986 88.094 86.9718 88.0166C86.9182 87.8619 86.8374 87.6496 86.7227 87.3969C86.4937 86.8923 86.126 86.2173 85.5625 85.5181C84.4214 84.1025 82.4999 82.6174 79.429 82.2261L78.8871 82.1627C76.1349 81.8658 72.7321 81.8729 69.9896 81.955C69.5208 81.9691 69.0698 81.989 68.6425 82.0064C69.1462 81.5509 69.6561 81.0328 70.1218 80.4566C71.1065 79.2381 71.9564 77.6899 72.073 75.8869C72.1919 74.0478 71.537 72.1148 69.8323 70.1849L69.522 69.8439C67.9681 68.1833 66.403 67.2426 64.8776 66.8404ZM60.0356 27.9494C58.5814 27.9494 57.4138 28.4778 56.5395 29.3713C55.6954 30.2339 55.1806 31.3766 54.8635 32.5453C54.3111 34.5821 54.2867 36.972 54.4058 38.8889L54.4637 39.6791C54.6443 41.7651 55.267 44.4305 55.826 46.5276C56.1082 47.5862 56.3792 48.5187 56.5799 49.1868C56.6802 49.5207 56.7633 49.7892 56.8213 49.9748C56.8503 50.0674 56.8734 50.1398 56.8891 50.1891C56.8968 50.2135 56.9024 50.2329 56.9066 50.2459C56.9086 50.2524 56.9109 50.2577 56.912 50.2612L56.9131 50.2656L57.9783 49.9235L56.9142 50.2667L57.5413 52.2143L58.8425 50.635C59.6959 49.5982 61.2273 48.6502 63.1995 47.8239C65.1438 47.0093 67.3903 46.3629 69.5427 45.8642C71.6904 45.3666 73.717 45.0224 75.2075 44.8018C75.7654 44.7193 76.2473 44.6551 76.631 44.6062L77.2789 47.7375L77.2953 47.8162L77.3226 47.8916L77.3237 47.8927V47.8949L77.3259 47.9004C77.3273 47.9043 77.3292 47.909 77.3314 47.9146C77.3356 47.926 77.3417 47.9412 77.3488 47.9594C77.363 47.9958 77.3823 48.0456 77.4078 48.1059C77.4588 48.2264 77.534 48.3921 77.6318 48.5824C77.8224 48.9534 78.1232 49.4623 78.5419 49.9114C78.9541 50.3536 79.5695 50.8327 80.3904 50.9465C81.1467 51.0513 81.8893 50.8221 82.582 50.3158L82.8759 50.082C83.7357 49.3409 84.192 48.2606 84.4011 47.1692C84.6127 46.0648 84.5944 44.8377 84.4077 43.652C84.2204 42.4636 83.8564 41.27 83.3403 40.2289C82.8301 39.1999 82.1339 38.2464 81.2393 37.6276L81.0186 37.4899C80.4889 37.1926 79.8505 37.0485 79.2356 36.974C78.5055 36.8856 77.6678 36.8807 76.7895 36.927C75.0307 37.0197 72.9828 37.3254 71.057 37.6844C69.1245 38.0447 67.2828 38.465 65.9265 38.7938C65.2478 38.9583 64.6886 39.1002 64.2986 39.2015C64.1036 39.2521 63.9498 39.2927 63.8452 39.3206C63.7934 39.3344 63.7534 39.3449 63.7261 39.3523C63.7125 39.356 63.7016 39.3591 63.6944 39.361C63.6908 39.362 63.6857 39.3632 63.6857 39.3632L63.6835 39.3643C63.6841 39.3673 63.6984 39.4219 63.9774 40.4442L64.2724 41.524L64.2735 41.5229C64.2735 41.5229 64.278 41.5227 64.2811 41.5218C64.2872 41.5202 64.2963 41.5175 64.3084 41.5142C64.3337 41.5074 64.3722 41.4969 64.4221 41.4836C64.5221 41.4569 64.6703 41.417 64.8602 41.3677C65.2401 41.2691 65.7876 41.1301 66.4531 40.9688C67.7854 40.6458 69.5859 40.2363 71.4667 39.8857C73.3543 39.5337 75.2919 39.2473 76.9075 39.1621C77.7161 39.1195 78.413 39.1289 78.9669 39.196C79.5476 39.2663 79.8485 39.3849 79.9676 39.4671L79.9665 39.4682C80.4425 39.7973 80.9246 40.3947 81.3355 41.2235C81.7406 42.0406 82.0419 43.0132 82.1975 44.0007C82.3535 44.9908 82.3566 45.9506 82.204 46.7473C82.049 47.5569 81.7551 48.0926 81.4152 48.3857L81.2645 48.507C80.9361 48.7491 80.7566 48.7371 80.6974 48.7289C80.5864 48.7135 80.409 48.6318 80.1785 48.3846C79.9545 48.1444 79.7628 47.8347 79.6213 47.5594C79.5532 47.4267 79.5017 47.3125 79.4683 47.2337C79.4616 47.2179 79.4571 47.2026 79.452 47.19L78.4086 42.159L77.4057 42.2607H77.4024C77.4001 42.2609 77.3965 42.2614 77.3925 42.2618C77.3843 42.2626 77.3719 42.2634 77.3565 42.2651C77.3254 42.2683 77.2799 42.2739 77.221 42.2804C77.1032 42.2934 76.9311 42.3128 76.7119 42.3394C76.2737 42.3926 75.6455 42.4741 74.8797 42.5875C73.3494 42.814 71.2609 43.1687 69.038 43.6837C66.8202 44.1976 64.44 44.8775 62.3353 45.7593C60.9445 46.342 59.6156 47.0375 58.5279 47.872C58.3669 47.3198 58.1785 46.6646 57.9882 45.9505C57.4331 43.8683 56.8561 41.3634 56.6935 39.4856L56.6378 38.7337C56.527 36.9301 56.5635 34.8282 57.0235 33.1322C57.2849 32.1682 57.6591 31.4257 58.1378 30.9365C58.5864 30.4781 59.176 30.1878 60.0356 30.1878V27.9494Z" fill="#10162D"/>
    <path d="M65.7013 32.3013C64.8814 29.6054 62.1761 27.6656 59.4182 27.9808L59.6727 30.2039C61.2575 30.023 63.0241 31.1911 63.5599 32.9527L65.7013 32.3013ZM58.4786 7.39372C59.1203 9.41593 59.5581 10.6747 59.8475 11.5393C60.1414 12.4171 60.2641 12.8366 60.3282 13.2597C60.3939 13.6928 60.4038 14.1639 60.4058 15.1625C60.4078 16.1425 60.4041 17.5601 60.4615 19.8L62.6979 19.7421C62.6413 17.5323 62.6453 16.1398 62.6433 15.1582C62.6414 14.1956 62.6358 13.5519 62.5406 12.9241C62.4439 12.2864 62.2603 11.6984 61.9692 10.8289C61.6736 9.94567 61.2459 8.71602 60.6112 6.71608L58.4786 7.39372Z" fill="#10162D"/>
    <path fill-rule="evenodd" clip-rule="evenodd" d="M179 94.6841H1.43783C1.43783 94.6841 2.57183 89.4542 2.18078 84.4196C1.79074 79.3865 -0.123845 74.5487 0.0063363 74.3381C4.85916 76.8824 6.89529 82.2883 8.89937 86.711C11.4872 85.007 11.1826 78.7954 11.232 76.1128C14.0797 78.5665 14.8043 82.6708 17.1318 85.6159C17.7624 86.4145 19.1542 88.1785 20.3991 87.4857C21.3994 86.9292 21.1675 84.1683 20.9432 83.2217C20.8629 82.8809 20.3808 81.2715 20.6 81.4022C22.7663 82.6912 24.8939 86.1607 26.6148 87.9114C27.5972 88.9109 29.3074 90.3148 30.7877 90.4079C32.0793 90.4887 33.793 89.8906 35.0654 89.624C37.6009 89.0925 40.7471 88.4399 42.8615 86.8468C44.682 85.4765 46.1064 83.594 48.0958 82.4796C47.8635 84.6272 47.3963 86.7428 46.7024 88.7883C51.2618 88.4984 55.7266 86.8641 59.3834 84.1479C59.7206 83.915 58.9308 86.2639 57.8736 88.5427C71.3942 87.7954 90.0595 87.59 101.798 88.0269C117.97 88.6281 136.617 89.624 151.584 90.9577L179 94.6841Z" fill="#5C77E0"/>
</svg>