<svg xmlns="http://www.w3.org/2000/svg" viewBox="0 0 1440 35">
  <path d="M0 0.345396L5.55387e-06 21.992L3.60001 22.2453L7.20001 22.4986L10.8 22.7453L14.4 22.992L18 23.2453L21.6 23.4853L25.2 23.732L28.8 23.9786L32.4 24.2186L36 24.4586L39.6 24.6986L43.2 24.932L46.8 25.1653L50.4 25.3986L54 25.632L57.6 25.8586L61.2 26.0853L64.8 26.312L68.4 26.532L72 26.7586L75.6 26.972L79.2 27.192L82.8 27.4053L86.4 27.6186L90 27.8253L93.6 28.032L97.2 28.232L100.8 28.4386L104.4 28.632L108 28.832L111.6 29.0253L115.2 29.212L118.8 29.3986L122.4 29.5853L126 29.7653L129.6 29.9453L133.2 30.1253L136.8 30.292L140.4 30.4653L144 30.632L147.6 30.792L151.2 30.952L154.8 31.112L158.4 31.2653L162 31.412L165.6 31.5586L169.2 31.7053L172.8 31.8453L176.4 31.9786L180 32.112L183.6 32.2386L187.2 32.3653L190.8 32.492L194.4 32.6053L198 32.7186L201.6 32.832L205.2 32.9386L208.8 33.0453L212.4 33.1453L216 33.2386L219.6 33.332L223.2 33.4186L226.8 33.5053L230.4 33.5853L234 33.6586L237.6 33.732L241.2 33.7986L244.8 33.8653L248.4 33.9253L252 33.9786L255.6 34.032L259.2 34.0786L262.8 34.1253L266.4 34.1653L270 34.2053L273.6 34.232L277.2 34.2653L280.8 34.2853L284.4 34.3053L288 34.3253L291.6 34.3319L295.2 34.3386L298.8 34.3453H302.4L306 34.3386L309.6 34.3319L313.2 34.3186L316.8 34.2986L320.4 34.2786L324 34.252L327.6 34.2253L331.2 34.192L334.8 34.152L338.4 34.1119L342 34.0653L345.6 34.0186L349.2 33.9653L352.8 33.9053L356.4 33.8453L360 33.7786L363.6 33.7053L367.2 33.6319L370.8 33.5586L374.4 33.472L378 33.392L381.6 33.2986L385.2 33.2053L388.8 33.1119L392.4 33.0119L396 32.9053L399.6 32.7986L403.2 32.6853L406.8 32.5653L410.4 32.452L414 32.3253L417.6 32.1986L421.2 32.0653L424.8 31.932L428.4 31.7986L432 31.6586L435.6 31.5119L439.2 31.3653L442.8 31.212L446.4 31.0586L450 30.8986L453.6 30.7386L457.2 30.5786L460.8 30.4053L464.4 30.2386L468 30.0653L471.6 29.8853L475.2 29.7053L478.8 29.5253L482.4 29.3386L486 29.152L489.6 28.9586L493.2 28.7653L496.8 28.5719L500.4 28.3719L504 28.1653L507.6 27.9653L511.2 27.752L514.8 27.5453L518.4 27.3319L522 27.1186L525.6 26.8986L529.2 26.6853L532.8 26.4586L536.4 26.2386L540 26.012L543.6 25.7853L547.2 25.5519L550.8 25.3253L554.4 25.0919L558 24.8519L561.6 24.6186L565.2 24.3786L568.8 24.1386L572.4 23.892L576 23.652L579.6 23.4053L583.2 23.1586L586.8 22.912L590.4 22.6653L594 22.412L597.6 22.1586L601.2 21.9053L604.8 21.652L608.4 21.3986L612 21.1453L615.6 20.8853L619.2 20.632L622.8 20.372L626.4 20.112L630 19.852L633.6 19.592L637.2 19.332L640.8 19.072L644.4 18.812L648 18.552L651.6 18.292L655.2 18.0253L658.8 17.7653L662.4 17.5053L666 17.2453L669.6 16.9786L673.2 16.7186L676.8 16.4586L680.4 16.1986L684 15.9386L687.6 15.6786L691.2 15.4186L694.8 15.1586L698.4 14.8986L702 14.6386L705.6 14.3853L709.2 14.1253L712.8 13.872L716.4 13.6186L720 13.3653L723.6 13.112L727.2 12.8586L730.8 12.612L734.4 12.3653L738 12.112L741.6 11.872L745.2 11.6253L748.8 11.3786L752.4 11.1386L756 10.8986L759.6 10.6586L763.2 10.4253L766.8 10.192L770.4 9.95862L774 9.72532L777.6 9.49862L781.2 9.27202L784.8 9.04532L788.4 8.82532L792 8.59862L795.6 8.38532L799.2 8.16532L802.8 7.95202L806.4 7.73862L810 7.53202L813.6 7.32532L817.2 7.12532L820.8 6.91862L824.4 6.72532L828 6.52532L831.6 6.33202L835.2 6.14532L838.8 5.95862L842.4 5.77202L846 5.59202L849.6 5.41202L853.2 5.23202L856.8 5.06532L860.4 4.89202L864 4.72532L867.6 4.56532L871.2 4.40532L874.8 4.24532L878.4 4.09202L882 3.94532L885.6 3.79862L889.2 3.65202L892.8 3.51202L896.4 3.37862L900 3.24532L903.6 3.11862L907.2 2.99202L910.8 2.86532L914.4 2.75202L918 2.63862L921.6 2.52532L925.2 2.41862L928.8 2.31202L932.4 2.21202L936 2.11862L939.6 2.02532L943.2 1.93862L946.8 1.85202L950.4 1.77202L954 1.69862L957.6 1.62532L961.2 1.55862L964.8 1.49202L968.4 1.43202L972 1.37862L975.6 1.32532L979.2 1.27862L982.8 1.23202L986.4 1.19202L990 1.15202L993.6 1.12532L997.2 1.09202L1000.8 1.07202L1004.4 1.05202L1008 1.03202L1011.6 1.02532L1015.2 1.01862L1018.8 1.01202H1022.4L1026 1.01862L1029.6 1.02532L1033.2 1.03862L1036.8 1.05862L1040.4 1.07862L1044 1.10532L1047.6 1.13202L1051.2 1.16532L1054.8 1.20532L1058.4 1.24532L1062 1.29202L1065.6 1.33862L1069.2 1.39202L1072.8 1.45202L1076.4 1.51202L1080 1.57862L1083.6 1.65202L1087.2 1.72532L1090.8 1.79862L1094.4 1.88532L1098 1.96532L1101.6 2.05862L1105.2 2.15202L1108.8 2.24532L1112.4 2.34532L1116 2.45202L1119.6 2.55862L1123.2 2.67192L1126.8 2.79202L1130.4 2.90532L1134 3.03202L1137.6 3.15862L1141.2 3.29202L1144.8 3.42532L1148.4 3.55862L1152 3.69862L1155.6 3.84532L1159.2 3.99202L1162.8 4.14532L1166.4 4.29862L1170 4.45862L1173.6 4.61862L1177.2 4.77862L1180.8 4.95202L1184.4 5.11862L1188 5.29202L1191.6 5.47192L1195.2 5.65192L1198.8 5.83202L1202.4 6.01862L1206 6.20532L1209.6 6.39862L1213.2 6.59192L1216.8 6.78532L1220.4 6.98532L1224 7.19192L1227.6 7.39192L1231.2 7.60532L1234.8 7.81192L1238.4 8.02532L1242 8.23862L1245.6 8.45862L1249.2 8.67192L1252.8 8.89862L1256.4 9.11862L1260 9.34532L1263.6 9.57192L1267.2 9.80532L1270.8 10.0319L1274.4 10.2653L1278 10.5053L1281.6 10.7386L1285.2 10.9786L1288.8 11.2186L1292.4 11.4653L1296 11.7053L1299.6 11.9519L1303.2 12.1986L1306.8 12.4453L1310.4 12.6919L1314 12.9453L1317.6 13.1986L1321.2 13.4519L1324.8 13.7053L1328.4 13.9586L1332 14.2119L1335.6 14.4719L1339.2 14.7253L1342.8 14.9853L1346.4 15.2453L1350 15.5053L1353.6 15.7653L1357.2 16.0253L1360.8 16.2853L1364.4 16.5453L1368 16.8053L1371.6 17.0653L1375.2 17.3319L1378.8 17.5919L1382.4 17.8519L1386 18.1119L1389.6 18.3786L1393.2 18.6386L1396.8 18.8986L1400.4 19.1586L1404 19.4186L1407.6 19.6786L1411.2 19.9386L1414.8 20.1986L1418.4 20.4586L1422 20.7186L1425.6 20.9719L1429.2 21.2319L1432.8 21.4852L1436.4 21.7386L1440 21.9919V0.345322L0 0.345396Z" fill="#FFFCF5"/>
</svg>