<svg viewBox="0 0 30 31" fill="none" xmlns="http://www.w3.org/2000/svg">
    <path d="M8.78763 0.788988C7.19163 0.864288 6.10172 1.11899 5.14892 1.49339C4.16282 1.87769 3.32702 2.39339 2.49542 3.22799C1.66382 4.06259 1.15172 4.89899 0.770124 5.88659C0.400824 6.84149 0.150624 7.93229 0.0801243 9.52919C0.00962433 11.1261 -0.00597568 11.6394 0.00182432 15.7128C0.00962432 19.7862 0.0276243 20.2968 0.105024 21.897C0.181224 23.4927 0.435024 24.5823 0.809424 25.5354C1.19432 26.5215 1.70942 27.357 2.54432 28.1889C3.37922 29.0208 4.21502 29.5317 5.20502 29.9139C6.15902 30.2826 7.25013 30.534 8.84673 30.6039C10.4433 30.6738 10.9572 30.69 15.0294 30.6822C19.1016 30.6744 19.6143 30.6564 21.2142 30.5805C22.8141 30.5046 23.898 30.249 24.8514 29.8764C25.8375 29.4906 26.6736 28.9764 27.5049 28.1412C28.3362 27.306 28.848 26.469 29.2293 25.4808C29.5989 24.5268 29.85 23.4357 29.9193 21.8403C29.9892 20.2392 30.0057 19.728 29.9979 15.6552C29.9901 11.5824 29.9718 11.0718 29.8959 9.47219C29.82 7.87259 29.5659 6.78629 29.1918 5.83259C28.8063 4.84649 28.2918 4.01159 27.4572 3.17909C26.6226 2.34659 25.785 1.83509 24.7971 1.45469C23.8425 1.08539 22.752 0.833688 21.1554 0.764688C19.5588 0.695688 19.0449 0.677988 14.9712 0.685788C10.8975 0.693588 10.3875 0.710988 8.78763 0.788988ZM8.96283 27.9054C7.50033 27.8418 6.70622 27.5988 6.17702 27.3954C5.47622 27.1254 4.97702 26.799 4.44962 26.2767C3.92222 25.7544 3.59822 25.2534 3.32462 24.5541C3.11912 24.0249 2.87162 23.2317 2.80322 21.7692C2.72882 20.1885 2.71322 19.7139 2.70452 15.7092C2.69582 11.7045 2.71112 11.2305 2.78042 9.64919C2.84282 8.18789 3.08732 7.39289 3.29042 6.86399C3.56042 6.16229 3.88562 5.66399 4.40912 5.13689C4.93262 4.60979 5.43212 4.28519 6.13202 4.01159C6.66062 3.80519 7.45382 3.55979 8.91572 3.49019C10.4976 3.41519 10.9716 3.40019 14.9757 3.39149C18.9798 3.38279 19.455 3.39779 21.0375 3.46739C22.4988 3.53099 23.2941 3.77309 23.8224 3.97739C24.5235 4.24739 25.0224 4.57169 25.5495 5.09609C26.0766 5.62049 26.4015 6.11819 26.6751 6.81959C26.8818 7.34669 27.1272 8.13959 27.1962 9.60239C27.2715 11.1843 27.2886 11.6586 27.2958 15.6624C27.303 19.6662 27.2889 20.1417 27.2196 21.7224C27.1557 23.1849 26.9133 23.9793 26.7096 24.5091C26.4396 25.2096 26.1141 25.7091 25.5903 26.2359C25.0665 26.7627 24.5676 27.0873 23.8674 27.3609C23.3394 27.567 22.5453 27.813 21.0846 27.8826C19.5027 27.957 19.0287 27.9726 15.0231 27.9813C11.0175 27.99 10.5447 27.9738 8.96283 27.9054ZM21.1911 7.66709C21.1917 8.02312 21.2979 8.37098 21.4962 8.66667C21.6945 8.96236 21.976 9.1926 22.3052 9.32827C22.6344 9.46394 22.9964 9.49895 23.3454 9.42886C23.6945 9.35878 24.015 9.18675 24.2662 8.93454C24.5175 8.68233 24.6884 8.36126 24.7572 8.01194C24.826 7.66261 24.7897 7.30074 24.6528 6.97207C24.5159 6.6434 24.2846 6.3627 23.9882 6.16548C23.6918 5.96826 23.3436 5.86338 22.9875 5.86409C22.5102 5.86504 22.0529 6.05552 21.716 6.39363C21.3791 6.73174 21.1903 7.1898 21.1911 7.66709ZM7.29812 15.699C7.30652 19.953 10.7613 23.3937 15.0144 23.3856C19.2675 23.3775 22.7106 19.923 22.7025 15.669C22.6944 11.415 19.2387 7.97339 14.985 7.98179C10.7313 7.99019 7.29002 11.4456 7.29812 15.699ZM9.99992 15.6936C9.99797 14.7047 10.2893 13.7374 10.8371 12.914C11.3849 12.0907 12.1645 11.4483 13.0774 11.068C13.9903 10.6878 14.9955 10.5867 15.9658 10.7778C16.9361 10.9688 17.828 11.4432 18.5286 12.1411C19.2293 12.839 19.7072 13.729 19.9021 14.6985C20.0969 15.6681 19.9999 16.6736 19.6233 17.588C19.2467 18.5024 18.6073 19.2846 17.7862 19.8356C16.965 20.3867 15.9988 20.6818 15.0099 20.6838C14.3533 20.6852 13.7028 20.5572 13.0956 20.3071C12.4884 20.0571 11.9365 19.6899 11.4712 19.2265C11.006 18.7631 10.6366 18.2126 10.3842 17.6064C10.1317 17.0002 10.0011 16.3503 9.99992 15.6936Z" fill="#1B244B"/>
</svg>