<svg viewBox="0 0 30 22" fill="none" xmlns="http://www.w3.org/2000/svg">
    <path d="M29.3449 3.46334C28.9983 2.17323 27.9778 1.15269 26.6877 0.806086C24.3578 0.170654 14.9803 0.170654 14.9803 0.170654C14.9803 0.170654 5.60297 0.18991 3.27306 0.825336C1.98294 1.17194 0.962407 2.19248 0.615809 3.4826C-0.000366271 5.81251 -0.000366211 10.6841 -0.000366211 10.6841C-0.000366211 10.6841 -0.000366271 15.5557 0.635064 17.9049C0.981662 19.195 2.0022 20.2156 3.29231 20.5622C5.62222 21.1976 14.9996 21.1976 14.9996 21.1976C14.9996 21.1976 24.377 21.1976 26.7069 20.5622C27.997 20.2156 29.0176 19.195 29.3642 17.9049C29.9996 15.575 29.9996 10.6841 29.9996 10.6841C29.9996 10.6841 29.9803 5.81251 29.3449 3.46334Z" fill="#1B244B"/>
    <path d="M11.9958 15.19L19.775 10.6842L11.9958 6.17847V15.19Z" fill="#FFFCF5"/>
</svg>