<svg viewBox="0 0 164 63" fill="none" xmlns="http://www.w3.org/2000/svg">
    <path d="M7.19483 5.27723C6.78959 3.02142 7.70314 0.977773 9.2353 0.712601C10.7675 0.447428 12.338 2.06115 12.7433 4.31695C13.1485 6.57275 12.235 8.6164 10.7028 8.88158C9.17065 9.14675 7.60008 7.53303 7.19483 5.27723Z" fill="#1B244B"/>
    <path d="M0.19984 9.90131C-0.386003 7.68406 0.359945 5.57597 1.86596 5.19276C3.37198 4.80956 5.06777 6.29634 5.65361 8.51359C6.23945 10.7308 5.49351 12.8389 3.98749 13.2221C2.48147 13.6053 0.785684 12.1186 0.19984 9.90131Z" fill="#1B244B"/>
    <path d="M14.2374 4.31695C13.8322 6.57275 14.7457 8.61641 16.2779 8.88158C17.81 9.14675 19.3806 7.53303 19.7859 5.27723C20.1911 3.02143 19.2775 0.977775 17.7454 0.712603C16.2132 0.447431 14.6426 2.06115 14.2374 4.31695Z" fill="#1B244B"/>
    <path d="M26.781 9.90136C27.3668 7.68408 26.6208 5.57591 25.1148 5.19264C23.6088 4.80936 21.9131 6.29611 21.3273 8.51338C20.7416 10.7307 21.4876 12.8388 22.9936 13.2221C24.4996 13.6054 26.1953 12.1186 26.781 9.90136Z" fill="#1B244B"/>
    <path d="M14.0749 12.3484C17.3351 12.3484 19.7409 13.1355 21.2921 14.7097C22.8434 16.2839 23.619 18.3484 23.619 20.9033C23.619 22.6581 23.1983 24.1807 22.357 25.4711C21.5419 26.7614 20.4245 27.7679 19.0047 28.4904C17.5849 29.1872 15.9811 29.5356 14.1932 29.5356C13.457 29.5356 12.6551 29.4582 11.7875 29.3033C10.9461 29.1485 10.0785 28.8646 9.18455 28.4517L9.46062 27.7162C9.67096 28.3356 9.84186 29.0969 9.97332 30.0001C10.1311 30.9034 10.2494 31.8324 10.3283 32.7872C10.4334 33.7163 10.486 34.5808 10.486 35.3808C10.486 37.0324 10.1442 38.297 9.46062 39.1744C8.80332 40.026 7.8305 40.4518 6.54218 40.4518C5.4905 40.4518 4.66229 40.1679 4.05757 39.6002C3.47914 39.0325 3.07161 38.1034 2.83498 36.8131C2.62464 35.5227 2.51947 33.8066 2.51947 31.6647C2.51947 28.0775 2.70352 25.0194 3.07161 22.4904C3.4397 19.9355 4.04442 17.9226 4.88577 16.4516C5.59566 15.1871 6.72623 14.1935 8.27747 13.471C9.82871 12.7226 11.7612 12.3484 14.0749 12.3484ZM13.1678 24.5807C14.6402 24.5807 15.8365 24.2065 16.7567 23.4581C17.7032 22.6839 18.1765 21.6001 18.1765 20.2065C18.1765 19.3033 17.8741 18.5549 17.2694 17.9613C16.6647 17.3678 15.6919 17.071 14.351 17.071C13.3782 17.071 12.5105 17.2903 11.748 17.7291C11.0119 18.142 10.4466 18.7097 10.0522 19.4323C9.65782 20.1549 9.46062 20.9678 9.46062 21.871C9.46062 22.7743 9.76298 23.4581 10.3677 23.9227C10.9724 24.3614 11.9058 24.5807 13.1678 24.5807Z" fill="#1B244B"/>
    <path d="M44.0675 40.568C42.9106 40.568 42.135 40.2325 41.7406 39.5615C41.3462 38.8647 41.149 37.7679 41.149 36.2711L41.6223 36.4647C40.1762 39.2776 37.4155 40.6841 33.3402 40.6841C31.4998 40.6841 29.9617 40.3615 28.726 39.7163C27.5165 39.0712 26.6094 38.2195 26.0047 37.1615C25.4263 36.0776 25.1371 34.8905 25.1371 33.6002C25.1371 31.4066 25.9258 29.6775 27.5034 28.413C29.1072 27.1227 31.2237 26.4775 33.8529 26.4775C35.5356 26.4775 36.9949 26.7227 38.2306 27.213C39.4926 27.7033 40.5706 28.3872 41.4645 29.2646L40.5575 29.1872C40.426 26.813 39.9133 25.1227 39.0194 24.1162C38.1517 23.1097 36.9028 22.6065 35.2727 22.6065C34.4051 22.6065 33.5637 22.7355 32.7487 22.9936C31.9336 23.2517 31.158 23.5227 30.4218 23.8065C29.6856 24.0646 28.9757 24.1936 28.2921 24.1936C27.4771 24.1936 26.8461 23.9614 26.3991 23.4968C25.9521 23.0323 25.7286 22.4259 25.7286 21.6775C25.7286 20.6452 26.2019 19.7033 27.1484 18.8516C28.1212 17.9742 29.3964 17.2774 30.9739 16.7613C32.5515 16.2194 34.2605 15.9484 36.1009 15.9484C38.4146 15.9484 40.3997 16.4387 42.0561 17.4194C43.7388 18.4 44.9614 19.8581 45.7239 21.7936C46.3812 23.3678 46.8413 25.1227 47.1042 27.0582C47.3934 28.9937 47.538 31.0582 47.538 33.2518C47.538 35.1873 47.4197 36.684 47.1831 37.7421C46.9465 38.8002 46.5652 39.5357 46.0394 39.9486C45.5398 40.3615 44.8825 40.568 44.0675 40.568ZM35.746 35.6905C36.4822 35.6905 37.2183 35.5873 37.9545 35.3808C38.717 35.1744 39.348 34.8647 39.8476 34.4518C40.3734 34.0131 40.6363 33.484 40.6363 32.8647C40.6363 32.2969 40.4128 31.8453 39.9659 31.5098C39.5452 31.1485 38.9931 30.8776 38.3095 30.6969C37.6259 30.5163 36.8897 30.4259 36.1009 30.4259C34.7337 30.4259 33.682 30.6711 32.9459 31.1614C32.2097 31.6518 31.8416 32.2969 31.8416 33.0969C31.8416 33.9227 32.1834 34.5679 32.867 35.0324C33.5506 35.4711 34.5102 35.6905 35.746 35.6905Z" fill="#1B244B"/>
    <path d="M50.0171 24.4646C50.0171 21.7807 50.3984 19.8452 51.1608 18.6581C51.9233 17.471 52.9224 16.8774 54.1581 16.8774C54.9469 16.8774 55.5516 17.1226 55.9723 17.6129C56.393 18.0774 56.6822 18.7097 56.84 19.5097C57.024 20.3097 57.116 21.2001 57.116 22.1807C57.116 23.1097 57.116 24.1807 57.116 25.3936C57.116 26.6065 57.116 27.8582 57.116 29.1485C57.116 30.4388 57.116 31.6518 57.116 32.7872H57.2738C58.01 29.6646 58.7593 27.1485 59.5218 25.2388C60.3105 23.3033 61.0993 21.8968 61.8881 21.0194C62.7031 20.142 63.505 19.7033 64.2938 19.7033C65.1614 19.7033 65.9896 20.142 66.7784 21.0194C67.5935 21.8968 68.3954 23.2775 69.1842 25.1614C69.9992 27.0195 70.8143 29.4324 71.6293 32.4001H71.7871C71.7871 30.5421 71.7739 28.5808 71.7477 26.5162C71.7477 24.4517 71.7477 22.5678 71.7477 20.8646C71.7477 19.1871 72.05 17.9613 72.6547 17.1871C73.2858 16.3871 74.1534 15.9871 75.2577 15.9871C76.5986 15.9871 77.5714 16.5678 78.1761 17.7291C78.8071 18.8646 79.1226 20.4 79.1226 22.3355C79.1226 23.7549 79.0437 25.2775 78.886 26.9033C78.7282 28.5033 78.5048 30.0518 78.2155 31.5485C77.9526 33.0453 77.6371 34.3485 77.269 35.4582C76.7169 37.1099 76.0596 38.3615 75.2971 39.2131C74.5609 40.0647 73.6012 40.4905 72.4181 40.4905C71.4716 40.4905 70.5119 40.0389 69.5391 39.1357C68.5663 38.2066 67.6592 36.7615 66.8179 34.8002C65.9765 32.8389 65.2272 30.284 64.5699 27.1356H64.4121C63.7811 30.1292 63.0055 32.5679 62.0853 34.4518C61.165 36.3099 60.1791 37.6776 59.1274 38.555C58.102 39.4325 57.0897 39.8712 56.0906 39.8712C54.9075 39.8712 53.8952 39.3937 53.0539 38.4389C52.2388 37.4841 51.5947 36.0131 51.1214 34.026C50.8848 33.0195 50.6876 31.9485 50.5298 30.813C50.3721 29.6517 50.2406 28.5162 50.1354 27.4066C50.0566 26.2969 50.0171 25.3162 50.0171 24.4646Z" fill="#1B244B"/>
    <path d="M92.3489 15.9484C94.873 15.9484 96.6872 16.3484 97.7915 17.1484C98.922 17.9226 99.4873 18.9291 99.4873 20.1678C99.4873 20.942 99.2244 21.5743 98.6985 22.0646C98.199 22.5291 97.4759 22.7614 96.5294 22.7614C95.7144 22.7614 94.8467 22.6452 93.9265 22.413C93.0063 22.1549 91.9546 22.0259 90.7714 22.0259C89.746 22.0259 88.9704 22.2323 88.4445 22.6452C87.9187 23.0323 87.6558 23.5227 87.6558 24.1162C87.6558 24.7098 87.8924 25.1872 88.3657 25.5485C88.8652 25.884 89.8512 26.1291 91.3236 26.284C93.2429 26.4904 94.8467 26.8259 96.135 27.2904C97.4234 27.7291 98.383 28.413 99.014 29.3421C99.6713 30.2453 100 31.5098 100 33.1356C100 35.6131 99.0929 37.4324 97.2787 38.5937C95.4646 39.755 92.9405 40.3357 89.7066 40.3357C87.6032 40.3357 85.9205 40.155 84.6585 39.7937C83.3964 39.4325 82.4762 38.9163 81.8978 38.2453C81.3456 37.5744 81.0696 36.8002 81.0696 35.9228C81.0696 35.0969 81.3456 34.4647 81.8978 34.026C82.4499 33.5614 83.1072 33.3292 83.8697 33.3292C84.4744 33.3292 85.1186 33.4066 85.8022 33.5614C86.4858 33.6905 87.2088 33.8453 87.9713 34.026C88.7338 34.1808 89.5225 34.2582 90.3376 34.2582C92.3358 34.2582 93.3349 33.6647 93.3349 32.4776C93.3349 32.0647 93.2297 31.7292 93.0194 31.4711C92.8091 31.1872 92.4147 30.955 91.8363 30.7743C91.2841 30.5937 90.4559 30.4388 89.3516 30.3098C87.6952 30.155 86.2623 29.884 85.0529 29.4969C83.8434 29.084 82.91 28.4517 82.2527 27.6001C81.5954 26.7227 81.2668 25.5356 81.2668 24.0388C81.2668 21.613 82.2264 19.6646 84.1458 18.1936C86.0651 16.6968 88.7995 15.9484 92.3489 15.9484Z" fill="#1B244B"/>
    <path d="M8.99863 16.6784H20.2667V24.9734H8.99863V16.6784Z" fill="#1B244B"/>
    <path d="M11.182 17.8437C12.0197 17.1862 12.5659 16.6163 13.5851 16.6838C14.4829 16.7433 15.6449 17.8437 15.6449 17.8437C15.6449 17.8437 17.8366 19.8824 18.048 21.7101C18.1705 22.7688 18.2934 23.5796 17.7047 24.4165C16.789 25.7184 15.4005 24.3157 13.9284 24.4165C12.7166 24.4994 11.7867 24.8031 10.8387 24.8031C9.89075 24.8031 9.49513 24.6437 9.12224 24.4165C6.99646 23.1213 9.40858 19.2359 11.182 17.8437Z" fill="#F7F3EB"/>
    <path d="M4.23652 60.256C3.90109 60.256 3.64511 60.1633 3.46865 59.978C3.2921 59.7926 3.20387 59.5323 3.20387 59.1968V52.4978H0.86054C0.586868 52.4978 0.375045 52.4228 0.225064 52.2728C0.0749892 52.1227 0 51.9153 0 51.6505C0 51.377 0.0749892 51.1695 0.225064 51.0283C0.375045 50.8782 0.586868 50.8032 0.86054 50.8032H7.59926C7.87283 50.8032 8.08466 50.8782 8.23474 51.0283C8.38472 51.1695 8.4598 51.377 8.4598 51.6505C8.4598 51.9153 8.38472 52.1227 8.23474 52.2728C8.08466 52.4228 7.87283 52.4978 7.59926 52.4978H5.25593V59.1968C5.25593 59.5323 5.16761 59.7926 4.99115 59.978C4.82339 60.1633 4.57185 60.256 4.23652 60.256ZM10.8898 60.256C10.5632 60.256 10.3117 60.1677 10.1351 59.9912C9.96745 59.8146 9.88358 59.5631 9.88358 59.2366V51.7035C9.88358 51.3681 9.96745 51.1165 10.1351 50.9489C10.3117 50.7723 10.5632 50.6841 10.8898 50.6841C11.2075 50.6841 11.4502 50.7723 11.6179 50.9489C11.7945 51.1165 11.8827 51.3681 11.8827 51.7035V54.8544H11.6973C11.9004 54.422 12.2004 54.091 12.5976 53.8615C13.0037 53.6232 13.4626 53.504 13.9745 53.504C14.4952 53.504 14.9233 53.6055 15.2587 53.8085C15.5941 54.0027 15.8456 54.3028 16.0133 54.7088C16.1811 55.1059 16.2648 55.6135 16.2648 56.2313V59.2366C16.2648 59.5631 16.1766 59.8146 16.0001 59.9912C15.8324 60.1677 15.5853 60.256 15.2587 60.256C14.9409 60.256 14.6938 60.1677 14.5173 59.9912C14.3496 59.8146 14.2657 59.5631 14.2657 59.2366V56.3239C14.2657 55.8738 14.1819 55.5516 14.0142 55.3575C13.8553 55.1545 13.6082 55.053 13.2728 55.053C12.8491 55.053 12.5094 55.1854 12.2534 55.4502C12.0063 55.7149 11.8827 56.068 11.8827 56.5093V59.2366C11.8827 59.9162 11.5517 60.256 10.8898 60.256ZM21.1336 60.2824C20.3658 60.2824 19.7038 60.1456 19.1478 59.872C18.6002 59.5896 18.1766 59.1968 17.8764 58.6938C17.5852 58.1819 17.4395 57.5817 17.4395 56.8932C17.4395 56.2225 17.5807 55.6355 17.8632 55.1324C18.1456 54.6205 18.5388 54.2234 19.0418 53.9409C19.5534 53.6496 20.1312 53.504 20.7762 53.504C21.2433 53.504 21.667 53.5834 22.0471 53.7423C22.4263 53.8924 22.7526 54.113 23.0268 54.4043C23.3001 54.6867 23.5072 55.0353 23.6491 55.4502C23.79 55.8561 23.8609 56.3107 23.8609 56.8138C23.8609 56.9815 23.8079 57.1095 23.702 57.1977C23.5961 57.2772 23.441 57.3169 23.2386 57.3169H19.0816V56.2842H22.4178L22.206 56.4696C22.206 56.1077 22.153 55.8076 22.0471 55.5693C21.9412 55.3222 21.7861 55.1369 21.5837 55.0133C21.3889 54.8897 21.1469 54.8279 20.8556 54.8279C20.5284 54.8279 20.2504 54.9029 20.0215 55.053C19.7917 55.2031 19.6149 55.4192 19.492 55.7017C19.3681 55.9842 19.3066 56.324 19.3066 56.7211V56.827C19.3066 57.4978 19.4608 57.9921 19.77 58.3098C20.0877 58.6276 20.5549 58.7864 21.1733 58.7864C21.3852 58.7864 21.6273 58.7599 21.9015 58.707C22.1748 58.654 22.4311 58.5702 22.6694 58.4555C22.8717 58.3583 23.0533 58.3275 23.2122 58.3628C23.371 58.3893 23.494 58.4599 23.5829 58.5746C23.6708 58.6893 23.719 58.8217 23.7285 58.9718C23.7455 59.1218 23.7153 59.2718 23.6358 59.4219C23.5564 59.5631 23.424 59.6822 23.2386 59.7794C22.9379 59.947 22.5984 60.0706 22.2192 60.1501C21.8485 60.2383 21.4863 60.2824 21.1336 60.2824ZM29.9254 60.256C29.5906 60.256 29.3343 60.1633 29.1575 59.978C28.9816 59.7926 28.8927 59.5323 28.8927 59.1968V51.8491C28.8927 51.5049 28.9816 51.2446 29.1575 51.068C29.3428 50.8915 29.6038 50.8032 29.9386 50.8032H33.1557C34.1978 50.8032 35.0007 51.068 35.5652 51.5976C36.1307 52.1184 36.4125 52.8465 36.4125 53.782C36.4125 54.7176 36.1307 55.4502 35.5652 55.9797C35.0007 56.5093 34.1978 56.7741 33.1557 56.7741H30.9448V59.1968C30.9448 59.5323 30.8568 59.7926 30.68 59.978C30.5126 60.1633 30.2611 60.256 29.9254 60.256ZM30.9448 55.1854H32.8115C33.341 55.1854 33.7429 55.0662 34.0162 54.8279C34.299 54.5896 34.4399 54.241 34.4399 53.782C34.4399 53.3231 34.299 52.9789 34.0162 52.7494C33.7429 52.5199 33.341 52.4052 32.8115 52.4052H30.9448V55.1854ZM40.5394 60.2824C39.7715 60.2824 39.1095 60.1456 38.5535 59.872C38.0059 59.5896 37.5823 59.1968 37.2825 58.6938C36.9913 58.1819 36.8456 57.5817 36.8456 56.8932C36.8456 56.2225 36.9865 55.6355 37.2693 55.1324C37.552 54.6205 37.9445 54.2234 38.4476 53.9409C38.9592 53.6496 39.5379 53.504 40.1819 53.504C40.65 53.504 41.0736 53.5834 41.4528 53.7423C41.8321 53.8924 42.1593 54.113 42.4325 54.4043C42.7058 54.6867 42.9139 55.0353 43.0548 55.4502C43.1957 55.8561 43.2666 56.3107 43.2666 56.8138C43.2666 56.9815 43.2137 57.1095 43.1077 57.1977C43.0018 57.2772 42.8477 57.3169 42.6444 57.3169H38.4873V56.2842H41.8235L41.6117 56.4696C41.6117 56.1077 41.5588 55.8076 41.4528 55.5693C41.3469 55.3222 41.1928 55.1369 40.9895 55.0133C40.7956 54.8897 40.5526 54.8279 40.2613 54.8279C39.9351 54.8279 39.6571 54.9029 39.4273 55.053C39.1975 55.2031 39.0216 55.4192 38.8977 55.7017C38.7738 55.9842 38.7124 56.324 38.7124 56.7211V56.827C38.7124 57.4978 38.8665 57.9921 39.1757 58.3098C39.4935 58.6276 39.9616 58.7864 40.5791 58.7864C40.7909 58.7864 41.0339 58.7599 41.3072 58.707C41.5805 58.654 41.8368 58.5702 42.0751 58.4555C42.2784 58.3583 42.459 58.3275 42.6179 58.3628C42.7768 58.3893 42.9006 58.4599 42.9886 58.5746C43.0765 58.6893 43.1257 58.8217 43.1342 58.9718C43.1522 59.1218 43.121 59.2718 43.0415 59.4219C42.9621 59.5631 42.8297 59.6822 42.6444 59.7794C42.3446 59.947 42.0042 60.0706 41.625 60.1501C41.2543 60.2383 40.8921 60.2824 40.5394 60.2824ZM45.4624 60.256C45.1267 60.256 44.8704 60.1677 44.6945 59.9912C44.5177 59.8146 44.4298 59.5631 44.4298 59.2366V54.5367C44.4298 54.2101 44.513 53.9629 44.6813 53.7953C44.8572 53.6187 45.1002 53.5305 45.4095 53.5305C45.7272 53.5305 45.9693 53.6187 46.1376 53.7953C46.305 53.9629 46.3892 54.2101 46.3892 54.5367V55.2251H46.2568C46.3627 54.6955 46.5962 54.2851 46.9584 53.9939C47.3197 53.7026 47.7878 53.5393 48.3618 53.504C48.5821 53.4863 48.7495 53.5437 48.8649 53.6761C48.9878 53.7997 49.054 54.0071 49.0635 54.2984C49.0805 54.5719 49.0237 54.7882 48.8914 54.9471C48.7675 55.106 48.5556 55.2031 48.2559 55.2383L47.9514 55.2648C47.4483 55.309 47.0729 55.4546 46.826 55.7017C46.5877 55.9488 46.4686 56.3063 46.4686 56.7741V59.2366C46.4686 59.5631 46.3797 59.8146 46.2038 59.9912C46.0355 60.1677 45.7887 60.256 45.4624 60.256ZM51.7822 60.256C51.456 60.256 51.2044 60.1677 51.0276 59.9912C50.8602 59.8146 50.776 59.5631 50.776 59.2366V55.1324H50.2994C50.0526 55.1324 49.8588 55.0662 49.7169 54.9338C49.5845 54.8015 49.5183 54.6205 49.5183 54.391C49.5183 54.1439 49.5845 53.9586 49.7169 53.835C49.8588 53.7026 50.0526 53.6364 50.2994 53.6364H51.3586L50.776 54.166V53.7556C50.776 52.8111 51.0106 52.1051 51.4777 51.6373C51.9543 51.1695 52.6522 50.8871 53.5695 50.79L53.9931 50.7503C54.2229 50.7326 54.4036 50.768 54.5359 50.8562C54.6778 50.9444 54.7705 51.0592 54.814 51.2004C54.8584 51.3416 54.8669 51.4872 54.8405 51.6373C54.814 51.7785 54.7525 51.9065 54.6551 52.0212C54.5672 52.1271 54.4433 52.1845 54.2844 52.1933L54.0991 52.2066C53.6225 52.2419 53.283 52.3567 53.0796 52.5508C52.8773 52.7361 52.7751 53.023 52.7751 53.4113V53.8615L52.5236 53.6364H53.7151C53.9714 53.6364 54.1652 53.7026 54.2976 53.835C54.43 53.9586 54.4962 54.1439 54.4962 54.391C54.4962 54.6205 54.43 54.8015 54.2976 54.9338C54.1652 55.0662 53.9714 55.1324 53.7151 55.1324H52.7751V59.2366C52.7751 59.9162 52.4442 60.256 51.7822 60.256ZM58.5493 60.2824C57.7814 60.2824 57.1195 60.1456 56.5634 59.872C56.0159 59.5896 55.5922 59.1968 55.2925 58.6938C55.0012 58.1819 54.8556 57.5817 54.8556 56.8932C54.8556 56.2225 54.9965 55.6355 55.2792 55.1324C55.562 54.6205 55.9544 54.2234 56.4575 53.9409C56.9691 53.6496 57.5478 53.504 58.1918 53.504C58.6599 53.504 59.0836 53.5834 59.4628 53.7423C59.842 53.8924 60.1692 54.113 60.4425 54.4043C60.7158 54.6867 60.9238 55.0353 61.0647 55.4502C61.2056 55.8561 61.2766 56.3107 61.2766 56.8138C61.2766 56.9815 61.2236 57.1095 61.1177 57.1977C61.0118 57.2772 60.8576 57.3169 60.6543 57.3169H56.4972V56.2842H59.8335L59.6217 56.4696C59.6217 56.1077 59.5687 55.8076 59.4628 55.5693C59.3569 55.3222 59.2027 55.1369 58.9994 55.0133C58.8056 54.8897 58.5625 54.8279 58.2713 54.8279C57.945 54.8279 57.667 54.9029 57.4372 55.053C57.2074 55.2031 57.0315 55.4192 56.9076 55.7017C56.7838 55.9842 56.7223 56.324 56.7223 56.7211V56.827C56.7223 57.4978 56.8764 57.9921 57.1857 58.3098C57.5034 58.6276 57.9715 58.7864 58.589 58.7864C58.8008 58.7864 59.0439 58.7599 59.3172 58.707C59.5905 58.654 59.8467 58.5702 60.085 58.4555C60.2883 58.3583 60.469 58.3275 60.6278 58.3628C60.7867 58.3893 60.9106 58.4599 60.9985 58.5746C61.0865 58.6893 61.1357 58.8217 61.1442 58.9718C61.1621 59.1218 61.1309 59.2718 61.0515 59.4219C60.9721 59.5631 60.8397 59.6822 60.6543 59.7794C60.3545 59.947 60.0141 60.0706 59.6349 60.1501C59.2642 60.2383 58.902 60.2824 58.5493 60.2824ZM65.6039 60.2824C64.8975 60.2824 64.2799 60.1456 63.7504 59.872C63.2293 59.5896 62.8274 59.1924 62.5456 58.6805C62.2629 58.1686 62.122 57.564 62.122 56.8668C62.122 56.346 62.2014 55.8783 62.3603 55.4634C62.5191 55.0485 62.748 54.6955 63.0487 54.4043C63.357 54.113 63.7277 53.8924 64.1608 53.7423C64.593 53.5834 65.0743 53.504 65.6039 53.504C65.8772 53.504 66.1684 53.5393 66.4776 53.6099C66.7859 53.6717 67.0904 53.782 67.3912 53.9409C67.567 54.0203 67.6862 54.135 67.7486 54.2851C67.8186 54.4263 67.8451 54.5764 67.828 54.7353C67.8101 54.8853 67.7524 55.0221 67.6559 55.1457C67.567 55.2604 67.4526 55.3398 67.3117 55.384C67.1699 55.4192 67.011 55.3928 66.8351 55.3045C66.6668 55.2074 66.4909 55.1369 66.3055 55.0927C66.1287 55.0485 65.9613 55.0265 65.8024 55.0265C65.5377 55.0265 65.3031 55.0707 65.1008 55.1589C64.8975 55.2383 64.7253 55.3575 64.5844 55.5164C64.4521 55.6664 64.3461 55.8561 64.2667 56.0856C64.1958 56.3152 64.1608 56.5799 64.1608 56.88C64.1608 57.4625 64.3017 57.9214 64.5844 58.2569C64.8757 58.5834 65.2814 58.7467 65.8024 58.7467C65.9613 58.7467 66.1287 58.729 66.3055 58.6938C66.4814 58.6496 66.6583 58.579 66.8351 58.4819C67.011 58.3937 67.1699 58.3716 67.3117 58.4157C67.4526 58.4599 67.5632 58.5437 67.6427 58.6673C67.7306 58.782 67.7789 58.9188 67.7883 59.0777C67.8053 59.2278 67.7789 59.3777 67.7089 59.5278C67.6465 59.669 67.5321 59.7794 67.3647 59.8588C67.0639 60.0089 66.7642 60.1148 66.4644 60.1765C66.1637 60.2472 65.8772 60.2824 65.6039 60.2824ZM71.9908 60.2824C71.3818 60.2824 70.8702 60.181 70.4551 59.978C70.0494 59.7749 69.7449 59.4793 69.5415 59.0909C69.3477 58.7025 69.2503 58.2127 69.2503 57.6214V55.1324H68.6942C68.4474 55.1324 68.2536 55.0662 68.1117 54.9338C67.9793 54.8015 67.9131 54.6205 67.9131 54.391C67.9131 54.1439 67.9793 53.9586 68.1117 53.835C68.2536 53.7026 68.4474 53.6364 68.6942 53.6364H69.2503V52.6302C69.2503 52.2948 69.3392 52.0433 69.5151 51.8756C69.6919 51.699 69.9387 51.6108 70.2565 51.6108C70.5837 51.6108 70.8305 51.699 70.9979 51.8756C71.1662 52.0433 71.2494 52.2948 71.2494 52.6302V53.6364H72.5071C72.7549 53.6364 72.944 53.7026 73.0764 53.835C73.2088 53.9586 73.275 54.1439 73.275 54.391C73.275 54.6205 73.2088 54.8015 73.0764 54.9338C72.944 55.0662 72.7549 55.1324 72.5071 55.1324H71.2494V57.5419C71.2494 57.9126 71.3336 58.1907 71.5009 58.376C71.6778 58.5614 71.9558 58.654 72.335 58.654C72.4674 58.654 72.5913 58.6408 72.7057 58.6143C72.8211 58.5878 72.927 58.5702 73.0234 58.5614C73.1473 58.5526 73.2485 58.5923 73.3279 58.6805C73.4074 58.7599 73.4471 58.9409 73.4471 59.2233C73.4471 59.4351 73.4121 59.6205 73.3412 59.7794C73.2712 59.9382 73.1473 60.0529 72.9705 60.1236C72.8561 60.1677 72.6972 60.203 72.4939 60.2295C72.3 60.2648 72.1326 60.2824 71.9908 60.2824ZM79.0548 60.256C78.7201 60.256 78.4638 60.1633 78.2869 59.978C78.111 59.7926 78.0222 59.5323 78.0222 59.1968V51.8491C78.0222 51.5049 78.111 51.2446 78.2869 51.068C78.4723 50.8915 78.7333 50.8032 79.0681 50.8032H82.2852C83.3273 50.8032 84.1301 51.068 84.6947 51.5976C85.2602 52.1184 85.542 52.8465 85.542 53.782C85.542 54.7176 85.2602 55.4502 84.6947 55.9797C84.1301 56.5093 83.3273 56.7741 82.2852 56.7741H80.0742V59.1968C80.0742 59.5323 79.9863 59.7926 79.8094 59.978C79.6421 60.1633 79.3905 60.256 79.0548 60.256ZM80.0742 55.1854H81.9409C82.4705 55.1854 82.8724 55.0662 83.1457 54.8279C83.4285 54.5896 83.5694 54.241 83.5694 53.782C83.5694 53.3231 83.4285 52.9789 83.1457 52.7494C82.8724 52.5199 82.4705 52.4052 81.9409 52.4052H80.0742V55.1854ZM88.9217 60.2824C88.3752 60.2824 87.9203 60.181 87.5581 59.978C87.1969 59.7749 86.9274 59.4704 86.7505 59.0644C86.5832 58.6496 86.499 58.1377 86.499 57.5287V54.5367C86.499 54.2012 86.5832 53.9497 86.7505 53.782C86.9274 53.6144 87.1742 53.5305 87.4919 53.5305C87.8097 53.5305 88.0574 53.6144 88.2333 53.782C88.4101 53.9497 88.4981 54.2012 88.4981 54.5367V57.5817C88.4981 57.97 88.5775 58.2613 88.7364 58.4555C88.8953 58.6408 89.1468 58.7335 89.491 58.7335C89.8712 58.7335 90.1795 58.6011 90.4178 58.3363C90.6655 58.0627 90.7885 57.7053 90.7885 57.2639V54.5367C90.7885 54.2012 90.8726 53.9497 91.04 53.782C91.2169 53.6144 91.4637 53.5305 91.7814 53.5305C92.1086 53.5305 92.3554 53.6144 92.5228 53.782C92.6996 53.9497 92.7876 54.2012 92.7876 54.5367V59.2366C92.7876 59.9162 92.4661 60.256 91.8211 60.256C91.5034 60.256 91.2613 60.1677 91.093 59.9912C90.9256 59.8146 90.8414 59.5631 90.8414 59.2366V58.3495L91.04 58.8659C90.8462 59.316 90.5681 59.6647 90.2059 59.9118C89.8447 60.1589 89.4163 60.2824 88.9217 60.2824ZM95.3408 62.639C95.0146 62.639 94.763 62.5508 94.5862 62.3742C94.4188 62.2066 94.3347 61.955 94.3347 61.6196V54.5367C94.3347 54.2101 94.4188 53.9629 94.5862 53.7953C94.763 53.6187 95.0051 53.5305 95.3144 53.5305C95.6406 53.5305 95.8884 53.6187 96.0558 53.7953C96.2231 53.9629 96.3073 54.2101 96.3073 54.5367V55.4369L96.1617 54.9206C96.2941 54.497 96.5588 54.1572 96.956 53.9012C97.3617 53.6364 97.8251 53.504 98.3461 53.504C98.9107 53.504 99.4052 53.6408 99.8289 53.9144C100.261 54.188 100.597 54.5764 100.835 55.0795C101.073 55.5826 101.193 56.1828 101.193 56.88C101.193 57.5772 101.073 58.1819 100.835 58.6938C100.597 59.2056 100.266 59.5985 99.8421 59.872C99.4185 60.1456 98.9201 60.2824 98.3461 60.2824C97.8345 60.2824 97.3797 60.1589 96.9825 59.9118C96.5853 59.6558 96.3158 59.3248 96.1749 58.9188H96.3338V61.6196C96.3338 61.955 96.2458 62.2066 96.069 62.3742C95.9016 62.5508 95.6586 62.639 95.3408 62.639ZM97.7504 58.7864C98.0331 58.7864 98.2799 58.7158 98.4918 58.5746C98.7121 58.4334 98.8804 58.2259 98.9948 57.9524C99.1187 57.6699 99.1802 57.3124 99.1802 56.88C99.1802 56.2357 99.0478 55.7635 98.783 55.4634C98.5182 55.1545 98.174 55 97.7504 55C97.4676 55 97.2161 55.0662 96.9957 55.1986C96.7839 55.331 96.6165 55.5384 96.4926 55.8209C96.3688 56.0944 96.3073 56.4475 96.3073 56.88C96.3073 57.5243 96.4397 58.0053 96.7045 58.3231C96.9692 58.632 97.3182 58.7864 97.7504 58.7864ZM103.421 62.639C103.095 62.639 102.844 62.5508 102.667 62.3742C102.499 62.2066 102.415 61.955 102.415 61.6196V54.5367C102.415 54.2101 102.499 53.9629 102.667 53.7953C102.844 53.6187 103.086 53.5305 103.395 53.5305C103.721 53.5305 103.969 53.6187 104.136 53.7953C104.304 53.9629 104.388 54.2101 104.388 54.5367V55.4369L104.242 54.9206C104.375 54.497 104.639 54.1572 105.037 53.9012C105.442 53.6364 105.906 53.504 106.427 53.504C106.991 53.504 107.486 53.6408 107.91 53.9144C108.342 54.188 108.677 54.5764 108.916 55.0795C109.154 55.5826 109.273 56.1828 109.273 56.88C109.273 57.5772 109.154 58.1819 108.916 58.6938C108.677 59.2056 108.346 59.5985 107.923 59.872C107.499 60.1456 107.001 60.2824 106.427 60.2824C105.915 60.2824 105.46 60.1589 105.063 59.9118C104.666 59.6558 104.396 59.3248 104.255 58.9188H104.414V61.6196C104.414 61.955 104.326 62.2066 104.15 62.3742C103.982 62.5508 103.739 62.639 103.421 62.639ZM105.831 58.7864C106.114 58.7864 106.361 58.7158 106.572 58.5746C106.793 58.4334 106.961 58.2259 107.075 57.9524C107.199 57.6699 107.261 57.3124 107.261 56.88C107.261 56.2357 107.128 55.7635 106.864 55.4634C106.599 55.1545 106.255 55 105.831 55C105.548 55 105.297 55.0662 105.076 55.1986C104.865 55.331 104.697 55.5384 104.573 55.8209C104.449 56.0944 104.388 56.4475 104.388 56.88C104.388 57.5243 104.52 58.0053 104.785 58.3231C105.05 58.632 105.399 58.7864 105.831 58.7864ZM112.115 62.639C111.885 62.639 111.696 62.5773 111.546 62.4537C111.395 62.3301 111.307 62.1669 111.281 61.9638C111.254 61.7697 111.289 61.5622 111.387 61.3416L112.274 59.3822V60.203L109.93 54.8279C109.842 54.5984 109.811 54.3866 109.838 54.1925C109.873 53.9894 109.97 53.8305 110.129 53.7158C110.296 53.5922 110.526 53.5305 110.817 53.5305C111.056 53.5305 111.246 53.5879 111.387 53.7026C111.537 53.8085 111.673 54.0159 111.797 54.3248L113.359 58.2966H112.936L114.551 54.3116C114.675 54.0115 114.811 53.8085 114.961 53.7026C115.12 53.5879 115.332 53.5305 115.597 53.5305C115.826 53.5305 116.007 53.5922 116.14 53.7158C116.28 53.8305 116.365 53.9851 116.391 54.1792C116.426 54.3734 116.391 54.5852 116.285 54.8147L113.174 61.8711C113.042 62.1712 112.891 62.3742 112.724 62.4801C112.565 62.5861 112.362 62.639 112.115 62.639ZM122.302 60.256C121.967 60.256 121.711 60.1633 121.534 59.978C121.358 59.7926 121.27 59.5323 121.27 59.1968V51.8491C121.27 51.5049 121.358 51.2446 121.534 51.068C121.72 50.8915 121.98 50.8032 122.316 50.8032H125.533C126.574 50.8032 127.378 51.068 127.942 51.5976C128.507 52.1184 128.789 52.8465 128.789 53.782C128.789 54.7176 128.507 55.4502 127.942 55.9797C127.378 56.5093 126.574 56.7741 125.533 56.7741H123.322V59.1968C123.322 59.5323 123.234 59.7926 123.057 59.978C122.89 60.1633 122.638 60.256 122.302 60.256ZM123.322 55.1854H125.188C125.718 55.1854 126.12 55.0662 126.393 54.8279C126.676 54.5896 126.817 54.241 126.817 53.782C126.817 53.3231 126.676 52.9789 126.393 52.7494C126.12 52.5199 125.718 52.4052 125.188 52.4052H123.322V55.1854ZM132.916 60.2824C132.148 60.2824 131.486 60.1456 130.93 59.872C130.383 59.5896 129.959 59.1968 129.66 58.6938C129.368 58.1819 129.223 57.5817 129.223 56.8932C129.223 56.2225 129.364 55.6355 129.646 55.1324C129.928 54.6205 130.321 54.2234 130.825 53.9409C131.336 53.6496 131.914 53.504 132.559 53.504C133.026 53.504 133.45 53.5834 133.83 53.7423C134.209 53.8924 134.535 54.113 134.81 54.4043C135.083 54.6867 135.29 55.0353 135.432 55.4502C135.573 55.8561 135.644 56.3107 135.644 56.8138C135.644 56.9815 135.591 57.1095 135.485 57.1977C135.379 57.2772 135.224 57.3169 135.021 57.3169H130.864V56.2842H134.201L133.989 56.4696C133.989 56.1077 133.936 55.8076 133.83 55.5693C133.724 55.3222 133.569 55.1369 133.366 55.0133C133.172 54.8897 132.93 54.8279 132.638 54.8279C132.311 54.8279 132.033 54.9029 131.804 55.053C131.574 55.2031 131.398 55.4192 131.275 55.7017C131.151 55.9842 131.089 56.324 131.089 56.7211V56.827C131.089 57.4978 131.243 57.9921 131.553 58.3098C131.87 58.6276 132.338 58.7864 132.956 58.7864C133.168 58.7864 133.41 58.7599 133.684 58.707C133.957 58.654 134.214 58.5702 134.452 58.4555C134.654 58.3583 134.836 58.3275 134.995 58.3628C135.154 58.3893 135.277 58.4599 135.366 58.5746C135.454 58.6893 135.502 58.8217 135.511 58.9718C135.528 59.1218 135.498 59.2718 135.419 59.4219C135.339 59.5631 135.207 59.6822 135.021 59.7794C134.721 59.947 134.381 60.0706 134.002 60.1501C133.631 60.2383 133.269 60.2824 132.916 60.2824ZM139.93 60.2824C139.233 60.2824 138.624 60.1456 138.103 59.872C137.592 59.5985 137.194 59.2056 136.912 58.6938C136.63 58.1819 136.488 57.5772 136.488 56.88C136.488 56.3592 136.567 55.8915 136.726 55.4766C136.885 55.0618 137.115 54.7088 137.415 54.4175C137.724 54.1175 138.09 53.8924 138.514 53.7423C138.937 53.5834 139.41 53.504 139.93 53.504C140.628 53.504 141.232 53.6408 141.744 53.9144C142.265 54.188 142.667 54.5764 142.949 55.0795C143.24 55.5826 143.386 56.1828 143.386 56.88C143.386 57.4096 143.302 57.8817 143.134 58.2966C142.975 58.7114 142.746 59.0689 142.446 59.369C142.146 59.669 141.78 59.8985 141.347 60.0574C140.923 60.2075 140.451 60.2824 139.93 60.2824ZM139.93 58.7864C140.221 58.7864 140.473 58.7158 140.685 58.5746C140.897 58.4334 141.065 58.2259 141.188 57.9524C141.312 57.6699 141.373 57.3124 141.373 56.88C141.373 56.2357 141.241 55.7635 140.976 55.4634C140.711 55.1545 140.363 55 139.93 55C139.648 55 139.397 55.0662 139.176 55.1986C138.964 55.331 138.796 55.5384 138.673 55.8209C138.558 56.0944 138.5 56.4475 138.5 56.88C138.5 57.5243 138.633 58.0053 138.898 58.3231C139.162 58.632 139.507 58.7864 139.93 58.7864ZM145.608 62.639C145.282 62.639 145.03 62.5508 144.853 62.3742C144.686 62.2066 144.602 61.955 144.602 61.6196V54.5367C144.602 54.2101 144.686 53.9629 144.853 53.7953C145.03 53.6187 145.273 53.5305 145.581 53.5305C145.909 53.5305 146.155 53.6187 146.323 53.7953C146.491 53.9629 146.574 54.2101 146.574 54.5367V55.4369L146.429 54.9206C146.561 54.497 146.826 54.1572 147.223 53.9012C147.63 53.6364 148.093 53.504 148.613 53.504C149.179 53.504 149.672 53.6408 150.096 53.9144C150.529 54.188 150.864 54.5764 151.102 55.0795C151.34 55.5826 151.46 56.1828 151.46 56.88C151.46 57.5772 151.34 58.1819 151.102 58.6938C150.864 59.2056 150.533 59.5985 150.109 59.872C149.686 60.1456 149.187 60.2824 148.613 60.2824C148.102 60.2824 147.647 60.1589 147.25 59.9118C146.852 59.6558 146.584 59.3248 146.442 58.9188H146.601V61.6196C146.601 61.955 146.513 62.2066 146.336 62.3742C146.169 62.5508 145.926 62.639 145.608 62.639ZM148.017 58.7864C148.3 58.7864 148.547 58.7158 148.759 58.5746C148.98 58.4334 149.147 58.2259 149.262 57.9524C149.386 57.6699 149.447 57.3124 149.447 56.88C149.447 56.2357 149.315 55.7635 149.05 55.4634C148.785 55.1545 148.441 55 148.017 55C147.736 55 147.484 55.0662 147.263 55.1986C147.051 55.331 146.884 55.5384 146.76 55.8209C146.637 56.0944 146.574 56.4475 146.574 56.88C146.574 57.5243 146.707 58.0053 146.972 58.3231C147.236 58.632 147.585 58.7864 148.017 58.7864ZM155.026 60.2824C154.241 60.2824 153.654 60.0662 153.265 59.6337C152.877 59.1924 152.682 58.5393 152.682 57.6743V51.7035C152.682 51.3681 152.767 51.1165 152.934 50.9489C153.111 50.7723 153.362 50.6841 153.689 50.6841C154.006 50.6841 154.249 50.7723 154.417 50.9489C154.594 51.1165 154.681 51.3681 154.681 51.7035V57.5949C154.681 57.9568 154.757 58.2259 154.907 58.4025C155.065 58.5702 155.273 58.654 155.529 58.654C155.6 58.654 155.666 58.6496 155.727 58.6408C155.79 58.632 155.856 58.6276 155.926 58.6276C156.068 58.6099 156.164 58.654 156.217 58.7599C156.28 58.8571 156.31 59.0557 156.31 59.3557C156.31 59.6205 156.257 59.8235 156.151 59.9647C156.045 60.0971 155.882 60.1853 155.661 60.2295C155.573 60.2383 155.472 60.2472 155.357 60.256C155.242 60.2737 155.132 60.2824 155.026 60.2824ZM160.403 60.2824C159.635 60.2824 158.973 60.1456 158.417 59.872C157.869 59.5896 157.446 59.1968 157.146 58.6938C156.855 58.1819 156.709 57.5817 156.709 56.8932C156.709 56.2225 156.85 55.6355 157.133 55.1324C157.415 54.6205 157.808 54.2234 158.311 53.9409C158.822 53.6496 159.401 53.504 160.045 53.504C160.513 53.504 160.937 53.5834 161.316 53.7423C161.695 53.8924 162.023 54.113 162.296 54.4043C162.569 54.6867 162.777 55.0353 162.918 55.4502C163.059 55.8561 163.13 56.3107 163.13 56.8138C163.13 56.9815 163.077 57.1095 162.971 57.1977C162.865 57.2772 162.711 57.3169 162.508 57.3169H158.351V56.2842H161.687L161.475 56.4696C161.475 56.1077 161.422 55.8076 161.316 55.5693C161.21 55.3222 161.056 55.1369 160.853 55.0133C160.659 54.8897 160.416 54.8279 160.125 54.8279C159.798 54.8279 159.52 54.9029 159.291 55.053C159.061 55.2031 158.885 55.4192 158.761 55.7017C158.637 55.9842 158.576 56.324 158.576 56.7211V56.827C158.576 57.4978 158.73 57.9921 159.039 58.3098C159.357 58.6276 159.825 58.7864 160.442 58.7864C160.654 58.7864 160.897 58.7599 161.171 58.707C161.444 58.654 161.7 58.5702 161.938 58.4555C162.142 58.3583 162.322 58.3275 162.481 58.3628C162.64 58.3893 162.764 58.4599 162.852 58.5746C162.94 58.6893 162.989 58.8217 162.998 58.9718C163.015 59.1218 162.984 59.2718 162.905 59.4219C162.825 59.5631 162.693 59.6822 162.508 59.7794C162.208 59.947 161.867 60.0706 161.488 60.1501C161.118 60.2383 160.755 60.2824 160.403 60.2824Z" fill="#1B244B"/>
</svg>