<svg viewBox="0 0 120 49" fill="none" preserveAspectRatio="xMinYMid meet" xmlns="http://www.w3.org/2000/svg">
    <path d="M8.6338 5.55142C8.14751 2.82499 9.24377 0.354965 11.0824 0.0344687C12.921 -0.286027 14.8057 1.66437 15.2919 4.39081C15.7782 7.11724 14.682 9.58727 12.8434 9.90776C11.0048 10.2283 9.12009 8.27786 8.6338 5.55142Z" fill="#1B244B"/>
    <path d="M0.239808 11.1402C-0.463204 8.4604 0.431934 5.9125 2.23915 5.44934C4.04638 4.98619 6.08132 6.78316 6.78433 9.463C7.48735 12.1428 6.59221 14.6908 4.78499 15.1539C2.97777 15.6171 0.94282 13.8201 0.239808 11.1402Z" fill="#1B244B"/>
    <path d="M17.0849 4.39081C16.5986 7.11724 17.6948 9.58727 19.5334 9.90777C21.372 10.2283 23.2567 8.27786 23.743 5.55143C24.2293 2.82499 23.1331 0.354967 21.2945 0.0344714C19.4559 -0.286025 17.5712 1.66437 17.0849 4.39081Z" fill="#1B244B"/>
    <path d="M32.1372 11.1403C32.8401 8.46043 31.9449 5.91243 30.1377 5.44919C28.3305 4.98594 26.2957 6.78288 25.5928 9.46275C24.8899 12.1426 25.7852 14.6906 27.5923 15.1539C29.3995 15.6171 31.4344 13.8202 32.1372 11.1403Z" fill="#1B244B"/>
    <path d="M16.8899 14.0978C20.8022 14.0978 23.6891 15.0492 25.5506 16.9518C27.412 18.8544 28.3428 21.3497 28.3428 24.4376C28.3428 26.5586 27.838 28.3988 26.8284 29.9584C25.8503 31.5179 24.5094 32.7343 22.8056 33.6077C21.1019 34.4498 19.1773 34.8709 17.0319 34.8709C16.1485 34.8709 15.1862 34.7773 14.145 34.5902C13.1354 34.4031 12.0942 34.06 11.0215 33.5609L11.3527 32.672C11.6052 33.4205 11.8102 34.3407 11.968 35.4323C12.1573 36.524 12.2993 37.6469 12.3939 38.801C12.5201 39.9238 12.5832 40.9687 12.5832 41.9356C12.5832 43.9318 12.1731 45.4602 11.3527 46.5207C10.564 47.55 9.3966 48.0646 7.85062 48.0646C6.58859 48.0646 5.59475 47.7215 4.86908 47.0353C4.17497 46.3491 3.68593 45.2262 3.40198 43.6667C3.14957 42.1072 3.02337 40.033 3.02337 37.4442C3.02337 33.1087 3.24422 29.4125 3.68593 26.3558C4.12764 23.2679 4.85331 20.8351 5.86293 19.0572C6.7148 17.5288 8.07148 16.328 9.93297 15.4546C11.7945 14.5501 14.1134 14.0978 16.8899 14.0978ZM15.8014 28.8823C17.5682 28.8823 19.0038 28.43 20.1081 27.5255C21.2439 26.5898 21.8118 25.2797 21.8118 23.5954C21.8118 22.5038 21.449 21.5992 20.7233 20.8818C19.9976 20.1645 18.8303 19.8058 17.2212 19.8058C16.0538 19.8058 15.0126 20.0709 14.0977 20.6011C13.2142 21.1002 12.5359 21.7864 12.0626 22.6597C11.5894 23.5331 11.3527 24.5156 11.3527 25.6072C11.3527 26.6989 11.7156 27.5255 12.4412 28.0869C13.1669 28.6172 14.287 28.8823 15.8014 28.8823Z" fill="#1B244B"/>
    <path d="M52.881 48.205C51.4927 48.205 50.562 47.7995 50.0887 46.9885C49.6155 46.1464 49.3788 44.8208 49.3788 43.0117L49.9468 43.2456C48.2115 46.6454 44.8986 48.3453 40.0083 48.3453C37.7997 48.3453 35.954 47.9554 34.4711 47.1757C33.0198 46.3959 31.9313 45.3666 31.2056 44.0878C30.5115 42.7778 30.1645 41.343 30.1645 39.7835C30.1645 37.1322 31.111 35.0425 33.004 33.5141C34.9286 31.9546 37.4685 31.1748 40.6235 31.1748C42.6428 31.1748 44.3938 31.4711 45.8767 32.0637C47.3911 32.6564 48.6847 33.4829 49.7575 34.5434L48.6689 34.4498C48.5112 31.5803 47.896 29.5373 46.8232 28.3208C45.7821 27.1044 44.2834 26.4962 42.3273 26.4962C41.2861 26.4962 40.2765 26.6521 39.2984 26.964C38.3203 27.276 37.3896 27.6035 36.5062 27.9466C35.6227 28.2585 34.7709 28.4144 33.9506 28.4144C32.9725 28.4144 32.2153 28.1337 31.6789 27.5723C31.1425 27.0108 30.8744 26.2778 30.8744 25.3733C30.8744 24.1257 31.4423 22.9872 32.5781 21.9579C33.7455 20.8974 35.2757 20.0553 37.1687 19.4315C39.0618 18.7765 41.1126 18.449 43.3211 18.449C46.0976 18.449 48.4796 19.0416 50.4673 20.2268C52.4866 21.4121 53.9537 23.1744 54.8687 25.5137C55.6574 27.4163 56.2096 29.5373 56.5251 31.8766C56.8721 34.2159 57.0457 36.7112 57.0457 39.3624C57.0457 41.7017 56.9037 43.5108 56.6197 44.7896C56.3358 46.0684 55.8783 46.9573 55.2473 47.4564C54.6478 47.9554 53.859 48.205 52.881 48.205ZM42.8952 42.3099C43.7786 42.3099 44.662 42.1852 45.5454 41.9356C46.4604 41.6861 47.2176 41.3118 47.8171 40.8128C48.4481 40.2825 48.7636 39.6431 48.7636 38.8945C48.7636 38.2083 48.4954 37.6625 47.9591 37.257C47.4542 36.8204 46.7917 36.4928 45.9714 36.2745C45.1511 36.0562 44.2676 35.947 43.3211 35.947C41.6805 35.947 40.4184 36.2433 39.535 36.8359C38.6516 37.4286 38.2099 38.2083 38.2099 39.1752C38.2099 40.1733 38.6201 40.9531 39.4404 41.5145C40.2607 42.0448 41.4123 42.3099 42.8952 42.3099Z" fill="#1B244B"/>
    <path d="M60.0205 28.7419C60.0205 25.4981 60.478 23.1588 61.393 21.724C62.308 20.2892 63.5069 19.5718 64.9898 19.5718C65.9363 19.5718 66.662 19.8681 67.1668 20.4608C67.6716 21.0222 68.0186 21.7864 68.2079 22.7533C68.4288 23.7202 68.5392 24.7963 68.5392 25.9815C68.5392 27.1044 68.5392 28.3988 68.5392 29.8648C68.5392 31.3308 68.5392 32.8435 68.5392 34.4031C68.5392 35.9626 68.5392 37.4286 68.5392 38.801H68.7285C69.612 35.0269 70.5111 31.9858 71.4261 29.6776C72.3726 27.3383 73.3192 25.6384 74.2657 24.5779C75.2438 23.5175 76.206 22.9872 77.1526 22.9872C78.1937 22.9872 79.1876 23.5175 80.1341 24.5779C81.1122 25.6384 82.0745 27.3071 83.021 29.5841C83.9991 31.8298 84.9771 34.7462 85.9552 38.3331H86.1445C86.1445 36.0874 86.1287 33.7168 86.0972 31.2216C86.0972 28.7263 86.0972 26.4494 86.0972 24.3908C86.0972 22.3634 86.46 20.8818 87.1857 19.9461C87.9429 18.9792 88.9841 18.4958 90.3092 18.4958C91.9183 18.4958 93.0857 19.1975 93.8113 20.6011C94.5685 21.9735 94.9471 23.8294 94.9471 26.1687C94.9471 27.8842 94.8525 29.7244 94.6632 31.6894C94.4739 33.6233 94.2057 35.4948 93.8587 37.3038C93.5431 39.1129 93.1645 40.688 92.7228 42.0292C92.0603 44.0254 91.2715 45.5382 90.3565 46.5675C89.4731 47.5968 88.3215 48.1114 86.9017 48.1114C85.7659 48.1114 84.6143 47.5656 83.4469 46.4739C82.2795 45.351 81.191 43.6043 80.1814 41.2338C79.1718 38.8633 78.2726 35.7754 77.4838 31.9702H77.2945C76.5373 35.5883 75.6066 38.5358 74.5023 40.8128C73.398 43.0585 72.2149 44.7116 70.9529 45.7721C69.7224 46.8326 68.5077 47.3628 67.3087 47.3628C65.889 47.3628 64.6743 46.7858 63.6646 45.6317C62.6866 44.4777 61.9136 42.6998 61.3457 40.2981C61.0617 39.0817 60.8251 37.7873 60.6358 36.4149C60.4465 35.0113 60.2887 33.6389 60.1625 32.2977C60.0679 30.9565 60.0205 29.7712 60.0205 28.7419Z" fill="#1B244B"/>
    <path d="M110.819 18.449C113.848 18.449 116.025 18.9324 117.35 19.8993C118.706 20.8351 119.385 22.0515 119.385 23.5487C119.385 24.4844 119.069 25.2486 118.438 25.8412C117.839 26.4026 116.971 26.6833 115.835 26.6833C114.857 26.6833 113.816 26.543 112.712 26.2623C111.608 25.9503 110.345 25.7944 108.926 25.7944C107.695 25.7944 106.764 26.0439 106.133 26.543C105.502 27.0108 105.187 27.6035 105.187 28.3208C105.187 29.0382 105.471 29.6153 106.039 30.0519C106.638 30.4574 107.821 30.7537 109.588 30.9409C111.891 31.1904 113.816 31.5959 115.362 32.1573C116.908 32.6875 118.06 33.5141 118.817 34.637C119.606 35.7287 120 37.257 120 39.222C120 42.2163 118.911 44.4153 116.734 45.8189C114.558 47.2225 111.529 47.9243 107.648 47.9243C105.124 47.9243 103.105 47.7059 101.59 47.2692C100.076 46.8326 98.9715 46.2088 98.2773 45.3978C97.6148 44.5868 97.2835 43.6511 97.2835 42.5906C97.2835 41.5925 97.6148 40.8283 98.2773 40.2981C98.9399 39.7367 99.7287 39.456 100.644 39.456C101.369 39.456 102.142 39.5495 102.963 39.7367C103.783 39.8926 104.651 40.0798 105.566 40.2981C106.481 40.4852 107.427 40.5788 108.405 40.5788C110.803 40.5788 112.002 39.8614 112.002 38.4267C112.002 37.9276 111.876 37.5221 111.623 37.2102C111.371 36.8671 110.898 36.5864 110.203 36.3681C109.541 36.1497 108.547 35.9626 107.222 35.8066C105.234 35.6195 103.515 35.292 102.063 34.8241C100.612 34.3251 99.492 33.5609 98.7033 32.5316C97.9145 31.4711 97.5201 30.0363 97.5201 28.2273C97.5201 25.2953 98.6717 22.9404 100.975 21.1626C103.278 19.3535 106.559 18.449 110.819 18.449Z" fill="#1B244B"/>
    <path d="M10.7984 19.3312H24.3201V29.3568H10.7984V19.3312Z" fill="#1B244B"/>
    <path d="M13.4184 20.7397C14.4236 19.945 15.079 19.2562 16.3022 19.3378C17.3795 19.4097 18.7739 20.7397 18.7739 20.7397C18.7739 20.7397 21.404 23.2038 21.6576 25.4127C21.8046 26.6923 21.9521 27.6723 21.2457 28.6838C20.1468 30.2573 18.4805 28.562 16.7141 28.6838C15.26 28.784 14.1441 29.1511 13.0065 29.1511C11.8689 29.1511 11.3942 28.9584 10.9467 28.6838C8.39575 27.1184 11.2903 22.4223 13.4184 20.7397Z" fill="#FFFCF5"/>
</svg>