<svg viewBox="0 0 96 86" fill="none" xmlns="http://www.w3.org/2000/svg">
    <path fill-rule="evenodd" clip-rule="evenodd" d="M70.2055 3.14375C70.8288 3.59708 71.4143 4.12597 71.962 4.73042C72.5098 5.35375 73.0292 6.03375 73.5202 6.77041C74.0113 7.52597 74.4835 8.30986 74.9368 9.12208C75.39 9.95319 75.8433 10.8032 76.2966 11.6721C76.731 12.541 77.1749 13.4099 77.6282 14.2787C78.1003 15.1287 78.582 15.9693 79.073 16.8004C79.5641 17.6126 80.0741 18.3871 80.6029 19.1237C81.1506 19.8604 81.7078 20.5782 82.2744 21.2771C82.8221 21.9571 83.3793 22.6276 83.9459 23.2887C84.4937 23.9499 85.0319 24.6015 85.5608 25.2437C86.0896 25.8671 86.5996 26.4999 87.0906 27.1421C87.5628 27.7843 87.9972 28.436 88.3938 29.0971C88.8094 29.7582 89.1682 30.4382 89.4704 31.1371C89.7726 31.836 90.0181 32.5537 90.207 33.2904C90.3959 34.0082 90.5375 34.7449 90.632 35.5004C90.7264 36.256 90.7642 37.021 90.7453 37.7954C90.7264 38.551 90.6603 39.316 90.547 40.0904C90.4337 40.846 90.2731 41.5921 90.0654 42.3288C89.8576 43.0843 89.6026 43.8115 89.3004 44.5104C88.9982 45.2282 88.6488 45.9271 88.2522 46.6071C87.8556 47.2682 87.4306 47.9199 86.9773 48.5621C86.5051 49.2043 86.0235 49.8371 85.5324 50.4604C85.0414 51.1026 84.5409 51.7354 84.0309 52.3587C83.521 52.9821 83.011 53.6149 82.5011 54.2571C82.01 54.8993 81.5378 55.5604 81.0845 56.2404C80.6312 56.9204 80.2063 57.6193 79.8096 58.3371C79.4319 59.0549 79.0825 59.7915 78.7614 60.5471C78.4592 61.3215 78.1759 62.096 77.9115 62.8704C77.6282 63.6637 77.3637 64.4382 77.1182 65.1937C76.8538 65.9682 76.5894 66.7237 76.325 67.4604C76.0416 68.1782 75.7395 68.8676 75.4184 69.5287C75.0973 70.1899 74.7384 70.7943 74.3418 71.3421C73.9452 71.9087 73.4919 72.3999 72.9819 72.8154C72.472 73.2499 71.9054 73.6276 71.2821 73.9487C70.6777 74.2699 70.0167 74.5437 69.2989 74.7704C68.6001 75.016 67.8541 75.2426 67.0608 75.4504C66.2864 75.6582 65.4743 75.866 64.6244 76.0737C63.7933 76.2815 62.9434 76.5082 62.0746 76.7537C61.2058 77.0182 60.3181 77.311 59.4115 77.6321C58.5238 77.9721 57.6267 78.3593 56.7201 78.7937C55.8324 79.2282 54.9447 79.691 54.057 80.1821C53.1504 80.6732 52.2627 81.1737 51.3939 81.6837C50.5062 82.1937 49.628 82.6849 48.7592 83.1571C47.8904 83.6293 47.031 84.0449 46.1811 84.4037C45.3312 84.7626 44.5001 85.046 43.688 85.2537C42.8758 85.4804 42.0731 85.5937 41.2799 85.5937C40.4866 85.5937 39.7122 85.4899 38.9567 85.2821C38.2013 85.0554 37.4552 84.7437 36.7186 84.3471C36.0009 83.9504 35.2738 83.4782 34.5372 82.9304C33.8194 82.4015 33.0923 81.8254 32.3557 81.2021C31.638 80.5787 30.9014 79.9365 30.1459 79.2754C29.4093 78.6143 28.6538 77.9532 27.8794 77.2921C27.124 76.631 26.3401 75.9887 25.528 75.3654C24.7158 74.761 23.9037 74.1754 23.0915 73.6087C22.2605 73.061 21.4389 72.5226 20.6268 71.9937C19.8146 71.446 19.0214 70.9171 18.247 70.4071C17.4726 69.8782 16.736 69.3399 16.0372 68.7921C15.3384 68.2443 14.6962 67.6776 14.1107 67.0921C13.5252 66.5065 13.0153 65.8832 12.5808 65.2221C12.1276 64.5799 11.7593 63.8904 11.476 63.1537C11.1926 62.4171 10.9754 61.6426 10.8243 60.8304C10.6544 60.0182 10.541 59.1776 10.4844 58.3087C10.4088 57.4399 10.3522 56.5426 10.3144 55.6171C10.2955 54.6915 10.2672 53.7565 10.2294 52.8121C10.2105 51.8487 10.1633 50.8854 10.0877 49.9221C10.0122 48.9399 9.88943 47.9576 9.71945 46.9754C9.56835 45.9932 9.36059 45.011 9.09617 44.0287C8.85064 43.0654 8.57678 42.1021 8.27458 41.1387C7.9535 40.1754 7.64186 39.2215 7.33967 38.2771C7.03747 37.3515 6.76361 36.4354 6.51808 35.5287C6.27254 34.6221 6.08367 33.7343 5.95146 32.8654C5.80037 31.9965 5.73426 31.156 5.75315 30.3437C5.77204 29.5126 5.8948 28.7193 6.12145 27.9637C6.32921 27.2082 6.64084 26.4715 7.05636 25.7537C7.47188 25.036 7.97239 24.3371 8.55789 23.6571C9.1245 22.9771 9.74778 22.3065 10.4277 21.6454C11.0888 20.9654 11.797 20.2949 12.5525 19.6337C13.2891 18.9537 14.0352 18.2643 14.7906 17.5654C15.565 16.8665 16.3205 16.1487 17.0571 15.4121C17.7937 14.6754 18.502 13.9104 19.1819 13.1171C19.8618 12.3426 20.5229 11.5493 21.1651 10.7371C21.8072 9.92486 22.4305 9.13152 23.0349 8.35707C23.6582 7.56374 24.2814 6.80819 24.9047 6.09041C25.528 5.37264 26.1607 4.70207 26.8029 4.07874C27.445 3.45541 28.1155 2.90764 28.8144 2.43541C29.4943 1.96319 30.2214 1.57597 30.9958 1.27375C31.7513 0.990414 32.554 0.801522 33.4039 0.707078C34.2538 0.593745 35.1321 0.565419 36.0387 0.622085C36.9641 0.659863 37.9085 0.744857 38.8718 0.87708C39.8539 1.02819 40.8455 1.18875 41.8465 1.35875C42.8664 1.54764 43.8957 1.72708 44.9345 1.89708C45.9733 2.06708 47.0216 2.21819 48.0792 2.35041C49.1369 2.46375 50.1946 2.52985 51.2523 2.54874C52.2911 2.54874 53.3299 2.51097 54.3687 2.43541C55.4263 2.35986 56.4557 2.26542 57.4567 2.15208C58.4577 2.03875 59.4399 1.92541 60.4031 1.81208C61.3663 1.71764 62.3013 1.65153 63.2078 1.61375C64.1144 1.57597 64.9832 1.59485 65.8143 1.67041C66.6264 1.74596 67.4008 1.89708 68.1374 2.12375C68.874 2.3693 69.5634 2.7093 70.2055 3.14375Z" fill="#B8EAF8"/>
    <path d="M43.1062 42.936C45.9711 40.4188 50.229 40.3479 53.1765 42.7192L53.4587 42.9575L53.4656 42.9633L53.8699 43.3344L54.2673 43.7192L54.5847 44.0444C56.1306 45.6681 57.3245 47.5159 58.0574 49.4155L58.0652 49.433L58.0808 49.4731L58.2038 49.8061C59.4244 53.2413 59.0152 56.4752 57.0212 58.4701L57.0193 58.4711C56.1205 59.3682 55.0064 59.6784 53.8728 59.684C52.7789 59.6891 51.6576 59.4102 50.6755 59.102L50.6677 59.101L50.5886 59.0756C49.0676 58.5947 47.4644 58.5948 45.9421 59.0756C44.9476 59.389 43.8033 59.684 42.6863 59.684C41.5684 59.6839 40.4643 59.3852 39.5681 58.517L39.5661 58.516L39.5427 58.4946L39.5193 58.4711C37.462 56.4191 37.0931 53.0601 38.4441 49.5121L38.4607 49.4643L38.4812 49.4174C39.2634 47.3875 40.5715 45.4217 42.2722 43.7211L42.6648 43.3383C42.798 43.2121 42.9338 43.0874 43.072 42.9653L43.0749 42.9633L43.0896 42.9506L43.1062 42.936ZM51.0251 57.6957L51.0398 57.6528L51.0417 57.6459L51.0251 57.6957ZM51.4704 45.2045C49.6496 43.5943 46.9103 43.5897 45.0896 45.186L45.0788 45.1977L45.0505 45.2201C44.943 45.3154 44.8354 45.4146 44.7273 45.517L44.3933 45.8422C42.948 47.2874 41.8825 48.917 41.2683 50.5248L41.2673 50.5287L41.2595 50.5492L41.0691 51.0815C40.2165 53.6896 40.7637 55.4747 41.6384 56.3471L41.6404 56.35C41.836 56.5456 42.1102 56.6839 42.6863 56.684C43.1671 56.684 43.7286 56.5848 44.3708 56.4116L45.0398 56.2143C47.1192 55.5577 49.3187 55.5496 51.4011 56.1879L51.4294 56.1938L51.5105 56.2201C52.429 56.5117 53.2163 56.687 53.8581 56.684L54.0603 56.6772C54.5008 56.646 54.7298 56.518 54.9001 56.3481C55.8324 55.4144 56.3917 53.4385 55.281 50.5502L55.28 50.5492L55.279 50.5463L55.2781 50.5444L55.2771 50.5405C54.6633 48.9278 53.5949 47.2891 52.1462 45.8403C51.9342 45.6282 51.7067 45.4164 51.4704 45.2045Z" fill="#10162D"/>
    <path d="M41.5032 28.7151C42.6902 28.516 43.894 28.9445 44.8997 29.7932L45.098 29.968C46.0743 30.8698 46.8487 32.1833 47.222 33.7287L47.2904 34.0383C47.5812 35.4767 47.4753 36.8803 47.0491 38.0451L46.9525 38.2912C46.4114 39.5872 45.4508 40.5592 44.1898 40.8655C43.9137 40.9322 43.6401 40.966 43.3636 40.966C41.1125 40.966 38.9391 38.8448 38.2308 35.9016L38.2239 35.8713L38.2181 35.842C37.837 34.2135 37.9676 32.6141 38.5003 31.3381L38.6068 31.0998C39.1623 29.9247 40.0794 29.0524 41.2611 28.7649L41.2669 28.7639L41.5032 28.7151ZM42.9652 32.0852C42.4371 31.6396 42.0899 31.652 41.9681 31.6799C41.8653 31.7056 41.6121 31.82 41.3714 32.2756L41.2689 32.4944C41.016 33.1 40.8985 33.9859 41.1019 34.9934L41.1468 35.1965L41.1478 35.1994L41.2532 35.5842C41.8268 37.4227 43.0196 37.966 43.3636 37.966L43.4837 37.9494C43.6011 37.9203 43.9163 37.7767 44.1839 37.136L44.2777 36.8791C44.4627 36.2917 44.5272 35.5095 44.3509 34.636L44.306 34.4328C44.0753 33.4781 43.631 32.742 43.1654 32.2707L42.9652 32.0852Z" fill="#10162D"/>
    <path d="M51.5908 29.8097C52.5897 28.9527 53.7902 28.5154 54.9775 28.7053L55.2138 28.7512L55.2197 28.7531L55.4531 28.8166C56.6025 29.1723 57.4861 30.0948 58.0029 31.3049L58.1005 31.55C58.5365 32.7117 58.6542 34.1148 58.374 35.5558L58.3076 35.8654C57.9461 37.4139 57.1821 38.734 56.2128 39.6437L56.0156 39.8195C54.9499 40.7337 53.6555 41.1702 52.3915 40.8771L52.3886 40.8761C52.1817 40.8277 51.9846 40.7642 51.7949 40.6828L51.6074 40.5959C49.5966 39.5839 48.6091 36.7116 49.2997 33.7638C49.6851 32.1132 50.5291 30.7208 51.5908 29.8097ZM54.5312 31.673C54.4242 31.6504 54.1482 31.642 53.7343 31.9367L53.5449 32.0861C53.0138 32.5416 52.4758 33.3529 52.2206 34.4465V34.4484C51.7173 36.5971 52.6262 37.7481 52.955 37.9152C52.9793 37.9274 53.0137 37.9416 53.0722 37.9552C53.1903 37.9819 53.5357 37.9949 54.0624 37.5431L54.2617 37.3556C54.7238 36.8804 55.1623 36.1404 55.3857 35.1838C55.6089 34.2276 55.5429 33.3698 55.3388 32.7394L55.2431 32.4836C54.9694 31.8425 54.6501 31.701 54.5312 31.673Z" fill="#10162D"/>
    <path d="M32.6976 37.4605C33.7502 37.0986 34.9129 37.3046 35.9574 37.9254L36.1634 38.0543C37.1875 38.7265 38.0887 39.8034 38.6585 41.151C39.2291 42.4976 39.3752 43.8953 39.1449 45.0992L39.0941 45.3365C38.7951 46.5917 38.067 47.6164 36.9681 48.0856L36.9691 48.0865L36.9671 48.0875L36.9525 48.0943L36.9369 48.1002C36.5275 48.2716 36.0988 48.3521 35.6644 48.3522C33.7643 48.3522 31.7693 46.8183 30.7835 44.484L30.6751 44.2135C30.1616 42.8604 30.0685 41.4738 30.349 40.2975L30.4105 40.0641C30.7425 38.9108 31.4513 37.9791 32.4886 37.5406L32.6976 37.4605ZM33.7171 40.2887L33.6566 40.3033C33.6322 40.3136 33.4036 40.4236 33.2679 40.9928C33.1486 41.4937 33.1578 42.201 33.4193 42.9781L33.5462 43.315L33.5472 43.316L33.6771 43.6002C34.3514 44.9572 35.3418 45.3522 35.6644 45.3522C35.7248 45.3521 35.7576 45.342 35.7796 45.3326L35.7816 45.3316L35.7894 45.3287C35.8107 45.3198 36.0392 45.2125 36.1751 44.6422L36.2181 44.4147C36.2981 43.8573 36.2318 43.1138 35.8958 42.3209L35.8949 42.3199C35.5113 41.413 34.931 40.8052 34.4251 40.5045C34.0482 40.2805 33.8188 40.2735 33.7171 40.2887Z" fill="#10162D"/>
    <path d="M60.579 37.9269C61.7394 37.2298 62.9779 37.0836 64.0575 37.5401L64.0585 37.5392C65.1647 38.0068 65.8972 39.0359 66.1981 40.297L66.2499 40.5353C66.4806 41.7381 66.336 43.1349 65.7684 44.4835L65.7665 44.4874C65.1991 45.8268 64.2933 46.9397 63.203 47.6349L63.204 47.6358L63.202 47.6368L63.1708 47.6583L63.1386 47.6788C63.135 47.681 63.1304 47.6825 63.1268 47.6847L63.1161 47.6925L63.0946 47.7052C62.3781 48.1405 61.6291 48.3653 60.9042 48.3653C60.4516 48.3653 60.0123 48.2789 59.5956 48.1017L59.5907 48.0997C58.5108 47.6363 57.7538 46.6447 57.4452 45.3253L57.4442 45.3233L57.4364 45.294L57.4296 45.2647C57.1408 43.9765 57.3097 42.5226 57.8886 41.1554L58.0018 40.9015C58.5851 39.6477 59.4679 38.6108 60.5184 37.962L60.5477 37.9435L60.579 37.9269ZM62.6737 40.2823C62.5569 40.2963 62.3631 40.348 62.0966 40.5128L62.0936 40.5138L62.0946 40.5147C61.5743 40.8361 61.0222 41.448 60.6513 42.3243C60.2816 43.1976 60.2257 44.0072 60.3544 44.5958L60.3554 44.5968L60.3593 44.6144C60.4271 44.9205 60.5246 45.0977 60.5975 45.1935C60.6663 45.2837 60.728 45.3221 60.7704 45.3409C60.8013 45.354 60.8396 45.3653 60.9042 45.3653C61.0049 45.3653 61.2206 45.3326 61.535 45.1417L61.5468 45.1339L61.5741 45.1183C62.0905 44.7949 62.6367 44.1855 63.0048 43.3165C63.3388 42.5213 63.4036 41.7781 63.3231 41.2208L63.2802 40.9933C63.1446 40.4251 62.9165 40.3139 62.8905 40.3028C62.8544 40.2876 62.787 40.2688 62.6737 40.2823Z" fill="#10162D"/>
    <path d="M92.7896 22.7789C92.7893 20.97 91.3231 19.5037 89.5142 19.5035H6.98682C5.17773 19.5035 3.71069 20.9699 3.71045 22.7789V64.0435C3.71068 65.8525 5.17772 67.3189 6.98682 67.3189H89.5142C91.3231 67.3187 92.7893 65.8524 92.7896 64.0435V22.7789ZM95.7896 64.0435C95.7893 67.5092 92.9799 70.3187 89.5142 70.3189H6.98682C3.52089 70.3189 0.710684 67.5094 0.710449 64.0435V22.7789C0.710692 19.313 3.5209 16.5035 6.98682 16.5035H89.5142C92.9799 16.5037 95.7893 19.3131 95.7896 22.7789V64.0435Z" fill="#10162D"/>
    <path d="M65.3443 14.1193C65.3443 11.4309 63.1645 9.25109 60.4761 9.25109H35.897C33.2086 9.25109 31.0289 11.4309 31.0289 14.1193V18.0675H28.0289V14.1193C28.0289 9.774 31.5518 6.25109 35.897 6.25109H60.4761C64.8214 6.25109 68.3443 9.774 68.3443 14.1193V18.0675H65.3443V14.1193Z" fill="#10162D"/>
    <path d="M14.5355 17.7133V67.5101H11.5355V17.7133H14.5355Z" fill="#10162D"/>
    <path d="M84.9643 17.7133V67.5101H81.9643V17.7133H84.9643Z" fill="#10162D"/>
</svg>