<svg viewBox="0 0 89 84" fill="none" xmlns="http://www.w3.org/2000/svg">
    <path d="M2.40308 31.5041C-7.66331 45.1402 16.5381 61.368 37.4874 66.1375C58.4367 70.907 64.0146 72.7497 72.5546 60.2642C81.0946 47.7787 102.571 33.4028 76.3352 14.4758C50.099 -4.45124 50.0444 1.0329 28.6589 2.03508C7.27321 3.03726 12.4695 17.868 2.40308 31.5041Z" fill="#EAB0D3"/>
    <path d="M82.534 26.7471C81.7877 25.8729 80.7493 25.3437 79.6077 25.2546C77.3187 25.0753 75.2968 26.7749 75.01 29.1226L73.3801 42.4912C71.8387 42.3534 70.2047 43.0028 69.1376 44.7814L65.4925 50.8583C65.2345 51.2242 64.0135 52.1526 63.5293 52.3607C63.2782 52.3677 63.036 52.3714 62.8016 52.3755C59.2868 52.4378 57.1338 52.7381 53.7696 58.1818L45.441 71.6646L37.1101 58.1827C33.7463 52.7388 31.593 52.4377 28.0781 52.3764C27.8437 52.3722 27.6015 52.3684 27.3504 52.3614C26.8659 52.1535 25.6452 51.2259 25.3979 50.876L21.7421 44.7821C20.675 43.0033 19.041 42.3542 17.4995 42.4921L15.8698 29.1235C15.5827 26.7748 13.5579 25.0711 11.2718 25.2554C10.1312 25.3445 9.09203 25.8737 8.34559 26.748C7.60213 27.6188 7.24361 28.7219 7.3352 29.8555L9.68856 58.8888C9.86807 61.1087 12.1432 63.3169 12.9058 63.8271L25.294 72.126C25.9789 72.9524 28.9399 77.7322 30.3832 80.0609C31.0681 81.165 31.608 82.0381 31.8633 82.4277C32.4488 83.3283 33.1428 83.6575 33.8744 83.6575C34.7102 83.6575 35.5945 83.2284 36.4215 82.7298L45.4415 77.2987L54.4605 82.7295C55.2813 83.224 56.1588 83.6511 56.9939 83.6511C57.7342 83.6511 58.441 83.3141 59.0425 82.3897C59.2727 82.0378 59.8139 81.165 60.4976 80.0597C61.94 77.7306 64.901 72.9511 65.5868 72.1248L77.9733 63.8259C78.7369 63.3156 81.0107 61.1076 81.1914 58.8876L83.5448 29.8543C83.636 28.7206 83.2776 27.6171 82.534 26.7471ZM34.9384 80.2749C34.583 80.4888 34.3309 80.6157 34.1601 80.6899C33.9028 80.2865 33.4205 79.5077 32.8278 78.5512C28.1496 70.9997 27.5172 70.1591 27.0121 69.8201L14.5089 61.4426C13.9936 61.0977 12.6248 59.525 12.5545 58.6549L10.2012 29.6217C10.1714 29.253 10.2895 28.8923 10.5346 28.6058C10.7819 28.3166 11.1242 28.1411 11.4985 28.1113C11.5334 28.1085 11.567 28.1073 11.6007 28.1073C12.3113 28.1073 12.926 28.6862 13.0212 29.4671L14.7553 43.6991C13.3111 44.9916 12.5725 47.1588 13.83 49.2687L19.9545 59.5473C20.3089 60.141 20.9908 60.5592 22.7091 61.5166C23.2828 61.8369 23.9984 62.2342 24.2514 62.432C24.8768 62.9196 25.7791 62.8096 26.2676 62.1852C26.7558 61.5607 26.6447 60.6601 26.0202 60.1723C25.5915 59.8384 24.9047 59.456 24.1086 59.0117C23.5538 58.7025 22.6495 58.1992 22.3527 57.9631L16.2978 47.8026C15.6754 46.758 16.4786 45.9049 16.9905 45.5996C17.4104 45.3499 18.4734 44.914 19.2784 46.2548L22.9342 52.3484C23.4583 53.2216 25.8266 55.1808 27.1242 55.2226C27.4381 55.2324 27.7376 55.2376 28.0264 55.2435C30.8089 55.2931 31.9602 55.314 34.6641 59.6891L43.8032 74.4781C43.8441 74.5496 43.9045 74.7061 43.9483 74.8477L34.9384 80.2749ZM78.3284 58.6559C78.2578 59.527 76.8892 61.0997 76.373 61.4446L63.8699 69.8204C63.3644 70.1584 62.7324 70.9996 58.0542 78.5516C57.4743 79.4871 57 80.2522 56.722 80.6903C56.5513 80.615 56.2993 80.4883 55.9437 80.2752L46.9317 74.8482C46.9755 74.7076 47.035 74.5529 47.0727 74.4865L56.2158 59.6895C58.9198 55.314 60.0711 55.2931 62.8536 55.2438C63.1423 55.2387 63.4422 55.233 63.7557 55.2229C65.0541 55.1812 67.4213 53.222 67.9457 52.3488L71.6015 46.2551C72.4065 44.9134 73.4695 45.3493 73.8895 45.6C74.4017 45.9051 75.2057 46.7583 74.5832 47.803L68.5282 57.9642C68.2306 58.2 67.3262 58.7033 66.7723 59.0128C65.9763 59.4557 65.2895 59.8392 64.8607 60.1734C64.2353 60.6608 64.1251 61.5618 64.6134 62.1862C65.1016 62.8107 66.0041 62.9207 66.6295 62.4332C66.8825 62.235 67.5981 61.8366 68.1719 61.5177C69.8901 60.5604 70.572 60.1431 70.9264 59.5484L77.0509 49.2707C78.3078 47.1607 77.569 44.9935 76.1256 43.7011L77.8597 29.4689C77.9601 28.6505 78.6279 28.0577 79.3824 28.1133C79.7567 28.1421 80.0991 28.3184 80.3464 28.6078C80.5914 28.8943 80.7096 29.255 80.6798 29.6236L78.3284 58.6559Z" fill="#10162D"/>
    <path d="M63.5913 23.1596C63.5913 22.3079 63.4381 21.4609 63.1362 20.6547L62.9976 20.3119C62.6038 19.4041 62.0227 18.5702 61.2808 17.8617L61.2798 17.8608C60.6308 17.2403 59.8695 16.7266 59.0279 16.3461L58.6626 16.1918C57.6754 15.801 56.6127 15.5981 55.5366 15.5981C54.595 15.5981 53.664 15.7536 52.7847 16.0541L52.4107 16.1918C51.4236 16.5826 50.5353 17.1517 49.7935 17.8608L47.6636 19.8959C46.5041 21.0037 44.6776 21.0037 43.5181 19.8959L41.3882 17.8617C39.8872 16.4277 37.8238 15.5991 35.645 15.599C33.6021 15.599 31.6604 16.3273 30.189 17.6L29.9009 17.8617C28.4049 19.2912 27.5914 21.1998 27.5913 23.1596C27.5913 25.1195 28.4047 27.0289 29.9009 28.4584L45.5904 43.4487L61.2798 28.4584C62.0217 27.75 62.6038 26.916 62.9976 26.0082L63.1362 25.6654C63.4382 24.8592 63.5913 24.0115 63.5913 23.1596ZM66.5777 23.6791C66.5154 24.8887 66.2358 26.0804 65.7495 27.2016L65.5288 27.6762C64.9866 28.7707 64.2514 29.7694 63.353 30.6274L45.5904 47.5981L27.8286 30.6274C25.8854 28.7707 24.7406 26.294 24.605 23.684L24.5913 23.1596C24.5914 20.5339 25.6147 18.0089 27.4507 16.0717L27.8286 15.6918C29.9015 13.7113 32.7135 12.599 35.645 12.599L36.1929 12.6117C38.9249 12.7412 41.518 13.835 43.4614 15.6918L45.5904 17.727L47.7212 15.6918C48.619 14.8338 49.6637 14.1307 50.8091 13.6127L51.3062 13.4018C52.6472 12.8709 54.0849 12.5981 55.5366 12.5981L56.0806 12.6108C57.3464 12.6703 58.5937 12.9372 59.7671 13.4018C61.1083 13.9327 62.327 14.7109 63.353 15.6918C64.3799 16.6723 65.1937 17.8373 65.7495 19.1186C66.3051 20.3998 66.5913 21.7729 66.5913 23.1596L66.5777 23.6791Z" fill="#10162D"/>
</svg>