<svg viewBox="0 0 95 84" fill="none" xmlns="http://www.w3.org/2000/svg">
    <path d="M2.21739 42.4366C-6.42837 58.3959 21.6525 72.0031 44.5791 73.9431C67.5056 75.883 73.6953 77.007 80.8936 62.4951C88.0919 47.9831 108.729 29.5408 78.0877 13.3739C47.4471 -2.79316 48.2055 3.03089 25.6753 7.27675C3.14509 11.5226 10.8632 26.4772 2.21739 42.4366Z" fill="#6FCF97" fill-opacity="0.6"/>
    <path d="M76.7449 0.619059C77.3269 0.369465 78.0091 0.551829 78.4002 1.0507C80.3212 3.51246 82.6416 9.40953 77.7263 14.1005C72.0708 19.5232 68.9264 24.9377 70.7478 35.1757C72.7769 46.6029 67.1475 58.2967 65.0349 61.1991C64.5276 64.3596 63.5293 71.6857 63.7537 75.3202C67.072 75.7609 71.8209 77.5744 71.8211 82.2734C71.8211 83.0466 71.189 83.6794 70.4158 83.6796H56.3015C55.8942 83.6795 55.5118 83.5043 55.2459 83.205C54.9793 82.9056 54.8552 82.4977 54.905 82.0985C54.9073 82.0299 55.393 77.9877 54.4636 73.2665C52.6008 74.805 50.5713 76.0444 48.8748 76.9677C53.1215 78.6214 53.2496 82.0604 53.2498 82.248C53.2579 82.6221 53.1165 82.9887 52.8503 83.2548C52.5926 83.5293 52.2265 83.6786 51.8523 83.6786H29.5964C29.3721 83.6786 29.1475 83.6284 28.948 83.5204C25.555 81.7491 23.0516 78.9635 21.5046 76.0693C19.9243 76.2772 18.4101 76.3935 16.988 76.3935C12.339 76.3934 8.60459 75.2533 6.03492 73.0243C3.18241 70.5542 1.78539 66.8285 1.86011 61.955C1.87694 61.1898 2.50045 60.5743 3.26539 60.5741H3.29078C4.06409 60.5911 4.67992 61.2315 4.67164 62.0048C4.60504 66.0051 5.68565 68.9997 7.87281 70.9042C10.4843 73.1748 14.785 74.0148 20.3572 73.3827C19.8999 71.9854 19.6668 70.6374 19.6834 69.4316C19.8498 55.6178 24.6398 52.0995 31.8836 46.7685C35.0688 44.4316 38.6702 41.7787 42.7205 37.6786C50.8043 29.5032 50.314 25.8352 49.74 21.5937C49.4406 19.3483 49.0998 16.7949 49.948 13.5429C50.0644 13.0606 50.2139 12.5701 50.3884 12.0878C54.2891 0.976842 62.8139 2.3407 66.4568 2.92277L66.573 2.93937C69.3507 3.38854 74.8569 1.41753 76.7449 0.619059ZM76.7527 3.6464C74.4821 4.51151 69.3924 6.24054 66.1326 5.71672L66.0164 5.70011C62.0908 5.07635 56.1689 4.1283 53.0418 13.0273C52.9587 13.2434 52.8925 13.4595 52.8259 13.6757L59.4539 24.1474C59.512 24.247 59.6037 24.2718 59.6619 24.2802C59.7285 24.2886 59.8205 24.2715 59.8953 24.1884C62.7393 21.0446 64.7772 15.8965 58.3484 9.25968C57.8077 8.70255 57.8245 7.81307 58.3816 7.27238C58.9387 6.73186 59.8283 6.74848 60.3689 7.30558C69.0431 16.2543 64.3947 23.407 61.991 26.0683C61.4007 26.7253 60.5771 27.0916 59.7039 27.0917C59.6126 27.0917 59.5208 27.0913 59.4295 27.0829C58.4564 26.9998 57.6077 26.4755 57.0837 25.6523L52.2185 17.9765C52.2354 19.099 52.3765 20.1551 52.5261 21.2362C53.1416 25.7939 53.7734 30.5092 44.7166 39.6659C40.5084 43.9155 36.8077 46.6355 33.5476 49.039C26.5198 54.2119 22.6437 57.0567 22.4939 69.4735C22.4606 72.5092 24.7563 77.9981 29.9627 80.8759L49.7722 80.8769C49.0403 80.0287 47.5271 79.0968 44.4002 78.9306C44.3754 78.9306 44.3585 78.9229 44.3337 78.9228C44.2921 78.9146 44.2416 78.9146 44.2 78.9062C44.1252 78.8897 44.0584 78.8724 43.992 78.8476C43.9837 78.8394 43.9758 78.8388 43.9675 78.8388C43.9511 78.8304 43.9343 78.8227 43.9177 78.8144C43.8678 78.7896 43.8093 78.7647 43.7595 78.7314C43.7347 78.723 43.7092 78.7059 43.6843 78.6894C43.6181 78.6479 43.5602 78.6061 43.5105 78.5566C43.5024 78.5485 43.502 78.5481 43.4939 78.54C43.4359 78.4818 43.3854 78.4151 43.3357 78.3485C43.3273 78.3317 43.3187 78.323 43.3103 78.3066C43.277 78.2485 43.2439 78.1905 43.2107 78.1239C43.2026 78.1072 43.2024 78.0985 43.1941 78.0819C43.1857 78.0656 43.1781 78.0486 43.1697 78.0321C43.1116 77.8909 43.0863 77.7326 43.0779 77.5829V77.5663C43.0779 77.475 43.0779 77.3837 43.0945 77.3007V77.2919C43.111 77.1921 43.1358 77.092 43.1775 76.9921C45.0652 72.0687 45.04 68.1018 43.0857 65.1825C39.3347 59.5937 29.6788 59.3114 29.5789 59.3114C28.8057 59.2944 28.1905 58.6539 28.2068 57.8808C28.2237 57.1073 28.8557 56.4911 29.6375 56.5077C30.0866 56.516 40.84 56.816 45.406 63.6191C47.4437 66.663 47.9008 70.4469 46.7781 74.913C48.7659 73.8901 51.4609 72.2934 53.6814 70.2392C53.2573 68.9501 52.7506 67.7524 52.1433 66.663C51.7693 65.9811 52.0102 65.1241 52.6921 64.7499C53.3741 64.3758 54.2312 64.6167 54.6052 65.2987C55.4369 66.7871 56.1185 68.4505 56.6423 70.247C57.8983 74.5802 57.9317 78.6974 57.8318 80.8681L68.7107 80.8671C67.3967 78.2474 62.514 78.0234 62.4558 78.0234C61.7991 77.9982 61.2422 77.5242 61.1257 76.8759C60.3354 72.6094 62.2487 60.8904 62.3318 60.3915C62.3736 60.1422 62.4732 59.909 62.6394 59.7177C64.2615 57.7959 69.9078 46.4692 67.9949 35.6659C65.9573 24.2387 69.6422 17.9676 75.7966 12.0712C79.0903 8.91913 77.676 5.27658 76.7527 3.6464ZM59.3318 38.7919C60.0572 38.792 60.7758 38.9352 61.4461 39.2138L61.6941 39.3241C62.2666 39.5959 62.7888 39.9649 63.2371 40.415C63.7498 40.929 64.1562 41.5387 64.4334 42.2099C64.7107 42.8812 64.8523 43.6008 64.8523 44.3271C64.8523 45.0529 64.7094 45.7714 64.4324 46.4423L64.4334 46.4433C64.1562 47.1144 63.7487 47.7243 63.2361 48.2382L63.2371 48.2392L56.3738 55.1239C56.1394 55.359 55.821 55.491 55.489 55.4911C55.1983 55.4911 54.9177 55.3899 54.6951 55.207L54.6033 55.1239L47.74 48.2392C46.7055 47.2011 46.1248 45.7933 46.1248 44.3271C46.1248 42.8607 46.7053 41.4531 47.74 40.415L47.9382 40.2255C48.9507 39.3056 50.2714 38.792 51.6453 38.7919C53.0819 38.7919 54.4592 39.355 55.488 40.3554C55.9874 39.8695 56.5737 39.4813 57.2175 39.2138L57.4705 39.1161C58.067 38.9019 58.6969 38.7919 59.3318 38.7919ZM59.3318 41.2919C59.0346 41.2919 58.7391 41.3356 58.4558 41.4218L58.1765 41.5224C57.902 41.6365 57.6459 41.7906 57.4168 41.9794L57.197 42.1796L56.3738 43.0048C56.1393 43.24 55.8211 43.3729 55.489 43.373C55.1984 43.373 54.9177 43.2717 54.6951 43.0888L54.6033 43.0058L53.78 42.1796C53.2133 41.6111 52.4452 41.2919 51.6453 41.2919C50.9456 41.292 50.2706 41.5367 49.7332 41.9784L49.5115 42.1796C48.9445 42.7483 48.6248 43.521 48.6248 44.3271C48.6248 45.0324 48.8693 45.712 49.3103 46.2519L49.5115 46.4736L55.488 52.4706L61.4666 46.4736L61.6658 46.2528C61.854 46.0228 62.0078 45.7654 62.1218 45.4892L62.2224 45.2079C62.3086 44.9229 62.3523 44.6262 62.3523 44.3271C62.3523 44.0277 62.3087 43.7305 62.2224 43.4452L62.1218 43.164C61.9697 42.7958 61.7472 42.4609 61.4666 42.1796C61.2562 41.9684 61.0158 41.7895 60.7546 41.6493L60.4861 41.5224C60.1201 41.3702 59.7279 41.292 59.3318 41.2919Z" fill="#10162D"/>
</svg>