<svg viewBox="0 0 90 86" fill="none" xmlns="http://www.w3.org/2000/svg">
    <path d="M84.1536 20.6004C84.2172 2.31528 51.4495 2.68396 29.2589 11.2549C7.06838 19.8258 0.778733 21.5984 1.33524 37.9267C1.89174 54.2549 -8.03713 80.177 28.3739 80.9645C64.7849 81.7521 61.1849 76.841 79.9307 62.8697C98.676 48.8984 84.0902 38.8856 84.1536 20.6004Z" fill="#F39774"/>
    <path d="M10.4096 75.9008V18.4885C10.4096 15.9178 11.4303 13.4527 13.2463 11.635C15.0622 9.81725 17.5248 8.79555 20.093 8.79555H28.2868L28.4391 8.80331C29.1901 8.87978 29.7764 9.51467 29.7764 10.2866C29.7764 11.0586 29.1901 11.6935 28.4391 11.7699L28.2868 11.7777H20.093C18.3149 11.7777 16.6099 12.485 15.3527 13.7435C14.0954 15.002 13.3888 16.7088 13.3888 18.4885V75.9008C13.3889 77.6804 14.0954 79.3874 15.3527 80.6458C16.6099 81.9042 18.315 82.6116 20.093 82.6116H69.2548C71.0327 82.6116 72.7379 81.9043 73.9951 80.6458C75.2523 79.3874 75.9589 77.6804 75.9589 75.9008V18.4885C75.9589 16.7088 75.2523 15.002 73.9951 13.7435C72.7379 12.485 71.0327 11.7777 69.2548 11.7777H61.061C60.2384 11.7776 59.5714 11.1101 59.5714 10.2866C59.5714 9.46318 60.2384 8.79564 61.061 8.79555H69.2548C71.8229 8.79555 74.2856 9.81726 76.1015 11.635C77.9174 13.4527 78.9382 15.9179 78.9382 18.4885V75.9008C78.9381 78.4714 77.9174 80.9366 76.1015 82.7543C74.2856 84.572 71.8229 85.5937 69.2548 85.5938H20.093C17.5249 85.5938 15.0622 84.5719 13.2463 82.7543C11.4304 80.9366 10.4097 78.4714 10.4096 75.9008Z" fill="#10162D"/>
    <path d="M59.571 6.18529C59.5708 4.74416 58.404 3.57596 56.9642 3.5759H32.3828C30.9432 3.57609 29.7763 4.74419 29.776 6.18529V14.3872C29.776 15.8285 30.9431 16.9973 32.3828 16.9975H56.9642C58.4041 16.9975 59.571 15.8285 59.571 14.3872V6.18529ZM62.5502 14.3872C62.5502 17.4755 60.0495 19.9796 56.9642 19.9797H32.3828C29.2976 19.9795 26.7968 17.4754 26.7968 14.3872V6.18529C26.7971 3.09728 29.2978 0.593936 32.3828 0.59375H56.9642C60.0493 0.593808 62.55 3.09716 62.5502 6.18529V14.3872Z" fill="#10162D"/>
    <path d="M48.5968 36.7444C48.5968 36.1813 48.5958 35.8505 48.5755 35.6067C48.5652 35.4844 48.5523 35.4237 48.5464 35.4009C48.5158 35.3454 48.4721 35.2933 48.4145 35.2524L48.3485 35.2135C48.3797 35.229 48.3508 35.2006 48.1119 35.1815C47.8566 35.1611 47.5126 35.1601 46.9375 35.1601H41.4271C40.8522 35.1601 40.508 35.1612 40.2527 35.1815C40.1332 35.191 40.0659 35.203 40.0326 35.2106L40.0151 35.2135C39.926 35.2579 39.8596 35.3248 39.8182 35.399C39.8126 35.4204 39.7996 35.4811 39.7891 35.6067C39.7688 35.8505 39.7678 36.1813 39.7678 36.7444V42.1263C39.7678 42.639 39.769 43.1155 39.7358 43.5125C39.701 43.9282 39.6207 44.3884 39.3838 44.8424L39.3828 44.8415C39.0883 45.406 38.6439 45.8729 38.1036 46.1966L37.866 46.3267C37.4139 46.5517 36.9568 46.6283 36.5394 46.6616C36.1383 46.6936 35.6553 46.6927 35.1283 46.6927H29.6179C29.0428 46.6927 28.6988 46.6937 28.4435 46.714C28.3245 46.7236 28.2577 46.7356 28.2243 46.7432L28.2069 46.7461C28.1165 46.7911 28.0493 46.859 28.0081 46.9344C28.002 46.9584 27.9899 47.0189 27.98 47.1383C27.9596 47.3821 27.9586 47.7128 27.9586 48.276V53.6578C27.9586 54.2213 27.9596 54.5527 27.98 54.7965C27.9899 54.9147 28.002 54.9751 28.0081 54.9994C28.0491 55.0749 28.1159 55.1434 28.2069 55.1887L28.2234 55.1916C28.2565 55.1992 28.3236 55.2112 28.4435 55.2207C28.6988 55.2411 29.0429 55.2421 29.6179 55.2421H35.1283C35.6553 55.2421 36.1383 55.2412 36.5394 55.2732C36.9567 55.3065 37.4139 55.3822 37.866 55.6071C38.5134 55.9293 39.0472 56.4472 39.3838 57.0924L39.4652 57.2632C39.6396 57.6608 39.7054 58.0578 39.7358 58.4213C39.769 58.8185 39.7678 59.2955 39.7678 59.8085V65.1904C39.7678 65.7536 39.7688 66.0843 39.7891 66.3281C39.7995 66.4526 39.8125 66.513 39.8182 66.5349C39.8595 66.6092 39.926 66.6758 40.0151 66.7203C39.9842 66.7049 40.0142 66.7343 40.2527 66.7533C40.5079 66.7737 40.8521 66.7747 41.4271 66.7747H46.9375C47.5126 66.7747 47.8567 66.7737 48.1119 66.7533C48.3507 66.7342 48.3797 66.7057 48.3485 66.7213C48.4384 66.6766 48.5051 66.6081 48.5464 66.5329C48.5523 66.5097 48.5653 66.4494 48.5755 66.3281C48.5959 66.0843 48.5968 65.7537 48.5968 65.1904V59.8085C48.5968 59.2955 48.5956 58.8184 48.6288 58.4213C48.6636 58.0058 48.7441 57.5462 48.9808 57.0924L49.1156 56.8565C49.4521 56.3208 49.9316 55.8899 50.4976 55.6081L50.4986 55.6071C50.9505 55.3824 51.407 55.3065 51.8243 55.2732C52.2253 55.2412 52.7083 55.2421 53.2353 55.2421H58.7467C59.3212 55.2421 59.6649 55.2411 59.9201 55.2207C60.159 55.2017 60.1889 55.1732 60.1577 55.1887L60.2227 55.1499C60.2799 55.1093 60.3231 55.058 60.3536 55.0033C60.3592 54.9824 60.3731 54.922 60.3837 54.7956C60.404 54.5518 60.406 54.221 60.406 53.6578V48.276C60.406 47.7128 60.4041 47.3821 60.3837 47.1383C60.3732 47.0126 60.3593 46.9527 60.3536 46.9315C60.323 46.8766 60.2797 46.8254 60.2227 46.7849L60.1577 46.7461C60.1884 46.7613 60.1582 46.7331 59.9201 46.714C59.665 46.6937 59.3213 46.6927 58.7467 46.6927H53.2353C52.7083 46.6927 52.2253 46.6936 51.8243 46.6616C51.407 46.6283 50.9506 46.5515 50.4986 46.3267C49.9323 46.0448 49.4521 45.6133 49.1156 45.0774L48.9808 44.8415C48.7441 44.3875 48.6636 43.9281 48.6288 43.5125C48.5956 43.1155 48.5968 42.6391 48.5968 42.1263V36.7444ZM51.576 42.1263C51.576 42.6895 51.577 43.0202 51.5973 43.264C51.6075 43.3852 51.6205 43.4456 51.6264 43.4688C51.6675 43.5437 51.7341 43.6112 51.8243 43.6562L51.8417 43.6591C51.8751 43.6667 51.942 43.6787 52.0609 43.6882C52.3162 43.7086 52.6603 43.7105 53.2353 43.7105H58.7467C59.2736 43.7105 59.7567 43.7086 60.1577 43.7406C60.575 43.774 61.0314 43.8507 61.4834 44.0755L61.721 44.2056C62.2615 44.5294 62.7068 44.9958 63.0012 45.5598L63.0826 45.7307C63.2572 46.1285 63.3228 46.526 63.3532 46.8898C63.3864 47.2868 63.3852 47.7632 63.3852 48.276V53.6578C63.3852 54.1708 63.3864 54.6479 63.3532 55.045C63.3227 55.4088 63.2573 55.8062 63.0826 56.2041L63.0012 56.374C62.7066 56.9386 62.2615 57.4054 61.721 57.7292L61.4834 57.8593C61.0315 58.084 60.575 58.1599 60.1577 58.1932C59.7567 58.2252 59.2737 58.2243 58.7467 58.2243H53.2353C52.6603 58.2243 52.3162 58.2253 52.0609 58.2456C51.9421 58.2551 51.8752 58.2671 51.8417 58.2747L51.8243 58.2777C51.7344 58.3224 51.6676 58.3896 51.6264 58.464C51.6207 58.4861 51.6077 58.5468 51.5973 58.6708C51.577 58.9147 51.576 59.2453 51.576 59.8085V65.1904C51.576 65.7031 51.5772 66.1796 51.544 66.5766C51.5136 66.9402 51.4488 67.338 51.2744 67.7357L51.192 67.9066C50.8975 68.4708 50.4526 68.938 49.9118 69.2617L49.6752 69.3908C49.223 69.6159 48.766 69.6924 48.3485 69.7257C47.9474 69.7578 47.4646 69.7568 46.9375 69.7568H41.4271C40.9001 69.7568 40.4171 69.7577 40.0161 69.7257C39.6508 69.6966 39.2552 69.6343 38.8591 69.4685L38.6894 69.3908C38.123 69.109 37.6438 68.6778 37.3074 68.1424L37.1717 67.9066C36.9348 67.4526 36.8554 66.9922 36.8206 66.5766C36.7874 66.1796 36.7886 65.7032 36.7886 65.1904V59.8085C36.7886 59.2452 36.7867 58.9146 36.7663 58.6708C36.7557 58.544 36.7418 58.4838 36.7362 58.4631C36.7058 58.4085 36.6622 58.3579 36.6053 58.3175L36.5403 58.2777C36.5715 58.2931 36.5417 58.2647 36.3027 58.2456C36.0475 58.2253 35.7031 58.2243 35.1283 58.2243H29.6179C29.0908 58.2243 28.608 58.2252 28.2069 58.1932C27.8416 58.164 27.446 58.1027 27.0499 57.9369L26.8802 57.8593C26.314 57.5774 25.8348 57.1457 25.4983 56.6099L25.3635 56.374C25.1267 55.9201 25.0462 55.4606 25.0114 55.045C24.9782 54.6479 24.9794 54.1708 24.9794 53.6578V48.276C24.9794 47.7632 24.9782 47.2868 25.0114 46.8898C25.0462 46.4742 25.1267 46.0148 25.3635 45.5608C25.7 44.9161 26.2331 44.3976 26.8802 44.0755L27.0499 43.9979C27.4461 43.832 27.8415 43.7698 28.2069 43.7406C28.608 43.7086 29.0908 43.7105 29.6179 43.7105H35.1283C35.7032 43.7105 36.0475 43.7086 36.3027 43.6882C36.5411 43.6692 36.5711 43.6409 36.5403 43.6562L36.6053 43.6173C36.6627 43.5765 36.7057 43.5249 36.7362 43.4698C36.742 43.4477 36.7559 43.3878 36.7663 43.264C36.7867 43.0202 36.7886 42.6895 36.7886 42.1263V36.7444C36.7886 36.2314 36.7874 35.7543 36.8206 35.3572C36.8554 34.9416 36.935 34.4821 37.1717 34.0282L37.3074 33.7924C37.6438 33.2568 38.1229 32.8249 38.6894 32.543L38.8591 32.4653C39.2551 32.2997 39.6508 32.2382 40.0161 32.2091C40.4171 32.1771 40.9001 32.178 41.4271 32.178H46.9375C47.4646 32.178 47.9474 32.1771 48.3485 32.2091C48.7659 32.2424 49.2231 32.3181 49.6752 32.543L49.9118 32.6731C50.4526 32.9969 50.8975 33.4639 51.192 34.0282L51.2744 34.1981C51.449 34.5959 51.5136 34.9934 51.544 35.3572C51.5772 35.7544 51.576 36.2314 51.576 36.7444V42.1263Z" fill="#10162D"/>
</svg>