<svg viewBox="0 0 92 40">
    <path d="M32.6115 16.9477C31.9865 16.3468 31.5074 15.6622 31.1085 14.9313C31.012 14.7541 30.9094 14.5786 30.8167 14.4006C30.4238 13.6464 29.8746 13.022 29.1526 12.5299C28.4029 12.0187 27.6528 11.5069 26.9124 10.978C25.7901 10.1761 24.7958 9.22805 23.9413 8.13367C23.5211 7.59571 23.2373 7.01455 23.0869 6.41893C22.8398 5.44057 23.1269 4.77524 23.8576 4.37686C24.8305 3.84631 25.9533 3.61017 27.1554 3.52598C28.7684 3.41259 30.4283 3.50182 32.1622 3.92528C32.9842 4.1261 33.7939 4.44807 34.5999 4.86059C35.6473 5.39667 36.3996 6.18981 36.9202 7.22644C37.3994 8.18033 37.6779 9.1381 37.8376 10.0953C38.2348 12.4754 38.1055 14.6708 37.4231 16.6665C37.268 17.1199 37.0354 17.5207 36.7347 17.8653C36.3014 18.3616 35.6601 18.4719 34.8979 18.3341C34.1565 18.1997 33.4879 17.8096 32.8831 17.2186C32.7918 17.1294 32.702 17.0382 32.6115 16.9477Z" />
    <path d="M45.2777 6.7441C44.3054 7.76366 43.1273 8.37642 41.7255 8.53369C41.3972 8.57039 41.0576 8.56786 40.7291 8.53102C39.6517 8.41114 38.9335 7.55217 38.8237 6.55164C38.7427 5.81355 38.9608 5.15694 39.3584 4.55137C40.0494 3.49864 41.0268 2.80922 42.1862 2.35915C42.9361 2.0681 43.7091 1.9051 44.5189 1.9853C45.0195 2.03485 45.4997 2.16609 45.9067 2.46923C46.4909 2.90476 46.7129 3.50953 46.6518 4.22586C46.5911 4.93512 46.3016 5.55043 45.8619 6.09803C45.6804 6.32393 45.4732 6.52929 45.2777 6.7441Z" />
    <path d="M38.3748 1.878C37.7399 2.53836 37.0228 3.03737 36.1314 3.24819C35.7739 3.33262 35.4103 3.35658 35.0496 3.28066C34.9163 3.25256 34.7808 3.19322 34.6674 3.11683C33.7729 2.5141 33.5016 1.63216 33.5596 0.607473C33.5714 0.399085 33.5967 0.195087 33.6344 -0.00488281H39.6368C39.3623 0.604296 38.9957 1.16723 38.5423 1.68586C38.4831 1.75336 38.4242 1.8214 38.3748 1.878Z" />
    <path d="M45.6274 14.9158C45.0123 15.5844 44.2637 16.0319 43.3812 16.2491C42.7374 16.4075 42.0871 16.4165 41.4329 16.3156C40.2262 16.1295 39.5069 15.1189 39.4537 14.0719C39.4137 13.2848 39.6683 12.6041 40.2036 12.0255C41.1086 11.0471 42.2186 10.4748 43.5478 10.3469C44.2941 10.275 45.0173 10.3829 45.6907 10.7275C46.5315 11.1577 46.9539 12.0271 46.7844 12.9547C46.6724 13.5676 46.3842 14.095 45.9799 14.5612C45.8711 14.6867 45.7454 14.7979 45.6274 14.9158Z" />
    <path d="M29.9503 1.40174C29.7265 1.65175 29.393 1.93542 28.9795 2.1115C28.3348 2.38614 27.7067 2.4002 27.1249 1.95486C26.6962 1.62664 26.3994 1.19559 26.224 0.687115C26.1441 0.455497 26.0837 0.224826 26.0417 -0.00488281H31.0495C30.7712 0.492424 30.4067 0.957821 29.9503 1.40174Z" />
    <path d="M77.6115 13.9477C76.9865 13.3468 76.5074 12.6622 76.1085 11.9313C76.012 11.7541 75.9094 11.5786 75.8167 11.4006C75.4238 10.6464 74.8746 10.022 74.1526 9.52988C73.403 9.01866 72.6528 8.50694 71.9124 7.97797C70.7901 7.17613 69.7958 6.22805 68.9413 5.13367C68.5211 4.59571 68.2373 4.01455 68.0869 3.41893C67.8398 2.44057 68.1269 1.77524 68.8577 1.37686C69.8305 0.846307 70.9533 0.610168 72.1554 0.525979C73.7684 0.412587 75.4283 0.501819 77.1623 0.92528C77.9842 1.1261 78.7939 1.44807 79.5999 1.86059C80.6473 2.39667 81.3996 3.18981 81.9202 4.22643C82.3994 5.18033 82.6779 6.1381 82.8376 7.09528C83.2348 9.47538 83.1055 11.6708 82.4231 13.6665C82.268 14.1199 82.0354 14.5206 81.7347 14.8652C81.3014 15.3616 80.6601 15.4719 79.8979 15.3341C79.1565 15.1997 78.4879 14.8096 77.8831 14.2186C77.7918 14.1294 77.702 14.0382 77.6115 13.9477Z" />
    <path d="M90.2777 3.74409C89.3054 4.76366 88.1273 5.37642 86.7255 5.53369C86.3972 5.57039 86.0576 5.56786 85.7291 5.53102C84.6517 5.41114 83.9335 4.55217 83.8237 3.55164C83.7427 2.81355 83.9608 2.15694 84.3584 1.55136C84.7825 0.905351 85.3143 0.39615 85.9299 -0.00488281H91.3959C91.613 0.348708 91.6912 0.764105 91.6518 1.22586C91.5911 1.93512 91.3016 2.55043 90.8619 3.09803C90.6804 3.32393 90.4732 3.52929 90.2777 3.74409Z" />
    <path d="M81.8651 -0.00481129C81.6337 0.101692 81.3898 0.187055 81.1314 0.248187C80.7739 0.332623 80.4104 0.356581 80.0496 0.280663C79.9163 0.25256 79.7808 0.193219 79.6674 0.116831C79.6089 0.0774618 79.5532 0.036902 79.5 -0.00481129H81.8651Z" />
    <path d="M90.6274 11.9158C90.0123 12.5844 89.2637 13.0319 88.3812 13.2491C87.7374 13.4075 87.0871 13.4165 86.4329 13.3156C85.2262 13.1295 84.5069 12.1189 84.4537 11.0719C84.4137 10.2848 84.6683 9.60409 85.2036 9.02553C86.1086 8.04712 87.2186 7.47479 88.5478 7.34686C89.2941 7.275 90.0173 7.38289 90.6907 7.72753C91.5315 8.15769 91.9539 9.02707 91.7844 9.95467C91.6724 10.5676 91.3842 11.095 90.9799 11.5612C90.8711 11.6867 90.7454 11.7979 90.6274 11.9158Z" />
    <path d="M46.694 40.0049C46.0576 39.4377 45.4724 38.8139 44.9413 38.1337C44.5211 37.5957 44.2373 37.0145 44.0869 36.4189C43.8398 35.4406 44.1269 34.7752 44.8577 34.3769C45.8305 33.8463 46.9533 33.6102 48.1554 33.526C49.7684 33.4126 51.4283 33.5018 53.1623 33.9253C53.9842 34.1261 54.7939 34.4481 55.5999 34.8606C56.6473 35.3967 57.3996 36.1898 57.9202 37.2264C58.3843 38.1503 58.8222 39.0049 58.8222 40.0049H46.694Z" />
    <path d="M66.2777 36.7441C65.3054 37.7637 64.1273 38.3764 62.7255 38.5337C62.3972 38.5704 62.0576 38.5679 61.7291 38.531C60.6517 38.4111 59.9335 37.5522 59.8237 36.5516C59.7427 35.8135 59.9608 35.1569 60.3584 34.5514C61.0494 33.4986 62.0268 32.8092 63.1862 32.3591C63.9361 32.0681 64.7091 31.9051 65.519 31.9853C66.0195 32.0348 66.4998 32.1661 66.9067 32.4692C67.4909 32.9048 67.7129 33.5095 67.6518 34.2259C67.5911 34.9351 67.3016 35.5504 66.8619 36.098C66.6804 36.3239 66.4732 36.5293 66.2777 36.7441Z" />
    <path d="M59.3748 31.878C58.7399 32.5384 58.0228 33.0374 57.1314 33.2482C56.7739 33.3326 56.4104 33.3566 56.0496 33.2807C55.9163 33.2526 55.7808 33.1932 55.6674 33.1168C54.7729 32.5141 54.5016 31.6322 54.5596 30.6075C54.6115 29.6892 54.9271 28.8562 55.3954 28.0774C55.9425 27.1675 56.6489 26.4157 57.6039 25.922C58.0684 25.6818 58.5578 25.5262 59.0855 25.5093C60.0316 25.479 60.7325 25.9757 61.0166 26.8805C61.1991 27.4625 61.2012 28.0527 61.0767 28.6433C60.8342 29.7922 60.314 30.8032 59.5423 31.6859C59.4831 31.7534 59.4242 31.8214 59.3748 31.878Z" />
    <path d="M50.9504 31.4017C50.7265 31.6517 50.393 31.9354 49.9795 32.1115C49.3348 32.3861 48.7067 32.4002 48.1249 31.9549C47.6962 31.6266 47.3994 31.1956 47.224 30.6871C46.8054 29.4736 46.9215 28.2861 47.4269 27.1269C47.7695 26.3419 48.2746 25.6743 48.959 25.1549C49.4305 24.7973 49.9674 24.5945 50.5654 24.6007C51.3459 24.6088 51.9341 24.9546 52.3029 25.6492C52.7593 26.5083 52.8132 27.4222 52.6384 28.3572C52.4212 29.5176 51.8736 30.5036 50.9504 31.4017Z" />
    <path d="M15 40.0049H4C4 40.0049 3.91979 39.9832 3.91242 39.978C2.79009 39.1761 1.79575 38.228 0.941294 37.1337C0.521118 36.5957 0.23733 36.0145 0.0868526 35.4189C-0.160201 34.4406 0.126903 33.7752 0.857646 33.3769C1.83053 32.8463 2.95331 32.6102 4.15542 32.526C5.7684 32.4126 7.42828 32.5018 9.16225 32.9253C9.98417 33.1261 10.7939 33.4481 11.5999 33.8606C12.6473 34.3967 13.3996 35.1898 13.9202 36.2264C14.3994 37.1803 14.6779 38.1381 14.8376 39.0953C14.8882 39.3982 14.9666 39.708 15 40.0049Z" />
    <path d="M22.2777 35.7441C21.3054 36.7637 20.1273 37.3764 18.7255 37.5337C18.3972 37.5704 18.0576 37.5679 17.7291 37.531C16.6517 37.4111 15.9335 36.5522 15.8237 35.5516C15.7427 34.8135 15.9608 34.1569 16.3584 33.5514C17.0494 32.4986 18.0268 31.8092 19.1862 31.3591C19.936 31.0681 20.7091 30.9051 21.5189 30.9853C22.0195 31.0348 22.4997 31.1661 22.9067 31.4692C23.4909 31.9048 23.7129 32.5095 23.6517 33.2259C23.5911 33.9351 23.3015 34.5504 22.8619 35.098C22.6804 35.3239 22.4732 35.5293 22.2777 35.7441Z" />
    <path d="M15.3748 30.878C14.7399 31.5384 14.0228 32.0374 13.1314 32.2482C12.7739 32.3326 12.4103 32.3566 12.0496 32.2807C11.9163 32.2526 11.7808 32.1932 11.6674 32.1168C10.7729 31.5141 10.5016 30.6322 10.5596 29.6075C10.6115 28.6892 10.9271 27.8562 11.3954 27.0774C11.9425 26.1675 12.6489 25.4157 13.6039 24.922C14.0684 24.6818 14.5578 24.5262 15.0855 24.5093C16.0316 24.479 16.7325 24.9757 17.0166 25.8805C17.1991 26.4625 17.2012 27.0527 17.0767 27.6433C16.8342 28.7922 16.314 29.8032 15.5423 30.6859C15.4831 30.7534 15.4242 30.8214 15.3748 30.878Z" />
    <path d="M23.0969 39.9951H18.5C19.1194 39.6385 19.7877 39.42 20.5478 39.3469C21.2941 39.275 22.0173 39.3829 22.6907 39.7275C22.8395 39.8037 22.9752 39.8936 23.0969 39.9951Z" />
    <path d="M6.95034 30.4017C6.72651 30.6517 6.39303 30.9354 5.97954 31.1115C5.33479 31.3861 4.70666 31.4002 4.12491 30.9549C3.69618 30.6266 3.39937 30.1956 3.22397 29.6871C2.8054 28.4736 2.92149 27.2861 3.42694 26.1269C3.76953 25.3419 4.27458 24.6743 4.95903 24.1549C5.43045 23.7973 5.9674 23.5945 6.56541 23.6007C7.34592 23.6088 7.9341 23.9546 8.30292 24.6492C8.75925 25.5083 8.81322 26.4222 8.6384 27.3572C8.42114 28.5176 7.87356 29.5036 6.95034 30.4017Z" />
</svg>