<svg viewBox="0 0 84 77" fill="none" xmlns="http://www.w3.org/2000/svg">
    <path d="M1.80566 37.5718C-5.82085 51.6497 18.9496 63.6528 39.1734 65.3641C59.3971 67.0753 64.8572 68.0668 71.2068 55.2656C77.5565 42.4644 95.7605 26.1963 68.7317 11.9352C41.7033 -2.32586 42.3723 2.81157 22.4981 6.55692C2.62397 10.3023 9.43219 23.4939 1.80566 37.5718Z" fill="#FBE186"/>
    <path d="M37.9279 42.6971C39.0508 39.9003 43.077 39.9889 44.0051 42.9783L46.6486 51.4852L46.6691 51.5369C46.6927 51.5852 46.7245 51.6213 46.7561 51.6453L46.8156 51.6775C46.8352 51.6843 46.854 51.6873 46.8713 51.6873H55.4269C57.0367 51.6875 58.1391 52.7905 58.5148 54.0008C58.8892 55.2067 58.6127 56.721 57.3586 57.6756L57.3576 57.6766L50.4357 62.9334C50.4044 62.9573 50.3734 62.9936 50.3498 63.0418L50.3293 63.0945C50.3059 63.17 50.3058 63.2531 50.3293 63.3289L52.9719 71.8367L53.0461 72.115C53.3586 73.4988 52.7773 74.7811 51.8146 75.5125C50.7782 76.2999 49.2335 76.4854 47.9543 75.5125L41.0334 70.2547C40.9926 70.2237 40.9505 70.2127 40.9162 70.2127C40.8992 70.2127 40.8809 70.2159 40.8615 70.2225L40.801 70.2547L33.8791 75.5125C32.5992 76.486 31.0536 76.2989 30.0178 75.5115C28.9919 74.7315 28.3982 73.3246 28.8615 71.8367L31.5041 63.3289L31.5178 63.2713C31.5267 63.2123 31.5217 63.1512 31.5041 63.0945C31.4808 63.0197 31.4385 62.9652 31.3967 62.9334L24.4758 57.6766C23.2197 56.7217 22.9434 55.2059 23.3186 53.9998C23.6949 52.7903 24.7975 51.6874 26.4064 51.6873H34.9611L35.0168 51.6785C35.0364 51.6719 35.0567 51.6609 35.0773 51.6453L35.1379 51.5809C35.1564 51.5542 35.1731 51.5225 35.1848 51.4852L37.8283 42.9783L37.8293 42.9773L37.9279 42.6971ZM40.9172 43.6658C40.867 43.6658 40.8254 43.6812 40.7961 43.702C40.7749 43.717 40.7288 43.7561 40.6936 43.8689L38.049 52.3768C37.8702 52.9502 37.5408 53.4695 37.091 53.8709L36.8908 54.0359C36.4063 54.4035 35.8282 54.6266 35.2219 54.6766L34.9611 54.6873H26.4064C26.3373 54.6873 26.3086 54.7052 26.2873 54.7225C26.2553 54.7484 26.2111 54.8035 26.1838 54.8914C26.1566 54.9789 26.1573 55.0633 26.175 55.1268C26.1897 55.1794 26.2191 55.2331 26.2912 55.2879L33.2121 60.5447L33.4123 60.7098C33.8621 61.1119 34.1911 61.6307 34.3693 62.2049L34.4357 62.452C34.5504 62.9517 34.5504 63.4719 34.4357 63.9715L34.3693 64.2195L31.7268 72.7273L31.7258 72.7283C31.6905 72.8417 31.7017 72.9171 31.7189 72.9676C31.7394 73.0272 31.78 73.0834 31.8332 73.1238C31.8863 73.1642 31.9306 73.1729 31.9514 73.1736C31.9588 73.1739 31.9927 73.1771 32.0627 73.1238L32.0637 73.1228L38.9855 67.866L39.1984 67.7176C39.7085 67.3909 40.3026 67.2128 40.9162 67.2127C41.6172 67.2127 42.2938 67.4449 42.8478 67.866L49.7687 73.1228L49.7707 73.1238L49.8498 73.1687C49.8679 73.1746 49.8781 73.1738 49.882 73.1736C49.9027 73.173 49.9471 73.1641 50.0002 73.1238C50.053 73.0837 50.0931 73.028 50.1135 72.9686C50.1308 72.9181 50.1421 72.8426 50.1066 72.7283L47.4641 64.2195C47.2605 63.5644 47.2606 62.8603 47.4641 62.2049L47.549 61.9617C47.7697 61.4049 48.1377 60.9122 48.6213 60.5447L55.5412 55.2889L55.5881 55.2479C55.6273 55.2071 55.6463 55.1666 55.6574 55.1268C55.6752 55.0628 55.6767 54.9779 55.6496 54.8904C55.6223 54.8026 55.5778 54.7481 55.5461 54.7225C55.5252 54.7056 55.4967 54.6874 55.4269 54.6873H46.8693C46.2571 54.6868 45.6638 54.5093 45.1545 54.1834L44.9416 54.034C44.3898 53.6148 43.9886 53.0328 43.7844 52.3777L41.1398 43.868C41.105 43.7556 41.0591 43.7169 41.0383 43.702C41.0094 43.6814 40.9675 43.6658 40.9172 43.6658Z" fill="#10162D"/>
    <path d="M11.8395 28.5795L40.9674 38.6136L70.0944 28.5795V3.01306H11.8395V28.5795ZM73.0944 28.9437C73.0943 29.9398 72.5021 30.8331 71.6003 31.226L71.4157 31.2972L41.778 41.5082C41.2526 41.689 40.6814 41.6883 40.1559 41.5072L10.5182 31.2972C9.51393 30.9511 8.83968 30.0061 8.83952 28.9437V2.5033C8.83952 1.12794 9.95469 0.0130615 11.3298 0.0130615H70.6051C71.9802 0.013267 73.0944 1.12816 73.0944 2.5033V28.9437Z" fill="#10162D"/>
</svg>