<svg viewBox="0 0 214 40" xmlns="http://www.w3.org/2000/svg">
    <path d="M176.341 18.3279C175.944 17.9461 175.639 17.5111 175.385 17.0467C175.324 16.9342 175.259 16.8226 175.2 16.7095C174.95 16.2303 174.6 15.8336 174.141 15.5209C173.664 15.1961 173.187 14.871 172.716 14.5349C172.003 14.0254 171.37 13.423 170.827 12.7277C170.56 12.3858 170.379 12.0166 170.283 11.6381C170.126 11.0165 170.309 10.5938 170.774 10.3407C171.392 10.0036 172.106 9.85352 172.871 9.80002C173.897 9.72798 174.953 9.78467 176.055 10.0537C176.578 10.1813 177.093 10.3859 177.606 10.648C178.272 10.9886 178.751 11.4926 179.082 12.1512C179.386 12.7573 179.564 13.3659 179.665 13.974C179.918 15.4863 179.836 16.8812 179.401 18.1492C179.303 18.4373 179.155 18.6919 178.964 18.9109C178.688 19.2263 178.28 19.2963 177.795 19.2088C177.324 19.1234 176.899 18.8755 176.514 18.5C176.456 18.4434 176.399 18.3854 176.341 18.3279Z" />
    <path d="M184.397 11.8447C183.779 12.4926 183.029 12.8819 182.138 12.9818C181.929 13.0051 181.713 13.0035 181.504 12.9801C180.819 12.904 180.362 12.3582 180.292 11.7225C180.241 11.2535 180.38 10.8363 180.632 10.4515C181.072 9.78265 181.694 9.34461 182.431 9.05865C182.908 8.87372 183.4 8.77015 183.915 8.8211C184.233 8.85259 184.538 8.93598 184.797 9.12859C185.169 9.40531 185.31 9.78957 185.271 10.2447C185.233 10.6954 185.048 11.0863 184.769 11.4343C184.653 11.5778 184.522 11.7083 184.397 11.8447Z" />
    <path d="M180.007 8.75293C179.603 9.17251 179.147 9.48957 178.58 9.62352C178.353 9.67717 178.121 9.69239 177.892 9.64415C177.807 9.6263 177.721 9.58859 177.649 9.54006C177.08 9.15709 176.907 8.59673 176.944 7.94566C176.977 7.36221 177.178 6.83292 177.476 6.33812C177.824 5.75995 178.273 5.28227 178.88 4.9686C179.176 4.81602 179.487 4.71711 179.823 4.70638C180.424 4.68716 180.87 5.00273 181.051 5.57764C181.167 5.94744 181.168 6.32244 181.089 6.6977C180.935 7.42768 180.604 8.07002 180.113 8.63085C180.076 8.67374 180.038 8.71696 180.007 8.75293Z" />
    <path d="M184.62 17.0369C184.228 17.4617 183.752 17.7461 183.191 17.884C182.782 17.9847 182.368 17.9904 181.952 17.9263C181.184 17.808 180.727 17.1659 180.693 16.5007C180.668 16.0006 180.83 15.5681 181.17 15.2005C181.746 14.5788 182.452 14.2152 183.297 14.1339C183.772 14.0882 184.232 14.1568 184.66 14.3757C185.195 14.6491 185.463 15.2014 185.355 15.7908C185.284 16.1803 185.101 16.5154 184.844 16.8115C184.775 16.8913 184.695 16.962 184.62 17.0369Z" />
    <path d="M174.649 8.45032C174.506 8.60917 174.294 8.78941 174.031 8.90129C173.621 9.07579 173.222 9.08472 172.852 8.80177C172.579 8.59322 172.39 8.31934 172.279 7.99627C172.012 7.22523 172.086 6.47071 172.408 5.7342C172.626 5.2354 172.947 4.81124 173.382 4.48123C173.682 4.25401 174.023 4.12513 174.404 4.1291C174.9 4.13423 175.274 4.35396 175.509 4.79531C175.799 5.34114 175.833 5.92178 175.722 6.51589C175.584 7.25316 175.236 7.87967 174.649 8.45032Z" />
    <path d="M204.962 16.4218C204.565 16.04 204.26 15.605 204.006 15.1406C203.945 15.028 203.88 14.9165 203.821 14.8034C203.571 14.3242 203.221 13.9275 202.762 13.6148C202.285 13.29 201.808 12.9648 201.337 12.6287C200.624 12.1193 199.991 11.5169 199.448 10.8215C199.181 10.4797 199 10.1105 198.904 9.73201C198.747 9.11038 198.93 8.68764 199.395 8.43452C200.013 8.09741 200.727 7.94738 201.492 7.89389C202.518 7.82184 203.574 7.87854 204.676 8.1476C205.199 8.27519 205.714 8.47976 206.227 8.74187C206.893 9.08248 207.372 9.58643 207.703 10.2451C208.007 10.8512 208.185 11.4597 208.286 12.0679C208.539 13.5802 208.457 14.9751 208.023 16.2431C207.924 16.5312 207.776 16.7858 207.585 17.0048C207.309 17.3202 206.901 17.3902 206.416 17.3026C205.945 17.2173 205.52 16.9694 205.135 16.5939C205.077 16.5372 205.02 16.4793 204.962 16.4218Z" />
    <path d="M213.018 9.93861C212.4 10.5864 211.651 10.9758 210.759 11.0757C210.55 11.099 210.334 11.0974 210.125 11.074C209.44 10.9978 208.983 10.452 208.913 9.81633C208.862 9.34736 209.001 8.93016 209.253 8.54539C209.693 7.87651 210.315 7.43847 211.052 7.15251C211.529 6.96758 212.021 6.86401 212.536 6.91497C212.854 6.94645 213.159 7.02984 213.418 7.22245C213.79 7.49918 213.931 7.88343 213.892 8.33858C213.854 8.78922 213.669 9.18018 213.39 9.52812C213.274 9.67165 213.143 9.80213 213.018 9.93861Z" />
    <path d="M208.628 6.84679C208.224 7.26637 207.768 7.58343 207.201 7.71738C206.974 7.77103 206.742 7.78625 206.513 7.73802C206.428 7.72016 206.342 7.68246 206.27 7.63392C205.701 7.25096 205.528 6.69059 205.565 6.03953C205.598 5.45607 205.799 4.92678 206.097 4.43198C206.445 3.85381 206.894 3.37614 207.501 3.06246C207.797 2.90988 208.108 2.81098 208.444 2.80025C209.045 2.78102 209.491 3.09659 209.672 3.6715C209.788 4.04131 209.789 4.4163 209.71 4.79156C209.556 5.52154 209.225 6.16388 208.734 6.72471C208.697 6.7676 208.659 6.81083 208.628 6.84679Z" />
    <path d="M213.241 15.1308C212.849 15.5555 212.373 15.8399 211.812 15.9779C211.403 16.0786 210.989 16.0843 210.573 16.0201C209.805 15.9019 209.348 15.2598 209.314 14.5945C209.289 14.0945 209.451 13.6619 209.791 13.2943C210.367 12.6727 211.073 12.309 211.918 12.2277C212.393 12.1821 212.853 12.2506 213.281 12.4696C213.816 12.7429 214.084 13.2953 213.976 13.8847C213.905 14.2741 213.722 14.6093 213.465 14.9054C213.396 14.9852 213.316 15.0558 213.241 15.1308Z" />
    <path d="M203.27 6.54419C203.127 6.70304 202.915 6.88328 202.652 6.99516C202.242 7.16965 201.843 7.17858 201.473 6.89563C201.2 6.68708 201.011 6.4132 200.9 6.09013C200.633 5.3191 200.707 4.56457 201.029 3.82807C201.247 3.32926 201.568 2.9051 202.003 2.57509C202.303 2.34787 202.644 2.21899 203.025 2.22296C203.521 2.22809 203.895 2.44782 204.13 2.88917C204.42 3.435 204.454 4.01564 204.343 4.60975C204.205 5.34702 203.857 5.97353 203.27 6.54419Z" />
    <path d="M189.698 37.3893C189.3 37.0076 188.996 36.5725 188.742 36.1081C188.68 35.9956 188.615 35.884 188.556 35.7709C188.306 35.2918 187.957 34.895 187.498 34.5823C187.021 34.2575 186.544 33.9324 186.073 33.5963C185.359 33.0868 184.727 32.4844 184.183 31.7891C183.916 31.4473 183.736 31.078 183.64 30.6996C183.483 30.0779 183.665 29.6552 184.13 29.4021C184.749 29.065 185.463 28.9149 186.228 28.8614C187.253 28.7894 188.309 28.8461 189.412 29.1152C189.935 29.2427 190.45 29.4473 190.962 29.7094C191.629 30.05 192.107 30.554 192.438 31.2126C192.743 31.8187 192.92 32.4273 193.022 33.0354C193.274 34.5477 193.192 35.9427 192.758 37.2106C192.659 37.4987 192.511 37.7534 192.32 37.9723C192.045 38.2877 191.637 38.3578 191.152 38.2702C190.68 38.1848 190.255 37.937 189.871 37.5614C189.812 37.5048 189.755 37.4468 189.698 37.3893Z" />
    <path d="M197.754 30.9062C197.135 31.554 196.386 31.9433 195.495 32.0432C195.286 32.0666 195.07 32.0649 194.861 32.0415C194.176 31.9654 193.719 31.4196 193.649 30.7839C193.597 30.3149 193.736 29.8977 193.989 29.513C194.428 28.8441 195.05 28.406 195.788 28.1201C196.264 27.9351 196.756 27.8316 197.271 27.8825C197.59 27.914 197.895 27.9974 198.154 28.19C198.525 28.4667 198.667 28.851 198.628 29.3061C198.589 29.7568 198.405 30.1477 198.125 30.4957C198.01 30.6392 197.878 30.7697 197.754 30.9062Z" />
    <path d="M193.363 27.8143C192.96 28.2339 192.503 28.551 191.936 28.6849C191.709 28.7386 191.478 28.7538 191.248 28.7056C191.164 28.6877 191.077 28.65 191.005 28.6015C190.436 28.2185 190.264 27.6581 190.301 27.0071C190.334 26.4236 190.535 25.8943 190.832 25.3995C191.18 24.8214 191.63 24.3437 192.237 24.03C192.532 23.8774 192.844 23.7785 193.179 23.7678C193.781 23.7486 194.227 24.0641 194.408 24.6391C194.524 25.0089 194.525 25.3839 194.446 25.7591C194.292 26.4891 193.961 27.1314 193.47 27.6923C193.432 27.7351 193.395 27.7784 193.363 27.8143Z" />
    <path d="M197.976 36.0983C197.585 36.5231 197.109 36.8075 196.548 36.9455C196.138 37.0461 195.725 37.0518 195.308 36.9877C194.541 36.8694 194.083 36.2273 194.05 35.5621C194.024 35.062 194.186 34.6295 194.527 34.2619C195.102 33.6402 195.808 33.2766 196.654 33.1953C197.128 33.1496 197.588 33.2182 198.016 33.4372C198.551 33.7105 198.82 34.2629 198.712 34.8522C198.641 35.2417 198.458 35.5768 198.2 35.873C198.131 35.9527 198.051 36.0234 197.976 36.0983Z" />
    <path d="M188.005 27.5117C187.863 27.6706 187.651 27.8508 187.388 27.9627C186.978 28.1372 186.578 28.1461 186.208 27.8632C185.935 27.6546 185.747 27.3808 185.635 27.0577C185.369 26.2866 185.443 25.5321 185.764 24.7956C185.982 24.2968 186.303 23.8727 186.739 23.5426C187.039 23.3154 187.38 23.1866 187.76 23.1905C188.257 23.1956 188.631 23.4154 188.865 23.8567C189.156 24.4026 189.19 24.9832 189.079 25.5773C188.941 26.3146 188.592 26.9411 188.005 27.5117Z" />
    <path d="M161.713 36.7539C161.315 36.3722 161.011 35.9371 160.757 35.4727C160.695 35.3602 160.63 35.2487 160.571 35.1356C160.321 34.6564 159.972 34.2596 159.513 33.9469C159.036 33.6221 158.559 33.297 158.088 32.9609C157.374 32.4514 156.742 31.849 156.198 31.1537C155.931 30.8119 155.751 30.4426 155.655 30.0642C155.498 29.4426 155.68 29.0198 156.145 28.7667C156.764 28.4296 157.478 28.2796 158.243 28.2261C159.268 28.154 160.324 28.2107 161.427 28.4798C161.95 28.6074 162.465 28.8119 162.977 29.074C163.644 29.4147 164.122 29.9186 164.453 30.5773C164.758 31.1833 164.935 31.7919 165.037 32.4001C165.289 33.9123 165.207 35.3073 164.773 36.5753C164.674 36.8633 164.526 37.118 164.335 37.3369C164.06 37.6523 163.652 37.7224 163.167 37.6348C162.695 37.5494 162.27 37.3016 161.886 36.926C161.827 36.8694 161.77 36.8114 161.713 36.7539Z" />
    <path d="M169.769 30.2708C169.15 30.9186 168.401 31.3079 167.509 31.4078C167.301 31.4312 167.085 31.4296 166.876 31.4062C166.191 31.33 165.734 30.7842 165.664 30.1485C165.612 29.6795 165.751 29.2623 166.004 28.8776C166.443 28.2087 167.065 27.7706 167.802 27.4847C168.279 27.2997 168.771 27.1962 169.286 27.2471C169.605 27.2786 169.91 27.362 170.169 27.5546C170.54 27.8313 170.682 28.2156 170.643 28.6707C170.604 29.1214 170.42 29.5124 170.14 29.8603C170.025 30.0038 169.893 30.1343 169.769 30.2708Z" />
    <path d="M165.378 27.179C164.975 27.5985 164.518 27.9156 163.951 28.0496C163.724 28.1032 163.493 28.1184 163.263 28.0702C163.179 28.0523 163.092 28.0146 163.02 27.9661C162.451 27.5831 162.279 27.0228 162.316 26.3717C162.349 25.7882 162.549 25.259 162.847 24.7642C163.195 24.186 163.645 23.7083 164.252 23.3946C164.547 23.2421 164.859 23.1431 165.194 23.1324C165.796 23.1132 166.242 23.4288 166.422 24.0037C166.539 24.3735 166.54 24.7485 166.461 25.1237C166.306 25.8537 165.976 26.4961 165.485 27.0569C165.447 27.0998 165.41 27.143 165.378 27.179Z" />
    <path d="M169.991 35.4629C169.6 35.8877 169.124 36.1721 168.563 36.3101C168.153 36.4107 167.739 36.4164 167.323 36.3523C166.556 36.234 166.098 35.5919 166.065 34.9267C166.039 34.4266 166.201 33.9941 166.542 33.6265C167.117 33.0048 167.823 32.6412 168.668 32.5599C169.143 32.5142 169.603 32.5828 170.031 32.8018C170.566 33.0751 170.835 33.6275 170.727 34.2169C170.656 34.6063 170.473 34.9414 170.215 35.2376C170.146 35.3173 170.066 35.388 169.991 35.4629Z" />
    <path d="M160.02 26.8764C159.878 27.0352 159.666 27.2154 159.403 27.3273C158.993 27.5018 158.593 27.5108 158.223 27.2278C157.95 27.0193 157.762 26.7454 157.65 26.4223C157.384 25.6513 157.458 24.8967 157.779 24.1602C157.997 23.6614 158.318 23.2373 158.754 22.9073C159.053 22.68 159.395 22.5512 159.775 22.5551C160.272 22.5603 160.646 22.78 160.88 23.2213C161.171 23.7672 161.205 24.3478 161.094 24.9419C160.956 25.6792 160.607 26.3057 160.02 26.8764Z" />
    <path d="M27.4249 0C27.0133 0.146663 26.6702 0.264328 26.2583 0.333019C24.6262 0.605097 23.1207 0.516548 21.7523 0.0490577C21.729 0.0411064 21.653 0.00854398 21.6301 0H27.4249Z" />
    <path d="M28.5562 5.42955C27.8571 4.76351 27.4369 3.95648 27.3291 2.99625C27.3039 2.77136 27.3056 2.53874 27.3309 2.31368C27.4131 1.57567 28.0021 1.08369 28.6882 1.00847C29.1943 0.952964 29.6445 1.1024 30.0598 1.37477C30.7817 1.8481 31.2544 2.51762 31.563 3.31182C31.7626 3.8255 31.8744 4.35507 31.8194 4.90981C31.7854 5.25268 31.6954 5.58168 31.4875 5.86042C31.1889 6.26067 30.7742 6.41274 30.283 6.37082C29.7966 6.32928 29.3747 6.13093 28.9992 5.82978C28.8443 5.70542 28.7035 5.5635 28.5562 5.42955Z" />
    <path d="M31.8929 0.700976C31.667 0.483956 31.4686 0.252908 31.3085 0H36.1819C36.2271 0.162236 36.2545 0.329493 36.26 0.502776C36.2808 1.15086 35.9402 1.63101 35.3198 1.82559C34.9207 1.95065 34.516 1.95206 34.111 1.86677C33.3232 1.70065 32.6299 1.34434 32.0247 0.815658C31.9784 0.775152 31.9318 0.734772 31.8929 0.700976Z" />
    <path d="M22.9528 5.66917C22.4943 5.24782 22.1874 4.735 22.0385 4.13046C21.9299 3.68946 21.9237 3.244 21.9929 2.79585C22.1206 1.96922 22.8135 1.47651 23.5314 1.44007C24.0712 1.41264 24.5379 1.58706 24.9347 1.95375C25.6056 2.57367 25.998 3.33408 26.0857 4.24457C26.135 4.75579 26.061 5.25122 25.8247 5.71248C25.5297 6.28849 24.9336 6.57784 24.2975 6.46169C23.8772 6.38499 23.5156 6.18758 23.196 5.91063C23.1099 5.83608 23.0336 5.74995 22.9528 5.66917Z" />
    <path d="M23.6167 27.5789C24.0287 27.1507 24.4982 26.8225 24.9994 26.5493C25.1209 26.4832 25.2412 26.4129 25.3633 26.3494C25.8804 26.0803 26.3086 25.704 26.646 25.2095C26.9966 24.6959 27.3475 24.1821 27.7102 23.6749C28.26 22.9061 28.9102 22.2249 29.6606 21.6396C30.0295 21.3518 30.428 21.1574 30.8364 21.0543C31.5073 20.8851 31.9635 21.0817 32.2367 21.5823C32.6005 22.2488 32.7624 23.0179 32.8201 23.8414C32.8979 24.9463 32.8367 26.0833 32.5463 27.2711C32.4086 27.8342 32.1878 28.3889 31.905 28.941C31.5374 29.6584 30.9935 30.1738 30.2827 30.5304C29.6286 30.8587 28.9718 31.0494 28.3155 31.1589C26.6834 31.4309 25.178 31.3424 23.8095 30.8749C23.4986 30.7687 23.2238 30.6093 22.9875 30.4033C22.6471 30.1065 22.5716 29.6672 22.666 29.1451C22.7582 28.6373 23.0257 28.1792 23.431 27.7649C23.4921 27.7024 23.5547 27.6409 23.6167 27.5789Z" />
    <path d="M30.6134 36.2554C29.9143 35.5894 29.4941 34.7823 29.3863 33.8221C29.3611 33.5972 29.3629 33.3646 29.3881 33.1395C29.4703 32.4015 30.0593 31.9095 30.7454 31.8343C31.2515 31.7788 31.7018 31.9282 32.117 32.2006C32.8389 32.6739 33.3116 33.3435 33.6202 34.1377C33.8198 34.6513 33.9316 35.1809 33.8766 35.7357C33.8426 36.0785 33.7526 36.4075 33.5448 36.6863C33.2461 37.0865 32.8314 37.2386 32.3402 37.1967C31.8539 37.1551 31.4319 36.9568 31.0564 36.6556C30.9015 36.5313 30.7607 36.3893 30.6134 36.2554Z" />
    <path d="M33.9502 31.5268C33.4974 31.0919 33.1552 30.6006 33.0106 29.99C32.9527 29.7451 32.9363 29.4961 32.9883 29.249C33.0076 29.1577 33.0483 29.0648 33.1007 28.9871C33.514 28.3744 34.1187 28.1886 34.8214 28.2283C35.4511 28.2638 36.0223 28.4801 36.5563 28.8008C37.1802 29.1756 37.6958 29.6595 38.0343 30.3137C38.1989 30.6319 38.3057 30.9671 38.3173 31.3286C38.338 31.9767 37.9974 32.4569 37.377 32.6514C36.9779 32.7765 36.5732 32.7779 36.1682 32.6926C35.3804 32.5265 34.6872 32.1702 34.0819 31.6415C34.0356 31.601 33.989 31.5606 33.9502 31.5268Z" />
    <path d="M25.01 36.495C24.5516 36.0737 24.2446 35.5608 24.0957 34.9563C23.9871 34.5153 23.981 34.0698 24.0502 33.6217C24.1778 32.7951 24.8708 32.3024 25.5887 32.2659C26.1284 32.2385 26.5952 32.4129 26.9919 32.7796C27.6628 33.3995 28.0552 34.1599 28.143 35.0704C28.1922 35.5816 28.1183 36.0771 27.8819 36.5383C27.587 37.1143 26.9908 37.4037 26.3548 37.2875C25.9345 37.2108 25.5728 37.0134 25.2532 36.7365C25.1671 36.6619 25.0908 36.5758 25.01 36.495Z" />
    <path d="M34.2767 25.7559C34.1053 25.6026 33.9108 25.3741 33.7901 25.0909C33.6017 24.6492 33.5921 24.2189 33.8975 23.8204C34.1225 23.5267 34.4181 23.3234 34.7668 23.2033C35.5989 22.9165 36.4132 22.996 37.208 23.3423C37.7463 23.577 38.2041 23.9229 38.5603 24.3918C38.8055 24.7147 38.9446 25.0826 38.9403 25.4922C38.9347 26.0269 38.6976 26.4298 38.2213 26.6824C37.6322 26.995 37.0056 27.032 36.3644 26.9122C35.5687 26.7634 34.8926 26.3883 34.2767 25.7559Z" />
    <path d="M0.988201 11.1384C1.40021 10.7102 1.86971 10.3821 2.37089 10.1088C2.49235 10.0427 2.61273 9.97244 2.73479 9.90892C3.25193 9.63981 3.68008 9.26357 4.01755 8.76903C4.3681 8.25548 4.71899 7.74158 5.08171 7.23444C5.63154 6.46562 6.28166 5.78448 7.03208 5.19916C7.40097 4.91133 7.79947 4.71693 8.2079 4.61385C8.87877 4.44462 9.335 4.64129 9.60817 5.14186C9.97198 5.80831 10.1339 6.57743 10.1916 7.4009C10.2694 8.50582 10.2082 9.64287 9.91782 10.8307C9.78012 11.3937 9.55934 11.9484 9.27647 12.5005C8.90888 13.218 8.36501 13.7333 7.65418 14.09C7.00008 14.4182 6.34333 14.609 5.68698 14.7184C4.05492 14.9905 2.54947 14.9019 1.18104 14.4344C0.870135 14.3282 0.595321 14.1689 0.359024 13.9629C0.0186393 13.6661 -0.0569428 13.2268 0.0375469 12.7047C0.129698 12.1968 0.397182 11.7387 0.802471 11.3245C0.863608 11.2619 0.926152 11.2004 0.988201 11.1384Z" />
    <path d="M7.98493 19.8149C7.2858 19.1489 6.86563 18.3419 6.75779 17.3816C6.73262 17.1567 6.73435 16.9241 6.75961 16.6991C6.84182 15.961 7.43082 15.4691 8.1169 15.3938C8.62302 15.3383 9.07326 15.4878 9.48851 15.7601C10.2104 16.2335 10.6831 16.903 10.9917 17.6972C11.1913 18.2109 11.3031 18.7404 11.2481 19.2952C11.2141 19.6381 11.1241 19.9671 10.9163 20.2458C10.6176 20.646 10.2029 20.7981 9.71171 20.7562C9.22537 20.7147 8.80344 20.5163 8.42794 20.2152C8.27304 20.0908 8.13223 19.9489 7.98493 19.8149Z" />
    <path d="M11.3217 15.0863C10.8689 14.6514 10.5267 14.1602 10.3821 13.5495C10.3242 13.3046 10.3078 13.0556 10.3598 12.8085C10.3791 12.7172 10.4198 12.6243 10.4722 12.5467C10.8855 11.934 11.4902 11.7481 12.1929 11.7878C12.8226 11.8234 13.3938 12.0396 13.9278 12.3604C14.5517 12.7351 15.0673 13.219 15.4058 13.8732C15.5704 14.1914 15.6772 14.5267 15.6888 14.8882C15.7095 15.5362 15.3689 16.0164 14.7485 16.211C14.3494 16.336 13.9447 16.3374 13.5397 16.2521C12.7519 16.086 12.0587 15.7297 11.4534 15.201C11.4071 15.1605 11.3605 15.1201 11.3217 15.0863Z" />
    <path d="M2.38149 20.0545C1.92306 19.6332 1.61614 19.1204 1.46722 18.5158C1.35859 18.0748 1.35245 17.6294 1.42166 17.1812C1.54928 16.3546 2.24226 15.8619 2.96017 15.8254C3.49988 15.798 3.96666 15.9724 4.36338 16.3391C5.0343 16.959 5.42675 17.7195 5.51447 18.6299C5.56375 19.1412 5.48977 19.6366 5.25344 20.0979C4.95847 20.6739 4.36233 20.9632 3.72626 20.8471C3.30595 20.7704 2.9443 20.5729 2.62468 20.296C2.53859 20.2214 2.46235 20.1353 2.38149 20.0545Z" />
    <path d="M11.6482 9.31542C11.4768 9.16209 11.2823 8.93365 11.1616 8.6504C10.9732 8.20873 10.9636 7.77846 11.269 7.37995C11.494 7.08626 11.7896 6.88294 12.1383 6.76278C12.9704 6.47606 13.7847 6.55558 14.5795 6.90182C15.1178 7.1365 15.5756 7.48248 15.9318 7.95133C16.177 8.27426 16.3161 8.64209 16.3118 9.05173C16.3062 9.58639 16.0691 9.98931 15.5928 10.242C15.0037 10.5546 14.3771 10.5915 13.7359 10.4718C12.9403 10.3229 12.2641 9.94784 11.6482 9.31542Z" />
    <path d="M63.5764 25.7355C63.9884 25.3073 64.4579 24.9791 64.9591 24.7059C65.0805 24.6397 65.2009 24.5695 65.323 24.506C65.8401 24.2369 66.2683 23.8606 66.6057 23.3661C66.9563 22.8525 67.3072 22.3386 67.6699 21.8315C68.2197 21.0626 68.8698 20.3815 69.6203 19.7962C69.9892 19.5083 70.3877 19.3139 70.7961 19.2109C71.467 19.0416 71.9232 19.2383 72.1964 19.7389C72.5602 20.4053 72.7221 21.1745 72.7798 21.9979C72.8576 23.1028 72.7964 24.2399 72.506 25.4277C72.3683 25.9907 72.1475 26.5454 71.8647 27.0976C71.4971 27.815 70.9532 28.3304 70.2424 28.687C69.5883 29.0152 68.9315 29.206 68.2752 29.3154C66.6431 29.5875 65.1377 29.499 63.7692 29.0315C63.4583 28.9253 63.1835 28.7659 62.9472 28.5599C62.6068 28.2631 62.5313 27.8238 62.6257 27.3017C62.7179 26.7938 62.9854 26.3358 63.3907 25.9215C63.4518 25.8589 63.5143 25.7975 63.5764 25.7355Z" />
    <path d="M70.5731 34.412C69.874 33.7459 69.4538 32.9389 69.346 31.9787C69.3208 31.7538 69.3225 31.5212 69.3478 31.2961C69.43 30.5581 70.019 30.0661 70.7051 29.9909C71.2112 29.9354 71.6615 30.0848 72.0767 30.3572C72.7986 30.8305 73.2713 31.5 73.5799 32.2942C73.7795 32.8079 73.8913 33.3375 73.8363 33.8922C73.8023 34.2351 73.7123 34.5641 73.5044 34.8428C73.2058 35.2431 72.7911 35.3951 72.2999 35.3532C71.8136 35.3117 71.3916 35.1133 71.0161 34.8122C70.8612 34.6878 70.7204 34.5459 70.5731 34.412Z" />
    <path d="M73.9099 29.6834C73.4571 29.2485 73.1149 28.7572 72.9703 28.1466C72.9124 27.9017 72.896 27.6527 72.948 27.4056C72.9673 27.3142 73.008 27.2214 73.0604 27.1437C73.4737 26.531 74.0784 26.3451 74.7811 26.3848C75.4108 26.4204 75.982 26.6366 76.516 26.9574C77.1399 27.3322 77.6555 27.816 77.994 28.4703C78.1586 28.7884 78.2654 29.1237 78.277 29.4852C78.2977 30.1333 77.9571 30.6134 77.3367 30.808C76.9376 30.9331 76.5329 30.9345 76.1279 30.8492C75.3401 30.6831 74.6469 30.3268 74.0416 29.7981C73.9953 29.7576 73.9487 29.7172 73.9099 29.6834Z" />
    <path d="M64.9697 34.6516C64.5113 34.2302 64.2043 33.7174 64.0554 33.1129C63.9468 32.6719 63.9406 32.2264 64.0099 31.7783C64.1375 30.9516 64.8305 30.4589 65.5484 30.4225C66.0881 30.3951 66.5549 30.5695 66.9516 30.9362C67.6225 31.5561 68.0149 32.3165 68.1027 33.227C68.1519 33.7382 68.078 34.2336 67.8416 34.6949C67.5467 35.2709 66.9505 35.5602 66.3145 35.4441C65.8941 35.3674 65.5325 35.17 65.2129 34.893C65.1268 34.8185 65.0505 34.7324 64.9697 34.6516Z" />
    <path d="M74.2364 23.9125C74.065 23.7591 73.8705 23.5307 73.7497 23.2474C73.5614 22.8058 73.5518 22.3755 73.8572 21.977C74.0822 21.6833 74.3778 21.48 74.7265 21.3598C75.5586 21.0731 76.3729 21.1526 77.1677 21.4988C77.706 21.7335 78.1638 22.0795 78.52 22.5484C78.7652 22.8713 78.9043 23.2391 78.9 23.6488C78.8944 24.1834 78.6573 24.5864 78.181 24.839C77.5919 25.1516 76.9653 25.1886 76.3241 25.0688C75.5284 24.92 74.8523 24.5449 74.2364 23.9125Z" />
    <path d="M53.665 38.2978C53.4936 38.1445 53.2991 37.916 53.1784 37.6328C52.99 37.1911 52.9804 36.7608 53.2858 36.3623C53.5108 36.0686 53.8064 35.8653 54.1551 35.7451C54.9872 35.4584 55.8015 35.5379 56.5963 35.8842C57.1346 36.1189 57.5924 36.4648 57.9486 36.9337C58.1938 37.2566 58.3329 37.6245 58.3286 38.0341C58.323 38.5688 58.0859 38.9717 57.6096 39.2243C57.0205 39.5369 56.3939 39.5739 55.7527 39.4541C54.957 39.3053 54.2809 38.9302 53.665 38.2978Z" />
    <path d="M43.6909 9.98001C44.103 9.55183 44.5725 9.22365 45.0736 8.95043C45.1951 8.88429 45.3155 8.81402 45.4375 8.7505C45.9547 8.4814 46.3828 8.10516 46.7203 7.61062C47.0708 7.09706 47.4217 6.58317 47.7845 6.07602C48.3343 5.30721 48.9844 4.62607 49.7348 4.04075C50.1037 3.75292 50.5022 3.55852 50.9106 3.45544C51.5815 3.2862 52.0377 3.48288 52.3109 3.98345C52.6747 4.6499 52.8366 5.41902 52.8944 6.24248C52.9721 7.34741 52.9109 8.48446 52.6206 9.67225C52.4829 10.2353 52.2621 10.79 51.9792 11.3421C51.6116 12.0596 51.0678 12.5749 50.3569 12.9316C49.7028 13.2598 49.0461 13.4505 48.3897 13.56C46.7577 13.8321 45.2522 13.7435 43.8838 13.276C43.5729 13.1698 43.2981 13.0105 43.0618 12.8045C42.7214 12.5077 42.6458 12.0683 42.7403 11.5462C42.8324 11.0384 43.0999 10.5803 43.5052 10.1661C43.5664 10.1035 43.6289 10.042 43.6909 9.98001Z" />
    <path d="M50.6877 18.6565C49.9885 17.9905 49.5684 17.1834 49.4605 16.2232C49.4354 15.9983 49.4371 15.7657 49.4624 15.5406C49.5446 14.8026 50.1336 14.3107 50.8196 14.2354C51.3258 14.1799 51.776 14.3294 52.1913 14.6017C52.9131 15.0751 53.3859 15.7446 53.6945 16.5388C53.8941 17.0525 54.0058 17.582 53.9508 18.1368C53.9169 18.4796 53.8269 18.8086 53.619 19.0874C53.3204 19.4876 52.9057 19.6397 52.4145 19.5978C51.9281 19.5562 51.5062 19.3579 51.1307 19.0567C50.9758 18.9324 50.835 18.7905 50.6877 18.6565Z" />
    <path d="M54.0244 13.9279C53.5716 13.493 53.2294 13.0017 53.0849 12.3911C53.027 12.1462 53.0105 11.8972 53.0626 11.6501C53.0819 11.5588 53.1226 11.4659 53.1749 11.3883C53.5882 10.7755 54.193 10.5897 54.8956 10.6294C55.5253 10.6649 56.0965 10.8812 56.6305 11.2019C57.2545 11.5767 57.77 12.0606 58.1085 12.7148C58.2732 13.033 58.3799 13.3683 58.3915 13.7297C58.4123 14.3778 58.0717 14.858 57.4512 15.0526C57.0521 15.1776 56.6474 15.179 56.2425 15.0937C55.4546 14.9276 54.7614 14.5713 54.1562 14.0426C54.1099 14.0021 54.0632 13.9617 54.0244 13.9279Z" />
    <path d="M45.0842 18.8961C44.6258 18.4748 44.3189 17.962 44.17 17.3574C44.0613 16.9164 44.0552 16.471 44.1244 16.0228C44.252 15.1962 44.945 14.7035 45.6629 14.667C46.2026 14.6396 46.6694 14.814 47.0661 15.1807C47.737 15.8006 48.1295 16.561 48.2172 17.4715C48.2665 17.9828 48.1925 18.4782 47.9562 18.9394C47.6612 19.5155 47.0651 19.8048 46.429 19.6886C46.0087 19.612 45.647 19.4145 45.3274 19.1376C45.2413 19.063 45.1651 18.9769 45.0842 18.8961Z" />
    <path d="M54.351 8.15701C54.1796 8.00368 53.985 7.77524 53.8643 7.49198C53.676 7.05032 53.6663 6.62004 53.9717 6.22153C54.1968 5.92785 54.4924 5.72453 54.841 5.60437C55.6731 5.31765 56.4874 5.39717 57.2823 5.74341C57.8206 5.97809 58.2784 6.32406 58.6345 6.79292C58.8797 7.11585 59.0188 7.48367 59.0145 7.89332C59.009 8.42798 58.7719 8.8309 58.2955 9.08354C57.7065 9.39614 57.0798 9.43311 56.4387 9.31336C55.643 9.16453 54.9669 8.78943 54.351 8.15701Z" />
    <path d="M43.1348 40C43.5101 39.642 43.928 39.3579 44.3705 39.1167C44.492 39.0505 44.6124 38.9803 44.7344 38.9168C45.2516 38.6476 45.6797 38.2714 46.0172 37.7769C46.3677 37.2633 46.7186 36.7494 47.0813 36.2423C47.6312 35.4735 48.2813 34.7923 49.0317 34.207C49.4006 33.9192 49.7991 33.7248 50.2075 33.6217C50.8784 33.4525 51.3346 33.6491 51.6078 34.1497C51.9716 34.8161 52.1335 35.5853 52.1913 36.4087C52.269 37.5137 52.2078 38.6507 51.9174 39.8385C51.9043 39.8924 51.8903 39.9462 51.8756 40H43.1348Z" />
</svg>