<svg viewBox="0 0 63 37" fill="none" xmlns="http://www.w3.org/2000/svg">
    <path fill-rule="evenodd" clip-rule="evenodd" d="M2.01563 0.365906H14.519L14.6636 2.36115C14.767 3.47191 14.829 4.72665 14.829 5.91969H8.00897V8.38804H13.589V13.9418H8.00897V20.3184H2.01563V0.365906ZM25.1623 0.448185C26.485 0.509893 27.539 0.67445 28.3656 0.982993C29.0476 1.20926 30.1636 1.80578 30.8456 2.29945C31.5276 2.79312 32.437 3.63647 32.8503 4.19185C33.2636 4.74722 33.8423 5.71399 34.1316 6.33108C34.421 6.94817 34.7723 8.16177 34.8963 9.00512C35.103 10.2393 35.103 10.8564 34.8756 12.0906C34.731 12.9339 34.297 14.2298 33.925 14.9703C33.491 15.8548 32.809 16.7187 31.941 17.5415C31.2176 18.2203 30.0603 19.0431 29.399 19.3722C28.717 19.7013 27.4563 20.1127 26.609 20.2772C25.3276 20.5241 24.7696 20.5447 23.4056 20.3595C22.3103 20.195 21.2356 19.8659 20.2023 19.3722C19.1276 18.8579 18.2596 18.2409 17.3916 17.3564C16.6063 16.5747 15.9036 15.5874 15.4903 14.7646C15.139 14.0241 14.767 12.8311 14.643 12.0906C14.519 11.3501 14.4776 10.2804 14.5396 9.72506C14.6016 9.14911 14.8083 8.1412 14.9943 7.46241C15.1803 6.78361 15.6763 5.71399 16.0896 5.09691C16.503 4.47982 17.2883 3.53362 17.8463 3.01938C18.4043 2.50514 19.355 1.82635 19.9336 1.53837C20.533 1.22983 21.525 0.839007 22.1036 0.67445C22.8476 0.468754 23.819 0.386476 25.1623 0.448185ZM23.3436 5.07634C23.1783 5.38488 23.0956 6.9276 23.0956 10.2393C23.0956 12.8311 23.1783 15.1349 23.2816 15.32C23.3643 15.5257 23.7156 15.8137 24.0463 15.9782C24.563 16.2045 24.749 16.2045 25.3483 15.9782C25.7203 15.8137 26.1336 15.5257 26.2163 15.32C26.3196 15.1349 26.4023 12.7899 26.4023 10.1365V5.3026C25.431 4.50039 24.997 4.27412 24.7903 4.29469C24.6043 4.29469 24.253 4.37697 24.0256 4.47982C23.7776 4.58267 23.4883 4.85007 23.3436 5.07634ZM38.699 0.345337L39.9183 2.36115C40.8276 3.8833 41.1583 4.29469 41.303 4.06843C41.4063 3.90387 41.923 2.99881 43.4523 0.365906H46.697C48.495 0.365906 49.9623 0.407046 49.9623 0.468754C49.9623 0.530463 48.743 2.62856 47.255 5.13805C45.767 7.6681 44.589 9.86905 44.6303 10.0336C44.6923 10.1982 46.0356 12.5431 47.6476 15.2171C49.2596 17.9117 50.5823 20.1538 50.5823 20.2155C50.5823 20.2772 49.115 20.2978 44.0723 20.2155L42.729 18.0146C41.985 16.8216 41.3443 15.7725 41.2823 15.7108C41.2203 15.6491 40.559 16.657 38.389 20.3184H35.1856C33.429 20.3184 31.9823 20.2772 31.9823 20.2155C31.9823 20.1538 33.2843 17.8706 34.8756 15.1143C36.467 12.3785 37.7896 10.0336 37.769 9.93076C37.769 9.80734 36.5083 7.6681 34.979 5.13805C33.4496 2.62856 32.189 0.530463 32.189 0.468754C32.189 0.407046 33.6563 0.365906 38.699 0.345337ZM6.2523 21.7788C6.58297 21.7788 7.07897 21.7994 7.32697 21.8611C7.7403 21.9434 7.8023 22.0874 7.8023 24.0209H7.01697C6.60363 24.0209 6.14897 24.1032 6.0043 24.1855C5.85963 24.2677 5.67363 24.6174 5.42563 25.6459L7.4923 25.7693L7.59563 27.7234H5.52897V36.157H2.63563V27.7234H0.9823L1.02363 26.7361C1.08563 25.7693 1.08563 25.7693 1.8503 25.7076C2.57363 25.6665 2.63563 25.6253 2.63563 25.0494C2.63563 24.6997 2.75963 24.1238 2.92497 23.7535C3.06963 23.4038 3.42097 22.8896 3.68963 22.6427C3.9583 22.3959 4.5163 22.1079 4.90897 22.0051C5.30163 21.8817 5.90097 21.7788 6.2523 21.7788ZM49.7763 21.7377L52.5456 21.8611L52.649 36.157H51.2023C49.797 36.157 49.7556 36.1364 49.7556 35.1285L49.1356 35.6427C48.7843 35.9307 48.1643 36.2187 47.7303 36.2804C47.317 36.3627 46.4903 36.3627 45.9323 36.2804C45.2916 36.1981 44.589 35.9307 44.1136 35.581C43.597 35.2313 43.101 34.5731 42.7083 33.7915C42.1916 32.763 42.0883 32.3104 42.0883 31.0146C42.0883 30.1095 42.2123 29.1222 42.3983 28.5874C42.5843 28.1143 42.9356 27.4355 43.1836 27.1063C43.4523 26.7567 44.1136 26.263 44.6923 25.975C45.2503 25.687 46.077 25.4608 46.4903 25.4608C46.9243 25.4608 47.627 25.6048 48.0403 25.7899C48.4743 25.9544 49.0323 26.3041 49.7763 27.0035V21.7377ZM45.271 29.1016C45.1056 29.4718 45.0023 30.2946 45.0023 30.9117C45.0023 31.5699 45.147 32.3516 45.3536 32.7835C45.5603 33.2155 45.9116 33.668 46.139 33.8326C46.3663 33.9766 46.9243 34.1 47.379 34.1C47.875 34.1206 48.4123 33.956 48.7636 33.6886C49.0943 33.4623 49.425 32.9481 49.549 32.4956C49.6523 32.0842 49.735 31.3025 49.7556 30.7472C49.7556 30.2123 49.6316 29.4718 49.4663 29.1016C49.3216 28.7519 48.9703 28.2788 48.7016 28.0731C48.4123 27.888 47.8336 27.7234 47.379 27.7234C46.9036 27.7234 46.325 27.888 46.0356 28.0731C45.767 28.2788 45.4156 28.7519 45.271 29.1016ZM25.7823 25.5636C26.795 25.6253 27.3323 25.7899 28.035 26.2219C28.5723 26.5715 29.1716 27.1886 29.523 27.8263C29.8536 28.3817 30.1843 29.369 30.2876 29.9861C30.3703 30.6032 30.4116 31.2408 30.391 31.3642C30.329 31.5699 29.399 31.6317 26.609 31.6317C23.385 31.6317 22.889 31.6728 22.9923 31.9402C23.0336 32.1048 23.0956 32.3927 23.0956 32.5573C23.0956 32.7218 23.3643 33.1332 23.7156 33.4829C24.2116 33.9766 24.501 34.1 25.2656 34.1C25.7616 34.1 26.4436 33.9766 26.7536 33.812C27.0636 33.668 27.3943 33.3801 27.477 33.1949C27.601 32.9481 27.9316 32.8658 28.8823 32.8658C29.7296 32.8658 30.1223 32.9481 30.1016 33.1127C30.1016 33.2566 29.8743 33.7709 29.585 34.244C29.2956 34.7582 28.6963 35.3547 28.2003 35.6427C27.663 35.9718 26.857 36.2187 26.0923 36.2804C25.3276 36.3627 24.3976 36.3215 23.7156 36.157C22.8063 35.9307 22.3723 35.6839 21.587 34.8816C20.8843 34.1823 20.5123 33.5858 20.285 32.8041C20.1196 32.2282 19.975 31.4054 19.975 31.0146C19.975 30.6237 20.1196 29.8215 20.285 29.2661C20.4503 28.6902 20.843 27.9086 21.1323 27.5177C21.4216 27.1269 21.959 26.5921 22.331 26.3658C22.6823 26.119 23.3023 25.8105 23.7156 25.687C24.1083 25.5636 25.0383 25.5019 25.7823 25.5636ZM23.137 29.1222L22.889 29.7804C26.5263 29.7804 27.4356 29.6981 27.4356 29.5747C27.4356 29.4513 27.291 29.081 27.1256 28.7519C26.9396 28.4022 26.6296 28.032 26.4023 27.9291C26.175 27.8057 25.617 27.7234 25.183 27.7234C24.7283 27.7234 24.1703 27.888 23.9016 28.0937C23.6123 28.2994 23.2816 28.7725 23.137 29.1222ZM58.0223 25.4813C58.6423 25.4608 59.6136 25.5842 60.1923 25.7488C60.7503 25.9133 61.4736 26.3247 61.7836 26.6332C62.0936 26.9418 62.445 27.5383 62.5483 27.9291C62.6723 28.3199 62.7343 28.6696 62.7136 28.6902C62.693 28.7108 62.073 28.7519 61.3496 28.793C60.1303 28.8548 60.0063 28.8136 59.841 28.3817C59.7376 28.1348 59.4896 27.8263 59.2623 27.7234C59.035 27.6 58.4356 27.5177 57.9603 27.5177C57.4643 27.5177 56.9476 27.6412 56.803 27.7646C56.679 27.9086 56.555 28.1965 56.555 28.3817C56.5756 28.5874 56.7823 28.8753 57.0303 29.0399C57.2783 29.2044 58.1876 29.4924 59.0556 29.6981C59.903 29.8832 60.9363 30.2124 61.3703 30.418C61.8043 30.6237 62.3416 31.0557 62.569 31.3642C62.817 31.7139 62.9823 32.2487 62.9823 32.7013C62.9823 33.1332 62.879 33.7297 62.755 34.0383C62.631 34.3674 62.321 34.8199 62.073 35.0873C61.825 35.3547 61.3496 35.725 61.019 35.8895C60.6676 36.0541 59.7376 36.2598 58.9523 36.3215C58.105 36.3832 57.0716 36.3215 56.4723 36.1775C55.8936 36.0335 55.129 35.6839 54.757 35.4164C54.385 35.149 53.951 34.6348 53.7856 34.3057C53.5996 33.956 53.4756 33.4623 53.4756 33.1744C53.4756 32.6807 53.517 32.6601 54.819 32.6601C56.0796 32.6601 56.1623 32.6807 56.2656 33.1744C56.307 33.4623 56.617 33.8532 56.927 34.0383C57.237 34.2234 57.8776 34.388 58.353 34.4085C58.9316 34.4085 59.345 34.2646 59.655 33.9972C59.903 33.7709 60.089 33.3801 60.089 33.1127C60.089 32.8247 59.8616 32.5573 59.5103 32.3722C59.2003 32.2076 58.2496 31.9196 57.4023 31.7345C56.5343 31.5288 55.501 31.1997 55.067 30.994C54.633 30.7677 54.137 30.3563 53.951 30.0272C53.703 29.6364 53.6203 29.1633 53.6823 28.4022C53.765 27.5794 53.9096 27.2092 54.4056 26.695C54.7363 26.3453 55.439 25.9339 55.9556 25.7693C56.4516 25.6253 57.3816 25.4813 58.0223 25.4813ZM54.0956 3.51305C54.8396 3.55419 55.501 3.75989 56.0383 4.089C56.493 4.3564 57.0303 4.85007 57.2163 5.19975C57.4643 5.59058 57.609 6.22823 57.609 6.88646C57.609 7.48298 57.4643 8.22348 57.3196 8.53202C57.1543 8.86114 56.741 9.35481 56.3896 9.66335C55.749 10.2393 55.749 10.2393 56.4723 11.3706L56.5136 10.7947C56.5756 10.2393 56.5756 10.2393 59.779 10.2393L59.6136 11.1649C59.531 11.6792 59.283 12.4608 58.6423 13.7361L61.4943 17.1301L59.3863 17.1918C57.3403 17.2535 57.2783 17.233 56.4723 16.1633L55.6456 16.7187C55.191 17.0067 54.4883 17.2947 54.0956 17.3769C53.6823 17.4386 52.897 17.4592 52.339 17.3975C51.7603 17.3564 50.9336 17.1301 50.479 16.9038C50.0243 16.657 49.3836 16.1222 49.053 15.6697C48.681 15.1554 48.433 14.4972 48.3503 13.839C48.2883 13.2425 48.3503 12.4608 48.5156 11.9877C48.681 11.5146 49.1976 10.7535 50.789 9.21082L50.355 8.42918C50.1276 8.01779 49.9416 7.31842 49.9416 6.88646C49.9623 6.47507 50.0243 5.91969 50.1276 5.65229C50.231 5.40545 50.603 4.91178 50.9543 4.58267C51.3263 4.23299 51.905 3.84216 52.277 3.71875C52.649 3.57476 53.455 3.49248 54.0956 3.51305ZM51.6156 4.64438C51.3263 4.85007 50.9336 5.34374 50.727 5.73456C50.479 6.20766 50.3963 6.66019 50.479 7.15386C50.541 7.54469 50.8303 8.26462 51.099 8.73772L51.6156 9.62221C50.727 10.0542 50.169 10.5273 49.797 10.9387C49.425 11.3501 49.0323 12.0289 48.9083 12.4402C48.7223 13.0162 48.743 13.4482 48.929 14.1475C49.0736 14.7029 49.4663 15.3611 49.921 15.8137C50.3343 16.225 51.0576 16.6776 51.5123 16.801C51.967 16.9244 52.5663 17.0273 52.8556 17.0273C53.1243 17.0273 53.6823 16.945 54.0956 16.8216C54.4883 16.7187 55.191 16.3896 55.6456 16.1016L56.4723 15.5668C57.6503 16.7599 57.8156 16.8216 59.097 16.8216H60.5023C59.779 15.8959 59.221 15.2377 58.8076 14.744L58.043 13.839C58.787 12.2345 59.0556 11.5352 59.1383 11.2061C59.2623 10.6507 59.2416 10.6507 58.1876 10.6918C57.1543 10.7535 57.0923 10.7741 56.9476 11.4118C56.8443 11.782 56.6996 12.07 56.5963 12.0289C56.493 12.0083 56.059 11.5763 55.6456 11.0621L54.881 10.1365C55.625 9.58107 55.9143 9.41652 55.997 9.41652C56.0796 9.41652 56.3896 9.02569 56.6583 8.53202C56.9476 8.05892 57.175 7.33899 57.1956 6.94817C57.1956 6.53678 57.0096 5.94026 56.7203 5.5083C56.4723 5.13805 55.9763 4.64438 55.6456 4.45925C55.2943 4.27412 54.695 4.06843 54.3023 4.02729C53.889 3.96558 53.2483 4.00672 52.8556 4.089C52.4423 4.17128 51.8843 4.41811 51.6156 4.64438ZM16.2756 21.7583H19.169V24.2266H16.2756V21.7583ZM15.2423 25.4608V28.3405L14.457 28.2171C13.9403 28.1554 13.4443 28.2377 12.969 28.4845C12.5556 28.6902 12.0803 29.1633 11.8736 29.5747C11.5843 30.1506 11.5223 30.85 11.5223 36.157L8.52563 36.0541L8.58763 25.7693H11.2123L11.3156 27.4149L11.6876 26.8184C11.8943 26.4893 12.473 26.0573 12.969 25.8516C13.4856 25.6459 14.1883 25.4608 15.2423 25.4608ZM37.769 25.5431C38.6576 25.6048 39.2776 25.7693 39.629 26.0367C39.8976 26.2424 40.3316 26.7361 40.559 27.1269C40.931 27.744 40.9723 28.2582 41.0756 36.157H38.1823L38.1616 32.907C38.1616 30.9734 38.0583 29.3896 37.9136 28.9576C37.7483 28.4845 37.4383 28.1348 37.0456 27.9497C36.5496 27.7234 36.2603 27.7234 35.6403 27.9086C35.2063 28.032 34.7516 28.3405 34.607 28.5874C34.4416 28.8959 34.3176 30.3358 34.1523 36.0541L31.3623 36.157L31.3003 31.8373C31.2796 29.4513 31.259 27.1269 31.259 25.7693L34.049 25.6665L34.0283 27.0035L34.5036 26.551C34.7516 26.3041 35.289 25.9544 35.7023 25.7693C36.1983 25.5431 36.7976 25.4813 37.769 25.5431ZM16.2756 25.6665H19.169V36.157H16.2756V25.6665ZM53.7856 5.5083C53.951 5.5083 54.323 5.73456 54.6123 6.02254C55.005 6.41336 55.0876 6.68076 55.005 7.09215C54.943 7.42127 54.6743 7.8738 54.4263 8.1412C54.1783 8.38804 53.8683 8.59373 53.7236 8.59373C53.579 8.59373 53.2896 8.28519 53.0623 7.91494C52.835 7.56525 52.649 7.05102 52.649 6.78361C52.649 6.53678 52.835 6.14595 53.0623 5.91969C53.2896 5.69342 53.5996 5.5083 53.7856 5.5083ZM53.3723 7.35956C53.5376 7.68867 53.7856 7.93551 53.9303 7.91494C54.075 7.8738 54.2816 7.60639 54.385 7.33899C54.4883 7.07159 54.509 6.68076 54.4263 6.47507C54.3643 6.28994 54.1163 6.12539 53.9096 6.12539C53.6823 6.12539 53.4136 6.26937 53.2896 6.43393C53.1036 6.66019 53.1243 6.88646 53.3723 7.35956ZM53.0623 11.2266C53.1243 11.3089 53.641 11.9054 55.2323 13.7978L54.5503 14.3738C54.0543 14.8263 53.6616 14.9703 53.0623 14.9703C52.4423 14.9703 52.091 14.8263 51.719 14.4561C51.3883 14.1269 51.2023 13.7156 51.2023 13.3247C51.2023 12.9751 51.285 12.5225 51.409 12.2963C51.5123 12.07 51.905 11.6997 52.277 11.4735C52.6283 11.2472 52.9796 11.1444 53.0623 11.2266ZM52.1323 12.2345C51.781 12.5842 51.533 13.0162 51.5743 13.2836C51.595 13.5304 51.8636 13.9213 52.1736 14.1475C52.4836 14.3738 52.8556 14.5589 53.0003 14.5589C53.145 14.5589 53.5376 14.4149 53.889 14.2504C54.385 14.0035 54.4676 13.8801 54.3023 13.5716C54.199 13.3864 53.8063 12.8722 53.4136 12.4402L52.7523 11.6586L52.1323 12.2345Z" fill="white" fill-opacity="0.7"/>
</svg>
