<svg viewBox="0 0 71 39" fill="none" xmlns="http://www.w3.org/2000/svg">
    <path fill-rule="evenodd" clip-rule="evenodd" d="M22.4073 0.345337C23.0073 0.345337 23.8573 0.495337 24.2823 0.695337C24.7323 0.870337 25.4073 1.34534 25.7573 1.74534C26.1073 2.14534 26.4823 2.67034 26.5823 2.89534C26.7073 3.29534 26.5823 3.34534 25.5323 3.34534C24.8823 3.34534 24.1323 3.17034 23.8573 2.97034C23.5823 2.74534 22.9073 2.59534 22.3573 2.59534C21.6073 2.59534 21.2573 2.74534 20.9573 3.14534C20.7323 3.47034 20.4823 3.97034 20.3823 4.27034C20.3073 4.59534 20.4073 5.24534 20.6073 5.72034C20.8073 6.19534 21.2073 6.69534 21.4823 6.84534C21.7573 6.97034 22.2823 7.09534 22.6573 7.09534C23.0573 7.12034 23.5823 6.87034 24.3573 6.07034L23.5323 6.09534C22.7823 6.09534 22.7323 6.04534 22.7323 4.34534H26.9823V5.09534C26.9823 5.49534 26.8573 6.14534 26.7073 6.52034C26.5573 6.92034 26.2073 7.49534 25.9073 7.82034C25.6073 8.14534 24.9073 8.62034 24.3573 8.87034C23.8073 9.12034 22.9573 9.34534 22.4823 9.34534C22.0073 9.34534 21.1073 9.09534 20.4823 8.79534C19.7323 8.42034 19.1823 7.89534 18.8073 7.22034C18.4073 6.49534 18.2323 5.79534 18.2323 4.72034C18.2323 3.52034 18.3323 3.04534 18.8323 2.34534C19.1823 1.87034 19.8823 1.22034 20.4073 0.920337C20.9823 0.570337 21.7823 0.345337 22.4073 0.345337ZM31.6573 0.345337C32.2573 0.345337 33.1073 0.495337 33.5323 0.695337C33.9823 0.870337 34.6573 1.34534 35.0323 1.74534C35.4073 2.14534 35.8323 2.77034 35.9573 3.14534C36.1073 3.54534 36.2323 4.29534 36.2323 4.84534C36.2323 5.39534 36.0073 6.27034 35.7573 6.77034C35.5073 7.29534 35.0823 7.92034 34.8323 8.14534C34.5573 8.37034 33.9323 8.74534 33.4073 8.94534C32.9073 9.17034 32.1073 9.34534 31.6573 9.34534C31.2323 9.34534 30.3573 9.09534 29.7573 8.77034C29.1573 8.47034 28.4573 7.94534 28.2073 7.59534C27.9823 7.24534 27.6573 6.47034 27.4823 5.84534C27.2573 5.02034 27.2573 4.44534 27.4573 3.64534C27.6073 3.07034 28.0073 2.29534 28.3073 1.89534C28.6323 1.52034 29.2823 1.02034 29.7573 0.795337C30.2323 0.545337 31.0823 0.345337 31.6573 0.345337ZM29.7323 4.02034C29.549 4.487 29.5406 4.97034 29.7073 5.47034C29.8573 5.87034 30.2323 6.42034 30.5823 6.64534C30.9573 6.89534 31.5323 7.09534 31.8823 7.09534C32.2573 7.09534 32.8073 6.79534 33.2573 6.34534C33.7823 5.79534 33.9823 5.34534 33.9823 4.72034C33.9823 4.12034 33.7823 3.64534 33.3573 3.22034C32.9573 2.82034 32.4573 2.59534 31.9073 2.59534C31.4823 2.59534 30.8573 2.77034 30.5323 2.97034C30.2323 3.17034 29.8573 3.64534 29.7323 4.02034ZM41.1073 0.370337C41.9823 0.370337 42.6573 0.545337 43.4073 0.970337C44.1073 1.37034 44.6573 1.97034 45.0073 2.64534C45.3573 3.34534 45.5323 4.14534 45.5073 4.89534C45.5073 5.57034 45.3323 6.39534 45.1323 6.77034C44.9573 7.17034 44.4823 7.74534 44.0823 8.09534C43.6823 8.44534 42.9073 8.89534 42.3573 9.07034C41.7573 9.27034 40.9323 9.34534 40.2823 9.24534C39.6073 9.14534 38.9323 8.82034 38.3323 8.27034C37.8323 7.84534 37.2573 7.17034 37.0823 6.77034C36.8823 6.39534 36.7323 5.44534 36.7323 4.64534C36.7323 3.52034 36.8573 3.02034 37.3823 2.29534C37.7323 1.77034 38.4573 1.12034 38.9573 0.870337C39.5073 0.570337 40.3573 0.370337 41.1073 0.370337ZM38.9823 4.84534C38.9823 5.67034 39.1323 5.97034 39.7323 6.47034C40.1323 6.82034 40.7573 7.09534 41.1073 7.09534C41.4573 7.09534 42.0573 6.82034 42.4823 6.47034C43.0823 5.97034 43.2323 5.64534 43.2323 4.84534C43.2323 4.12034 43.0573 3.67034 42.6073 3.22034C42.1823 2.79534 41.7073 2.59534 41.1073 2.59534C40.4823 2.59534 40.0323 2.79534 39.6073 3.22034C39.1823 3.64534 39.0073 4.12034 38.9823 4.84534ZM45.9823 0.595337H48.4073C50.5573 0.570337 50.9573 0.645337 51.7323 1.14534C52.2073 1.47034 52.8073 2.12034 53.0323 2.59534C53.2823 3.07034 53.4823 4.02034 53.4823 4.72034C53.4823 5.52034 53.2823 6.37034 52.9323 7.07034C52.5573 7.77034 52.0323 8.34534 51.4823 8.64534C50.8073 8.99534 50.0573 9.09534 45.9823 9.09534V0.595337ZM48.2323 7.09534C49.5823 7.09534 50.2073 6.97034 50.4823 6.84534C50.7573 6.69534 51.0823 6.17034 51.2323 5.59534C51.4323 4.82034 51.4073 4.39534 51.1073 3.72034C50.9073 3.24534 50.4573 2.74534 50.1073 2.59534C49.7573 2.44534 49.2073 2.34534 48.8573 2.34534C48.2323 2.34534 48.2323 2.34534 48.2323 4.72034V7.09534ZM22.9823 10.3703C23.4573 10.3703 24.3573 10.5953 24.9573 10.9203C25.5823 11.2203 26.3323 11.8703 26.6573 12.3453C26.9823 12.8203 27.3073 13.6703 27.4073 14.2203C27.4823 14.7703 27.4323 15.6203 27.2823 16.0953C27.1323 16.5703 26.7823 17.2703 26.4823 17.6453C26.2073 18.0453 25.5073 18.5953 24.9073 18.8703C24.1323 19.2703 23.5323 19.3703 22.5823 19.3203C21.7073 19.2453 21.0573 19.0203 20.4073 18.5203C19.9073 18.1453 19.3073 17.4953 19.1073 17.0953C18.9073 16.6703 18.7073 15.8953 18.6573 15.3453C18.6073 14.7953 18.7323 13.8453 18.9073 13.2203C19.1323 12.4703 19.5073 11.8953 20.0323 11.4953C20.4823 11.1453 21.1323 10.7703 21.4823 10.6203C21.8323 10.4953 22.5073 10.3703 22.9823 10.3703ZM20.7573 14.8203C20.7323 15.2953 20.9823 15.8703 21.3573 16.3453C21.8573 16.9453 22.1823 17.0953 22.9823 17.0953C23.7823 17.0953 24.1073 16.9453 24.6073 16.3453C24.9573 15.9203 25.2323 15.2703 25.2323 14.8453C25.2323 14.3453 24.9823 13.8453 24.4823 13.3453C23.9823 12.8453 23.4823 12.5953 22.9573 12.5953C22.4323 12.5953 21.9573 12.8203 21.4823 13.3203C21.0323 13.7953 20.7573 14.3453 20.7573 14.8203ZM58.2323 10.3453C58.7073 10.3453 59.6073 10.5953 60.2323 10.8953C60.8573 11.2203 61.6073 11.8703 62.5323 13.2203L61.2573 13.2703C60.4323 13.3203 59.7823 13.2203 59.4073 12.9703C59.1073 12.7703 58.5573 12.5953 58.1573 12.5953C57.7823 12.5953 57.1823 12.8703 56.7823 13.1953C56.2573 13.6703 56.1073 14.0203 56.1073 14.7953C56.1073 15.5203 56.2823 15.9953 56.7323 16.4453C57.1823 16.9203 57.6073 17.1203 58.2323 17.1203C58.7823 17.1203 59.3073 16.9203 60.1073 16.0953L59.2323 16.0453C58.4323 15.9703 58.3573 15.8953 58.3573 14.4703L62.7323 14.3453V15.0953C62.7323 15.4953 62.5823 16.2203 62.3823 16.6453C62.2073 17.0953 61.7323 17.7703 61.3323 18.1453C60.9323 18.5203 60.3073 18.9453 59.9073 19.0703C59.5323 19.2203 58.7073 19.3453 58.0323 19.3453C57.2073 19.3453 56.5823 19.1953 55.9823 18.7953C55.5073 18.4703 54.8823 17.8203 54.5573 17.3453C54.2323 16.8703 53.9073 16.0203 53.8323 15.4703C53.7323 14.9203 53.8073 14.0703 53.9323 13.5953C54.0823 13.1203 54.4323 12.3953 54.6823 11.9953C54.9323 11.5953 55.6323 11.0703 56.2573 10.8203C56.8573 10.5703 57.7573 10.3453 58.2323 10.3453ZM8.9823 10.5953H11.8573L12.6073 12.9703C13.0073 14.2703 13.4073 15.3453 13.4823 15.3453C13.5573 15.3453 13.9323 14.2953 15.1073 10.5953H17.9823L18.0323 12.1453C18.0823 12.9953 18.0823 14.8953 17.9823 19.0953H15.9823L15.9323 14.2203L15.1323 16.5953C14.3323 18.9453 14.3073 18.9703 13.4823 18.9703C12.6573 18.9703 12.6573 18.9703 11.0323 13.9703L10.9823 19.0953H8.9823V10.5953ZM27.9823 10.5953H30.2323C32.4823 10.5953 32.4823 10.5953 33.3573 11.4703C34.0323 12.1453 34.2323 12.5453 34.2323 13.2203C34.2323 13.6953 34.0573 14.4203 33.8573 14.8453C33.6573 15.2453 33.2323 15.7703 32.3573 16.3203L33.1073 17.3953C33.5073 17.9703 33.9323 18.5953 34.0323 18.7703C34.1823 19.0203 33.9073 19.0953 32.9073 19.0953C31.6323 19.0953 31.6073 19.0703 30.9823 17.9953C30.6323 17.3703 30.3073 16.9203 30.2323 16.9703C30.1573 17.0203 30.1073 17.4703 30.1073 18.0203C30.0823 18.9703 30.0823 18.9703 27.9823 19.0953V10.5953ZM30.4823 14.5953C30.6073 14.5953 31.0073 14.4703 31.3573 14.3453C31.7823 14.1703 31.9823 13.8953 31.9823 13.4703C31.9823 13.1203 31.8073 12.7953 31.6073 12.7203C31.4073 12.6453 31.0073 12.5953 30.7323 12.5953C30.3073 12.5953 30.2323 12.7703 30.2323 13.5953C30.2323 14.1453 30.3323 14.5953 30.4823 14.5953ZM36.2073 10.5953C37.0573 10.5953 37.1823 10.6953 40.1073 15.2203L40.1823 10.5953H42.2323V19.0953H41.2823C40.4073 19.0953 40.2823 19.0203 37.3573 14.7703L37.2323 19.0953H36.2823C35.3573 19.0953 35.3573 19.0953 35.1573 17.9203C35.0573 17.2453 34.9823 15.6953 34.9823 14.4703C34.9823 13.2203 35.0573 11.8453 35.1323 11.3953C35.2823 10.6703 35.3573 10.5953 36.2073 10.5953ZM43.2323 10.5953H45.2323V19.0953H43.2323V10.5953ZM46.2323 10.5953H47.1573C48.0823 10.5703 48.1573 10.6703 51.1073 14.9703L51.1823 10.5953H52.1323C53.1073 10.5953 53.1073 10.5953 53.3073 11.7703C53.4073 12.4453 53.4823 14.1703 53.4823 15.6453C53.4823 17.1453 53.4323 18.5203 53.3573 18.7203C53.2823 18.9703 52.9073 19.0953 52.2823 19.0953C51.3823 19.0953 51.3073 19.0203 49.9823 16.9703C49.2323 15.8203 48.5323 14.8453 48.4073 14.8453C48.3073 14.8453 48.2323 15.7953 48.2323 19.0953H46.2323V10.5953ZM54.7823 20.3453C55.5823 20.3453 56.6073 20.4953 57.0323 20.6703C57.4823 20.8703 58.2323 21.3453 58.7073 21.7453C59.1573 22.1453 59.7573 22.8953 60.0073 23.3953C60.2823 23.9203 60.4823 24.5203 60.4823 24.7203C60.4823 25.0203 60.1573 25.0953 58.9823 25.0953C57.8323 25.0953 57.4073 24.9953 57.1573 24.6453C57.0073 24.3953 56.5823 23.9953 56.2323 23.7703C55.8823 23.5453 55.2323 23.3453 54.7823 23.3453C54.3573 23.3453 53.6573 23.5453 53.2323 23.7703C52.8323 24.0203 52.3323 24.5203 52.1073 24.8953C51.9073 25.2953 51.7323 25.9703 51.7323 26.3953C51.7323 26.8453 51.9823 27.6203 52.3073 28.0953C52.6073 28.5703 53.1573 29.1203 53.4823 29.2703C53.8323 29.4453 54.4823 29.5953 54.9073 29.5953C55.5073 29.5953 56.0073 29.3453 56.6573 28.7203C57.5073 27.9453 57.7573 27.8703 59.0323 27.8453C60.2573 27.8453 60.4823 27.9203 60.4823 28.2703C60.4823 28.5203 60.1573 29.2453 59.7323 29.8953C59.3073 30.5703 58.5323 31.3703 57.9073 31.7203C57.3323 32.0703 56.2573 32.4203 55.4823 32.4953C54.5323 32.6203 53.7323 32.5453 52.8573 32.2703C52.0573 32.0203 51.2323 31.4953 50.5323 30.7953C49.9073 30.1703 49.3073 29.2453 49.0823 28.5953C48.8823 27.9703 48.7323 26.9453 48.7323 26.2703C48.7323 25.6203 48.9073 24.6703 49.1323 24.1453C49.3323 23.6453 49.7573 22.8703 50.0823 22.4703C50.3823 22.0453 51.2573 21.4203 52.0073 21.0203C53.0073 20.5203 53.7073 20.3453 54.7823 20.3453ZM5.3323 20.5703L7.8323 20.7203L9.9073 26.0953C11.0573 29.0453 12.0323 31.6703 12.1073 31.8953C12.2073 32.2953 12.0323 32.3453 8.9823 32.3453L8.4823 30.5953H4.7323L4.3573 31.4703C3.9823 32.3203 3.9573 32.3453 2.4823 32.3453C1.6573 32.3453 0.9823 32.2703 0.9823 32.1453C0.9823 32.0453 1.9573 29.3953 3.1573 26.2703L5.3323 20.5703ZM5.8823 26.7203C5.6573 27.3953 5.5073 27.9953 5.5323 28.0453C5.5823 28.0703 6.0573 28.0703 6.6323 28.0453L7.6573 27.9703C6.7823 25.4203 6.4823 24.8703 6.4073 25.0953C6.3323 25.2953 6.0823 26.0203 5.8823 26.7203ZM12.7323 20.5953H16.7323L18.8823 27.4703L21.1073 20.7203H25.1073V32.2203H22.3573L22.1073 25.4703L19.9823 32.3453H18.9823C18.1823 32.3453 17.9323 32.2203 17.7323 31.7703C17.6073 31.4703 17.0573 29.8203 15.5073 24.9703L15.4823 32.3453H12.7323V20.5953ZM26.4573 20.5953H32.9823V23.0953L29.6073 23.2203L29.4823 25.0953H32.9823V27.5953H29.4823V29.5953H32.9823V32.3453L26.6073 32.2203L26.5323 26.3953L26.4573 20.5953ZM34.7323 20.5953H37.4823C39.2323 20.5953 40.5073 20.7203 41.0323 20.9453C41.4823 21.1453 42.1323 21.5953 42.4823 21.9703C42.9573 22.4953 43.1073 22.9953 43.1823 24.0703C43.2323 24.9953 43.1323 25.7953 42.8823 26.4203C42.6323 26.9953 42.1323 27.5453 40.7323 28.3453L41.8573 29.9203C42.4823 30.7703 43.0823 31.6703 43.2323 31.9203C43.4573 32.3203 43.3073 32.3453 39.8573 32.3453L37.7323 28.7203V32.3453H34.7323V20.5953ZM37.7323 25.8453C39.1823 25.8453 39.7573 25.7203 39.9323 25.5453C40.0823 25.3703 40.2323 24.9453 40.2323 24.5953C40.2323 24.2703 40.0823 23.8453 39.9073 23.6703C39.7323 23.4953 39.1823 23.3453 38.6573 23.3453H37.7323V25.8453ZM44.7323 20.5953H47.7323V32.3453H44.7323V20.5953ZM66.6073 20.5953L68.7823 26.2953C69.9823 29.4203 70.9823 32.0703 70.9823 32.1703C70.9823 32.2703 70.3073 32.3453 69.4823 32.3453C67.9823 32.3453 67.9573 32.3453 67.2323 30.5953H63.4823L63.1573 31.4953C62.8573 32.3703 62.8323 32.3703 61.2823 32.3703C60.4323 32.3703 59.7323 32.2953 59.7323 32.2203C59.7323 32.1703 60.6823 29.5953 61.8573 26.5453C63.0573 23.4953 64.0573 20.8953 64.1323 20.7953C64.1823 20.6953 64.7823 20.5953 66.6073 20.5953ZM64.2323 28.0953C66.1323 28.0953 66.4323 28.0203 66.3823 27.7953C66.3323 27.6203 66.1073 26.8953 65.9073 26.1703C65.6823 25.4453 65.4573 24.8453 65.4073 24.8453C65.3573 24.8453 65.0573 25.5953 64.7573 26.4703L64.2323 28.0953ZM42.3573 33.4953C48.1823 33.5703 53.8073 33.7453 56.3573 33.9703C58.7073 34.1953 61.5573 34.4703 62.7323 34.6203C63.9073 34.7703 65.9323 35.0953 67.2323 35.3703C68.5323 35.6453 69.7823 35.9703 69.9823 36.0953C70.2573 36.2453 70.0823 36.3453 69.3573 36.4703C68.8073 36.5703 67.3323 37.0453 63.7323 38.3453L60.9323 37.7453C59.3823 37.3953 56.1323 36.8453 53.7323 36.4953C51.3323 36.1453 48.1323 35.7453 46.6073 35.5953C45.1073 35.4453 42.5573 35.2453 40.9823 35.1203C39.4073 34.9953 33.2823 34.9203 27.3573 34.9703C19.7323 35.0203 15.4823 35.1703 12.7323 35.4453C10.6073 35.6703 7.3323 36.0703 5.4823 36.3703C3.6323 36.6453 1.9073 36.9453 1.6823 36.9953C1.4323 37.0453 1.2323 36.9953 1.2323 36.8453C1.2323 36.7203 2.0573 36.4203 3.0573 36.2203C4.0573 35.9953 6.6573 35.5453 8.8573 35.2203C11.0573 34.9203 15.0573 34.4703 17.7323 34.2203C20.4073 33.9953 24.8573 33.7203 27.6073 33.5953C30.3573 33.4953 37.0073 33.4453 42.3573 33.4953Z" fill="white" fill-opacity="0.65"/>
</svg>