<svg viewBox="0 0 125 27" fill="none" xmlns="http://www.w3.org/2000/svg">
    <path opacity="0.99" fill-rule="evenodd" clip-rule="evenodd" d="M74.869 0.405693C76.4899 0.486167 78.8132 0.727591 80.0019 0.94219C81.1906 1.15679 83.1357 1.61281 84.3243 1.93471C85.513 2.25661 87.4581 2.95406 88.6468 3.46373C89.8355 3.94657 91.6185 4.8318 92.618 5.42194C93.6446 6.01209 94.401 6.54859 94.32 6.62906C94.2389 6.70954 93.4825 6.41446 92.618 5.98526C91.7806 5.55607 90.0516 4.85862 88.7819 4.4026C87.5121 3.9734 85.2159 3.3296 83.649 2.98088C81.1365 2.41756 80.164 2.33708 75.0041 2.36391C69.9252 2.36391 68.9257 2.44438 67.0346 2.95406C65.8459 3.27595 64.0089 3.94657 62.9823 4.45625C61.9287 4.96592 60.5509 5.85114 59.8755 6.44129C59.2002 7.00461 58.3087 8.13125 57.8494 8.936C57.174 10.1699 57.0389 10.7333 56.9579 12.7988C56.8769 15.0521 56.9039 15.3203 57.6603 16.8225C58.1196 17.7077 58.876 18.7807 59.3623 19.2099C60.0917 19.8001 60.3348 19.9074 60.4969 19.6123C60.632 19.3977 61.4154 17.359 63.8198 10.921L65.6838 10.7601L67.1426 14.7302C67.9261 16.903 68.6825 18.9685 68.8176 19.2904C69.0607 19.8805 69.0877 19.9074 69.7631 19.4245C70.1684 19.1831 70.8708 18.4052 71.33 17.7077C71.7893 16.9835 72.1945 16.4738 72.2215 16.5543C72.2756 16.6347 72.0864 17.1981 71.8163 17.815C71.5461 18.4588 70.8978 19.3977 69.3849 20.8462L70.0873 22.724C70.4655 23.7433 70.8978 24.7627 71.0599 24.9504C71.222 25.1382 71.6002 25.2992 71.8973 25.3528C72.1945 25.3796 72.4376 25.5942 72.4376 25.8088C72.4376 26.1307 71.8973 26.2112 69.3849 26.2649C66.5213 26.3453 66.3592 26.3185 66.3592 25.8088C66.3592 25.4333 66.5483 25.2723 66.9535 25.2723C67.3047 25.2992 67.737 25.1114 67.8991 24.87C68.1962 24.5481 68.1692 24.1993 67.845 23.1264C67.4668 21.8388 67.4128 21.7851 66.6834 21.9729C66.2782 22.107 65.1705 22.1875 64.198 22.1875C63.2254 22.1875 62.1448 22.1338 61.7936 22.0534C61.1993 21.9461 61.0642 22.0534 60.713 23.18C60.3348 24.2798 60.3348 24.4676 60.686 24.87C60.9021 25.1114 61.3614 25.2992 61.6856 25.2723C62.1178 25.2723 62.3069 25.4333 62.3069 25.8088C62.3069 26.3185 62.1178 26.3453 59.6054 26.3453C57.093 26.3453 56.9039 26.3185 56.9039 25.8088C56.9039 25.4065 57.093 25.2723 57.5793 25.2723C58.0655 25.2723 58.3627 25.0309 58.6869 24.3871C58.93 23.9311 59.3082 23.0727 59.8755 21.5169L58.3627 20.0951C57.4982 19.2904 56.5527 18.0833 56.1474 17.2249C55.4991 15.9105 55.418 15.4276 55.418 12.9329C55.418 10.3845 55.4991 9.95534 56.1745 8.5068C56.6337 7.56793 57.5522 6.33399 58.3627 5.55607C59.1191 4.80497 60.4969 3.83928 61.3614 3.38325C62.2529 2.92723 63.7657 2.28343 64.7383 1.96154C65.7108 1.66646 67.6559 1.21044 69.0607 0.969015C70.4655 0.727591 71.6812 0.486167 71.7623 0.405693C71.8433 0.325218 73.2211 0.325218 74.869 0.405693ZM63.0093 16.9566C62.0368 19.6391 61.7936 20.6585 62.0097 20.8462C62.1989 20.9804 63.2795 21.1145 64.4681 21.1145C65.6298 21.1145 66.6834 21.034 66.8185 20.8999C66.9265 20.7926 66.6294 19.5318 66.1161 18.0833C65.6028 16.6616 64.9814 14.9984 64.7383 14.4083L64.306 13.3353L63.0093 16.9566ZM33.1304 9.44567V20.3097L34.8054 18.4588C35.7509 17.4395 36.6694 16.3665 36.8315 16.0982C37.1287 15.6959 37.1017 15.5886 36.6424 15.4813C36.3182 15.4008 36.1021 15.1325 36.1021 14.8106C36.1021 14.3278 36.2912 14.2741 38.2633 14.2741C40.1274 14.2741 40.4246 14.3278 40.4246 14.7302C40.4516 14.9984 40.1004 15.3471 39.6952 15.5349C39.2899 15.7227 38.2904 16.5274 37.5069 17.359C36.7505 18.1638 36.1021 18.9417 36.1021 19.1026C36.1021 19.2367 36.7235 20.3097 37.4799 21.4364C38.2633 22.5899 39.1819 23.8506 39.5871 24.2798C39.9653 24.6822 40.5056 25.0041 40.7487 25.0041C41.0189 25.0041 41.235 25.1114 41.235 25.2723C41.235 25.4065 41.0459 25.7284 40.8028 25.943C40.5867 26.1576 40.1004 26.3453 39.7222 26.3453C39.371 26.3453 38.8577 26.238 38.5875 26.1039C38.3444 25.9966 37.3448 24.7358 36.3993 23.3678C35.4538 21.9729 34.6163 20.7926 34.5352 20.7121C34.4812 20.6316 34.13 20.9267 33.7788 21.3827C33.2925 21.9729 33.1304 22.5094 33.1304 23.4483C33.1304 24.5212 33.2115 24.7627 33.6708 24.87C33.9949 24.9504 34.2111 25.2187 34.2111 25.5406C34.2111 26.0234 34.022 26.0771 32.0498 26.0771C30.0777 26.0771 29.8886 26.0234 29.8886 25.5406C29.8886 25.2187 30.1047 24.9504 30.4289 24.87C30.9422 24.7358 30.9692 24.5212 30.9692 17.7614C30.9692 11.0015 30.9422 10.7869 30.4289 10.6528C30.1047 10.5723 29.8886 10.3041 29.8886 9.98217C29.8886 9.49932 30.0777 9.44567 33.1304 9.44567ZM112.555 9.44567V15.6154L113.555 14.9448C114.311 14.4351 114.933 14.2473 115.851 14.2741C116.581 14.2741 117.499 14.4619 117.958 14.6765C118.391 14.8911 118.985 15.4813 119.228 15.9373C119.606 16.6347 119.714 17.6809 119.849 25.0041L120.579 25.2992C121.308 25.5674 121.308 25.5942 120.795 25.9698C120.498 26.1844 119.957 26.3453 119.579 26.3453C119.201 26.3453 118.661 26.1844 118.364 25.9698C117.877 25.6211 117.796 25.165 117.634 21.2486C117.445 17.0908 117.391 16.8762 116.743 16.2592C116.364 15.9105 115.77 15.6154 115.392 15.6154C115.014 15.6154 114.473 15.7227 114.176 15.8836C113.879 16.0178 113.42 16.5543 113.177 17.0103C112.879 17.6004 112.69 18.8076 112.609 20.7121C112.528 22.268 112.555 23.8238 112.636 24.1993C112.717 24.5749 113.042 24.9504 113.339 25.0577C113.663 25.1919 113.906 25.4601 113.906 25.6747C113.906 25.9966 113.474 26.0771 111.61 26.0771C109.746 26.0771 109.313 25.9966 109.313 25.6747C109.313 25.4601 109.557 25.2187 109.854 25.1382C110.367 25.0041 110.394 24.7895 110.394 17.8955C110.394 11.0015 110.367 10.7869 109.854 10.6528C109.53 10.5723 109.313 10.3041 109.313 9.98217C109.313 9.49932 109.503 9.44567 112.555 9.44567ZM5.30474 10.5187L7.38491 16.3397C8.51955 19.5586 9.51912 22.268 9.60016 22.4021C9.68121 22.5094 10.7348 19.9074 14.1117 10.6528L16.1919 10.5723C17.8938 10.5187 18.2721 10.5991 18.2721 10.921C18.2721 11.1356 18.0559 11.4039 17.7858 11.5112C17.5426 11.5917 17.2455 11.8063 17.1374 11.9672C17.0294 12.1282 16.9213 14.9716 16.9213 18.2979C16.9213 21.6242 17.0294 24.4676 17.1374 24.6285C17.2455 24.7895 17.5426 25.0041 17.7858 25.0846C18.0559 25.1919 18.2721 25.4601 18.2721 25.6747C18.2721 25.9966 17.8398 26.0771 15.9758 26.0771C13.8686 26.0771 13.6795 26.0234 13.6795 25.5406C13.6795 25.2187 13.8956 24.9504 14.2198 24.87C14.7331 24.7358 14.7601 24.5212 14.7331 18.7539C14.7331 15.4813 14.652 12.9866 14.571 13.2012C14.4629 13.4158 13.4093 16.3665 12.1936 19.7732C10.1945 25.326 9.89733 25.943 9.33001 26.0234C8.70866 26.1039 8.54657 25.7284 3.71084 12.5305L3.68382 18.6198C3.68382 24.5212 3.71084 24.7358 4.22413 24.87C4.54831 24.9504 4.76443 25.2187 4.76443 25.5406C4.76443 26.0234 4.57533 26.0771 2.87337 26.0771C1.36051 26.0771 0.9823 25.9966 0.9823 25.6747C0.9823 25.4601 1.27947 25.1382 2.33306 24.7358V18.4857C2.33306 15.0789 2.225 12.1282 2.11694 11.9672C2.00888 11.8063 1.71171 11.5917 1.44156 11.5112C1.19842 11.4039 0.9823 11.1356 0.9823 10.921C0.9823 10.5991 1.41454 10.5187 5.30474 10.5187ZM23.8642 14.3278C25.8904 14.4083 26.1605 14.4887 26.8359 15.1594C27.5923 15.8836 27.5923 15.9373 27.6734 19.8537C27.7004 22.0265 27.7814 24.0652 27.8625 24.3871C27.9435 24.7895 28.1867 25.0041 28.5379 25.0041C28.835 25.0041 29.0782 25.1919 29.0782 25.4065C29.0782 25.6211 28.808 25.943 28.4568 26.1039C28.1326 26.2649 27.5923 26.3185 27.2411 26.238C26.9169 26.1576 26.4577 25.7015 25.8363 24.4676L25.296 25.1382C24.9989 25.5138 24.2965 25.943 23.7291 26.1039C23.1348 26.2917 22.2703 26.3185 21.649 26.2112C21.0546 26.1039 20.2442 25.7015 19.866 25.2992C19.4607 24.9236 19.0555 24.1189 18.9474 23.5287C18.8124 22.8313 18.8934 22.1338 19.1365 21.5169C19.3797 20.8462 19.8389 20.417 20.7034 19.9878C21.3788 19.6391 22.7296 19.2904 25.5662 18.9685V17.6273C25.5662 16.7689 25.4041 16.1251 25.1069 15.8032C24.8638 15.5349 24.2965 15.3471 23.7021 15.3471C23.1618 15.3471 22.5135 15.5617 22.2433 15.83C21.9731 16.0714 21.757 16.5543 21.784 16.8762C21.784 17.2249 21.649 17.5468 21.5139 17.6273C21.3518 17.7077 20.9466 17.6004 20.5684 17.4127C20.0551 17.1712 19.866 16.8762 19.8389 16.2055C19.8119 15.4813 19.974 15.2398 20.7304 14.7838C21.4869 14.3278 22.0272 14.2741 23.8642 14.3278ZM21.2167 21.9729C20.9736 22.7776 20.9736 23.1532 21.2708 23.797C21.5949 24.4944 21.8111 24.6017 22.8647 24.6822C23.9453 24.7627 24.1614 24.6822 24.8098 23.9579C25.4311 23.2605 25.5662 22.8849 25.5662 21.651V20.1756C23.9993 20.2024 23.0808 20.3902 22.5135 20.6048C21.73 20.8999 21.4599 21.195 21.2167 21.9729ZM45.6655 14.2741C46.9352 14.2741 47.5296 14.4083 48.232 14.8643C48.7453 15.213 49.3666 15.9105 49.6368 16.4201C49.9069 16.9298 50.2311 18.0565 50.5553 20.4439H43.1261V21.2486C43.1261 21.6778 43.2882 22.4557 43.4773 22.9118C43.6664 23.3946 44.1257 24.0116 44.5039 24.2798C44.8821 24.5481 45.6385 24.7358 46.2869 24.7358C46.9352 24.7358 47.7997 24.5481 48.259 24.3335C48.6912 24.1189 49.1235 23.7702 49.1775 23.5824C49.2586 23.341 49.3396 23.341 49.6368 23.6092C49.961 23.9043 49.9609 24.0652 49.6098 24.6822C49.3666 25.0846 48.8263 25.5674 48.3941 25.782C47.9348 25.9966 47.0973 26.2112 46.503 26.2917C45.9087 26.3453 44.9361 26.2649 44.3418 26.0503C43.7474 25.8625 42.91 25.3796 42.5047 25.0041C42.0725 24.6285 41.5592 23.8506 41.3161 23.2605C41.0459 22.5094 40.9379 21.49 41.0189 19.7732C41.0999 17.976 41.262 17.1176 41.6673 16.4201C41.9644 15.9105 42.6128 15.213 43.1261 14.8643C43.8015 14.4083 44.4228 14.2741 45.6655 14.2741ZM43.4773 17.1444C43.2882 17.6273 43.1261 18.2711 43.1261 18.5661C43.1261 19.0758 43.3152 19.1026 45.5575 19.1026C47.9618 19.1026 47.9888 19.1026 47.9888 18.432C47.9888 18.0565 47.7997 17.3322 47.5836 16.8225C47.3675 16.3128 46.9352 15.7495 46.6381 15.6154C46.3409 15.4544 45.8816 15.3471 45.6115 15.3471C45.3684 15.3471 44.8551 15.5617 44.5039 15.8032C44.1257 16.0714 43.6664 16.6884 43.4773 17.1444ZM105.018 14.3278C106.369 14.3814 106.963 14.5424 107.395 14.9448C107.72 15.2398 107.99 15.7763 107.963 16.1519C107.963 16.5274 107.828 16.9835 107.639 17.1444C107.449 17.3322 107.098 17.4931 106.828 17.4931C106.531 17.4931 106.342 17.3054 106.342 17.0103C106.342 16.7689 106.153 16.286 105.937 15.9373C105.639 15.5349 105.261 15.3471 104.64 15.3471C104.154 15.3471 103.478 15.5617 103.154 15.8032C102.803 16.0714 102.533 16.5811 102.533 16.9566C102.533 17.3322 102.749 17.815 103.019 18.0565C103.289 18.2711 104.451 18.9149 105.585 19.4513C107.125 20.1756 107.801 20.6585 108.098 21.2486C108.314 21.6778 108.503 22.4021 108.503 22.8581C108.503 23.2873 108.314 24.0116 108.098 24.4676C107.882 24.8968 107.287 25.4869 106.801 25.7284C106.261 26.0234 105.288 26.1844 104.181 26.2112C102.938 26.2112 102.181 26.0771 101.668 25.7284C101.263 25.4869 100.804 24.9773 100.669 24.6017C100.479 24.1189 100.506 23.7433 100.723 23.2605C100.912 22.8849 101.236 22.5094 101.398 22.4557C101.587 22.3753 101.83 22.5362 101.911 22.7776C101.992 23.0459 102.208 23.6092 102.371 24.0116C102.56 24.4676 103.019 24.87 103.505 25.0041C103.964 25.165 104.667 25.165 105.126 25.0577C105.558 24.9236 106.099 24.5481 106.315 24.1725C106.531 23.797 106.612 23.2337 106.504 22.7776C106.369 22.1875 105.91 21.8388 103.91 20.8462C102.1 19.961 101.371 19.4245 101.074 18.8344C100.858 18.3784 100.669 17.7346 100.669 17.359C100.669 16.9835 100.858 16.3128 101.074 15.8836C101.29 15.4276 101.884 14.8911 102.344 14.6765C102.938 14.4083 103.856 14.301 105.018 14.3278ZM123.199 23.3946C123.496 23.4214 124.037 23.6629 124.361 23.9311C124.712 24.2262 124.982 24.6822 124.982 24.9236C124.955 25.1919 124.685 25.6211 124.361 25.8893C124.037 26.1576 123.523 26.3453 123.226 26.3453C122.929 26.3453 122.47 26.1307 122.2 25.8625C121.93 25.6211 121.713 25.165 121.686 24.8968C121.659 24.6017 121.876 24.1457 122.146 23.8775C122.416 23.6092 122.875 23.3946 123.199 23.3946ZM122.011 24.9236C121.984 25.0577 122.2 25.3528 122.47 25.6211C122.794 25.943 123.172 26.0503 123.55 25.9698C123.902 25.8893 124.226 25.5674 124.307 25.2723C124.388 24.9773 124.388 24.6017 124.307 24.4676C124.226 24.3066 123.929 24.0652 123.632 23.9311C123.226 23.7165 122.983 23.7702 122.551 24.1993C122.254 24.4944 122.011 24.8163 122.011 24.9236ZM95.8328 5.66337L96.6163 6.09256C97.3457 6.44129 97.4808 6.44129 98.0211 6.09256C98.3723 5.87797 98.7235 5.69019 98.8315 5.69019C98.9666 5.69019 98.9936 6.17304 98.9126 6.76319C98.8045 7.62158 98.8856 7.88983 99.3178 8.15808C99.615 8.34585 99.8581 8.58728 99.8581 8.69458C99.8581 8.8287 99.4799 8.90917 99.0477 8.90917C98.4263 8.90917 98.1562 9.09695 97.832 9.71392C97.6159 10.1431 97.3727 10.5187 97.2917 10.5187C97.2106 10.5187 96.9675 10.1431 96.7514 9.71392C96.4272 9.09695 96.157 8.90917 95.5357 8.90917C95.0764 8.90917 94.7252 8.77505 94.7252 8.64093C94.7252 8.47998 94.9684 8.21173 95.2655 8.02395C95.6437 7.80936 95.8058 7.40698 95.8058 6.68271L95.8328 5.66337ZM77.0302 10.7869C79.3535 10.7869 80.164 10.8674 80.164 11.1088C80.164 11.2966 79.7858 11.538 79.3535 11.6453C78.8943 11.7526 78.462 11.994 78.381 12.1818C78.2999 12.3696 78.7322 14.3278 79.3265 16.5543C79.9479 18.7539 80.6503 21.2486 81.2986 23.5287L82.7305 18.1638C83.5409 15.213 84.2973 12.3428 84.4594 11.7794C84.7026 10.921 84.8376 10.7869 85.5671 10.7869C86.2965 10.7869 86.4045 10.8942 86.7557 12.1818C86.9718 12.9597 87.7013 15.5886 88.4037 18.0296C89.079 20.4707 89.7004 22.6435 89.7814 22.8581C89.8625 23.0727 90.5919 20.9535 91.4023 18.1638C92.2128 15.3471 92.8342 12.8256 92.8071 12.5305C92.7531 12.2086 92.3749 11.8867 91.8346 11.7258C91.3483 11.5648 90.9431 11.2966 90.9431 11.1088C90.9431 10.8674 91.6185 10.7869 93.4015 10.7869C95.3736 10.7869 95.8328 10.8674 95.8328 11.1893C95.8328 11.4039 95.5357 11.7526 95.2115 11.9404C94.7252 12.2355 94.2389 13.5499 90.5649 26.0771H88.6738L87.7553 23.0727C87.242 21.4096 86.4315 18.7003 85.1078 14.14L81.893 25.943H79.7858L77.8137 19.3709C76.7331 15.7495 75.7605 12.611 75.5984 12.3964C75.4633 12.1818 75.0851 11.9136 74.7069 11.8331C74.3557 11.7526 74.0315 11.4844 73.9775 11.2429C73.8965 10.8406 74.2206 10.7869 77.0302 10.7869ZM98.5344 14.2741V24.7358L99.2098 25.0041C99.561 25.1382 99.8311 25.4065 99.7771 25.5942C99.723 25.8357 98.9666 25.9698 97.4808 25.9966C95.4276 26.0771 95.2925 26.0234 95.2925 25.5406C95.2925 25.2187 95.5087 24.9504 95.8328 24.87C96.3461 24.7358 96.3732 24.4944 96.3732 20.1756C96.3732 15.83 96.3461 15.6154 95.8328 15.4813C95.5357 15.4008 95.2925 15.2935 95.2925 15.213C95.2925 15.1325 95.3466 14.8911 95.4276 14.6765C95.5627 14.3814 96.022 14.2741 98.5344 14.2741ZM53.9052 19.4245C54.7967 19.4782 55.1749 19.6123 55.1749 19.9074C55.1749 20.1756 54.8237 20.3366 53.9592 20.3902C53.2838 20.417 52.6355 20.3634 52.5004 20.2561C52.3653 20.122 52.3653 19.8805 52.4734 19.6928C52.5814 19.4513 53.0947 19.3709 53.9052 19.4245ZM74.1666 19.4245C75.0581 19.4782 75.4363 19.6123 75.4363 19.9074C75.4363 20.1756 75.0851 20.3366 74.2206 20.3902C73.5453 20.417 72.8969 20.3634 72.7618 20.2561C72.6267 20.122 72.6267 19.8805 72.7348 19.6928C72.8429 19.4513 73.3562 19.3709 74.1666 19.4245ZM123.253 24.1993C123.794 24.1993 123.929 24.3335 123.929 24.87C123.929 25.4065 123.794 25.5406 123.253 25.5406C122.713 25.5406 122.578 25.4065 122.578 24.87C122.578 24.3335 122.713 24.1993 123.253 24.1993Z" fill="white" fill-opacity="0.7"/>
</svg>