<svg fill="currentColor" xmlns="http://www.w3.org/2000/svg" preserveAspectRatio="xMinYMin meet">

  <symbol id="search" viewBox="0 0 20 20" fill="none" xmlns="http://www.w3.org/2000/svg">
    <path d="M18.6429 18.9168L14.5 14.7739M9.11905 17.012C13.327 17.012 16.7381 13.6008 16.7381 9.39294C16.7381 5.18506 13.327 1.7739 9.11905 1.7739C4.91117 1.7739 1.5 5.18506 1.5 9.39294C1.5 13.6008 4.91117 17.012 9.11905 17.012Z" stroke="#F7F3EB" stroke-width="2" stroke-linecap="round" stroke-linejoin="round"/>
  </symbol>

  <symbol id='verified-review__icon' viewBox="0 0 18 17" fill="none" xmlns="http://www.w3.org/2000/svg">
    <path fill-rule="evenodd" clip-rule="evenodd" d="M1.37799 8.90722L1.38346 8.90242C-0.524045 6.81949 -0.459008 3.60706 1.57857 1.60115C3.61614 -0.404754 6.87931 -0.46878 8.99512 1.40908L9 1.40369L9.00488 1.40908C11.1207 -0.46878 14.3838 -0.404754 16.4214 1.60115C18.459 3.60706 18.524 6.81949 16.6166 8.90242L16.622 8.90722L9 16.4108L1.37799 8.90722Z" fill="#232F61"/>
    <path d="M12.0655 4.25171C12.3133 3.96301 12.7151 3.96301 12.963 4.25171C13.1978 4.52523 13.2101 4.95973 13 5.25019L12.963 5.29722L8.25172 10.7852L5.45972 7.53287C5.21187 7.24416 5.21187 6.77607 5.45972 6.48738C5.69452 6.21385 6.06752 6.19947 6.31688 6.44419L6.35725 6.48738L8.2515 8.69412L12.0655 4.25171Z" fill="white"/>
  </symbol>

  <symbol id="review-stars" viewBox="0 0 100 19" fill="none" xmlns="http://www.w3.org/2000/svg">
    <path fill-rule="evenodd" clip-rule="evenodd" d="M9.51056 15.5938L3.63271 18.684L4.75528 12.1389L0 7.50358L6.57163 6.54867L9.51056 0.59375L12.4495 6.54867L19.0212 7.50358L14.2659 12.1389L15.3885 18.684L9.51056 15.5938Z" fill="#FFC008"/>
    <path fill-rule="evenodd" clip-rule="evenodd" d="M29.5317 15.5938L23.6539 18.684L24.7764 12.1389L20.0212 7.50358L26.5928 6.54867L29.5317 0.59375L32.4706 6.54867L39.0423 7.50358L34.287 12.1389L35.4096 18.684L29.5317 15.5938Z" fill="#FFC008"/>
    <path fill-rule="evenodd" clip-rule="evenodd" d="M49.5529 15.5938L43.675 18.684L44.7976 12.1389L40.0423 7.50358L46.614 6.54867L49.5529 0.59375L52.4918 6.54867L59.0635 7.50358L54.3082 12.1389L55.4308 18.684L49.5529 15.5938Z" fill="#FFC008"/>
    <path fill-rule="evenodd" clip-rule="evenodd" d="M69.5741 15.5938L63.6962 18.684L64.8188 12.1389L60.0635 7.50358L66.6351 6.54867L69.5741 0.59375L72.513 6.54867L79.0847 7.50358L74.3294 12.1389L75.452 18.684L69.5741 15.5938Z" fill="#FFC008"/>
    <path fill-rule="evenodd" clip-rule="evenodd" d="M89.5952 15.5938L83.7174 18.684L84.8399 12.1389L80.0847 7.50358L86.6563 6.54867L89.5952 0.59375L92.5341 6.54867L99.1058 7.50358L94.3505 12.1389L95.4731 18.684L89.5952 15.5938Z" fill="#FFC008"/>
  </symbol>

  <symbol id='arrow__large-right' viewBox="0 0 10 15" fill="currentColor" xmlns="http://www.w3.org/2000/svg">
    <path d="M0.782664 2.11813C0.405779 1.78982 0.405779 1.25815 0.782664 0.92985C1.15883 0.602159 1.76986 0.602159 2.14602 0.92985L9.21734 7.08993C9.59422 7.41825 9.59422 7.94991 9.21734 8.27821L2.14602 14.4383C1.76986 14.766 1.15883 14.766 0.782664 14.4383C0.405779 14.11 0.405779 13.5783 0.782664 13.25L7.17195 7.68407L0.782664 2.11813Z" fill="var(--icon-color, --primary-blue-black)"/>
  </symbol>

  <symbol id="dropdown" viewBox="0 0 10 7" fill="none" xmlns="http://www.w3.org/2000/svg">
    <path d="M5.75926 6.45954C5.36016 6.92515 4.63984 6.92515 4.24074 6.45954L0.414964 1.99613C-0.141042 1.34745 0.319867 0.345337 1.17422 0.345337H8.82578C9.68013 0.345337 10.141 1.34746 9.58504 1.99613L5.75926 6.45954Z" fill="#232F61"/>
  </symbol>

  <symbol id="filter" viewBox="0 0 17 12" fill="none" xmlns="http://www.w3.org/2000/svg">
      <path d="M6.77875 11.3453V9.84534H10.2115V11.3453H6.77875ZM2.904 6.59534V5.09534H14.0865V6.59534H2.904ZM0 1.84534V0.345337H17V1.84534H0Z" fill="#232F61"/>
  </symbol>


</svg>