<svg viewBox="0 0 40 41" fill="none" xmlns="http://www.w3.org/2000/svg">
    <path d="M4.17721 40.6843C3.44572 40.6843 2.8173 40.5427 2.29196 40.2594C1.77327 39.9697 1.37427 39.5642 1.09497 39.0427C0.815673 38.5149 0.676025 37.8936 0.676025 37.179C0.676025 36.6447 0.755824 36.1651 0.915422 35.7402C1.07502 35.3089 1.30444 34.942 1.60369 34.6394C1.90294 34.3304 2.26869 34.0954 2.70093 33.9345C3.13982 33.7671 3.63192 33.6834 4.17721 33.6834C4.54296 33.6834 4.90205 33.7285 5.2545 33.8186C5.60694 33.9088 5.91616 34.0375 6.18216 34.2049C6.32181 34.2886 6.41491 34.3916 6.46146 34.5139C6.50801 34.6298 6.51798 34.7456 6.49138 34.8615C6.46478 34.971 6.40826 35.0643 6.32181 35.1416C6.24201 35.2188 6.13893 35.2639 6.01259 35.2767C5.89289 35.2832 5.75989 35.2413 5.61359 35.1512C5.40744 35.0225 5.18467 34.9291 4.94528 34.8712C4.70588 34.8132 4.46316 34.7843 4.21711 34.7843C3.74497 34.7843 3.34597 34.8776 3.02012 35.0643C2.69428 35.251 2.44823 35.5214 2.28198 35.8754C2.11574 36.2295 2.03261 36.664 2.03261 37.179C2.03261 37.6876 2.11574 38.1222 2.28198 38.4827C2.44823 38.8432 2.69428 39.1168 3.02012 39.3035C3.34597 39.4901 3.74497 39.5835 4.21711 39.5835C4.46981 39.5835 4.71918 39.5545 4.96522 39.4966C5.21127 39.4322 5.44402 39.3356 5.66347 39.2069C5.80976 39.1232 5.93944 39.0878 6.05249 39.1007C6.17218 39.1071 6.27193 39.1457 6.35173 39.2166C6.43153 39.2874 6.48473 39.3775 6.51133 39.4869C6.53793 39.5899 6.53128 39.6994 6.49138 39.8152C6.45148 39.9247 6.37168 40.0212 6.25198 40.1049C5.98599 40.2916 5.66679 40.4365 5.2944 40.5395C4.92865 40.636 4.55626 40.6843 4.17721 40.6843ZM9.61884 40.6843C9.06688 40.6843 8.59142 40.5845 8.19243 40.385C7.79343 40.1854 7.48421 39.9022 7.26477 39.5352C7.05197 39.1683 6.94557 38.7337 6.94557 38.2316C6.94557 37.7423 7.04864 37.3142 7.25479 36.9473C7.46759 36.5804 7.75686 36.2939 8.12261 36.0879C8.495 35.8754 8.91726 35.7692 9.38941 35.7692C9.73521 35.7692 10.0444 35.8239 10.3171 35.9334C10.5964 36.0428 10.8324 36.2005 11.0253 36.4065C11.2248 36.6125 11.3744 36.8636 11.4742 37.1597C11.5806 37.4494 11.6337 37.7777 11.6337 38.1447C11.6337 38.2606 11.5905 38.3507 11.5041 38.4151C11.4243 38.473 11.3079 38.502 11.155 38.502H7.95303V37.8067H10.756L10.5964 37.9516C10.5964 37.6554 10.5498 37.4076 10.4567 37.208C10.3703 37.0085 10.2406 36.8572 10.0677 36.7542C9.90146 36.6447 9.69198 36.59 9.43929 36.59C9.15999 36.59 8.92058 36.6544 8.7211 36.7831C8.52824 36.9055 8.37863 37.0825 8.27223 37.3142C8.17248 37.5396 8.12261 37.8099 8.12261 38.1254V38.193C8.12261 38.7209 8.24895 39.1168 8.50165 39.3807C8.761 39.6382 9.14004 39.767 9.63879 39.767C9.81168 39.767 10.0045 39.7477 10.2173 39.709C10.4368 39.664 10.6429 39.5899 10.8358 39.4869C10.9754 39.4097 11.0984 39.3775 11.2048 39.3904C11.3112 39.3968 11.3944 39.4322 11.4542 39.4966C11.5207 39.561 11.5606 39.6414 11.5739 39.738C11.5872 39.8281 11.5673 39.9215 11.5141 40.018C11.4675 40.1146 11.3844 40.1983 11.2647 40.2691C11.0319 40.4107 10.7626 40.5169 10.4567 40.5878C10.1575 40.6521 9.87818 40.6843 9.61884 40.6843ZM13.2596 40.665C13.0534 40.665 12.8938 40.6135 12.7808 40.5105C12.6744 40.4011 12.6212 40.2466 12.6212 40.047V36.3969C12.6212 36.1973 12.6744 36.046 12.7808 35.943C12.8872 35.84 13.0368 35.7885 13.2296 35.7885C13.4225 35.7885 13.5721 35.84 13.6785 35.943C13.7849 36.046 13.8381 36.1973 13.8381 36.3969V37.0052H13.7384C13.8315 36.619 14.0143 36.3261 14.287 36.1265C14.5596 35.9269 14.922 35.8078 15.3742 35.7692C15.5139 35.7563 15.6236 35.7917 15.7034 35.8754C15.7899 35.9527 15.8397 36.075 15.853 36.2424C15.8663 36.4033 15.8264 36.5353 15.7333 36.6383C15.6469 36.7349 15.5139 36.7928 15.3343 36.8121L15.1149 36.8314C14.7093 36.87 14.4034 36.9924 14.1972 37.1984C13.9911 37.3979 13.888 37.6812 13.888 38.0481V40.047C13.888 40.2466 13.8348 40.4011 13.7284 40.5105C13.622 40.6135 13.4657 40.665 13.2596 40.665ZM19.0442 40.6843C18.612 40.6843 18.2496 40.6135 17.957 40.4719C17.671 40.3303 17.4582 40.1243 17.3186 39.8539C17.1789 39.5771 17.1091 39.2359 17.1091 38.8303V36.7735H16.5904C16.4308 36.7735 16.3078 36.7349 16.2214 36.6576C16.1349 36.5739 16.0917 36.4613 16.0917 36.3196C16.0917 36.1716 16.1349 36.0589 16.2214 35.9817C16.3078 35.9044 16.4308 35.8658 16.5904 35.8658H17.1091V34.987C17.1091 34.7875 17.1623 34.6362 17.2687 34.5332C17.3818 34.4302 17.538 34.3787 17.7375 34.3787C17.937 34.3787 18.09 34.4302 18.1964 34.5332C18.3028 34.6362 18.356 34.7875 18.356 34.987V35.8658H19.4133C19.5729 35.8658 19.6959 35.9044 19.7824 35.9817C19.8688 36.0589 19.9121 36.1716 19.9121 36.3196C19.9121 36.4613 19.8688 36.5739 19.7824 36.6576C19.6959 36.7349 19.5729 36.7735 19.4133 36.7735H18.356V38.7627C18.356 39.0717 18.4258 39.3035 18.5655 39.458C18.7051 39.6125 18.9312 39.6897 19.2437 39.6897C19.3568 39.6897 19.4565 39.6801 19.543 39.6607C19.6294 39.6414 19.7059 39.6286 19.7724 39.6221C19.8522 39.6157 19.9187 39.6414 19.9719 39.6994C20.0251 39.7509 20.0517 39.8603 20.0517 40.0277C20.0517 40.1564 20.0284 40.2723 19.9819 40.3753C19.942 40.4719 19.8655 40.5395 19.7525 40.5781C19.666 40.6039 19.553 40.6264 19.4133 40.6457C19.2737 40.6714 19.1506 40.6843 19.0442 40.6843ZM21.3832 40.6554C21.1837 40.6554 21.0307 40.5974 20.9243 40.4815C20.8179 40.3657 20.7647 40.2047 20.7647 39.9987V36.4548C20.7647 36.2424 20.8179 36.0814 20.9243 35.972C21.0307 35.8561 21.1837 35.7982 21.3832 35.7982C21.5827 35.7982 21.7356 35.8561 21.842 35.972C21.9551 36.0814 22.0116 36.2424 22.0116 36.4548V39.9987C22.0116 40.2047 21.9584 40.3657 21.852 40.4815C21.7456 40.5974 21.5893 40.6554 21.3832 40.6554ZM21.3832 34.9001C21.1504 34.9001 20.9676 34.8454 20.8346 34.736C20.7082 34.6201 20.6451 34.4624 20.6451 34.2628C20.6451 34.0568 20.7082 33.8991 20.8346 33.7897C20.9676 33.6802 21.1504 33.6255 21.3832 33.6255C21.6226 33.6255 21.8055 33.6802 21.9318 33.7897C22.0582 33.8991 22.1213 34.0568 22.1213 34.2628C22.1213 34.4624 22.0582 34.6201 21.9318 34.736C21.8055 34.8454 21.6226 34.9001 21.3832 34.9001ZM24.2648 40.665C24.0653 40.665 23.909 40.6135 23.7959 40.5105C23.6895 40.4011 23.6363 40.2466 23.6363 40.047V36.7735H23.1775C23.0179 36.7735 22.8949 36.7349 22.8084 36.6576C22.722 36.5739 22.6788 36.4613 22.6788 36.3196C22.6788 36.1716 22.722 36.0589 22.8084 35.9817C22.8949 35.9044 23.0179 35.8658 23.1775 35.8658H23.9954L23.6363 36.1844V35.8561C23.6363 35.2059 23.8059 34.7135 24.1451 34.3787C24.4842 34.0439 24.9763 33.8444 25.6213 33.78L25.9206 33.751C26.0735 33.7382 26.1932 33.7575 26.2797 33.809C26.3728 33.8605 26.4326 33.9313 26.4592 34.0214C26.4925 34.1051 26.4991 34.1952 26.4792 34.2918C26.4592 34.3819 26.4193 34.4624 26.3595 34.5332C26.2996 34.5976 26.2232 34.633 26.1301 34.6394L25.8907 34.6587C25.5382 34.6845 25.2822 34.7778 25.1226 34.9388C24.963 35.0997 24.8832 35.3411 24.8832 35.663V36.0203L24.7236 35.8658H27.4866C27.6861 35.8658 27.8391 35.9237 27.9455 36.0396C28.0519 36.149 28.1051 36.3068 28.1051 36.5128V39.9987C28.1051 40.2047 28.0519 40.3657 27.9455 40.4815C27.8457 40.5974 27.6928 40.6554 27.4866 40.6554C27.2871 40.6554 27.1309 40.5974 27.0178 40.4815C26.9114 40.3657 26.8582 40.2047 26.8582 39.9987V36.7735H24.8832V40.047C24.8832 40.459 24.6771 40.665 24.2648 40.665ZM27.5066 34.9001C27.2805 34.9001 27.1043 34.8454 26.9779 34.736C26.8582 34.6201 26.7984 34.4624 26.7984 34.2628C26.7984 34.0568 26.8582 33.8991 26.9779 33.7897C27.1043 33.6802 27.2805 33.6255 27.5066 33.6255C27.7393 33.6255 27.9156 33.6802 28.0353 33.7897C28.1616 33.8991 28.2248 34.0568 28.2248 34.2628C28.2248 34.4624 28.1616 34.6201 28.0353 34.736C27.9156 34.8454 27.7393 34.9001 27.5066 34.9001ZM31.809 40.6843C31.2571 40.6843 30.7816 40.5845 30.3826 40.385C29.9836 40.1854 29.6744 39.9022 29.4549 39.5352C29.2421 39.1683 29.1357 38.7337 29.1357 38.2316C29.1357 37.7423 29.2388 37.3142 29.445 36.9473C29.6578 36.5804 29.947 36.2939 30.3128 36.0879C30.6852 35.8754 31.1074 35.7692 31.5796 35.7692C31.9254 35.7692 32.2346 35.8239 32.5073 35.9334C32.7865 36.0428 33.0226 36.2005 33.2155 36.4065C33.415 36.6125 33.5646 36.8636 33.6643 37.1597C33.7707 37.4494 33.8239 37.7777 33.8239 38.1447C33.8239 38.2606 33.7807 38.3507 33.6943 38.4151C33.6145 38.473 33.4981 38.502 33.3451 38.502H30.1432V37.8067H32.9461L32.7865 37.9516C32.7865 37.6554 32.74 37.4076 32.6469 37.208C32.5604 37.0085 32.4308 36.8572 32.2579 36.7542C32.0916 36.6447 31.8822 36.59 31.6295 36.59C31.3502 36.59 31.1108 36.6544 30.9113 36.7831C30.7184 36.9055 30.5688 37.0825 30.4624 37.3142C30.3627 37.5396 30.3128 37.8099 30.3128 38.1254V38.193C30.3128 38.7209 30.4391 39.1168 30.6918 39.3807C30.9512 39.6382 31.3302 39.767 31.829 39.767C32.0019 39.767 32.1947 39.7477 32.4075 39.709C32.6269 39.664 32.8331 39.5899 33.0259 39.4869C33.1656 39.4097 33.2886 39.3775 33.395 39.3904C33.5014 39.3968 33.5845 39.4322 33.6444 39.4966C33.7109 39.561 33.7508 39.6414 33.7641 39.738C33.7774 39.8281 33.7574 39.9215 33.7042 40.018C33.6577 40.1146 33.5746 40.1983 33.4549 40.2691C33.2221 40.4107 32.9528 40.5169 32.6469 40.5878C32.3477 40.6521 32.0684 40.6843 31.809 40.6843ZM36.6866 40.6843C36.261 40.6843 35.8853 40.5845 35.5595 40.385C35.2403 40.1854 34.9909 39.9022 34.8114 39.5352C34.6318 39.1618 34.542 38.7241 34.542 38.2219C34.542 37.7134 34.6318 37.2788 34.8114 36.9183C34.9909 36.5514 35.2403 36.2681 35.5595 36.0686C35.8853 35.869 36.261 35.7692 36.6866 35.7692C37.0923 35.7692 37.4447 35.8658 37.744 36.0589C38.0499 36.252 38.256 36.5063 38.3624 36.8218H38.2527V34.3111C38.2527 34.1115 38.3059 33.9603 38.4123 33.8573C38.5187 33.7543 38.6716 33.7027 38.8711 33.7027C39.0706 33.7027 39.2236 33.7543 39.33 33.8573C39.443 33.9603 39.4996 34.1115 39.4996 34.3111V40.047C39.4996 40.2466 39.4464 40.4011 39.34 40.5105C39.2336 40.6135 39.0806 40.665 38.8811 40.665C38.6816 40.665 38.5287 40.6135 38.4223 40.5105C38.3159 40.4011 38.2627 40.2466 38.2627 40.047V39.2938L38.3724 39.5835C38.2726 39.9182 38.0698 40.1854 37.7639 40.385C37.458 40.5845 37.0989 40.6843 36.6866 40.6843ZM37.0358 39.767C37.2818 39.767 37.4979 39.709 37.6841 39.5931C37.8703 39.4773 38.0133 39.3067 38.113 39.0814C38.2194 38.8496 38.2726 38.5631 38.2726 38.2219C38.2726 37.7069 38.1596 37.3239 37.9335 37.0728C37.7074 36.8153 37.4082 36.6866 37.0358 36.6866C36.7897 36.6866 36.5736 36.7445 36.3874 36.8604C36.2012 36.9698 36.0549 37.1404 35.9485 37.3722C35.8487 37.5975 35.7989 37.8807 35.7989 38.2219C35.7989 38.7305 35.9119 39.1168 36.138 39.3807C36.3641 39.6382 36.6634 39.767 37.0358 39.767Z" fill="#10162D" fill-opacity="0.8"/>
    <path fill-rule="evenodd" clip-rule="evenodd" d="M39.4451 12.9683V14.7525C26.4513 15.2277 15.8526 15.16 2.17604 19.9543C1.70886 20.1178 1.51757 19.8023 1.95639 19.5749C13.1221 13.8303 28.3593 13.2757 39.4451 12.9683Z" fill="#10162D" fill-opacity="0.8"/>
    <path fill-rule="evenodd" clip-rule="evenodd" d="M38.3637 26.5653H2.49945C1.6571 26.5653 1.57734 25.8346 1.57734 25.3198V21.8504C1.57734 21.2359 1.83275 20.9445 2.93475 20.6053C15.2062 16.8209 27.3738 15.7191 39.5014 15.8348V25.4316C39.5012 26.0342 39.1819 26.5653 38.3637 26.5653Z" fill="#10162D" fill-opacity="0.8"/>
    <path fill-rule="evenodd" clip-rule="evenodd" d="M10.8825 8.5267V11.1174C11.9604 11.6964 12.7987 12.1394 14.116 12.1155C16.6351 12.0715 18.0602 10.4908 18.1241 8.74635C18.2081 6.55058 16.5714 5.77211 15.0902 5.18153C14.0961 4.78623 12.707 4.16352 12.7628 3.14552C12.8108 2.21529 13.8328 1.79211 14.5553 1.89199C15.6091 2.03964 16.5992 2.78223 17.1461 3.75623V1.4847C16.5473 1.00964 15.7808 0.734352 14.9266 0.690351C12.5993 0.574587 10.9187 2.07964 10.8827 3.75623C10.8546 5.10553 11.9964 6.33094 13.3018 7.00576C13.5184 7.11694 13.7645 7.22023 14.0177 7.32658C14.9734 7.72776 16.03 8.17129 15.9764 9.24129C15.9324 10.1194 15.0102 11.0497 14.0641 11.0695C12.7067 11.0937 11.697 9.72823 10.8825 8.5267ZM28.7507 11.9998H31.1498C30.9704 11.7484 30.8066 11.1773 30.9619 10.8064L31.6964 9.034H35.7325L36.6186 11.0339C36.7706 11.3733 36.6868 11.6447 36.3554 12H40C39.601 11.7285 39.2419 11.2894 39.054 10.8821L34.5587 1.13364C34.4032 0.802232 34.1038 0.798232 33.9562 1.13364L29.7247 10.7704C29.5133 11.2494 29.2099 11.6365 28.7507 11.9998ZM24.3193 1.13364H18.9384C19.3774 1.47282 19.573 1.75235 19.5732 2.15564V10.7744C19.5732 11.2293 19.3857 11.5926 18.9704 11.9998H24.3558C27.046 11.9998 29.9764 9.39306 30.004 6.23529C30.0281 3.68847 27.9521 1.13364 24.3193 1.13364ZM4.14414 1.13364H1.16602C1.40955 1.36917 1.49331 1.6167 1.49343 1.888V8.69035C1.49343 10.9778 3.59331 12.1515 5.69308 12.1675C7.79696 12.1794 9.89649 11.0377 9.89649 8.69035V1.85623C9.89649 1.5727 10.0044 1.31329 10.3557 1.13364H8.45942C8.73096 1.36917 8.86261 1.62459 8.86261 1.92V8.46282C8.86261 9.892 7.59319 10.7264 6.32378 10.8421C5.05436 10.9619 3.78484 10.3591 3.78484 8.918V2.08353C3.78484 1.63259 3.88073 1.45294 4.14414 1.13364ZM14.0201 15.2294C14.627 15.2851 14.6071 14.97 14.0201 14.7861C11.4654 13.9878 4.81484 13.0218 2.16014 13.1015C1.87684 13.1134 1.55731 13.4211 1.55731 13.7085V14.5307C1.55731 14.7421 1.91637 14.854 2.12814 14.8181C4.56308 14.3871 11.3057 14.9859 14.0201 15.2294ZM10.2357 16.0558C10.8465 16.0278 10.8505 15.6605 10.2357 15.6126C7.55319 15.3889 4.81484 15.3052 2.16014 15.5805C1.87684 15.6086 1.55731 15.9 1.55731 16.1835V17.0094C1.55731 17.2253 1.92061 17.3449 2.12814 17.2969C4.49532 16.7304 7.50131 16.1793 10.2357 16.0558ZM33.6487 4.33576L35.1701 7.76917H32.2238L33.6487 4.33576ZM23.6488 2.14447H21.6131V10.7672H23.6488C26.1761 10.7672 27.4218 8.61164 27.4173 6.456C27.4097 4.30023 26.1481 2.14447 23.6488 2.14447Z" fill="#10162D" fill-opacity="0.8"/>
</svg>