<svg viewBox="0 0 17 12" fill="none" xmlns="http://www.w3.org/2000/svg">
    <path d="M7.52875 11.3453C7.11454 11.3453 6.77875 11.0096 6.77875 10.5953V10.5953C6.77875 10.1811 7.11454 9.84534 7.52875 9.84534H9.4615C9.87572 9.84534 10.2115 10.1811 10.2115 10.5953V10.5953C10.2115 11.0096 9.87571 11.3453 9.4615 11.3453H7.52875ZM3.654 6.59534C3.23979 6.59534 2.904 6.25955 2.904 5.84534V5.84534C2.904 5.43112 3.23979 5.09534 3.654 5.09534H13.3365C13.7507 5.09534 14.0865 5.43112 14.0865 5.84534V5.84534C14.0865 6.25955 13.7507 6.59534 13.3365 6.59534H3.654ZM0.75 1.84534C0.335786 1.84534 0 1.50955 0 1.09534V1.09534C0 0.681123 0.335786 0.345337 0.75 0.345337H16.25C16.6642 0.345337 17 0.681123 17 1.09534V1.09534C17 1.50955 16.6642 1.84534 16.25 1.84534H0.75Z" fill="var(--icon-color, #232F61)"/>
</svg>
