<svg width="22" height="22" viewBox="0 0 22 22" fill="none" xmlns="http://www.w3.org/2000/svg">
<path d="M21.3259 21.6709C20.9535 22.0434 20.3496 22.0434 19.9772 21.671L13.2571 14.9507C12.8926 14.5862 12.3142 14.5654 11.8774 14.8391C11.4261 15.1219 10.9359 15.3583 10.4069 15.5482C9.57509 15.8468 8.71462 15.9961 7.82547 15.9961C5.63831 15.9961 3.78727 15.2388 2.27236 13.7244C0.757455 12.2099 0 10.3593 0 8.17261C0 5.98612 0.757242 4.1349 2.27172 2.61895C3.78621 1.10321 5.63682 0.345337 7.82355 0.345337C10.0101 0.345337 11.8613 1.10278 13.3773 2.61767C14.8931 4.13256 15.6509 5.98356 15.6509 8.17069C15.6509 9.08457 15.4976 9.9574 15.1909 10.7892C14.9993 11.3083 14.7679 11.7853 14.4964 12.22C14.2227 12.6585 14.2425 13.2392 14.6081 13.6048L21.3258 20.3224C21.6981 20.6947 21.6982 21.2985 21.3259 21.6709V21.6709ZM7.82547 14.0769C9.47432 14.0769 10.8709 13.5047 12.0151 12.3603C13.1595 11.216 13.7318 9.81952 13.7318 8.17069C13.7318 6.52187 13.1595 5.12535 12.0151 3.98113C10.8709 2.8367 9.47432 2.26449 7.82547 2.26449C6.17662 2.26449 4.78008 2.8367 3.63585 3.98113C2.4914 5.12535 1.91918 6.52187 1.91918 8.17069C1.91918 9.81952 2.4914 11.216 3.63585 12.3603C4.78008 13.5047 6.17662 14.0769 7.82547 14.0769Z" fill="#232F61"/>
</svg>
