<svg viewBox="0 0 19 20" fill="none">
    <path d="M0.692383 3.44189C0.692383 2.93186 0.894998 2.44272 1.25564 2.08208C1.61629 1.72143 2.10543 1.51881 2.61546 1.51881H5.76931C5.97103 1.51897 6.1676 1.58256 6.33118 1.70059C6.49478 1.81863 6.61711 1.98512 6.68084 2.17651L8.12123 6.49671C8.19421 6.71626 8.18558 6.95477 8.09692 7.16848C8.00826 7.38218 7.84551 7.55675 7.63854 7.66017L5.46835 8.74671C6.53211 11.1011 8.41783 12.9868 10.7722 14.0506L11.8587 11.8804C11.9621 11.6734 12.1367 11.5106 12.3504 11.422C12.5641 11.3333 12.8026 11.3247 13.0222 11.3977L17.3424 12.838C17.5339 12.9018 17.7005 13.0243 17.8185 13.1881C17.9367 13.3519 18.0001 13.5487 18.0001 13.7505V16.9034C18.0001 17.4134 17.7975 17.9027 17.4368 18.2633C17.0762 18.6239 16.587 18.8265 16.077 18.8265H15.1155C7.15008 18.8265 0.692383 12.3688 0.692383 4.40343V3.44189Z" stroke="#10162D" stroke-width="1.25" stroke-linecap="round" stroke-linejoin="round"/>
</svg>