<svg viewBox="0 0 1440 151" fill="none" xmlns="http://www.w3.org/2000/svg">
    <path d="M146 33.0864C88.8 24.016 24.8333 27.6639 0 30.6216V142.523L1440 143.159V6.4748C1440 6.4748 1440 6.55166 1437.5 6.46685C1247.5 0.0218773 1246.59 -3.65847 1125.5 9.91755C1063.16 16.907 1003 32.1007 967 36.0443C940 39.0021 918.5 33.9748 910 32.1007C868.667 24.3776 767.8 7.94566 695 4.002C622.2 0.0583353 528.667 10.9034 491 16.8189C447.833 26.678 351.4 46.1992 311 45.4104C260.5 44.4245 217.5 44.4245 146 33.0864Z" fill="#232F61"/>
    <path d="M123.5 55.9627C59.9 52.8477 14.6667 57.9096 0 60.83V151H1440V91.8669C1411.67 105.171 1346.5 72.4668 1346.5 72.4668C1346.5 72.4668 1287.54 43.8034 1247 34.5024C1162.3 15.0688 1025 49.6352 1025 49.6352C1025 49.6352 919.72 70.6805 852 66.1837C796.349 62.4884 765 46.2282 712 37.9539C659 29.6796 567.5 29.1929 504.5 41.8477C441.5 54.5025 362 59.8564 318 61.8033C274 63.7502 203 59.8565 123.5 55.9627Z" fill="#A5B0DF"/>
</svg>