<svg viewBox="0 0 88 64" fill="none" xmlns="http://www.w3.org/2000/svg">
    <path d="M18.0155 34.3854L16.0331 38.2027L21.1962 37.7023C21.1962 37.7023 11.0395 45.0682 11.2198 49.4236C11.4 53.778 16.033 48.432 17.2841 47.755C18.5351 47.0779 25.4689 41.8943 25.4689 41.8943L26.0096 45.0754C26.0096 45.0754 30.6427 42.3947 30.2823 40.2195C29.9324 38.0433 30.2823 40.8966 30.2823 40.8966C30.2823 40.8966 37.6295 44.8007 57.5508 43.2311L59.0138 42.6418L60.7951 44.8997L61.993 41.9014C61.993 41.9014 62.1732 47.0922 64.845 47.7621L66.8065 44.4116C66.8065 44.4116 73.7509 53.4574 78.5642 53.9578C78.5642 53.9578 79.8152 52.4515 77.6736 49.2674C75.532 46.0833 71.0792 38.2159 71.0792 38.2159C71.0792 38.2159 80.8754 43.4067 88 40.7301C88 40.7301 87.8197 37.7155 81.5857 37.3806L74.1006 31.3095L79.6245 26.8295L74.8217 25.8144C74.8217 25.8144 79.9848 21.459 80.8754 18.6139L73.7509 20.7891C73.7509 20.7891 79.6245 16.1028 79.0944 10.242C79.0944 10.242 66.4459 20.1233 65.9158 20.1233C65.3751 20.1233 34.7033 18.4077 34.7033 18.4077L27.0805 13.9168L29.5718 3.36942L24.2286 6.21522L21.7369 0.855225L17.0509 8.97644L4.81605 11.0643L0.00262851 10.3875C0.00262851 10.3875 1.08417 21.7746 1.96414 23.2829C2.84412 24.7922 6.23659 24.1192 6.23659 24.1192L9.08874 24.9587L13.0114 23.7843L12.8313 26.2985L16.3935 25.9595L14.8349 30.9337L17.3794 29.4387C17.3794 29.4387 19.4151 31.6241 19.4363 31.6414C19.6908 31.8681 17.9838 34.1628 17.7506 34.3956C16.5843 35.5629 14.6864 36.5003 13.1915 37.2417C11.7814 37.9422 10.1806 38.6356 9.55511 40.0163C9.19464 40.8486 9.23709 41.7932 9.33251 42.6929C13.4037 42.9431 17.2204 40.9803 21.1856 40.0806C23.5604 39.5425 26.0097 39.3832 28.4588 39.2279" fill="#6F4C20"/>
    <path d="M34.9897 18.1611L19.4789 31.4912L18.5245 30.086L17.5386 29.5734L16.9661 29.0914L29.0417 17.3412L32.3073 16.1732L34.9897 18.1611Z" fill="#F78119"/>
    <path d="M16.3084 13.1097C16.5946 13.2422 16.796 13.4678 16.8384 13.7228C17.008 14.0585 17.008 14.4327 16.8384 14.7682C16.5309 15.1359 15.9163 15.2597 15.4286 15.0508C14.9515 14.8217 14.7394 14.3753 14.8984 13.963C15.0893 13.5606 15.5451 13.271 16.0964 13.2114" fill="white"/>
    <path d="M1.38118 10.1601C1.73105 10.2545 2.0066 10.5073 2.11262 10.8318C2.14443 11.1091 2.10209 11.3901 1.96426 11.6417C1.625 12.5362 1.23268 13.4623 0.501131 14.1308C0.257283 13.0503 0.0876887 11.9554 0.00287192 10.8538C-0.0501386 9.99997 0.639031 9.92777 1.38118 10.1601Z" fill="white"/>
    <path d="M27.7058 13.7026L24.6738 5.64051L23.6559 5.97619L26.688 14.0382L27.7058 13.7026Z" fill="white"/>
    <path d="M71.2065 37.6185L71.7047 36.6412C71.2488 36.4227 70.8567 36.0969 70.5598 35.6935C72.182 35.3065 73.6979 34.5743 74.9702 33.5521L75.6701 32.9914L74.8325 32.6299C74.3766 32.4379 73.8994 32.2674 73.4223 32.1122C74.8748 31.4831 76.1364 30.3649 77.3344 29.2181L79.5185 27.1522L78.7021 26.3853L76.5287 28.4512C74.8748 30.0136 73.083 31.5372 71.0262 31.5403L70.9202 32.6258C71.7896 32.7698 72.6379 32.9853 73.4542 33.2702C72.2986 34.0198 70.9838 34.5283 69.6056 34.7642L68.9165 34.8796L69.1709 35.4944C69.542 36.4186 70.2735 37.1753 71.2065 37.6185Z" fill="white"/>
    <path d="M16.9661 40.6821L17.8673 40.3349C18.4822 40.1113 19.0546 39.7937 19.5529 39.3964C20.8252 38.8858 21.8113 37.9341 22.2672 36.7638L21.2599 36.4513C20.8889 37.4031 20.0724 38.171 19.0228 38.5601L18.8851 38.6101L18.8002 38.7143C18.6729 38.8368 18.5247 38.942 18.3657 39.0268C18.5565 38.0005 18.7684 36.9149 18.9804 35.8314C19.2667 34.3926 19.553 32.9527 19.7968 31.6476L18.7365 31.4913C18.4927 32.7964 18.2064 34.2322 17.9201 35.6691C17.6339 37.1049 17.3583 38.5162 17.1144 39.809L16.9661 40.6821Z" fill="white"/>
    <path d="M30.8656 41.7034C31.6714 40.1062 31.968 38.3385 31.7241 36.5974L30.4308 36.7444C30.6428 38.2722 30.3883 39.8223 29.6886 41.2275L30.8656 41.7034Z" fill="white"/>
    <path d="M59.0141 42.7244C59.5972 42.5273 59.3535 42.2332 59.099 41.9248C58.7492 41.5021 57.6676 40.2194 57.7206 39.7027L56.1941 39.6608C56.141 40.2858 56.8936 41.2805 57.7206 42.2639C57.816 42.3721 57.8799 42.4518 57.9011 42.4885L58.6114 42.3435L58.0176 42.6213L59.0141 42.7244Z" fill="white"/>
    <path d="M76.5499 50.3222C75.8396 49.5696 75.3943 48.6229 75.2883 47.6181C75.2459 47.424 75.2989 47.2229 75.4155 47.0615C75.5321 46.9635 75.6806 46.9032 75.8396 46.8879C76.2955 46.795 76.8363 46.7266 77.165 47.0329C77.271 47.1432 77.3557 47.2678 77.4194 47.4046C77.7268 48.0102 78.5432 49.4225 78.4478 50.1486C78.3311 51.2219 77.1966 51.0044 76.5499 50.3222Z" fill="white"/>
    <path d="M16.6055 48.1543C16.9977 48.0818 17.0828 47.4016 16.7965 47.0881C16.4679 46.8104 16.0437 46.7348 15.6514 46.887C15.0153 47.0759 14.4428 47.5171 14.0611 48.1308C13.7961 48.5607 13.6475 49.1887 13.955 49.584C14.1776 49.827 14.4957 49.9261 14.8031 49.8454C15.1 49.7657 15.3757 49.6289 15.6301 49.443L16.9024 48.5852" fill="white"/>
    <path d="M24.9175 23.3216C25.3522 23.3216 25.7974 23.2848 26.2215 23.2123C26.4865 23.1817 26.7197 23.0918 26.9212 22.9519C27.4195 22.5771 27.356 21.9532 27.0803 21.4998C27.0167 21.4089 26.9638 21.321 26.8896 21.2363C26.7836 21.1056 26.7091 20.9606 26.6667 20.8063H26.7304L30.4305 20.6767L30.049 20.0435C29.8369 19.681 29.678 19.3481 29.5189 19.0274C29.3069 18.5628 29.0525 18.1152 28.7556 17.6894C29.6038 17.6218 30.4412 17.5046 31.2788 17.3383C31.8301 17.2385 32.3602 17.1446 32.8691 17.0811L32.7207 16.1732C32.18 16.2397 31.6181 16.3427 31.0668 16.4395C29.9324 16.6453 28.766 16.8541 27.727 16.7693L26.3276 16.6513L27.2924 17.5321C27.8543 18.0685 28.2889 18.6955 28.5645 19.3777C28.6281 19.5237 28.7023 19.6718 28.7871 19.8229L26.688 19.8954C26.4123 19.8883 26.1473 19.9628 25.9246 20.1078C25.6808 20.309 25.5641 20.6052 25.6171 20.8972C25.6807 21.1893 25.8187 21.4671 26.0096 21.7081C26.0626 21.7785 26.1154 21.848 26.1578 21.9205C26.232 22.0216 26.264 22.1411 26.2428 22.2595C26.1792 22.2861 26.105 22.3034 26.0308 22.3106C25.5219 22.3984 24.9918 22.425 24.4723 22.3892L24.3874 23.2971C24.5676 23.3154 24.7479 23.3216 24.9175 23.3216Z" fill="white"/>
    <path d="M22.717 54.1202H77.8479C80.4828 54.1202 82.6189 56.1777 82.6189 58.7156C82.6189 61.2536 80.4828 63.3111 77.8479 63.3111H22.717C20.0821 63.3111 17.9461 61.2536 17.9461 58.7156C17.9461 56.1777 20.0821 54.1202 22.717 54.1202Z" fill="#232F61" fill-opacity="0.5"/>
</svg>