<svg viewBox="0 0 568 194" fill="none" xmlns="http://www.w3.org/2000/svg">
    <path d="M270.188 146.231H104.296C101.897 146.231 99.9511 148.167 99.9511 150.557C99.9511 152.946 101.897 154.883 104.296 154.883H270.188C272.588 154.883 274.534 152.946 274.534 150.557C274.534 148.167 272.588 146.231 270.188 146.231Z" fill="#232F61" fill-opacity="0.5"/>
    <path d="M372.186 143.26H320.476C318.076 143.26 316.13 145.197 316.13 147.586C316.13 149.975 318.076 151.912 320.476 151.912H372.186C374.586 151.912 376.531 149.975 376.531 147.586C376.531 145.197 374.586 143.26 372.186 143.26Z" fill="#232F61" fill-opacity="0.5"/>
    <path d="M462.386 194C464.422 187.585 461.123 180.611 455.894 176.358C450.666 172.104 443.723 170.46 436.978 170.213C435.841 170.173 434.483 170.035 433.972 169.028C433.602 168.307 433.853 167.432 434.171 166.689C436.764 160.65 443.51 157.005 450.119 156.934C456.729 156.862 463.054 159.904 468.08 164.161C466.535 159.57 465.364 154.661 466.312 149.915C467.116 145.905 469.538 142.171 473.067 140.075C476.595 137.979 481.21 137.671 484.858 139.576C488.845 141.665 491.136 145.888 493.195 149.871L497.904 158.986C497.07 153.301 499.16 147.086 503.781 143.643C508.403 140.2 515.508 140.145 519.729 144.068C521.921 146.094 523.19 148.923 524.313 151.691C525.609 154.896 526.786 158.144 527.842 161.437C532.481 155.184 539.718 151.361 547.522 151.038C555.326 150.716 562.856 153.93 568 159.779C562.004 157.598 555.469 162.23 552.391 167.8C549.314 173.37 550.233 175.383 547.522 181.129C542.7 191.357 533.352 194 533.352 194" fill="#B8EAF8"/>
    <path d="M373.491 92.8091C371.859 87.854 369.916 83.0065 367.676 78.2931L368.596 77.861C370.857 82.617 372.814 87.5086 374.459 92.5088L373.491 92.8091Z" fill="#161D3C"/>
    <path d="M364.046 115.804L365.922 119.612L361.053 119.113C361.053 119.113 370.621 126.462 370.455 130.806C370.288 135.151 365.922 129.818 364.741 129.142C363.56 128.467 357.019 123.295 357.019 123.295L356.513 126.469C356.513 126.469 352.145 123.795 352.481 121.625C352.818 119.453 352.481 122.3 352.481 122.3C352.481 122.3 345.563 126.195 326.779 124.629L325.401 124.042L323.728 126.293L322.592 123.303C322.592 123.303 322.422 128.48 319.904 129.149L318.058 125.807C318.058 125.807 311.51 134.83 306.973 135.33C306.973 135.33 305.799 133.828 307.815 130.651C309.831 127.475 314.027 119.626 314.027 119.626C314.027 119.626 304.792 124.804 298.08 122.134C298.08 122.134 298.246 119.126 304.122 118.792L311.18 112.736L305.973 108.266L310.505 107.254C310.505 107.254 305.636 102.909 304.795 100.07L311.513 102.241C311.513 102.241 305.973 97.5655 306.474 91.7185C306.474 91.7185 318.398 101.575 318.9 101.575C319.402 101.575 348.321 99.8647 348.321 99.8647L355.505 95.3841L353.157 84.8619L358.192 87.7014L360.544 82.3547L364.955 90.4557L376.492 92.5386L381.028 91.8641C381.028 91.8641 380.01 103.223 379.179 104.729C378.347 106.234 375.151 105.563 375.151 105.563L372.464 106.399L368.768 105.229L368.934 107.736L365.579 107.399L367.045 112.361L364.653 110.87C364.653 110.87 362.726 113.05 362.705 113.066C362.471 113.293 364.083 115.582 364.303 115.815C365.395 116.979 367.184 117.915 368.592 118.654C369.922 119.353 371.435 120.045 372.022 121.422C372.362 122.252 372.321 123.194 372.236 124.092C368.396 124.342 364.802 122.384 361.06 121.486C358.82 120.949 356.509 120.79 354.209 120.635" fill="white"/>
    <path d="M348.179 99.9179L363.208 113.364L364.131 111.946L365.088 111.429L365.641 110.943L353.944 99.0917L350.782 97.9129L348.179 99.9179Z" fill="#F78119"/>
    <path d="M366.224 94.7608C365.959 94.9186 365.781 95.1882 365.739 95.4927C365.579 95.8935 365.579 96.3404 365.739 96.7422C366.017 97.1809 366.591 97.3285 367.049 97.0794C367.488 96.8058 367.687 96.2727 367.534 95.7797C367.362 95.2989 366.936 94.9525 366.428 94.8817" fill="black"/>
    <path d="M379.835 91.8702C379.483 91.9717 379.207 92.2444 379.102 92.5929C379.066 92.8912 379.116 93.1936 379.247 93.4642C379.587 94.4257 379.984 95.422 380.72 96.1406C380.966 94.9792 381.132 93.8014 381.215 92.6165C381.273 91.698 380.581 91.6211 379.835 91.8702Z" fill="black"/>
    <path d="M355.042 95.2499L357.911 87.157L358.871 87.4943L356.002 95.5871L355.042 95.2499Z" fill="black"/>
    <path d="M313.899 118.923L313.458 118.012C313.867 117.808 314.217 117.504 314.475 117.128C313.035 116.767 311.695 116.083 310.56 115.13L309.939 114.606L310.682 114.269C311.093 114.089 311.51 113.931 311.934 113.786C310.651 113.199 309.525 112.155 308.463 111.085L306.529 109.158L307.251 108.442L309.182 110.369C310.645 111.828 312.236 113.249 314.065 113.253L314.153 114.266C313.388 114.4 312.636 114.601 311.907 114.866C312.934 115.565 314.098 116.041 315.324 116.26L315.934 116.368L315.711 116.942C315.375 117.804 314.729 118.51 313.899 118.923Z" fill="black"/>
    <path d="M365.036 122.59L364.174 122.215C363.581 121.974 363.037 121.632 362.563 121.202C361.341 120.653 360.402 119.625 359.967 118.364L360.93 118.025C361.284 119.052 362.062 119.881 363.069 120.301L363.2 120.355L363.282 120.466C363.404 120.599 363.546 120.713 363.703 120.804C363.516 119.697 363.309 118.526 363.106 117.357C362.834 115.804 362.563 114.252 362.325 112.844L363.343 112.676C363.58 114.083 363.852 115.632 364.124 117.182C364.395 118.732 364.659 120.254 364.894 121.648L365.036 122.59Z" fill="black"/>
    <path d="M352.225 123.019C351.586 121.625 351.352 120.082 351.546 118.563L352.563 118.691C352.398 120.024 352.6 121.377 353.15 122.603L352.225 123.019Z" fill="black"/>
    <path d="M325.815 124.571C325.428 124.331 325.591 123.974 325.764 123.6C325.998 123.086 326.714 121.527 326.68 120.899L327.698 120.848C327.739 121.608 327.237 122.816 326.68 124.012C326.619 124.143 326.575 124.24 326.558 124.284L326.09 124.109L326.483 124.446L325.815 124.571Z" fill="black"/>
    <path d="M301.765 121.078C301.974 121.014 302.163 120.898 302.314 120.74C302.576 120.45 302.548 120.008 302.508 119.619C302.348 118.118 299.637 119.319 299.193 120.109C298.195 121.898 300.825 121.408 301.765 121.078Z" fill="black"/>
    <path d="M308.647 131.887C309.212 131.258 309.562 130.465 309.647 129.625C309.68 129.463 309.645 129.295 309.548 129.16C309.453 129.078 309.334 129.027 309.21 129.014C308.846 128.936 308.419 128.879 308.15 129.136C308.067 129.227 307.999 129.333 307.95 129.447C307.702 129.953 307.052 131.134 307.126 131.742C307.22 132.64 308.127 132.457 308.647 131.887Z" fill="black"/>
    <path d="M365.243 129.75C364.869 129.689 364.792 129.119 365.063 128.855C365.369 128.623 365.772 128.559 366.136 128.686C366.743 128.846 367.274 129.215 367.632 129.73C367.883 130.09 368.025 130.617 367.734 130.948C367.525 131.152 367.225 131.235 366.94 131.168C366.663 131.1 366.4 130.986 366.163 130.831L364.965 130.111" fill="black"/>
    <path d="M354.565 99.3009C354.029 99.9415 353.552 100.631 353.144 101.36C353.072 101.491 353.011 101.674 353.127 101.768C353.188 101.806 353.262 101.823 353.334 101.815H355.651C355.72 101.808 355.789 101.824 355.848 101.859C355.94 101.927 355.936 102.058 355.923 102.17L355.763 103.601C355.721 103.784 355.739 103.976 355.814 104.148C355.989 104.367 356.256 104.492 356.537 104.486C357.756 104.637 358.989 104.637 360.208 104.486" fill="#FFFEFD"/>
    <path d="M357.44 105.279C357.012 105.279 356.587 105.238 356.167 105.158C355.919 105.123 355.685 105.023 355.489 104.867C355.007 104.449 355.069 103.754 355.339 103.247C355.394 103.146 355.455 103.047 355.519 102.953C355.62 102.807 355.697 102.644 355.743 102.473H355.676L352.083 102.329L352.448 101.624C352.656 101.218 352.815 100.847 352.968 100.489C353.17 99.9711 353.418 99.4719 353.707 98.9963C352.883 98.9215 352.064 98.7902 351.258 98.6047C350.714 98.494 350.203 98.3894 349.707 98.3177L349.849 97.3049C350.379 97.3798 350.928 97.4946 351.465 97.6022C352.564 97.8318 353.701 98.0645 354.712 97.9702L356.069 97.839L355.129 98.821C354.585 99.4196 354.164 100.12 353.894 100.88C353.826 101.042 353.755 101.207 353.681 101.376L355.716 101.457C355.983 101.449 356.244 101.532 356.456 101.694C356.699 101.918 356.813 102.25 356.758 102.575C356.698 102.901 356.568 103.21 356.374 103.48C356.324 103.558 356.276 103.635 356.232 103.716C356.161 103.828 356.132 103.963 356.151 104.094C356.214 104.125 356.283 104.144 356.354 104.151C356.855 104.25 357.366 104.279 357.874 104.239L357.956 105.252C357.779 105.273 357.61 105.279 357.44 105.279Z" fill="black"/>
    <path d="M387.258 112.685C384.669 111.281 381.737 109.691 379.793 107.143L379.284 106.467C378.508 105.356 377.622 104.324 376.641 103.386L377.319 102.629C378.352 103.611 379.285 104.694 380.101 105.859L380.607 106.535C382.429 108.897 385.26 110.447 387.757 111.804L387.258 112.685Z" fill="#232F61"/>
    <path d="M386.81 114.13C386.589 113.02 386.667 111.72 387.505 110.954C387.979 110.576 388.531 110.31 389.121 110.174C390.043 109.887 391.054 109.627 391.95 109.982C392.846 110.335 393.409 111.598 392.741 112.293C392.473 112.574 392.015 112.898 392.229 113.222C392.352 113.352 392.516 113.435 392.694 113.459C393.439 113.716 393.893 114.465 393.776 115.24L392.599 115.295C392.232 116.307 393.125 117.536 392.633 118.508C392.435 118.858 392.122 119.128 391.747 119.275C388.615 120.645 387.241 116.315 386.81 114.13Z" fill="#B8EAF8"/>
    <path d="M370.672 83.4544C370.672 83.4544 381.73 93.0417 390.905 88.9066C390.918 88.9066 386.484 80.7031 370.672 83.4544Z" fill="#161D3C"/>
    <path d="M248.224 63.9004L248.766 63.0429L349.521 99.2689L348.979 100.127L248.224 63.9004Z" fill="#F78119"/>
    <path d="M143.424 104.611L121.23 112.408C121.267 112.588 122.37 117.675 122.889 120.038C123.262 121.732 123.637 123.42 124.015 125.101C124.192 125.901 124.541 126.789 124.555 127.626C124.496 128.347 124.799 129.05 125.366 129.503C126.791 130.865 128.38 132.048 130.096 133.024C130.812 133.432 131.653 133.814 132.437 133.561C132.885 133.381 133.28 133.091 133.583 132.717C133.791 132.526 133.944 132.284 134.025 132.014C134.058 131.589 133.921 131.167 133.645 130.84C133.53 130.661 133.407 130.503 133.289 130.31C132.423 129.044 130.937 127.444 130.636 125.922C130.482 125.128 130.856 124.018 130.974 123.221C131.11 122.293 131.246 121.367 131.385 120.44C131.697 118.331 132.017 116.22 132.346 114.11L147.529 110.508" fill="#DBA258"/>
    <path d="M112.149 115.576L120.534 123.002C120.696 123.158 120.952 123.158 121.114 123.002L131.972 117.054C132.172 116.855 132.074 116.932 132.203 117.182L130.937 125.459C131.016 125.61 130.994 125.793 130.883 125.922L127.829 129.44C127.68 129.613 127.696 129.873 127.866 130.027L132.634 134.29C132.801 134.44 132.82 134.695 132.677 134.868L129.366 138.834C129.293 138.921 129.188 138.976 129.074 138.984C128.96 138.993 128.848 138.956 128.762 138.881L107.82 120.557C107.65 120.406 107.633 120.146 107.783 119.974L111.539 115.61C111.613 115.521 111.721 115.468 111.837 115.461C111.952 115.455 112.065 115.496 112.149 115.576Z" fill="#FFFEFD"/>
    <path d="M129.675 139.719L128.06 139.351C127.847 139.314 127.647 139.233 127.47 139.111C127.213 138.887 127.042 138.582 126.988 138.247C126.988 138.192 126.957 138.139 126.943 138.088C126.804 137.67 126.455 137.355 126.024 137.258C125.921 137.236 125.817 137.222 125.712 137.213C125.393 137.201 125.081 137.117 124.799 136.967C124.377 136.665 124.079 136.221 123.961 135.718C123.911 135.565 123.852 135.416 123.784 135.269C123.57 134.857 123.168 134.574 122.705 134.509C122.642 134.501 122.579 134.495 122.515 134.493C122.283 134.485 122.054 134.439 121.837 134.355C121.233 134.091 121.036 133.501 120.876 133.028C120.811 132.774 120.695 132.535 120.537 132.326C120.297 132.132 120.011 132.005 119.706 131.958C119.291 131.873 118.9 131.703 118.556 131.458C118.166 131.103 117.879 130.651 117.724 130.148C117.601 129.442 116.992 128.923 116.272 128.909C115.225 128.82 114.356 128.068 114.121 127.049C114.031 126.719 113.859 126.417 113.622 126.168C113.358 125.993 113.058 125.877 112.743 125.83C112.178 125.762 111.653 125.502 111.257 125.094C111.048 124.813 110.897 124.493 110.812 124.153C110.707 123.815 110.633 123.603 110.473 123.522C110.314 123.466 110.146 123.444 109.978 123.457C109.656 123.479 109.333 123.422 109.038 123.292C108.577 123.024 108.258 122.566 108.166 122.043L108.115 121.834C108.076 121.595 107.99 121.365 107.864 121.159C107.802 121.072 107.703 121.02 107.596 121.017L106.948 120.238C107.172 120.056 107.462 119.974 107.749 120.011C108.118 120.06 108.452 120.253 108.678 120.547C108.891 120.862 109.036 121.217 109.102 121.591C109.119 121.658 109.133 121.723 109.15 121.786C109.181 122.023 109.303 122.238 109.489 122.387C109.646 122.44 109.813 122.46 109.978 122.444C110.319 122.424 110.661 122.492 110.969 122.64C111.384 122.924 111.67 123.36 111.763 123.853C111.813 124.066 111.9 124.269 112.02 124.454C112.282 124.675 112.605 124.81 112.947 124.841C113.414 124.914 113.858 125.094 114.243 125.368C114.624 125.723 114.902 126.173 115.047 126.671C115.14 126.995 115.305 127.293 115.529 127.545C115.813 127.738 116.138 127.862 116.479 127.907C116.977 127.984 117.449 128.181 117.853 128.481C118.22 128.835 118.492 129.274 118.644 129.76C118.743 130.095 118.922 130.403 119.166 130.654C119.405 130.808 119.671 130.914 119.95 130.969C120.445 131.06 120.902 131.295 121.263 131.643C121.519 131.956 121.704 132.318 121.806 132.707C121.939 133.102 122.03 133.348 122.21 133.426C122.319 133.463 122.434 133.48 122.549 133.48L122.794 133.504C123.593 133.61 124.288 134.101 124.653 134.817C124.741 135 124.817 135.19 124.88 135.384C124.996 135.722 125.094 135.989 125.281 136.096C125.438 136.166 125.607 136.204 125.78 136.208C125.919 136.208 126.058 136.238 126.194 136.265C126.985 136.438 127.624 137.017 127.873 137.784C127.894 137.852 127.91 137.92 127.931 137.99C127.95 138.101 127.99 138.207 128.046 138.304C128.11 138.332 128.177 138.352 128.246 138.365L129.858 138.733L129.675 139.719Z" fill="black"/>
    <path d="M219.837 120.602L227.882 142.612C227.882 142.612 251.345 137.409 252.017 136.872C252.689 136.336 253.49 134.206 250.677 134.206C247.864 134.206 229.49 131.536 229.49 131.536L225.738 116.462" fill="#BF8B4C"/>
    <path d="M225.944 143.243L237.749 140.305C237.968 140.252 238.106 140.037 238.061 139.816L236.612 132.609C236.586 132.478 236.623 132.343 236.714 132.244C236.805 132.146 236.938 132.097 237.07 132.113L245.53 133.024C245.701 133.043 245.843 133.163 245.889 133.328L247.151 137.804C247.18 137.91 247.25 138 247.345 138.054C247.441 138.11 247.554 138.124 247.66 138.094L253.874 136.481C254.092 136.426 254.315 136.55 254.382 136.765L255.882 141.703C255.915 141.812 255.902 141.929 255.846 142.027C255.791 142.127 255.697 142.199 255.587 142.226L227.726 149.576C227.505 149.634 227.278 149.507 227.214 149.289L225.629 143.769C225.595 143.657 225.61 143.537 225.67 143.437C225.73 143.336 225.83 143.266 225.944 143.243Z" fill="#FFFEFD"/>
    <path d="M230.222 149.997C229.949 149.991 229.677 149.941 229.418 149.848L229.208 149.778C228.987 149.679 228.748 149.623 228.506 149.613C228.4 149.617 228.301 149.671 228.242 149.758L227.223 149.866C227.194 149.579 227.285 149.294 227.474 149.075C227.718 148.795 228.065 148.623 228.438 148.6C228.819 148.597 229.197 148.673 229.547 148.822L229.738 148.89C229.95 148.99 230.192 149.007 230.416 148.937C230.547 148.836 230.655 148.707 230.735 148.563C230.905 148.267 231.149 148.02 231.445 147.847C231.91 147.656 232.434 147.656 232.899 147.847C233.106 147.923 233.325 147.963 233.545 147.965C233.875 147.868 234.167 147.674 234.383 147.408C234.702 147.06 235.098 146.791 235.539 146.621C236.048 146.503 236.578 146.522 237.077 146.676C237.398 146.775 237.738 146.802 238.071 146.754C238.391 146.626 238.676 146.425 238.902 146.166C239.555 145.347 240.661 145.036 241.647 145.392C241.984 145.496 242.34 145.515 242.686 145.45C242.945 145.336 243.181 145.175 243.381 144.974C243.727 144.614 244.17 144.362 244.657 144.248C245.06 144.208 245.468 144.256 245.852 144.387C246.256 144.495 246.513 144.552 246.676 144.447C246.768 144.374 246.849 144.286 246.913 144.188L247.066 144.002C247.596 143.397 248.392 143.088 249.194 143.178C249.396 143.208 249.597 143.25 249.794 143.303C249.987 143.436 250.227 143.479 250.453 143.423C250.681 143.368 250.872 143.218 250.981 143.013C251.069 142.904 251.162 142.799 251.26 142.699C251.841 142.14 252.677 141.929 253.456 142.145L253.663 142.21C253.769 142.258 253.884 142.284 254.001 142.288C254.062 142.25 254.117 142.204 254.165 142.152L255.362 141.017L256.065 141.75L254.867 142.888C254.719 143.044 254.539 143.165 254.338 143.243C254.009 143.333 253.658 143.306 253.346 143.168L253.187 143.118C252.761 143.003 252.306 143.118 251.986 143.421C251.911 143.496 251.847 143.577 251.779 143.658C251.3 144.387 250.353 144.654 249.561 144.285C249.404 144.243 249.246 144.21 249.085 144.184C248.621 144.137 248.161 144.314 247.85 144.661C247.809 144.708 247.772 144.758 247.735 144.805C247.602 144.998 247.436 145.165 247.243 145.298C246.686 145.656 246.083 145.494 245.601 145.363C245.355 145.277 245.094 145.238 244.834 145.248C244.538 145.34 244.273 145.509 244.064 145.737C243.764 146.032 243.406 146.263 243.011 146.412C242.499 146.538 241.961 146.527 241.453 146.379C241.124 146.281 240.776 146.26 240.436 146.314C240.122 146.445 239.843 146.644 239.619 146.898C238.967 147.719 237.858 148.027 236.874 147.661C236.545 147.553 236.195 147.529 235.855 147.587C235.567 147.721 235.312 147.916 235.106 148.158C234.735 148.59 234.228 148.882 233.667 148.984C233.321 149.001 232.975 148.948 232.649 148.833C232.31 148.735 232.086 148.681 231.94 148.752C231.801 148.853 231.686 148.981 231.6 149.13C231.437 149.403 231.212 149.634 230.942 149.805C230.724 149.932 230.476 149.999 230.222 149.997Z" fill="black"/>
    <path d="M177.262 47.084C177.262 47.084 165.206 93.5239 164.425 93.9052L135.852 105.215L140.677 118.481L176.441 105.505L190.111 64.4859L219.02 126.6L233.425 120.234L198.536 44.65L177.262 47.084Z" fill="#B8EAF8"/>
    <path d="M200.52 25.3779L227.264 49.1095C231.337 52.7081 240.677 60.9483 240.677 60.9483C240.677 60.9483 242.323 56.8771 252.787 63.3282C252.326 64.6785 249.49 63.6657 249.917 64.5367C250.436 65.5967 248.427 68.6247 246.788 70.8291C245.713 72.2739 241.122 68.8915 240.789 68.3548C239.246 65.8635 235.232 63.1392 233.029 61.3365C230.827 59.5338 228.577 57.7312 226.332 55.9522C224.2 54.2643 222.062 52.5877 219.915 50.9222C218.842 50.0873 217.768 49.2558 216.691 48.4276C216.285 48.1171 215.816 47.5904 215.358 47.3709C214.9 47.1516 214.517 47.3474 214.035 47.4959C213.611 47.6524 213.158 47.7135 212.708 47.6748C212.254 47.629 211.861 47.3367 211.69 46.9153C211.639 46.7284 211.619 46.5347 211.629 46.3414C211.629 45.3286 211.744 44.8932 210.974 44.2619C210.669 44.0088 210.366 43.7488 210.062 43.4922L198.46 33.7195" fill="#DBA258"/>
    <path d="M168.961 21.2596L204.031 22.2688L197.616 35.3972L201.158 44.8831L174.545 47.9585L177.887 31.0222L172.625 32.9194L168.961 21.2596Z" fill="#F2F2F2"/>
    <path d="M156.681 36.292C156.358 36.292 135.433 41.8452 135.11 41.8452C134.788 41.8452 123.414 42.6991 123.414 42.6991L151.207 57.9644L164.461 59.1358L162.689 37.254L156.243 36.0793" fill="#232F61"/>
    <path d="M160.386 48.6437C159.493 48.4142 133.051 44.4307 119.193 42.3581L119.346 41.3453C160.478 47.5027 160.701 47.6513 160.821 47.7289L160.256 48.5728L160.539 48.1509L160.386 48.6437Z" fill="#A5B0DF"/>
    <path d="M133.574 41.2766L161.918 39.8628L161.969 40.8743L133.625 42.288L133.574 41.2766Z" fill="#A5B0DF"/>
    <path d="M148.189 50.1362L160.612 49.5556L160.659 50.5672L148.237 51.1478L148.189 50.1362Z" fill="#B8C0E6"/>
    <path d="M127.233 40.6365L127.807 39.8002L143.063 50.169L142.488 51.0052L127.233 40.6365Z" fill="#A5B0DF"/>
    <path d="M156.506 37.774C157.147 38.9387 158.572 39.4383 159.424 40.4746C159.501 40.5507 159.549 40.6509 159.559 40.7583C159.543 40.8828 159.475 40.995 159.373 41.0687C158.82 41.5717 158.063 41.8486 157.616 42.4461C157.082 43.1517 157.12 44.1543 157.435 44.9813C157.751 45.8084 158.304 46.5206 158.766 47.2768C158.824 47.355 158.857 47.4493 158.86 47.5469C158.86 47.7596 158.596 47.8575 158.396 47.9317C157.134 48.3841 156.38 49.758 156.316 51.0914C156.251 52.4248 156.757 53.7211 157.372 54.9128C157.781 55.7095 158.325 56.5467 159.19 56.7965C159.939 57.0125 161.012 56.8876 161.243 57.6269C161.413 58.1569 160.937 58.7578 161.168 59.2642C161.283 59.4736 161.462 59.6405 161.68 59.7401C162.227 60.0332 162.837 60.1907 163.459 60.1992C164.137 60.1992 164.632 59.8211 165.271 59.5848C165.234 60.0396 165.221 60.496 165.233 60.952C165.224 61.1127 165.264 61.2723 165.345 61.4112C165.454 61.5306 165.597 61.6141 165.756 61.6508C166.435 61.9136 167.158 62.0475 167.886 62.0458C168.624 62.0409 169.32 61.7046 169.779 61.1309C169.871 61.0061 169.983 60.8508 170.136 60.871C170.237 60.8972 170.324 60.9598 170.381 61.0466C170.819 61.567 171.397 61.9541 172.047 62.1639C172.684 62.3664 173.512 62.3259 173.865 61.7589C174.326 61.0195 173.645 60.3207 173.729 59.5815C173.757 59.3249 173.919 59.0988 173.967 58.8422C174 58.4155 174.011 57.9873 174.001 57.5594C174.048 56.9382 174.066 56.5736 174.679 56.4825C175.294 56.3914 176.172 56.6412 176.803 56.6175C177.757 56.5838 178.222 55.2672 179.179 55.1356C179.552 55.132 179.922 55.2103 180.261 55.3652C181.119 55.6521 182.297 55.5981 182.673 54.7811C182.986 54.106 182.596 53.3363 182.076 52.8198C181.924 52.6679 181.737 52.4822 181.737 52.2797C181.775 52.084 181.883 51.9087 182.042 51.7868C182.612 51.2062 183.003 50.3352 182.683 49.5892C182.426 48.9849 181.792 48.6474 181.262 48.2389C180.732 47.8304 180.244 47.2261 180.441 46.5882C180.537 46.3517 180.681 46.1377 180.865 45.9603L182.202 44.4715C182.589 44.0428 182.3 43.6006 182.507 43.0673C182.714 42.5339 182.361 41.8722 181.984 41.4401C181.279 40.6367 180.763 40.9742 180.166 40.0898C179.715 39.4147 179.871 39.0569 180.454 38.4931C181.038 37.9293 181.743 37.2812 182.12 36.5622C182.497 35.8431 182.056 34.9249 181.666 34.2396C181.276 33.5544 181.201 33.5949 180.454 33.3383C180.323 33.291 180.756 32.1365 180.661 32.0352C180.323 31.647 180.457 31.4142 180.522 30.8942C180.587 30.3743 180.122 30.8739 179.576 30.8031C179.029 30.7322 178.425 30.8807 177.94 30.6241C177.563 30.425 177.282 28.8418 176.858 28.8047C172.901 28.4671 174.764 32.9838 173.495 33.8379C172.874 34.2565 172.742 33.0749 172.28 32.2108C171.819 31.3466 170.971 30.7423 168.799 31.6774C167.506 32.2344 166.013 31.9138 164.609 31.988C162.322 32.1062 154.321 33.8008 156.506 37.774Z" fill="#B8EAF8"/>
    <path d="M170.094 25.0104C163.131 26.9988 156.135 29.4698 149.034 30.8438C148.33 30.9822 147.574 31.151 147.117 31.6979C146.6 32.3592 146.678 33.3033 147.296 33.8718C147.455 33.9856 147.607 34.1109 147.748 34.2466C148.426 35.0399 147.432 36.461 147.238 37.332C147.025 38.2772 146.845 39.2326 146.654 40.1812C146.162 42.6286 145.698 45.0794 145.277 47.537C144.87 49.9 144.486 52.263 144.259 54.6665C144.164 55.7062 143.744 57.6811 144.395 58.6331C145.507 60.2635 152.877 62.2181 157.044 58.4204L148.372 55.9189L154.011 37.4907L172.368 32.059" fill="#DBA258"/>
    <path d="M169.745 51.7326C169.745 51.7326 174.267 43.6882 185.013 42.3379C185.013 42.3379 182.639 51.1688 169.745 51.7326Z" fill="#A5B0DF"/>
    <path d="M163.128 46.6116C163.128 46.6116 162.164 55.5033 168.217 59.6083C168.217 59.6083 172.174 53.0256 163.128 46.6116Z" fill="#A5B0DF"/>
    <path d="M151.781 44.8596C154.946 45.2757 158.164 44.9284 161.167 43.8468C161.167 43.8468 157.095 41.0889 153.08 40.4137" fill="#A5B0DF"/>
    <path d="M150.679 50.4296C150.679 50.4296 153.335 59.1493 162.555 60.4422C162.555 60.4422 160.519 51.8914 150.679 50.4296Z" fill="#A5B0DF"/>
    <path d="M132.312 43.4754C132.312 43.4754 131.294 52.5326 139.25 57.3431C139.25 57.3499 140.777 48.6876 132.312 43.4754Z" fill="#A5B0DF"/>
    <path d="M146.695 40.0493C146.526 39.9918 141.154 41.9059 141.154 41.9059L146.016 43.2562" fill="#B8C0E6"/>
    <path d="M165.116 42.5675C165.116 42.5675 167.153 33.7635 174.858 31.5963C174.858 31.5963 173.541 40.2619 165.116 42.5675Z" fill="#A5B0DF"/>
    <path d="M172.88 62.7244C172.449 62.713 172.023 62.6274 171.621 62.4712C170.978 62.2805 170.413 61.8917 170.006 61.3607C169.799 61.6174 169.552 61.8386 169.273 62.0156C168.38 62.5422 167.304 62.665 166.315 62.3531C165.755 62.2247 165.275 61.8666 164.995 61.3674C164.815 60.9327 164.783 60.4514 164.903 59.9968C165.12 58.9646 165.626 58.0144 166.362 57.2557L167.091 57.9613C166.483 58.585 166.064 59.3684 165.886 60.2196C165.771 60.4686 165.785 60.7584 165.928 60.9941C166.069 61.2298 166.318 61.3809 166.593 61.3978C167.301 61.6221 168.072 61.5362 168.714 61.1615C169.181 60.864 169.5 60.3832 169.592 59.8382C169.592 59.6661 169.592 59.5006 169.592 59.3555L170.61 59.3082C170.634 59.501 170.634 59.696 170.61 59.8888C170.6 60.1929 170.67 60.4943 170.814 60.7632C171.096 61.1368 171.499 61.4036 171.954 61.5193C172.567 61.7421 173.012 61.7724 173.311 61.6105C173.803 61.3539 173.887 60.5606 173.633 60.0238C173.318 59.3487 172.615 58.8525 172.018 58.4136L172.615 57.5933C173.294 58.0794 174.128 58.6836 174.557 59.5951C175.011 60.564 174.845 61.9582 173.786 62.5084C173.506 62.6523 173.196 62.7264 172.88 62.7244Z" fill="#EAF9FD"/>
    <path d="M176.242 57.2963H176.164C175.484 57.2771 174.84 56.9877 174.375 56.4929C173.593 55.5473 173.446 54.2313 173.999 53.1374L174.915 53.5796C174.538 54.3019 174.624 55.1773 175.132 55.8143C175.41 56.1048 175.792 56.2737 176.195 56.2836C176.518 56.3006 176.835 56.1889 177.076 55.973C177.41 55.6097 177.702 55.2113 177.948 54.7848C178.173 54.4235 178.288 54.2581 178.526 54.2108L178.743 54.167L178.929 54.2986C179.449 54.6229 180.036 54.826 180.646 54.8928C181.415 55.021 181.893 54.8736 182.078 54.4505C182.156 54.2392 182.156 54.007 182.078 53.7956C181.868 53.284 181.499 52.8523 181.026 52.5635C180.809 52.4013 180.711 52.1266 180.776 51.8647C180.839 51.6023 181.059 51.4062 181.328 51.3718C181.655 51.3334 181.958 51.1844 182.187 50.9498C182.469 50.647 182.569 50.2176 182.448 49.8224C182.347 49.573 182.185 49.3525 181.976 49.181C181.405 48.6709 180.664 48.3874 179.896 48.3843V47.3716C180.915 47.3759 181.897 47.7519 182.655 48.4282C182.992 48.7108 183.252 49.0745 183.408 49.4848C183.659 50.2356 183.475 51.0629 182.929 51.6386C182.714 51.8673 182.455 52.0508 182.167 52.1787C182.572 52.5294 182.877 52.9816 183.049 53.4885C183.195 53.9295 183.18 54.4081 183.005 54.8388C182.625 55.7198 181.722 56.0912 180.47 55.8819C179.882 55.7996 179.309 55.6289 178.773 55.3755C178.497 55.8486 178.168 56.2881 177.79 56.6853C177.375 57.0847 176.819 57.3045 176.242 57.2963Z" fill="#EAF9FD"/>
    <path d="M182.685 43.4588L181.864 42.8579C182.174 42.4428 182.171 41.8741 181.857 41.4628C181.542 41.0513 180.992 40.8962 180.507 41.0822C180.34 41.1461 180.152 41.1234 180.005 41.0214C179.737 40.8391 179.737 40.5522 179.74 40.191C179.76 39.8944 179.724 39.5968 179.635 39.3133C179.407 38.8576 178.705 38.7428 178.155 38.8947C176.994 39.2579 176.256 40.3919 176.398 41.5953L175.38 41.7472C175.157 40.035 176.212 38.4135 177.874 37.9158C178.831 37.649 180.053 37.8921 180.538 38.861C180.689 39.2219 180.759 39.6112 180.745 40.002C181.597 39.9333 182.412 40.3667 182.828 41.1104C183.242 41.8541 183.184 42.7709 182.675 43.4554L182.685 43.4588Z" fill="#EAF9FD"/>
    <path d="M182.764 37.2706L182.143 36.4671C182.655 36.0764 182.813 35.3776 182.519 34.8061C182.225 34.2346 181.563 33.9535 180.944 34.1379L180.65 33.169C180.96 33.0384 181.198 32.7799 181.301 32.4609C181.404 32.1418 181.361 31.794 181.185 31.5081C180.965 31.2498 180.632 31.1129 180.294 31.1402C179.952 31.1365 179.63 31.2991 179.431 31.5757L178.559 31.0559C178.689 30.8047 178.709 30.5123 178.617 30.2457C178.529 29.9307 178.318 29.6643 178.03 29.5064C177.413 29.2314 176.688 29.3858 176.238 29.8878C175.778 30.437 175.639 31.1859 175.872 31.8626L174.902 32.1732C174.562 31.1527 174.78 30.0298 175.478 29.2092C176.242 28.3667 177.472 28.1225 178.501 28.6084C179.033 28.8946 179.427 29.381 179.595 29.9587C179.62 30.0498 179.642 30.1422 179.658 30.2355C179.852 30.1759 180.053 30.1418 180.256 30.1343C180.93 30.0762 181.587 30.3664 181.997 30.9028C182.405 31.4394 182.509 32.147 182.272 32.7775C182.222 32.9306 182.156 33.0778 182.075 33.2163C182.658 33.4068 183.144 33.8145 183.432 34.354C183.92 35.3623 183.642 36.5723 182.764 37.2706Z" fill="#EAF9FD"/>
    <path d="M167.651 50.6355C167.002 50.6346 166.386 50.3583 165.954 49.8759L166.725 49.2008C166.998 49.5222 167.421 49.6767 167.84 49.6075C168.256 49.5382 168.607 49.2555 168.761 48.8631C168.837 48.6299 168.887 48.3886 168.907 48.1442C168.93 47.9169 168.967 47.6914 169.018 47.469C169.063 47.2559 169.173 47.0621 169.335 46.9153C169.551 46.7604 169.815 46.6863 170.081 46.7061C170.437 46.7061 171.051 46.6588 171.281 46.2976C171.433 45.9876 171.376 45.617 171.139 45.3658C170.831 45.0579 170.424 44.8649 169.989 44.819L169.225 44.7009L169.633 44.0494C169.881 43.7195 170.052 43.339 170.136 42.9353C170.152 42.6102 170.028 42.2934 169.796 42.0643C169.48 41.7273 169.034 41.5396 168.571 41.5479C167.548 41.6531 166.625 42.2 166.043 43.0434L165.171 42.5235C165.931 41.3871 167.167 40.6556 168.533 40.5352C169.288 40.5232 170.013 40.824 170.535 41.3656C170.977 41.8034 171.202 42.4118 171.153 43.0298C171.117 43.3682 171.014 43.6961 170.851 43.9953C171.263 44.1372 171.632 44.3826 171.92 44.7077C172.449 45.2973 172.541 46.1576 172.147 46.8445C171.774 47.4217 171.071 47.7221 170.084 47.7188H170.013C169.972 47.8956 169.942 48.0749 169.924 48.2556C169.896 48.5863 169.824 48.9119 169.711 49.2244C169.414 49.9332 168.774 50.4423 168.015 50.5747C167.895 50.6054 167.774 50.6258 167.651 50.6355Z" fill="#EAF9FD"/>
    <path d="M161.505 55.9189C161.235 55.9208 160.966 55.8645 160.719 55.7535C160.007 55.4328 159.617 54.6633 159.779 53.9036L160.763 54.1601C160.725 54.4442 160.879 54.7193 161.143 54.8353C161.481 54.9657 161.861 54.9227 162.16 54.7205C162.512 54.4833 162.788 54.1505 162.955 53.7617L163.254 53.1373L163.762 53.6132C164.256 54.0627 164.949 54.2262 165.595 54.0454C165.878 53.97 166.129 53.8054 166.311 53.5761C166.457 53.3835 166.505 53.1337 166.439 52.901L167.4 52.5634C167.575 53.1077 167.478 53.7025 167.138 54.1635C166.826 54.5737 166.388 54.8712 165.889 55.0108C165.109 55.2352 164.271 55.1314 163.569 54.7239C163.343 55.0676 163.046 55.3589 162.697 55.5779C162.34 55.8011 161.927 55.9194 161.505 55.9189Z" fill="#EAF9FD"/>
    <path d="M162.435 40.5057L161.757 39.7394C162.129 39.3583 162.291 38.8196 162.188 38.2979C162.178 38.1525 162.126 38.013 162.039 37.8962C161.893 37.7477 161.547 37.7477 161.193 37.7679L160.373 37.8185L160.695 37.0657C160.868 36.664 161.034 36.2522 160.902 35.9686C160.75 35.6311 160.172 35.5096 159.724 35.5264C159.283 35.5097 158.85 35.6431 158.496 35.9045C158.244 36.1051 158.154 36.4472 158.275 36.7451L157.411 37.2784C156.959 36.5627 157.268 35.6311 157.825 35.145C158.354 34.7243 159.014 34.5009 159.69 34.5137C160.726 34.4765 161.533 34.8715 161.835 35.5669C161.988 35.9515 162.006 36.3761 161.886 36.772C162.221 36.8088 162.533 36.9576 162.772 37.1941C163.011 37.4599 163.159 37.7943 163.196 38.1494C163.356 39.012 163.07 39.8969 162.435 40.5057Z" fill="#EAF9FD"/>
    <path d="M171.618 41.7684L170.78 41.198C171.072 40.7728 171.312 40.3137 171.493 39.8308C171.592 39.6205 171.631 39.3863 171.602 39.1555C171.51 38.791 170.947 38.575 170.468 38.4298L169.905 38.2576L170.159 37.7243C170.381 37.2578 170.497 36.7483 170.499 36.2322C170.517 36.0799 170.484 35.9261 170.407 35.7934C170.3 35.7084 170.173 35.6525 170.037 35.6313C168.946 35.3692 167.796 35.512 166.804 36.033C166.674 36.0917 166.565 36.1881 166.492 36.3098C166.496 36.2944 166.496 36.2779 166.492 36.2625L165.552 36.6575C165.324 36.1208 165.633 35.5097 166.328 35.1385C167.548 34.5106 168.956 34.3473 170.288 34.6793C170.629 34.7442 170.942 34.9115 171.184 35.1587C171.428 35.4761 171.548 35.8706 171.523 36.2693C171.52 36.7456 171.441 37.2185 171.289 37.6702C171.798 37.8796 172.412 38.2476 172.589 38.9362C172.671 39.3627 172.622 39.8043 172.446 40.202C172.236 40.7563 171.958 41.2824 171.618 41.7684Z" fill="#EAF9FD"/>
    <path d="M138.524 41.2882C138.524 41.035 141.192 37.6863 145.65 35.1579L143.153 41.3524" fill="#A5B0DF"/>
    <path d="M250.105 65.8443C249.952 66.0801 249.636 66.1479 249.397 65.9984C248.005 65.1275 246.309 64.1676 244.534 63.2446C244.284 63.1148 244.186 62.8098 244.315 62.5615C244.444 62.3121 244.754 62.2144 245.004 62.345C246.808 63.2854 248.533 64.2631 249.951 65.1508C250.188 65.2992 250.256 65.6103 250.105 65.8443Z" fill="#FFBE71"/>
    <path d="M249.284 67.6997C249.154 67.9492 248.845 68.0469 248.595 67.9141C247.811 67.4964 246.758 66.9132 245.734 66.3463C244.884 65.8742 244.011 65.3909 243.315 65.0161C243.068 64.8827 242.973 64.5766 243.105 64.3298C243.238 64.0826 243.547 63.9887 243.795 64.1233C244.497 64.5046 245.375 65 246.229 65.4619C247.246 66.0197 248.292 66.6029 249.067 67.0153C249.314 67.1473 249.412 67.4516 249.284 67.6997Z" fill="#FFBE71"/>
    <path d="M248.468 69.7915C248.341 70.0431 248.03 70.145 247.776 70.0194C247.153 69.7119 246.042 69.1676 244.933 68.6215L242.08 67.2202C241.826 67.0956 241.723 66.7906 241.85 66.5399C241.977 66.2909 242.282 66.1897 242.534 66.3135L245.383 67.7134C246.503 68.2626 247.621 68.8117 248.244 69.1193C248.494 69.2432 248.594 69.5436 248.468 69.7915Z" fill="#FFBE71"/>
    <path d="M242.626 70.1266C242.368 70.0148 242.25 69.7174 242.363 69.4616C242.475 69.2046 242.777 69.0871 243.036 69.1995L246.98 70.9099C247.238 71.0217 247.356 71.3191 247.244 71.5749C247.132 71.8318 246.83 71.9493 246.571 71.837L242.626 70.1266Z" fill="#FFBE71"/>
    <path d="M191.491 14.2954C191.76 14.296 192.027 14.242 192.274 14.1367C192.672 13.9175 192.954 13.5385 193.048 13.097C193.131 12.7555 193.148 12.4017 193.099 12.0539C193.113 11.7383 193.292 11.4529 193.57 11.3011C193.874 11.1481 194.165 10.9709 194.439 10.7711C194.135 10.4434 193.915 10.0473 193.798 9.61661C193.737 9.39714 193.706 9.1744 193.666 8.9414C193.628 8.67848 193.551 8.42262 193.439 8.18194C193.323 7.95909 193.387 7.9962 193.368 7.9962H185.906C185.358 7.9962 184.915 8.43759 184.915 8.982V9.87994C185.011 11.3643 186.25 12.5193 187.745 12.5198C187.912 12.5194 188.08 12.5035 188.243 12.4725C187.594 13.5762 186.515 14.3639 185.262 14.6498L183.317 21.6748C184.124 22.6474 185.297 23.2478 186.561 23.3352C187.825 23.4227 189.07 22.9896 190.005 22.1373L190.174 21.9787C190.103 20.7229 188.984 14.9334 190.622 14.3865C190.907 14.3191 191.198 14.2884 191.491 14.2954Z" fill="#DBA258"/>
    <path d="M198.036 12.5434C196.542 12.5412 195.306 11.3867 195.21 9.9036H195.193V8.38108C195.193 8.34059 195.193 8.3001 195.193 8.25961C195.193 4.07595 191.784 0.684351 187.578 0.684351C187.309 0.683634 187.042 0.698292 186.774 0.728224C180.762 1.11313 179.503 7.51358 179.503 10.0285C179.503 12.6218 181.616 14.7241 184.223 14.7241H186.48C188.035 14.689 189.462 13.8583 190.256 12.5265L190.273 12.4996C190.108 12.5305 189.941 12.5464 189.774 12.5468C188.278 12.5464 187.041 11.3914 186.944 9.90698V9.00903C186.944 8.46463 187.388 8.02324 187.934 8.02324H192.997C193.12 8.02324 193.374 8.02324 193.374 8.02324C193.393 8.08289 193.418 8.14061 193.449 8.19545C193.561 8.43613 193.638 8.69209 193.677 8.95501C193.717 9.17776 193.748 9.4006 193.808 9.63011C193.926 10.0608 194.145 10.457 194.45 10.7846C194.175 10.9845 193.884 11.1618 193.581 11.3147C193.303 11.4664 193.124 11.7518 193.109 12.0675C193.159 12.4152 193.141 12.7691 193.059 13.1106C192.964 13.552 192.682 13.9311 192.285 14.1503L192.352 14.1908C194.547 15.3393 197.26 14.6017 198.562 12.5029C198.389 12.5338 198.212 12.5474 198.036 12.5434Z" fill="black"/>
    <path d="M193.089 12.138H191.732C191.964 12.6599 192.522 12.9594 193.089 12.8673V12.138Z" fill="#FFFEFD"/>
    <path d="M191.226 9.82589C191.357 9.82589 191.463 9.64906 191.463 9.43093C191.463 9.2128 191.357 9.03597 191.226 9.03597C191.095 9.03597 190.989 9.2128 190.989 9.43093C190.989 9.64906 191.095 9.82589 191.226 9.82589Z" fill="black"/>
    <path d="M156.27 37.0584C155.887 36.2369 155.933 35.2807 156.393 34.4994C156.854 33.7181 157.67 33.2111 158.577 33.1424C160.077 33.0277 161.682 34.1046 162.988 33.3788C163.396 33.104 163.763 32.7745 164.08 32.3998C165.041 31.4377 166.524 30.8166 167.78 31.3465C168.967 31.8462 169.649 33.2371 170.894 33.5678C171.274 33.6499 171.663 33.6783 172.052 33.6522L174.905 33.5948" fill="#B8EAF8"/>
    <path d="M221.365 109.479C220.246 108.898 219.057 108.463 217.826 108.183L216.944 107.937C215.987 107.656 215.024 107.329 214.08 106.961C213.019 106.542 211.979 106.069 210.965 105.546C207.127 103.562 203.71 100.86 200.902 97.5857L201.678 96.9317C204.405 100.105 207.722 102.726 211.447 104.648C212.428 105.15 213.435 105.601 214.464 105.998C215.376 106.36 216.31 106.674 217.24 106.943L218.108 107.19C219.421 107.493 220.691 107.961 221.884 108.585L221.365 109.479Z" fill="#161D3C"/>
    <path d="M205.709 101.4C205.709 101.4 210.534 107.7 209.7 118.09C209.7 118.09 202.937 112.034 205.709 101.4Z" fill="#232F61"/>
    <path d="M225.019 88.5392L221.113 89.6431C221.113 89.6431 219.302 88.968 218.891 91.3309C218.782 91.9552 217.911 92.6236 217.5 93.0459C216.138 94.3795 214.948 95.8761 213.957 97.5018C212.899 99.2874 211.599 100.82 210.31 102.437C209.828 103.038 209.832 103.555 209.722 104.294C209.564 105.125 209.477 105.969 209.465 106.815C209.465 107.596 209.496 108.449 210.021 109.031C210.547 109.611 211.456 109.749 212.265 109.742C214.035 109.726 216.136 109.358 217.374 108.099C216.919 107.909 216.272 107.794 215.8 107.609C215.46 107.467 215.423 107.369 215.413 106.904C215.413 106.742 215.338 106.59 215.484 106.518C215.732 106.394 216.163 106.565 216.563 106.698C216.964 106.829 217.581 107.008 217.581 107.008C217.628 106.593 217.58 106.174 217.442 105.779C217.171 105.153 216.829 104.558 216.424 104.007C216.195 103.725 216.004 103.414 215.858 103.082C215.711 102.748 215.703 102.369 215.837 102.028C215.994 101.742 216.217 101.496 216.489 101.313C217.6 100.39 218.63 99.3735 219.567 98.2747L222.42 95.1021L226.787 94.3692" fill="#DBA258"/>
    <path d="M244.255 75.4987C244.197 75.2758 244.136 75.053 244.078 74.8235C243.858 73.9863 243.868 73.2537 243.4 72.4604C242.626 71.1057 241.183 70.2662 239.616 70.2594C237.109 70.2594 235.077 72.2849 235.077 75.502V75.5492L232.261 75.053L234.592 80.8694L233.302 88.9375L241.727 89.059L240.665 86.0546C240.299 85.0182 238.697 82.267 240.401 81.7572C240.916 81.5985 241.473 81.7032 242.015 81.7235C242.559 81.7438 243.162 81.6459 243.492 81.2205C243.707 80.8789 243.808 80.4783 243.78 80.0761C243.78 79.6643 243.607 78.79 243.898 78.4423C244.013 78.3341 244.153 78.2573 244.306 78.2195L244.781 78.0574C244.84 78.0439 244.893 78.0106 244.93 77.9629C244.951 77.905 244.951 77.842 244.93 77.784C244.74 77.0143 244.466 76.2683 244.255 75.4987Z" fill="#DBA258"/>
    <path d="M235.032 81.1765C234.846 81.4855 234.63 81.7761 234.388 82.0442C234.588 81.8145 232.444 79.3976 232.243 78.9722C231.622 77.7154 231.34 76.3193 231.426 74.9212C231.707 71.0763 234.554 71.4138 234.554 71.4138C234.554 71.4138 234.778 69.7698 236.874 69.196C238.972 68.6221 243.413 69.2365 244.482 72.1835C244.74 72.8891 243.305 73.2739 242.911 73.3718C241.836 73.6351 240.682 73.4056 239.66 73.8444C238.626 74.2812 237.86 75.1806 237.597 76.2682C237.554 76.6714 237.458 77.0674 237.313 77.4464C237.149 77.8329 236.727 78.0435 236.318 77.9426C236.275 77.4291 236.125 76.9302 235.878 76.4775C235.613 76.0179 235.104 75.7539 234.574 75.8024C233.982 75.9591 233.584 76.5106 233.624 77.1189C233.682 77.7116 233.962 78.2615 234.404 78.6616C234.756 78.9391 235.05 79.2834 235.266 79.6743C235.432 80.1837 235.345 80.7411 235.032 81.1765Z" fill="black"/>
    <path d="M248.327 96.7995C249.68 97.0936 250.544 98.4139 250.267 99.7639L249.25 105.769C249.135 106.325 249.212 106.903 249.47 107.41L252.422 111.71C252.749 112.346 252.788 113.091 252.527 113.756C251.849 115.474 250.492 118.762 249.654 119.495C248.486 120.508 246.861 116.582 247.35 113.888C247.506 113.037 244.876 107.528 244.876 107.528C244.004 106.94 243.589 105.876 243.834 104.857L245.32 98.6804C245.638 97.3417 246.977 96.5042 248.327 96.7995Z" fill="#DBA258"/>
    <path d="M232.796 127.34C232.698 127.735 230.129 130.736 230.129 130.736L210.198 131.749L210.595 128.373L225.226 123.178L232.796 127.34Z" fill="#DBA258"/>
    <path d="M245.792 126.226L252.89 141.825L255.642 141.582L252.557 124.153L246.189 122.756L245.792 126.226Z" fill="#DBA258"/>
    <path d="M227.996 109.519L222.845 123.563L233.598 128.42L237.818 119.562L243.095 127.698L252.925 124.153L246.131 109.259L227.331 109.455" fill="#FFFEFD"/>
    <path d="M221.626 88.7818L234.052 85.953L234.154 86.2062C234.694 87.5569 236.012 88.4389 237.473 88.4261C238.934 88.4134 240.237 87.5087 240.753 86.1488L243.631 86.6889C247.32 87.3816 250.138 90.3651 250.603 94.0718L251.519 101.353L246.396 101.525L246.267 109.674L227.327 109.617L227.733 96.698L224.048 97.5119L221.626 88.7818Z" fill="#EAF9FD"/>
    <path d="M222.505 108.034C222.232 108.006 221.957 108.037 221.698 108.125C220.001 108.831 220.815 113.036 221.583 114.168C222.261 115.181 223.448 115.768 224.32 116.646C224.894 117.298 225.425 117.985 225.912 118.705C225.986 118.802 226.081 118.911 226.206 118.904C226.318 118.881 226.412 118.811 226.465 118.711C227.404 117.329 227.316 115.497 226.251 114.208L229.644 114.924C230.098 115.022 230.757 114.978 230.798 114.519C230.789 114.318 230.708 114.127 230.567 113.983C229.97 113.206 229.336 112.457 228.667 111.738C229.945 112.035 231.289 111.875 232.46 111.285C232.593 111.236 232.702 111.139 232.762 111.011C232.854 110.755 232.579 110.532 232.338 110.404C229.298 108.794 225.922 108.149 222.505 108.034Z" fill="#71DBF9"/>
    <path d="M245.304 93.6097L246.32 93.5451L246.845 101.671L245.83 101.735L245.304 93.6097Z" fill="#B8EAF8"/>
    <path d="M243.804 79.3401H242.08C242.08 79.3401 242.45 80.3798 243.824 80.2719L243.804 79.3401Z" fill="#FFFEFD"/>
    <path d="M241.716 77.4055C241.909 77.4055 242.066 77.1441 242.066 76.8215C242.066 76.499 241.909 76.2375 241.716 76.2375C241.524 76.2375 241.367 76.499 241.367 76.8215C241.367 77.1441 241.524 77.4055 241.716 77.4055Z" fill="black"/>
    <path d="M211.332 128.126L205.852 127.313L205.132 142.093C205.128 142.169 205.164 142.243 205.228 142.286C205.292 142.33 205.374 142.337 205.444 142.305L208.903 141.099L212.235 131.546L211.58 128.288" fill="black"/>
    <path d="M252.365 141.023L252.674 146.792L267.603 142.95C267.678 142.931 267.737 142.875 267.76 142.802C267.783 142.729 267.766 142.649 267.715 142.592L265.998 139.533L255.415 139.196L252.464 140.749" fill="black"/>
    <path d="M0 112.197C2.49878 116.158 3.03562 117.243 6.44908 120.177C15.7937 128.214 27.6187 134.051 40.3496 136.907L41.6289 133.46C41.6289 133.46 8.17061 126.915 0 101.306" fill="#141B38"/>
    <path d="M36.9749 144.877C36.0723 140.691 36.8629 136.006 40.2051 132.897C42.6923 130.584 46.3128 129.386 49.94 129.052C53.5672 128.718 57.2148 129.18 60.7979 129.754C66.1353 130.605 71.7035 131.84 75.5852 135.134C70.923 136.637 66.0939 137.568 61.2051 137.906C65.5314 139.074 70.4615 140.749 71.7781 144.516C68.009 145.475 64.0639 145.524 60.272 144.657C62.2437 146.378 64.0374 148.29 65.6264 150.366C65.9617 150.724 66.1754 151.18 66.2372 151.665C66.2372 152.415 65.4703 153.036 64.6322 153.211C63.7782 153.337 62.9071 153.274 62.0805 153.026C58.618 152.213 55.314 150.837 52.3016 148.955C53.1804 151.318 52.4882 153.907 51.623 156.283C51.0122 157.972 50.2928 159.66 48.9832 161.03C47.6734 162.401 45.6612 163.342 43.6424 163.106C43.0112 160.003 42.7466 157.03 41.1009 154.221C39.289 151.149 38.1829 148.134 36.9749 144.877Z" fill="#B8EAF8"/>
    <path d="M34.9989 102.622C46.1844 103.856 57.2934 105.7 68.2751 108.149C53.6305 115.079 37.8253 122.04 21.7895 119.626C17.0865 118.914 -3.77087 113.283 3.80595 105.752C10.297 99.3207 26.9673 101.745 34.9989 102.622Z" fill="#141B38"/>
    <path d="M107.634 68.0245C107.634 68.0245 114.685 65.8675 123.5 69.915C123.493 69.915 116.028 73.8274 107.634 68.0245Z" fill="#A5B0DF"/>
    <path d="M59.4483 24.889C59.4483 24.889 43.8637 26.3304 33.9694 13.7827C33.9694 13.7827 48.3799 11.0045 59.4483 24.889Z" fill="#A5B0DF"/>
    <path d="M70.7847 48.7895C70.7847 48.7895 75.2568 54.6296 74.4832 64.2572C74.4832 64.2572 68.2161 58.6433 70.7847 48.7895Z" fill="#232F61"/>
    <path d="M81.5647 41.3017C81.5647 41.3017 90.0271 36.2381 102.795 38.3007C102.795 38.3007 94.3703 45.6599 81.5647 41.3017Z" fill="#A5B0DF"/>
    <path d="M126.167 18.5254C126.167 18.5254 122.72 25.0137 113.612 28.3557C113.612 28.3557 116.099 20.3416 126.167 18.5254Z" fill="#232F61"/>
    <path d="M20.9665 57.3364C20.9665 57.3364 31.5768 53.6838 45.1967 59.3619C45.1967 59.3754 34.0606 65.7185 20.9665 57.3364Z" fill="#232F61"/>
    <path d="M127.606 26.3439C127.526 26.7452 127.576 27.162 127.753 27.5321C127.922 27.7902 128.156 28.0006 128.431 28.1431C130.103 29.0661 132.135 29.0661 133.806 28.1431C134.28 27.9106 134.665 27.5284 134.899 27.0561C135.12 26.5637 134.966 25.9842 134.528 25.6653C134.265 25.5526 133.99 25.4678 133.708 25.4121C133.436 25.3243 133.158 25.1049 133.174 24.818C133.192 24.531 133.477 24.3555 133.718 24.2069C134.192 23.9141 134.62 23.5522 134.987 23.1335C135.133 22.9914 135.231 22.8071 135.265 22.6068C135.299 22.1917 134.844 21.898 134.431 21.8406C134.017 21.7832 133.575 21.8406 133.185 21.7022C134.111 21.0912 134.987 19.8523 133.677 19.3965C132.717 19.0589 131.607 19.9974 130.919 20.5342C129.086 21.9592 127.896 24.0479 127.606 26.3439Z" fill="#B8EAF8"/>
    <path d="M39.5076 42.4697C38.8017 43.2256 38.1573 44.0362 37.5803 44.8935C37.2164 45.3739 36.9607 45.9265 36.8304 46.5139C36.7089 47.1123 36.9217 47.7293 37.3868 48.1275C37.9399 48.5326 38.7 48.4279 39.3718 48.3064L43.8711 47.4962C44.2035 47.4092 44.5514 47.3977 44.889 47.4625C45.5439 47.638 45.9273 48.3571 45.9341 49.0288C45.8989 49.7018 45.7184 50.3591 45.4048 50.9564C46.4053 50.7798 47.366 50.4265 48.2415 49.9133C48.5336 49.7637 48.7858 49.5474 48.9777 49.282C49.368 48.6743 49.1134 47.827 48.5943 47.3206C48.0372 46.8568 47.3818 46.5244 46.6772 46.3485C47.4566 46.3174 48.2222 46.1338 48.9303 45.8084C49.6089 45.437 50.1619 44.7113 50.077 43.9415C49.9787 43.0436 49.0796 42.4292 48.1939 42.2537C47.3083 42.0781 46.3854 42.1692 45.4794 42.0478C47.1674 41.4852 48.3266 39.9389 48.3874 38.1689C48.4175 37.9472 48.3451 37.7239 48.1905 37.5614C48.0407 37.4679 47.8645 37.4253 47.6884 37.4398C46.4024 37.4162 44.9501 37.4398 44.078 38.3952C45.3403 35.0194 40.5526 34.1417 40.081 36.5554C39.8706 37.6154 41.2753 38.1825 41.3636 39.256C41.4722 40.5557 40.3151 41.5954 39.5076 42.4697Z" fill="#B8EAF8"/>
    <path d="M86.3022 55.112C86.0501 55.0855 85.7953 55.1143 85.5556 55.1964C85.2092 55.3737 84.9479 55.681 84.8296 56.0505C83.8116 58.5688 86.0951 61.401 85.4335 64.0307C86.2125 64.0924 86.9561 63.6968 87.3371 63.0181C87.7032 62.3508 87.8989 61.6042 87.9072 60.844C87.7729 61.523 87.8019 62.2241 87.9919 62.8897C88.1979 63.566 88.7976 64.0489 89.5052 64.1084C89.794 64.1273 90.0695 63.9856 90.2212 63.7404C90.2807 63.5868 90.3051 63.4218 90.2924 63.2577V60.3275C90.4349 61.0364 91.1814 61.4382 91.8702 61.6778C92.559 61.9176 93.3259 62.11 93.7433 62.6906C93.7134 61.5099 93.403 60.3531 92.8373 59.3149C93.1223 59.8381 95.0835 60.5133 95.6603 60.7258C97.1804 55.9729 89.3186 55.1998 86.3022 55.112Z" fill="#B8EAF8"/>
</svg>