<svg viewBox="0 0 1440 51" fill="none" xmlns="http://www.w3.org/2000/svg">
    <path d="M0 0.684157L5.55387e-06 38.3308L3.60001 38.5841L7.20001 38.8374L10.8 39.0841L14.4 39.3308L18 39.5841L21.6 39.8241L25.2 40.0708L28.8 40.3174L32.4 40.5574L36 40.7974L39.6 41.0374L43.2 41.2708L46.8 41.5041L50.4 41.7374L54 41.9708L57.6 42.1974L61.2 42.4241L64.8 42.6508L68.4 42.8708L72 43.0974L75.6 43.3108L79.2 43.5308L82.8 43.7441L86.4 43.9574L90 44.1641L93.6 44.3708L97.2 44.5708L100.8 44.7774L104.4 44.9708L108 45.1708L111.6 45.3641L115.2 45.5508L118.8 45.7374L122.4 45.9241L126 46.1041L129.6 46.2841L133.2 46.4641L136.8 46.6308L140.4 46.8041L144 46.9708L147.6 47.1308L151.2 47.2908L154.8 47.4508L158.4 47.6041L162 47.7508L165.6 47.8974L169.2 48.0441L172.8 48.1841L176.4 48.3174L180 48.4508L183.6 48.5774L187.2 48.7041L190.8 48.8308L194.4 48.9441L198 49.0574L201.6 49.1708L205.2 49.2774L208.8 49.3841L212.4 49.4841L216 49.5774L219.6 49.6708L223.2 49.7574L226.8 49.8441L230.4 49.9241L234 49.9974L237.6 50.0708L241.2 50.1374L244.8 50.2041L248.4 50.2641L252 50.3174L255.6 50.3708L259.2 50.4174L262.8 50.4641L266.4 50.5041L270 50.5441L273.6 50.5708L277.2 50.6041L280.8 50.6241L284.4 50.6441L288 50.6641L291.6 50.6707L295.2 50.6774L298.8 50.6841H302.4L306 50.6774L309.6 50.6707L313.2 50.6574L316.8 50.6374L320.4 50.6174L324 50.5908L327.6 50.5641L331.2 50.5308L334.8 50.4908L338.4 50.4507L342 50.4041L345.6 50.3574L349.2 50.3041L352.8 50.2441L356.4 50.1841L360 50.1174L363.6 50.0441L367.2 49.9707L370.8 49.8974L374.4 49.8108L378 49.7308L381.6 49.6374L385.2 49.5441L388.8 49.4507L392.4 49.3507L396 49.2441L399.6 49.1374L403.2 49.0241L406.8 48.9041L410.4 48.7908L414 48.6641L417.6 48.5374L421.2 48.4041L424.8 48.2708L428.4 48.1374L432 47.9974L435.6 47.8507L439.2 47.7041L442.8 47.5508L446.4 47.3974L450 47.2374L453.6 47.0774L457.2 46.9174L460.8 46.7441L464.4 46.5774L468 46.4041L471.6 46.2241L475.2 46.0441L478.8 45.8641L482.4 45.6774L486 45.4908L489.6 45.2974L493.2 45.1041L496.8 44.9107L500.4 44.7107L504 44.5041L507.6 44.3041L511.2 44.0908L514.8 43.8841L518.4 43.6707L522 43.4574L525.6 43.2374L529.2 43.0241L532.8 42.7974L536.4 42.5774L540 42.3508L543.6 42.1241L547.2 41.8907L550.8 41.6641L554.4 41.4307L558 41.1907L561.6 40.9574L565.2 40.7174L568.8 40.4774L572.4 40.2308L576 39.9908L579.6 39.7441L583.2 39.4974L586.8 39.2508L590.4 39.0041L594 38.7508L597.6 38.4974L601.2 38.2441L604.8 37.9908L608.4 37.7374L612 37.4841L615.6 37.2241L619.2 36.9708L622.8 36.7108L626.4 36.4508L630 36.1908L633.6 35.9308L637.2 35.6708L640.8 35.4108L644.4 35.1508L648 34.8908L651.6 34.6308L655.2 34.3641L658.8 34.1041L662.4 33.8441L666 33.5841L669.6 33.3174L673.2 33.0574L676.8 32.7974L680.4 32.5374L684 32.2774L687.6 32.0174L691.2 31.7574L694.8 31.4974L698.4 31.2374L702 30.9774L705.6 30.7241L709.2 30.4641L712.8 30.2108L716.4 29.9574L720 29.7041L723.6 29.4508L727.2 29.1974L730.8 28.9508L734.4 28.7041L738 28.4508L741.6 28.2108L745.2 27.9641L748.8 27.7174L752.4 27.4774L756 27.2374L759.6 26.9974L763.2 26.7641L766.8 26.5308L770.4 26.2974L774 26.0641L777.6 25.8374L781.2 25.6108L784.8 25.3841L788.4 25.1641L792 24.9374L795.6 24.7241L799.2 24.5041L802.8 24.2908L806.4 24.0774L810 23.8708L813.6 23.6641L817.2 23.4641L820.8 23.2574L824.4 23.0641L828 22.8641L831.6 22.6708L835.2 22.4841L838.8 22.2974L842.4 22.1108L846 21.9308L849.6 21.7508L853.2 21.5708L856.8 21.4041L860.4 21.2308L864 21.0641L867.6 20.9041L871.2 20.7441L874.8 20.5841L878.4 20.4308L882 20.2841L885.6 20.1374L889.2 19.9908L892.8 19.8508L896.4 19.7174L900 19.5841L903.6 19.4574L907.2 19.3308L910.8 19.2041L914.4 19.0908L918 18.9774L921.6 18.8641L925.2 18.7574L928.8 18.6508L932.4 18.5508L936 18.4574L939.6 18.3641L943.2 18.2774L946.8 18.1908L950.4 18.1108L954 18.0374L957.6 17.9641L961.2 17.8974L964.8 17.8308L968.4 17.7708L972 17.7174L975.6 17.6641L979.2 17.6174L982.8 17.5708L986.4 17.5308L990 17.4908L993.6 17.4641L997.2 17.4308L1000.8 17.4108L1004.4 17.3908L1008 17.3708L1011.6 17.3641L1015.2 17.3574L1018.8 17.3508H1022.4L1026 17.3574L1029.6 17.3641L1033.2 17.3774L1036.8 17.3974L1040.4 17.4174L1044 17.4441L1047.6 17.4708L1051.2 17.5041L1054.8 17.5441L1058.4 17.5841L1062 17.6308L1065.6 17.6774L1069.2 17.7308L1072.8 17.7908L1076.4 17.8508L1080 17.9174L1083.6 17.9908L1087.2 18.0641L1090.8 18.1374L1094.4 18.2241L1098 18.3041L1101.6 18.3974L1105.2 18.4908L1108.8 18.5841L1112.4 18.6841L1116 18.7908L1119.6 18.8974L1123.2 19.0107L1126.8 19.1308L1130.4 19.2441L1134 19.3708L1137.6 19.4974L1141.2 19.6308L1144.8 19.7641L1148.4 19.8974L1152 20.0374L1155.6 20.1841L1159.2 20.3308L1162.8 20.4841L1166.4 20.6374L1170 20.7974L1173.6 20.9574L1177.2 21.1174L1180.8 21.2908L1184.4 21.4574L1188 21.6308L1191.6 21.8107L1195.2 21.9907L1198.8 22.1708L1202.4 22.3574L1206 22.5441L1209.6 22.7374L1213.2 22.9307L1216.8 23.1241L1220.4 23.3241L1224 23.5307L1227.6 23.7307L1231.2 23.9441L1234.8 24.1507L1238.4 24.3641L1242 24.5774L1245.6 24.7974L1249.2 25.0107L1252.8 25.2374L1256.4 25.4574L1260 25.6841L1263.6 25.9107L1267.2 26.1441L1270.8 26.3707L1274.4 26.6041L1278 26.8441L1281.6 27.0774L1285.2 27.3174L1288.8 27.5574L1292.4 27.8041L1296 28.0441L1299.6 28.2907L1303.2 28.5374L1306.8 28.7841L1310.4 29.0307L1314 29.2841L1317.6 29.5374L1321.2 29.7907L1324.8 30.0441L1328.4 30.2974L1332 30.5507L1335.6 30.8107L1339.2 31.0641L1342.8 31.3241L1346.4 31.5841L1350 31.8441L1353.6 32.1041L1357.2 32.3641L1360.8 32.6241L1364.4 32.8841L1368 33.1441L1371.6 33.4041L1375.2 33.6707L1378.8 33.9307L1382.4 34.1907L1386 34.4507L1389.6 34.7174L1393.2 34.9774L1396.8 35.2374L1400.4 35.4974L1404 35.7574L1407.6 36.0174L1411.2 36.2774L1414.8 36.5374L1418.4 36.7974L1422 37.0574L1425.6 37.3107L1429.2 37.5707L1432.8 37.824L1436.4 38.0774L1440 38.3307V0.684082L0 0.684157Z" fill="#FFFCF5"/>
</svg>